<svg xmlns="http://www.w3.org/2000/svg" xmlns:xlink="http://www.w3.org/1999/xlink" contentstyletype="text/css" data-diagram-type="CHEN_EER" height="912px" preserveAspectRatio="none" style="width:1294px;height:912px;background:#FFFFFF;" version="1.1" viewBox="0 0 1294 912" width="1294px" zoomAndPan="magnify"><defs></defs><g><g id="fornecedor"><rect fill="#F1F1F1" height="36.2969" style="stroke:#181818;stroke-width:0.5;" width="96.2549" x="1082.76" y="96.04"></rect><text fill="#000000" font-family="sans-serif" font-size="14" lengthAdjust="spacing" textLength="76.2549" x="1092.76" y="119.0351">fornecedor</text></g><g id="fornecedor/nome"><ellipse cx="1040.8947" cy="20.5236" fill="#F1F1F1" rx="31.0647" ry="14.5236" style="stroke:#181818;stroke-width:0.5;"></ellipse><text fill="#000000" font-family="sans-serif" font-size="14" lengthAdjust="spacing" textLength="39.6895" x="1021.05" y="24.9951">nome</text></g><g id="fornecedor/cnpj"><ellipse cx="1130.8912" cy="20.5236" fill="#F1F1F1" rx="23.7512" ry="14.5236" style="stroke:#181818;stroke-width:0.5;"></ellipse><text fill="#000000" font-family="sans-serif" font-size="14" lengthAdjust="spacing" textLength="29.3467" x="1116.2179" y="24.9951">cnpj</text></g><g id="fornecedor/endereco"><ellipse cx="1238.889" cy="20.5236" fill="#F1F1F1" rx="49.399" ry="14.5236" style="stroke:#181818;stroke-width:0.5;"></ellipse><text fill="#000000" font-family="sans-serif" font-size="14" lengthAdjust="spacing" textLength="65.6182" x="1206.08" y="24.9951">endereco</text></g><g id="produto"><rect fill="#F1F1F1" height="36.2969" style="stroke:#181818;stroke-width:0.5;" width="75.0225" x="891.38" y="475.53"></rect><text fill="#000000" font-family="sans-serif" font-size="14" lengthAdjust="spacing" textLength="55.0225" x="901.38" y="498.5251">produto</text></g><g id="produto/id_fornecedor"><ellipse cx="699.8916" cy="398.9343" fill="#F1F1F1" rx="65.9716" ry="15.5943" style="stroke:#181818;stroke-width:0.5;"></ellipse><text fill="#000000" font-family="sans-serif" font-size="14" lengthAdjust="spacing" textLength="96.0313" x="651.876" y="402.3351">id_fornecedor</text></g><g id="produto/nome"><ellipse cx="831.8947" cy="398.9336" fill="#F1F1F1" rx="31.0647" ry="14.5236" style="stroke:#181818;stroke-width:0.5;"></ellipse><text fill="#000000" font-family="sans-serif" font-size="14" lengthAdjust="spacing" textLength="39.6895" x="812.05" y="403.4051">nome</text></g><g id="produto/marca"><ellipse cx="931.8888" cy="398.9336" fill="#F1F1F1" rx="34.2888" ry="14.5236" style="stroke:#181818;stroke-width:0.5;"></ellipse><text fill="#000000" font-family="sans-serif" font-size="14" lengthAdjust="spacing" textLength="44.249" x="909.7643" y="403.4051">marca</text></g><g id="produto/custo"><ellipse cx="1030.8927" cy="398.9336" fill="#F1F1F1" rx="29.8127" ry="14.5236" style="stroke:#181818;stroke-width:0.5;"></ellipse><text fill="#000000" font-family="sans-serif" font-size="14" lengthAdjust="spacing" textLength="37.9189" x="1011.9333" y="403.4051">custo</text></g><g id="lote"><rect fill="#F1F1F1" height="36.2969" style="stroke:#181818;stroke-width:0.5;" width="46.5576" x="499.61" y="870.06"></rect><text fill="#000000" font-family="sans-serif" font-size="14" lengthAdjust="spacing" textLength="26.5576" x="509.61" y="893.0551">lote</text></g><g id="lote/id_produto"><ellipse cx="61.8908" cy="788.3236" fill="#F1F1F1" rx="55.8908" ry="14.5236" style="stroke:#181818;stroke-width:0.5;"></ellipse><text fill="#000000" font-family="sans-serif" font-size="14" lengthAdjust="spacing" textLength="74.7988" x="24.4913" y="792.7951">id_produto</text></g><g id="lote/id_recebimento"><ellipse cx="223.8898" cy="788.322" fill="#F1F1F1" rx="70.8098" ry="16.562" style="stroke:#181818;stroke-width:0.5;"></ellipse><text fill="#000000" font-family="sans-serif" font-size="14" lengthAdjust="spacing" textLength="108.4111" x="169.6842" y="790.7551">id_recebimento</text></g><g id="lote/quantidade_disponivel"><ellipse cx="421.8927" cy="788.3245" fill="#F1F1F1" rx="91.7227" ry="20.7445" style="stroke:#181818;stroke-width:0.5;"></ellipse><text fill="#000000" font-family="sans-serif" font-size="14" lengthAdjust="spacing" textLength="157.6299" x="343.0778" y="786.5751">quantidade_disponivel</text></g><g id="lote/quantidade_total"><ellipse cx="623.8947" cy="788.3169" fill="#F1F1F1" rx="74.9347" ry="17.3869" style="stroke:#181818;stroke-width:0.5;"></ellipse><text fill="#000000" font-family="sans-serif" font-size="14" lengthAdjust="spacing" textLength="118.5693" x="564.61" y="789.9251">quantidade_total</text></g><g id="recebimento"><rect fill="#F1F1F1" height="36.2969" style="stroke:#181818;stroke-width:0.5;" width="108.6348" x="523.57" y="475.53"></rect><text fill="#000000" font-family="sans-serif" font-size="14" lengthAdjust="spacing" textLength="88.6348" x="533.57" y="498.5251">recebimento</text></g><g id="recebimento/data"><ellipse cx="573.888" cy="398.9336" fill="#F1F1F1" rx="25.298" ry="14.5236" style="stroke:#181818;stroke-width:0.5;"></ellipse><text fill="#000000" font-family="sans-serif" font-size="14" lengthAdjust="spacing" textLength="31.5342" x="558.1209" y="403.4051">data</text></g><g id="fornece"><polygon fill="#F1F1F1" points="1076.89,295.3403,1130.8907,268.34,1184.8913,295.3403,1130.8907,322.3407" style="stroke:#181818;stroke-width:0.5;"></polygon><text fill="#000000" font-family="sans-serif" font-size="14" lengthAdjust="spacing" textLength="53.0469" x="1104.3672" y="300.187">fornece</text></g><g id="contem"><polygon fill="#F1F1F1" points="680.98,677.1976,734.8952,650.24,788.8104,677.1976,734.8952,704.1552" style="stroke:#181818;stroke-width:0.5;"></polygon><text fill="#000000" font-family="sans-serif" font-size="14" lengthAdjust="spacing" textLength="52.876" x="708.4572" y="682.0443">contem</text></g><g id="pertence"><polygon fill="#F1F1F1" points="850.14,677.2041,908.8882,647.83,967.6364,677.2041,908.8882,706.5782" style="stroke:#181818;stroke-width:0.5;"></polygon><text fill="#000000" font-family="sans-serif" font-size="14" lengthAdjust="spacing" textLength="62.542" x="877.6172" y="682.0508">pertence</text></g><!--link fornecedor/nome to fornecedor--><g id="link_fornecedor/nome_fornecedor"><path d="M1053.4,34.27 C1069.15,50.3 1096.26,77.92 1113.88,95.86 " fill="none" id="fornecedor/nome-fornecedor" style="stroke:#181818;stroke-width:1;"></path></g><!--link fornecedor/cnpj to fornecedor--><g id="link_fornecedor/cnpj_fornecedor"><path d="M1130.89,35.44 C1130.89,51.57 1130.89,78.16 1130.89,95.68 " fill="none" id="fornecedor/cnpj-fornecedor" style="stroke:#181818;stroke-width:1;"></path></g><!--link fornecedor/endereco to fornecedor--><g id="link_fornecedor/endereco_fornecedor"><path d="M1223.42,34.65 C1204.52,50.69 1172.49,77.88 1151.51,95.69 " fill="none" id="fornecedor/endereco-fornecedor" style="stroke:#181818;stroke-width:1;"></path></g><!--link produto/id_fornecedor to produto--><g id="link_produto/id_fornecedor_produto"><path d="M731.73,412.83 C773.52,429.75 846.75,459.41 891.24,477.43 " fill="none" id="produto/id_fornecedor-produto" style="stroke:#181818;stroke-width:1;"></path></g><!--link produto/nome to produto--><g id="link_produto/nome_produto"><path d="M844.97,412.44 C861.93,428.66 891.6,457.03 910.74,475.32 " fill="none" id="produto/nome-produto" style="stroke:#181818;stroke-width:1;"></path></g><!--link produto/marca to produto--><g id="link_produto/marca_produto"><path d="M931.45,413.62 C930.92,429.94 930.04,457.27 929.46,475.13 " fill="none" id="produto/marca-produto" style="stroke:#181818;stroke-width:1;"></path></g><!--link produto/custo to produto--><g id="link_produto/custo_produto"><path d="M1017.56,412.06 C999.84,428.16 968.44,456.72 948.15,475.17 " fill="none" id="produto/custo-produto" style="stroke:#181818;stroke-width:1;"></path></g><!--link lote/id_produto to lote--><g id="link_lote/id_produto_lote"><path d="M98.67,799.61 C110.51,802.79 123.72,806.21 135.89,809.06 C272.71,841.1 438.57,871.94 499.22,882.96 " fill="none" id="lote/id_produto-lote" style="stroke:#181818;stroke-width:1;"></path></g><!--link lote/id_recebimento to lote--><g id="link_lote/id_recebimento_lote"><path d="M263.9,802.42 C327.08,823.1 447.99,862.69 499.12,879.43 " fill="none" id="lote/id_recebimento-lote" style="stroke:#181818;stroke-width:1;"></path></g><!--link lote/quantidade_disponivel to lote--><g id="link_lote/quantidade_disponivel_lote"><path d="M441.85,808.66 C460.24,826.49 487.3,852.72 505.01,869.88 " fill="none" id="lote/quantidade_disponivel-lote" style="stroke:#181818;stroke-width:1;"></path></g><!--link lote/quantidade_total to lote--><g id="link_lote/quantidade_total_lote"><path d="M607.21,805.48 C588.95,823.19 559.76,851.48 540.96,869.7 " fill="none" id="lote/quantidade_total-lote" style="stroke:#181818;stroke-width:1;"></path></g><!--link recebimento/data to recebimento--><g id="link_recebimento/data_recebimento"><path d="M574.48,413.62 C575.19,429.94 576.36,457.27 577.13,475.13 " fill="none" id="recebimento/data-recebimento" style="stroke:#181818;stroke-width:1;"></path></g><!--link fornecedor to fornece--><g id="link_fornecedor_fornece"><path d="M1130.89,132.7 C1130.89,164.21 1130.89,230.69 1130.89,267.82 " fill="none" id="fornecedor-fornece" style="stroke:#181818;stroke-width:1;"></path><text fill="#000000" font-family="sans-serif" font-size="11" lengthAdjust="spacing" textLength="6.9985" x="1131.89" y="204.5504">1</text></g><!--link fornece to produto--><g id="link_fornece_produto"><path d="M1125.33,319.81 C1118.16,345.71 1103.46,387.33 1077.89,414.53 C1047.18,447.19 999.72,468.78 966.65,480.83 " fill="none" id="fornece-produto" style="stroke:#181818;stroke-width:1;"></path><text fill="#000000" font-family="sans-serif" font-size="11" lengthAdjust="spacing" textLength="8.2285" x="1100.89" y="403.1404">N</text></g><!--link produto to pertence--><g id="link_produto_pertence"><path d="M926.97,512.08 C923.48,543.76 916.07,611.05 911.9,648.89 " fill="none" id="produto-pertence" style="stroke:#181818;stroke-width:1;"></path><text fill="#000000" font-family="sans-serif" font-size="11" lengthAdjust="spacing" textLength="6.9985" x="921.89" y="584.0404">1</text></g><!--link pertence to lote--><g id="link_pertence_lote"><path d="M891.07,698.08 C858.68,732.86 786.39,804.44 709.89,840.06 C654.5,865.86 583.05,878.84 546.59,884.16 " fill="none" id="pertence-lote" style="stroke:#181818;stroke-width:1;"></path><text fill="#000000" font-family="sans-serif" font-size="11" lengthAdjust="spacing" textLength="8.2285" x="819.89" y="792.5304">N</text></g><!--link recebimento to contem--><g id="link_recebimento_contem"><path d="M592.94,512.08 C622.65,546.42 688.54,622.61 718.95,657.77 " fill="none" id="recebimento-contem" style="stroke:#181818;stroke-width:1;"></path><text fill="#000000" font-family="sans-serif" font-size="11" lengthAdjust="spacing" textLength="6.9985" x="658.89" y="584.0404">1</text></g><!--link contem to lote--><g id="link_contem_lote"><path d="M738.12,702.95 C740.44,731.56 739.76,778.63 715.89,809.06 C673.61,862.96 588.17,879.89 546.64,885.04 " fill="none" id="contem-lote" style="stroke:#181818;stroke-width:1;"></path><text fill="#000000" font-family="sans-serif" font-size="11" lengthAdjust="spacing" textLength="8.2285" x="735.89" y="792.5304">N</text></g><!--SRC=[RP51Jm8n48NFz5Vq28SbGWXHJaHH4mGb8bn9sGvGtPsktIc66F-xKw7iQhpjphptzVLrM99obEu0XG0aGmUviGuX1MsT_1GDj3c8Heh5gsW0Qd2GMl5r5XVEQaysA8rULTPep9LB5VjzINLRPWbEdXFXvvlXi3OvY_Z_tIiMQwLXfKrPM3Hxo7wDoPBAQjIQFS2r8XMs3Z95ncAvCqMy7U__RbAB1Fa_Ym8S0KPFhPwaaqHU7ClaCOcb217R2S984MTSa8OYmd5LyA0zHX6dH9Lko2zmVAjPnYqifXEv1rToKDbfTo-wlVRL6aZrcmjyG_k13CeBau4aXhT4ytusaQNrZW_dIicPjG-tR8cnsYlvx37e1lAf01oF7k90tkBUE8iXdnWlfvMWtqkk3SavE8uXbrCnWeto6R4ZjThWTY0NBtV9fPWet7grPJQ7lx7CTGVUpRy1]--></g></svg>