<svg xmlns="http://www.w3.org/2000/svg" xmlns:xlink="http://www.w3.org/1999/xlink" xmlns:lucid="lucid" width="5438.49" height="772.5"><g transform="translate(-2359.5 62)" lucid:page-tab-id=".Q4MUjXso07N"><path d="M2000-500h6000v1500H2000z" fill="#fff"/><path d="M2902.77-19.37c0 10.9-8.84 19.75-19.75 19.75-10.9 0-19.75-8.84-19.75-19.75 0-10.9 8.84-19.75 19.75-19.75 10.9 0 19.75 8.84 19.75 19.75z" stroke="#333" stroke-width="4" fill="#fff"/><path d="M2883.02.38v49.3a19.48 19.48 0 0 0 3.37 10.96l39.64 58.24m-43.02-63.2l-43.02 63.2m0-98.75h86.04" stroke="#333" stroke-width="4" fill="none"/><path d="M2840-33.12a6 6 0 0 1 6-6h74.04a6 6 0 0 1 6 6v168a6 6 0 0 1-6 6H2846a6 6 0 0 1-6-6z" fill="none"/><use xlink:href="#a" transform="matrix(1,0,0,1,2760,118.88248551773631) translate(59.346296296296316 17.95555555555555)"/><use xlink:href="#b" transform="matrix(1,0,0,1,2760,118.88248551773631) translate(106.66666666666666 17.95555555555555)"/><path d="M5242.77-40.25c0 10.9-8.85 19.75-19.75 19.75s-19.75-8.84-19.75-19.75c0-10.9 8.84-19.75 19.75-19.75 10.9 0 19.75 8.84 19.75 19.75z" stroke="#333" stroke-width="4" fill="#fff"/><path d="M5223.02-20.5v49.3a19.48 19.48 0 0 0 3.37 10.96L5266.03 98m-43.02-63.2L5180 98m0-98.75h86.04" stroke="#333" stroke-width="4" fill="none"/><path d="M5180-54a6 6 0 0 1 6-6h74.04a6 6 0 0 1 6 6v168a6 6 0 0 1-6 6H5186a6 6 0 0 1-6-6z" fill="none"/><use xlink:href="#c" transform="matrix(1,0,0,1,5100,98) translate(47.500617283950646 17.95555555555555)"/><use xlink:href="#d" transform="matrix(1,0,0,1,5100,98) translate(94.82098765432099 17.95555555555555)"/><path d="M5160 340.88c0 33.14-35.82 60-80 60s-80-26.86-80-60c0-33.13 35.82-60 80-60s80 26.87 80 60z" stroke="#000" fill="#4d9eff"/><use xlink:href="#e" transform="matrix(1,0,0,1,5024,304.88248551773637) translate(16.574999999999996 28.799999999999997)"/><use xlink:href="#f" transform="matrix(1,0,0,1,5024,304.88248551773637) translate(24.525 50.4)"/><path d="M5520 340c0 33.14-35.82 60-80 60s-80-26.86-80-60 35.82-60 80-60 80 26.86 80 60z" stroke="#000" fill="#4d9eff"/><use xlink:href="#g" transform="matrix(1,0,0,1,5384,304) translate(17.574999999999996 28.799999999999997)"/><use xlink:href="#f" transform="matrix(1,0,0,1,5384,304) translate(24.525 50.4)"/><path d="M5720 340.88c0 33.14-35.82 60-80 60s-80-26.86-80-60c0-33.13 35.82-60 80-60s80 26.87 80 60z" stroke="#000" fill="#4d9eff"/><use xlink:href="#h" transform="matrix(1,0,0,1,5584,304.8824855177363) translate(29.074999999999996 28.799999999999997)"/><use xlink:href="#f" transform="matrix(1,0,0,1,5584,304.8824855177363) translate(24.525 50.4)"/><path d="M7202.77-10.25c0 10.9-8.85 19.75-19.75 19.75s-19.75-8.84-19.75-19.75c0-10.9 8.84-19.75 19.75-19.75 10.9 0 19.75 8.84 19.75 19.75z" stroke="#333" stroke-width="4" fill="#fff"/><path d="M7183.02 9.5v49.3a19.48 19.48 0 0 0 3.37 10.96l39.64 58.24m-43.02-63.2L7140 128m0-98.75h86.04" stroke="#333" stroke-width="4" fill="none"/><path d="M7140-24a6 6 0 0 1 6-6h74.04a6 6 0 0 1 6 6v168a6 6 0 0 1-6 6H7146a6 6 0 0 1-6-6z" fill="none"/><use xlink:href="#c" transform="matrix(1,0,0,1,7060,128) translate(51.86481481481485 17.95555555555555)"/><use xlink:href="#i" transform="matrix(1,0,0,1,7060,128) translate(99.18518518518519 17.95555555555555)"/><path d="M2700 340.88c0 33.14-35.82 60-80 60s-80-26.86-80-60c0-33.13 35.82-60 80-60s80 26.87 80 60z" stroke="#000" fill="#4d9eff"/><use xlink:href="#e" transform="matrix(1,0,0,1,2564,304.88248551773637) translate(16.574999999999996 28.799999999999997)"/><use xlink:href="#j" transform="matrix(1,0,0,1,2564,304.88248551773637) translate(22.049999999999997 50.4)"/><path d="M3240 340.88c0 33.14-35.82 60-80 60s-80-26.86-80-60c0-33.13 35.82-60 80-60s80 26.87 80 60z" stroke="#000" fill="#4d9eff"/><use xlink:href="#k" transform="matrix(1,0,0,1,3104,304.88248551773637) translate(21.074999999999996 28.799999999999997)"/><use xlink:href="#j" transform="matrix(1,0,0,1,3104,304.88248551773637) translate(22.049999999999997 50.4)"/><path d="M2880 340.88c0 33.14-35.82 60-80 60s-80-26.86-80-60c0-33.13 35.82-60 80-60s80 26.87 80 60z" stroke="#000" fill="#4d9eff"/><use xlink:href="#h" transform="matrix(1,0,0,1,2744,304.88248551773637) translate(29.074999999999996 28.799999999999997)"/><use xlink:href="#j" transform="matrix(1,0,0,1,2744,304.88248551773637) translate(22.049999999999997 50.4)"/><path d="M3060 340.88c0 33.14-35.82 60-80 60s-80-26.86-80-60c0-33.13 35.82-60 80-60s80 26.87 80 60z" stroke="#000" fill="#4d9eff"/><use xlink:href="#g" transform="matrix(1,0,0,1,2924,304.88248551773637) translate(17.574999999999996 28.799999999999997)"/><use xlink:href="#j" transform="matrix(1,0,0,1,2924,304.88248551773637) translate(22.049999999999997 50.4)"/><path d="M4800 340.38c0 33.14-35.82 60-80 60s-80-26.86-80-60c0-33.13 35.82-60 80-60s80 26.87 80 60z" stroke="#000" fill="#4d9eff"/><use xlink:href="#l" transform="matrix(1,0,0,1,4664,304.3824812407661) translate(19.599999999999994 28.799999999999997)"/><use xlink:href="#m" transform="matrix(1,0,0,1,4664,304.3824812407661) translate(13.549999999999997 50.4)"/><path d="M7100 370c0 33.14-35.82 60-80 60s-80-26.86-80-60 35.82-60 80-60 80 26.86 80 60z" stroke="#000" fill="#4d9eff"/><use xlink:href="#g" transform="matrix(1,0,0,1,6964,334) translate(17.574999999999996 28.799999999999997)"/><use xlink:href="#n" transform="matrix(1,0,0,1,6964,334) translate(24 50.4)"/><path d="M7402.5 371.25c0 33.13-35.8 60-80 60-44.17 0-80-26.87-80-60 0-33.14 35.83-60 80-60 44.2 0 80 26.86 80 60z" stroke="#000" fill="#4d9eff"/><use xlink:href="#l" transform="matrix(1,0,0,1,7266.50892,335.24509671512214) translate(19.599999999999994 28.799999999999997)"/><use xlink:href="#o" transform="matrix(1,0,0,1,7266.50892,335.24509671512214) translate(31.5 50.4)"/><path d="M7322.98 559.5h-.95V555h.95zm0-31.44h-.95v-12.38h.95zm0-23.33h-.95v-21.9h.95zm0-32.87h-.95V460.9h.95z" stroke="#333" stroke-width=".05" fill="#333"/><path d="M7332.92 478.08l-.82.48-9.6-16.6-9.58 16.6-.82-.48 10.4-18.03zM7322.98 560h-.95v-.5h.95z" stroke="#333" stroke-width=".05" fill="#333"/><use xlink:href="#p" transform="matrix(1,0,0,1,7260.84904345679,528.0563211012577) translate(0.005000000000002558 17.955555555555552)"/><path d="M7402.5 650c0 33.14-35.8 60-80 60-44.17 0-80-26.86-80-60s35.83-60 80-60c44.2 0 80 26.86 80 60z" stroke="#000" fill="#4d9eff"/><use xlink:href="#q" transform="matrix(1,0,0,1,7266.50892,614) translate(22.124999999999993 28.799999999999997)"/><use xlink:href="#o" transform="matrix(1,0,0,1,7266.50892,614) translate(31.5 50.4)"/><path d="M7139.5 50H7032a12 12 0 0 0-12 12v217.5M7139.5 50h.5M7020 279.5v.5M7220.5 50h87.5a12 12 0 0 1 12 12v217.5M7220.5 50h-.5M7320 279.5v.5" stroke="#333" fill="none"/><path d="M4980 340.38c0 33.14-35.82 60-80 60s-80-26.86-80-60c0-33.13 35.82-60 80-60s80 26.87 80 60z" stroke="#000" fill="#4d9eff"/><use xlink:href="#k" transform="matrix(1,0,0,1,4844,304.3824812407661) translate(21.074999999999996 28.799999999999997)"/><use xlink:href="#r" transform="matrix(1,0,0,1,4844,304.3824812407661) translate(20.025 50.4)"/><path d="M2940.5 40.88H3148a12 12 0 0 1 12 12v207.5M2940.5 40.88h-.5M3160 260.37v.5" stroke="#333" fill="none"/><path d="M2975.06 40.88a4.94 4.94 0 0 1 4.94 4.94v214.56M2975.07 40.88h-.5M2980 260.37v.5M2839.5 40.88H2812a12 12 0 0 0-12 12v207.5M2839.5 40.88h.5M2800 260.37v.5" stroke="#333" fill="none"/><path d="M2818.92 40.88H2632a12 12 0 0 0-12 12v207.5M2818.9 40.88h.52M2620 260.37v.5M5280.5 20H5628a12 12 0 0 1 12 12v227.5M5280.5 20h-.5M5640 259.5v.5" stroke="#333" fill="none"/><path d="M5280.5 20H5428a12 12 0 0 1 12 12v227.5M5280.5 20h-.5M5440 259.5v.5M5080 259.5V32a12 12 0 0 1 12-12h67.5M5080 259.5v.5M5159.5 20h.5" stroke="#333" fill="none"/><path d="M4900 259.5V32a12 12 0 0 1 12-12h247.5M4900 259.5v.5M5159.5 20h.5" stroke="#333" fill="none"/><path d="M4720 259.5V32a12 12 0 0 1 12-12h427.5M4720 259.5v.5M5159.5 20h.5" stroke="#333" fill="none"/><path d="M5920 340.88c0 33.14-35.82 60-80 60s-80-26.86-80-60c0-33.13 35.82-60 80-60s80 26.87 80 60z" stroke="#000" fill="#4d9eff"/><use xlink:href="#s" transform="matrix(1,0,0,1,5784,304.8824855177363) translate(33.025 39.6)"/><path d="M5840 259.5V32a12 12 0 0 0-12-12h-547.5M5840 259.5v.5M5280.5 20h-.5" stroke="#333" fill="none"/><path d="M2520 340.88c0 33.14-35.82 60-80 60s-80-26.86-80-60c0-33.13 35.82-60 80-60s80 26.87 80 60z" stroke="#000" fill="#4d9eff"/><use xlink:href="#s" transform="matrix(1,0,0,1,2384,304.88248551773637) translate(33.025 39.6)"/><path d="M2440 260.38V52.88a12 12 0 0 1 12-12h349.1M2440 260.37v.5M2801.1 40.88h.5" stroke="#333" fill="none"/><path d="M7797.5 360c0 33.14-35.83 60-80 60-44.2 0-80-26.86-80-60s35.8-60 80-60c44.17 0 80 26.86 80 60z" stroke="#000" fill="#4d9eff"/><use xlink:href="#s" transform="matrix(1,0,0,1,7661.49108,323.99999999999994) translate(33.025 39.6)"/><path d="M3420 340.88c0 33.14-35.82 60-80 60s-80-26.86-80-60c0-33.13 35.82-60 80-60s80 26.87 80 60z" stroke="#000" fill="#4d9eff"/><use xlink:href="#e" transform="matrix(1,0,0,1,3284,304.88248551773637) translate(16.574999999999996 28.799999999999997)"/><use xlink:href="#t" transform="matrix(1,0,0,1,3284,304.88248551773637) translate(18.025 50.4)"/><path d="M3600 340.88c0 33.14-35.82 60-80 60s-80-26.86-80-60c0-33.13 35.82-60 80-60s80 26.87 80 60z" stroke="#000" fill="#4d9eff"/><use xlink:href="#u" transform="matrix(1,0,0,1,3464,304.88248551773637) translate(13.624999999999993 28.799999999999997)"/><use xlink:href="#t" transform="matrix(1,0,0,1,3464,304.88248551773637) translate(18.025 50.4)"/><path d="M3780 340.88c0 33.14-35.82 60-80 60s-80-26.86-80-60c0-33.13 35.82-60 80-60s80 26.87 80 60z" stroke="#000" fill="#4d9eff"/><use xlink:href="#g" transform="matrix(1,0,0,1,3644,304.88248551773637) translate(17.574999999999996 28.799999999999997)"/><use xlink:href="#v" transform="matrix(1,0,0,1,3644,304.88248551773637) translate(13.524999999999999 50.4)"/><path d="M3960 340.88c0 33.14-35.82 60-80 60s-80-26.86-80-60c0-33.13 35.82-60 80-60s80 26.87 80 60z" stroke="#000" fill="#4d9eff"/><use xlink:href="#k" transform="matrix(1,0,0,1,3824,304.88248551773637) translate(21.074999999999996 28.799999999999997)"/><use xlink:href="#t" transform="matrix(1,0,0,1,3824,304.88248551773637) translate(18.025 50.4)"/><path d="M3340 260.38V52.88a12 12 0 0 0-12-12h-187.5M3340 260.37v.5M3140.5 40.88h-.5" stroke="#333" fill="none"/><path d="M3520 260.38V52.88a12 12 0 0 0-12-12h-179.78M3520 260.37v.5M3328.23 40.88h-.5" stroke="#333" fill="none"/><path d="M3700 260.38V52.88a12 12 0 0 0-12-12h-198.86M3700 260.37v.5M3489.15 40.88h-.5" stroke="#333" fill="none"/><path d="M3880 260.38V52.88a12 12 0 0 0-12-12h-189.6M3880 260.37v.5M3678.4 40.88h-.5" stroke="#333" fill="none"/><path d="M7600 370c0 33.14-35.82 60-80 60s-80-26.86-80-60 35.82-60 80-60 80 26.86 80 60z" stroke="#000" fill="#4d9eff"/><use xlink:href="#w" transform="matrix(1,0,0,1,7464,334) translate(2.0749999999999957 39.6)"/><use xlink:href="#o" transform="matrix(1,0,0,1,7464,334) translate(60.925000000000004 39.6)"/><path d="M7520 279.5V62a12 12 0 0 0-12-12h-197.04M7520 279.5v.5M7310.97 50h-.5" stroke="#333" fill="none"/><path d="M7720 259.5V62a12 12 0 0 0-12-12h-239.5M7720 259.5v.5M7468.5 50h-.5" stroke="#333" fill="none"/><path d="M6120 340.88c0 33.14-35.82 60-80 60s-80-26.86-80-60c0-33.13 35.82-60 80-60s80 26.87 80 60z" stroke="#000" fill="#4d9eff"/><use xlink:href="#e" transform="matrix(1,0,0,1,5984,304.88248551773637) translate(16.574999999999996 28.799999999999997)"/><use xlink:href="#x" transform="matrix(1,0,0,1,5984,304.88248551773637) translate(10.074999999999996 50.4)"/><path d="M6300 340.88c0 33.14-35.82 60-80 60s-80-26.86-80-60c0-33.13 35.82-60 80-60s80 26.87 80 60z" stroke="#000" fill="#4d9eff"/><use xlink:href="#y" transform="matrix(1,0,0,1,6164,304.88248551773637) translate(29.074999999999996 28.799999999999997)"/><use xlink:href="#x" transform="matrix(1,0,0,1,6164,304.88248551773637) translate(10.074999999999996 50.4)"/><path d="M6480 340.88c0 33.14-35.82 60-80 60s-80-26.86-80-60c0-33.13 35.82-60 80-60s80 26.87 80 60z" stroke="#000" fill="#4d9eff"/><use xlink:href="#g" transform="matrix(1,0,0,1,6344,304.88248551773637) translate(17.574999999999996 28.799999999999997)"/><use xlink:href="#z" transform="matrix(1,0,0,1,6344,304.88248551773637) translate(0.5749999999999957 50.4)"/><path d="M6660 340.88c0 33.14-35.82 60-80 60s-80-26.86-80-60c0-33.13 35.82-60 80-60s80 26.87 80 60z" stroke="#000" fill="#4d9eff"/><use xlink:href="#k" transform="matrix(1,0,0,1,6524,304.88248551773637) translate(21.074999999999996 28.799999999999997)"/><use xlink:href="#x" transform="matrix(1,0,0,1,6524,304.88248551773637) translate(10.074999999999996 50.4)"/><path d="M4260 340.88c0 33.14-35.82 60-80 60s-80-26.86-80-60c0-33.13 35.82-60 80-60s80 26.87 80 60z" stroke="#000" fill="#4d9eff"/><use xlink:href="#h" transform="matrix(1,0,0,1,4124,304.88248551773637) translate(29.074999999999996 28.799999999999997)"/><use xlink:href="#m" transform="matrix(1,0,0,1,4124,304.88248551773637) translate(13.549999999999997 50.4)"/><path d="M4440 340.88c0 33.14-35.82 60-80 60s-80-26.86-80-60c0-33.13 35.82-60 80-60s80 26.87 80 60z" stroke="#000" fill="#4d9eff"/><g><use xlink:href="#g" transform="matrix(1,0,0,1,4304,304.88248551773637) translate(17.574999999999996 28.799999999999997)"/><use xlink:href="#A" transform="matrix(1,0,0,1,4304,304.88248551773637) translate(9.049999999999997 50.4)"/></g><path d="M4620 340.88c0 33.14-35.82 60-80 60s-80-26.86-80-60c0-33.13 35.82-60 80-60s80 26.87 80 60z" stroke="#000" fill="#4d9eff"/><g><use xlink:href="#k" transform="matrix(1,0,0,1,4484,304.88248551773637) translate(21.074999999999996 28.799999999999997)"/><use xlink:href="#m" transform="matrix(1,0,0,1,4484,304.88248551773637) translate(13.549999999999997 50.4)"/></g><path d="M6040 259.5V32a12 12 0 0 0-12-12h-247.88M6040 259.5v.5M5780.13 20h-.5" stroke="#333" fill="none"/><path d="M6220 259.5V32a12 12 0 0 0-12-12h-302.17M6220 259.5v.5M5905.85 20h-.52" stroke="#333" fill="none"/><path d="M6400 259.5V32a12 12 0 0 0-12-12h-232.83M6400 259.5v.5M6155.18 20h-.5" stroke="#333" fill="none"/><path d="M6580 259.5V32a12 12 0 0 0-12-12h-268.83M6580 259.5v.5M6299.18 20h-.5M4540 259.5V32a12 12 0 0 1 12-12h211.5M4540 259.5v.5M4763.5 20h.5" stroke="#333" fill="none"/><path d="M4360 259.5V32a12 12 0 0 1 12-12h219.5M4360 259.5v.5M4591.5 20h.5" stroke="#333" fill="none"/><path d="M4180 259.5V32a12 12 0 0 1 12-12h260.83M4180 259.5v.5M4452.82 20h.5" stroke="#333" fill="none"/><defs><path d="M205 0l-28-72H64L36 0H1l101-248h38L239 0h-34zm-38-99l-47-123c-12 45-31 82-46 123h93" id="B"/><path d="M59-47c-2 24 18 29 38 22v24C64 9 27 4 27-40v-127H5v-23h24l9-43h21v43h35v23H59v120" id="C"/><path d="M100-194c62-1 85 37 85 99 1 63-27 99-86 99S16-35 15-95c0-66 28-99 85-99zM99-20c44 1 53-31 53-75 0-43-8-75-51-75s-53 32-53 75 10 74 51 75" id="D"/><path d="M114-163C36-179 61-72 57 0H25l-1-190h30c1 12-1 29 2 39 6-27 23-49 58-41v29" id="E"/><g id="a"><use transform="matrix(0.06234567901234565,0,0,0.06234567901234565,0,0)" xlink:href="#B"/><use transform="matrix(0.06234567901234565,0,0,0.06234567901234565,14.962962962962957,0)" xlink:href="#C"/><use transform="matrix(0.06234567901234565,0,0,0.06234567901234565,21.19753086419752,0)" xlink:href="#D"/><use transform="matrix(0.06234567901234565,0,0,0.06234567901234565,33.66666666666665,0)" xlink:href="#E"/></g><path d="M143 4C61 4 22-44 18-125c-5-107 100-154 193-111 17 8 29 25 37 43l-32 9c-13-25-37-40-76-40-61 0-88 39-88 99 0 61 29 100 91 101 35 0 62-11 79-27v-45h-74v-28h105v86C228-13 192 4 143 4" id="F"/><path d="M100-194c63 0 86 42 84 106H49c0 40 14 67 53 68 26 1 43-12 49-29l28 8c-11 28-37 45-77 45C44 4 14-33 15-96c1-61 26-98 85-98zm52 81c6-60-76-77-97-28-3 7-6 17-6 28h103" id="G"/><path d="M117-194c89-4 53 116 60 194h-32v-121c0-31-8-49-39-48C34-167 62-67 57 0H25l-1-190h30c1 10-1 24 2 32 11-22 29-35 61-36" id="H"/><g id="b"><use transform="matrix(0.06234567901234565,0,0,0.06234567901234565,0,0)" xlink:href="#F"/><use transform="matrix(0.06234567901234565,0,0,0.06234567901234565,17.456790123456784,0)" xlink:href="#G"/><use transform="matrix(0.06234567901234565,0,0,0.06234567901234565,29.925925925925917,0)" xlink:href="#E"/><use transform="matrix(0.06234567901234565,0,0,0.06234567901234565,37.34506172839505,0)" xlink:href="#G"/><use transform="matrix(0.06234567901234565,0,0,0.06234567901234565,49.814197530864185,0)" xlink:href="#H"/><use transform="matrix(0.06234567901234565,0,0,0.06234567901234565,62.28333333333332,0)" xlink:href="#C"/><use transform="matrix(0.06234567901234565,0,0,0.06234567901234565,68.51790123456789,0)" xlink:href="#G"/></g><g id="c"><use transform="matrix(0.06234567901234565,0,0,0.06234567901234565,0,0)" xlink:href="#B"/><use transform="matrix(0.06234567901234565,0,0,0.06234567901234565,14.962962962962957,0)" xlink:href="#C"/><use transform="matrix(0.06234567901234565,0,0,0.06234567901234565,21.19753086419752,0)" xlink:href="#D"/><use transform="matrix(0.06234567901234565,0,0,0.06234567901234565,33.66666666666665,0)" xlink:href="#E"/></g><path d="M30 0v-248h187v28H63v79h144v27H63v87h162V0H30" id="I"/><path d="M135-143c-3-34-86-38-87 0 15 53 115 12 119 90S17 21 10-45l28-5c4 36 97 45 98 0-10-56-113-15-118-90-4-57 82-63 122-42 12 7 21 19 24 35" id="J"/><path d="M145-31C134-9 116 4 85 4 32 4 16-35 15-94c0-59 17-99 70-100 32-1 48 14 60 33 0-11-1-24 2-32h30l-1 268h-32zM93-21c41 0 51-33 51-76s-8-73-50-73c-40 0-46 35-46 75s5 74 45 74" id="K"/><path d="M84 4C-5 8 30-112 23-190h32v120c0 31 7 50 39 49 72-2 45-101 50-169h31l1 190h-30c-1-10 1-25-2-33-11 22-28 36-60 37" id="L"/><path d="M24-231v-30h32v30H24zM24 0v-190h32V0H24" id="M"/><path d="M141-36C126-15 110 5 73 4 37 3 15-17 15-53c-1-64 63-63 125-63 3-35-9-54-41-54-24 1-41 7-42 31l-33-3c5-37 33-52 76-52 45 0 72 20 72 64v82c-1 20 7 32 28 27v20c-31 9-61-2-59-35zM48-53c0 20 12 33 32 33 41-3 63-29 60-74-43 2-92-5-92 41" id="N"/><g id="d"><use transform="matrix(0.06234567901234565,0,0,0.06234567901234565,0,0)" xlink:href="#I"/><use transform="matrix(0.06234567901234565,0,0,0.06234567901234565,14.962962962962957,0)" xlink:href="#J"/><use transform="matrix(0.06234567901234565,0,0,0.06234567901234565,26.185185185185176,0)" xlink:href="#C"/><use transform="matrix(0.06234567901234565,0,0,0.06234567901234565,32.41975308641974,0)" xlink:href="#D"/><use transform="matrix(0.06234567901234565,0,0,0.06234567901234565,44.88888888888887,0)" xlink:href="#K"/><use transform="matrix(0.06234567901234565,0,0,0.06234567901234565,57.358024691358004,0)" xlink:href="#L"/><use transform="matrix(0.06234567901234565,0,0,0.06234567901234565,69.82716049382714,0)" xlink:href="#M"/><use transform="matrix(0.06234567901234565,0,0,0.06234567901234565,74.75246913580244,0)" xlink:href="#J"/><use transform="matrix(0.06234567901234565,0,0,0.06234567901234565,85.97469135802466,0)" xlink:href="#C"/><use transform="matrix(0.06234567901234565,0,0,0.06234567901234565,92.20925925925923,0)" xlink:href="#N"/></g><path d="M212-179c-10-28-35-45-73-45-59 0-87 40-87 99 0 60 29 101 89 101 43 0 62-24 78-52l27 14C228-24 195 4 139 4 59 4 22-46 18-125c-6-104 99-153 187-111 19 9 31 26 39 46" id="O"/><path d="M85-194c31 0 48 13 60 33l-1-100h32l1 261h-30c-2-10 0-23-3-31C134-8 116 4 85 4 32 4 16-35 15-94c0-66 23-100 70-100zm9 24c-40 0-46 34-46 75 0 40 6 74 45 74 42 0 51-32 51-76 0-42-9-74-50-73" id="P"/><g id="e"><use transform="matrix(0.05,0,0,0.05,0,0)" xlink:href="#O"/><use transform="matrix(0.05,0,0,0.05,12.950000000000001,0)" xlink:href="#N"/><use transform="matrix(0.05,0,0,0.05,22.950000000000003,0)" xlink:href="#P"/><use transform="matrix(0.05,0,0,0.05,32.95,0)" xlink:href="#N"/><use transform="matrix(0.05,0,0,0.05,42.95,0)" xlink:href="#J"/><use transform="matrix(0.05,0,0,0.05,51.95,0)" xlink:href="#C"/><use transform="matrix(0.05,0,0,0.05,56.95,0)" xlink:href="#E"/><use transform="matrix(0.05,0,0,0.05,62.900000000000006,0)" xlink:href="#N"/><use transform="matrix(0.05,0,0,0.05,72.9,0)" xlink:href="#E"/></g><path d="M30-248c87 1 191-15 191 75 0 78-77 80-158 76V0H30v-248zm33 125c57 0 124 11 124-50 0-59-68-47-124-48v98" id="Q"/><g id="f"><use transform="matrix(0.05,0,0,0.05,0,0)" xlink:href="#Q"/><use transform="matrix(0.05,0,0,0.05,12,0)" xlink:href="#E"/><use transform="matrix(0.05,0,0,0.05,17.95,0)" xlink:href="#D"/><use transform="matrix(0.05,0,0,0.05,27.950000000000003,0)" xlink:href="#P"/><use transform="matrix(0.05,0,0,0.05,37.95,0)" xlink:href="#L"/><use transform="matrix(0.05,0,0,0.05,47.95,0)" xlink:href="#C"/><use transform="matrix(0.05,0,0,0.05,52.95,0)" xlink:href="#D"/></g><path d="M24 0v-261h32V0H24" id="R"/><g id="g"><use transform="matrix(0.05,0,0,0.05,0,0)" xlink:href="#O"/><use transform="matrix(0.05,0,0,0.05,12.950000000000001,0)" xlink:href="#D"/><use transform="matrix(0.05,0,0,0.05,22.950000000000003,0)" xlink:href="#H"/><use transform="matrix(0.05,0,0,0.05,32.95,0)" xlink:href="#J"/><use transform="matrix(0.05,0,0,0.05,41.95,0)" xlink:href="#L"/><use transform="matrix(0.05,0,0,0.05,51.95,0)" xlink:href="#R"/><use transform="matrix(0.05,0,0,0.05,55.900000000000006,0)" xlink:href="#C"/><use transform="matrix(0.05,0,0,0.05,60.900000000000006,0)" xlink:href="#N"/><use transform="matrix(0.05,0,0,0.05,70.9,0)" xlink:href="#E"/></g><path d="M141 0L90-78 38 0H4l68-98-65-92h35l48 74 47-74h35l-64 92 68 98h-35" id="S"/><path d="M96-169c-40 0-48 33-48 73s9 75 48 75c24 0 41-14 43-38l32 2c-6 37-31 61-74 61-59 0-76-41-82-99-10-93 101-131 147-64 4 7 5 14 7 22l-32 3c-4-21-16-35-41-35" id="T"/><g id="h"><use transform="matrix(0.05,0,0,0.05,0,0)" xlink:href="#I"/><use transform="matrix(0.05,0,0,0.05,12,0)" xlink:href="#S"/><use transform="matrix(0.05,0,0,0.05,21,0)" xlink:href="#T"/><use transform="matrix(0.05,0,0,0.05,30,0)" xlink:href="#R"/><use transform="matrix(0.05,0,0,0.05,33.95,0)" xlink:href="#L"/><use transform="matrix(0.05,0,0,0.05,43.95,0)" xlink:href="#M"/><use transform="matrix(0.05,0,0,0.05,47.900000000000006,0)" xlink:href="#E"/></g><path d="M137 0h-34L2-248h35l83 218 83-218h36" id="U"/><g id="i"><use transform="matrix(0.06234567901234565,0,0,0.06234567901234565,0,0)" xlink:href="#U"/><use transform="matrix(0.06234567901234565,0,0,0.06234567901234565,13.716049382716044,0)" xlink:href="#G"/><use transform="matrix(0.06234567901234565,0,0,0.06234567901234565,26.185185185185176,0)" xlink:href="#H"/><use transform="matrix(0.06234567901234565,0,0,0.06234567901234565,38.65432098765431,0)" xlink:href="#P"/><use transform="matrix(0.06234567901234565,0,0,0.06234567901234565,51.12345679012344,0)" xlink:href="#G"/><use transform="matrix(0.06234567901234565,0,0,0.06234567901234565,63.592592592592574,0)" xlink:href="#P"/><use transform="matrix(0.06234567901234565,0,0,0.06234567901234565,76.0617283950617,0)" xlink:href="#D"/><use transform="matrix(0.06234567901234565,0,0,0.06234567901234565,88.53086419753083,0)" xlink:href="#E"/></g><path d="M141-36C126-15 110 5 73 4 37 3 15-17 15-53c-1-64 63-63 125-63 3-35-9-54-41-54-24 1-41 7-42 31l-33-3c5-37 33-52 76-52 45 0 72 20 72 64v82c-1 20 7 32 28 27v20c-31 9-61-2-59-35zM48-53c0 20 12 33 32 33 41-3 63-29 60-74-43 2-92-5-92 41zm25-158c8-23 27-35 38-54h36v5l-58 49H73" id="V"/><g id="j"><use transform="matrix(0.05,0,0,0.05,0,0)" xlink:href="#L"/><use transform="matrix(0.05,0,0,0.05,10,0)" xlink:href="#J"/><use transform="matrix(0.05,0,0,0.05,19,0)" xlink:href="#L"/><use transform="matrix(0.05,0,0,0.05,29,0)" xlink:href="#V"/><use transform="matrix(0.05,0,0,0.05,39,0)" xlink:href="#E"/><use transform="matrix(0.05,0,0,0.05,44.95,0)" xlink:href="#M"/><use transform="matrix(0.05,0,0,0.05,48.900000000000006,0)" xlink:href="#D"/><use transform="matrix(0.05,0,0,0.05,58.900000000000006,0)" xlink:href="#J"/></g><path d="M9 0v-24l116-142H16v-24h144v24L44-24h123V0H9" id="W"/><g id="k"><use transform="matrix(0.05,0,0,0.05,0,0)" xlink:href="#B"/><use transform="matrix(0.05,0,0,0.05,12,0)" xlink:href="#C"/><use transform="matrix(0.05,0,0,0.05,17,0)" xlink:href="#L"/><use transform="matrix(0.05,0,0,0.05,27,0)" xlink:href="#N"/><use transform="matrix(0.05,0,0,0.05,37,0)" xlink:href="#R"/><use transform="matrix(0.05,0,0,0.05,40.95,0)" xlink:href="#M"/><use transform="matrix(0.05,0,0,0.05,44.900000000000006,0)" xlink:href="#W"/><use transform="matrix(0.05,0,0,0.05,53.900000000000006,0)" xlink:href="#N"/><use transform="matrix(0.05,0,0,0.05,63.900000000000006,0)" xlink:href="#E"/></g><path d="M233-177c-1 41-23 64-60 70L243 0h-38l-65-103H63V0H30v-248c88 3 205-21 203 71zM63-129c60-2 137 13 137-47 0-61-80-42-137-45v92" id="X"/><path d="M177-190C167-65 218 103 67 71c-23-6-38-20-44-43l32-5c15 47 100 32 89-28v-30C133-14 115 1 83 1 29 1 15-40 15-95c0-56 16-97 71-98 29-1 48 16 59 35 1-10 0-23 2-32h30zM94-22c36 0 50-32 50-73 0-42-14-75-50-75-39 0-46 34-46 75s6 73 46 73" id="Y"/><g id="l"><use transform="matrix(0.05,0,0,0.05,0,0)" xlink:href="#X"/><use transform="matrix(0.05,0,0,0.05,12.950000000000001,0)" xlink:href="#G"/><use transform="matrix(0.05,0,0,0.05,22.950000000000003,0)" xlink:href="#Y"/><use transform="matrix(0.05,0,0,0.05,32.95,0)" xlink:href="#M"/><use transform="matrix(0.05,0,0,0.05,36.900000000000006,0)" xlink:href="#J"/><use transform="matrix(0.05,0,0,0.05,45.900000000000006,0)" xlink:href="#C"/><use transform="matrix(0.05,0,0,0.05,50.900000000000006,0)" xlink:href="#E"/><use transform="matrix(0.05,0,0,0.05,56.85,0)" xlink:href="#N"/><use transform="matrix(0.05,0,0,0.05,66.85000000000001,0)" xlink:href="#E"/></g><path d="M115-194c55 1 70 41 70 98S169 2 115 4C84 4 66-9 55-30l1 105H24l-1-265h31l2 30c10-21 28-34 59-34zm-8 174c40 0 45-34 45-75s-6-73-45-74c-42 0-51 32-51 76 0 43 10 73 51 73" id="Z"/><path d="M96-169c-40 0-48 33-48 73s9 75 48 75c24 0 41-14 43-38l32 2c-6 37-31 61-74 61-59 0-76-41-82-99-10-93 101-131 147-64 4 7 5 14 7 22l-32 3c-4-21-16-35-41-35zm3 187c19-1 33 8 33 26 0 31-30 33-64 32V58c18 2 39 4 41-13 1-15-18-13-34-13L87 0h19" id="aa"/><path d="M141-36C126-15 110 5 73 4 37 3 15-17 15-53c-1-64 63-63 125-63 3-35-9-54-41-54-24 1-41 7-42 31l-33-3c5-37 33-52 76-52 45 0 72 20 72 64v82c-1 20 7 32 28 27v20c-31 9-61-2-59-35zM48-53c0 20 12 33 32 33 41-3 63-29 60-74-43 2-92-5-92 41zm117-205c-3 23-9 48-36 47-26-1-65-44-74 0H39c4-23 8-48 36-47s64 44 74 0h16" id="ab"/><g id="m"><use transform="matrix(0.05,0,0,0.05,0,0)" xlink:href="#X"/><use transform="matrix(0.05,0,0,0.05,12.950000000000001,0)" xlink:href="#G"/><use transform="matrix(0.05,0,0,0.05,22.950000000000003,0)" xlink:href="#Z"/><use transform="matrix(0.05,0,0,0.05,32.95,0)" xlink:href="#D"/><use transform="matrix(0.05,0,0,0.05,42.95,0)" xlink:href="#J"/><use transform="matrix(0.05,0,0,0.05,51.95,0)" xlink:href="#M"/><use transform="matrix(0.05,0,0,0.05,55.900000000000006,0)" xlink:href="#aa"/><use transform="matrix(0.05,0,0,0.05,64.9,0)" xlink:href="#ab"/><use transform="matrix(0.05,0,0,0.05,74.9,0)" xlink:href="#D"/></g><g id="n"><use transform="matrix(0.05,0,0,0.05,0,0)" xlink:href="#G"/><use transform="matrix(0.05,0,0,0.05,10,0)" xlink:href="#J"/><use transform="matrix(0.05,0,0,0.05,19,0)" xlink:href="#C"/><use transform="matrix(0.05,0,0,0.05,24,0)" xlink:href="#D"/><use transform="matrix(0.05,0,0,0.05,34,0)" xlink:href="#K"/><use transform="matrix(0.05,0,0,0.05,44,0)" xlink:href="#L"/><use transform="matrix(0.05,0,0,0.05,54,0)" xlink:href="#G"/></g><path d="M108 0H70L1-190h34L89-25l56-165h34" id="ac"/><g id="o"><use transform="matrix(0.05,0,0,0.05,0,0)" xlink:href="#ac"/><use transform="matrix(0.05,0,0,0.05,9,0)" xlink:href="#G"/><use transform="matrix(0.05,0,0,0.05,19,0)" xlink:href="#H"/><use transform="matrix(0.05,0,0,0.05,29,0)" xlink:href="#P"/><use transform="matrix(0.05,0,0,0.05,39,0)" xlink:href="#N"/></g><path d="M18-100v-36l175-74v27L42-118l151 64v27" id="ad"/><path d="M18-27v-27l151-64-151-65v-27l175 74v36" id="ae"/><g id="p"><use transform="matrix(0.06234567901234567,0,0,0.06234567901234567,0,0)" xlink:href="#ad"/><use transform="matrix(0.06234567901234567,0,0,0.06234567901234567,13.09259259259259,0)" xlink:href="#ad"/><use transform="matrix(0.06234567901234567,0,0,0.06234567901234567,26.18518518518518,0)" xlink:href="#M"/><use transform="matrix(0.06234567901234567,0,0,0.06234567901234567,31.11049382716049,0)" xlink:href="#H"/><use transform="matrix(0.06234567901234567,0,0,0.06234567901234567,43.57962962962962,0)" xlink:href="#T"/><use transform="matrix(0.06234567901234567,0,0,0.06234567901234567,54.80185185185184,0)" xlink:href="#R"/><use transform="matrix(0.06234567901234567,0,0,0.06234567901234567,59.72716049382715,0)" xlink:href="#L"/><use transform="matrix(0.06234567901234567,0,0,0.06234567901234567,72.19629629629628,0)" xlink:href="#P"/><use transform="matrix(0.06234567901234567,0,0,0.06234567901234567,84.66543209876542,0)" xlink:href="#G"/><use transform="matrix(0.06234567901234567,0,0,0.06234567901234567,97.13456790123456,0)" xlink:href="#ae"/><use transform="matrix(0.06234567901234567,0,0,0.06234567901234567,110.22716049382716,0)" xlink:href="#ae"/></g><path d="M63-220v92h138v28H63V0H30v-248h175v28H63" id="af"/><g id="q"><use transform="matrix(0.05,0,0,0.05,0,0)" xlink:href="#af"/><use transform="matrix(0.05,0,0,0.05,10.950000000000001,0)" xlink:href="#M"/><use transform="matrix(0.05,0,0,0.05,14.9,0)" xlink:href="#H"/><use transform="matrix(0.05,0,0,0.05,24.900000000000002,0)" xlink:href="#N"/><use transform="matrix(0.05,0,0,0.05,34.900000000000006,0)" xlink:href="#R"/><use transform="matrix(0.05,0,0,0.05,38.85000000000001,0)" xlink:href="#M"/><use transform="matrix(0.05,0,0,0.05,42.80000000000001,0)" xlink:href="#W"/><use transform="matrix(0.05,0,0,0.05,51.80000000000001,0)" xlink:href="#N"/><use transform="matrix(0.05,0,0,0.05,61.80000000000001,0)" xlink:href="#E"/></g><g id="r"><use transform="matrix(0.05,0,0,0.05,0,0)" xlink:href="#Q"/><use transform="matrix(0.05,0,0,0.05,12,0)" xlink:href="#E"/><use transform="matrix(0.05,0,0,0.05,17.95,0)" xlink:href="#D"/><use transform="matrix(0.05,0,0,0.05,27.950000000000003,0)" xlink:href="#P"/><use transform="matrix(0.05,0,0,0.05,37.95,0)" xlink:href="#L"/><use transform="matrix(0.05,0,0,0.05,47.95,0)" xlink:href="#C"/><use transform="matrix(0.05,0,0,0.05,52.95,0)" xlink:href="#D"/><use transform="matrix(0.05,0,0,0.05,62.95,0)" xlink:href="#J"/></g><path d="M30 0v-248h33v221h125V0H30" id="ag"/><g id="s"><use transform="matrix(0.05,0,0,0.05,0,0)" xlink:href="#ag"/><use transform="matrix(0.05,0,0,0.05,10,0)" xlink:href="#D"/><use transform="matrix(0.05,0,0,0.05,20,0)" xlink:href="#Y"/><use transform="matrix(0.05,0,0,0.05,30,0)" xlink:href="#N"/><use transform="matrix(0.05,0,0,0.05,40,0)" xlink:href="#E"/></g><path d="M30-248c118-7 216 8 213 122C240-48 200 0 122 0H30v-248zM63-27c89 8 146-16 146-99s-60-101-146-95v194" id="ah"/><g id="t"><use transform="matrix(0.05,0,0,0.05,0,0)" xlink:href="#ah"/><use transform="matrix(0.05,0,0,0.05,12.950000000000001,0)" xlink:href="#G"/><use transform="matrix(0.05,0,0,0.05,22.950000000000003,0)" xlink:href="#J"/><use transform="matrix(0.05,0,0,0.05,31.950000000000003,0)" xlink:href="#T"/><use transform="matrix(0.05,0,0,0.05,40.95,0)" xlink:href="#D"/><use transform="matrix(0.05,0,0,0.05,50.95,0)" xlink:href="#H"/><use transform="matrix(0.05,0,0,0.05,60.95,0)" xlink:href="#C"/><use transform="matrix(0.05,0,0,0.05,65.95,0)" xlink:href="#D"/></g><path d="M115-194c53 0 69 39 70 98 0 66-23 100-70 100C84 3 66-7 56-30L54 0H23l1-261h32v101c10-23 28-34 59-34zm-8 174c40 0 45-34 45-75 0-40-5-75-45-74-42 0-51 32-51 76 0 43 10 73 51 73" id="ai"/><g id="u"><use transform="matrix(0.05,0,0,0.05,0,0)" xlink:href="#ah"/><use transform="matrix(0.05,0,0,0.05,12.950000000000001,0)" xlink:href="#G"/><use transform="matrix(0.05,0,0,0.05,22.950000000000003,0)" xlink:href="#J"/><use transform="matrix(0.05,0,0,0.05,31.950000000000003,0)" xlink:href="#N"/><use transform="matrix(0.05,0,0,0.05,41.95,0)" xlink:href="#ai"/><use transform="matrix(0.05,0,0,0.05,51.95,0)" xlink:href="#M"/><use transform="matrix(0.05,0,0,0.05,55.900000000000006,0)" xlink:href="#R"/><use transform="matrix(0.05,0,0,0.05,59.85,0)" xlink:href="#M"/><use transform="matrix(0.05,0,0,0.05,63.80000000000001,0)" xlink:href="#C"/><use transform="matrix(0.05,0,0,0.05,68.80000000000001,0)" xlink:href="#N"/><use transform="matrix(0.05,0,0,0.05,78.80000000000001,0)" xlink:href="#E"/></g><g id="v"><use transform="matrix(0.05,0,0,0.05,0,0)" xlink:href="#ah"/><use transform="matrix(0.05,0,0,0.05,12.950000000000001,0)" xlink:href="#G"/><use transform="matrix(0.05,0,0,0.05,22.950000000000003,0)" xlink:href="#J"/><use transform="matrix(0.05,0,0,0.05,31.950000000000003,0)" xlink:href="#T"/><use transform="matrix(0.05,0,0,0.05,40.95,0)" xlink:href="#D"/><use transform="matrix(0.05,0,0,0.05,50.95,0)" xlink:href="#H"/><use transform="matrix(0.05,0,0,0.05,60.95,0)" xlink:href="#C"/><use transform="matrix(0.05,0,0,0.05,65.95,0)" xlink:href="#D"/><use transform="matrix(0.05,0,0,0.05,75.95,0)" xlink:href="#J"/></g><g id="w"><use transform="matrix(0.05,0,0,0.05,0,0)" xlink:href="#I"/><use transform="matrix(0.05,0,0,0.05,12,0)" xlink:href="#S"/><use transform="matrix(0.05,0,0,0.05,21,0)" xlink:href="#T"/><use transform="matrix(0.05,0,0,0.05,30,0)" xlink:href="#R"/><use transform="matrix(0.05,0,0,0.05,33.95,0)" xlink:href="#L"/><use transform="matrix(0.05,0,0,0.05,43.95,0)" xlink:href="#M"/><use transform="matrix(0.05,0,0,0.05,47.900000000000006,0)" xlink:href="#E"/></g><g id="x"><use transform="matrix(0.05,0,0,0.05,0,0)" xlink:href="#af"/><use transform="matrix(0.05,0,0,0.05,10.950000000000001,0)" xlink:href="#D"/><use transform="matrix(0.05,0,0,0.05,20.950000000000003,0)" xlink:href="#E"/><use transform="matrix(0.05,0,0,0.05,26.900000000000002,0)" xlink:href="#H"/><use transform="matrix(0.05,0,0,0.05,36.900000000000006,0)" xlink:href="#G"/><use transform="matrix(0.05,0,0,0.05,46.900000000000006,0)" xlink:href="#T"/><use transform="matrix(0.05,0,0,0.05,55.900000000000006,0)" xlink:href="#G"/><use transform="matrix(0.05,0,0,0.05,65.9,0)" xlink:href="#P"/><use transform="matrix(0.05,0,0,0.05,75.9,0)" xlink:href="#D"/><use transform="matrix(0.05,0,0,0.05,85.9,0)" xlink:href="#E"/></g><g id="y"><use transform="matrix(0.05,0,0,0.05,0,0)" xlink:href="#I"/><use transform="matrix(0.05,0,0,0.05,12,0)" xlink:href="#S"/><use transform="matrix(0.05,0,0,0.05,21,0)" xlink:href="#T"/><use transform="matrix(0.05,0,0,0.05,30,0)" xlink:href="#R"/><use transform="matrix(0.05,0,0,0.05,33.95,0)" xlink:href="#L"/><use transform="matrix(0.05,0,0,0.05,43.95,0)" xlink:href="#M"/><use transform="matrix(0.05,0,0,0.05,47.900000000000006,0)" xlink:href="#E"/></g><g id="z"><use transform="matrix(0.05,0,0,0.05,0,0)" xlink:href="#af"/><use transform="matrix(0.05,0,0,0.05,10.950000000000001,0)" xlink:href="#D"/><use transform="matrix(0.05,0,0,0.05,20.950000000000003,0)" xlink:href="#E"/><use transform="matrix(0.05,0,0,0.05,26.900000000000002,0)" xlink:href="#H"/><use transform="matrix(0.05,0,0,0.05,36.900000000000006,0)" xlink:href="#G"/><use transform="matrix(0.05,0,0,0.05,46.900000000000006,0)" xlink:href="#T"/><use transform="matrix(0.05,0,0,0.05,55.900000000000006,0)" xlink:href="#G"/><use transform="matrix(0.05,0,0,0.05,65.9,0)" xlink:href="#P"/><use transform="matrix(0.05,0,0,0.05,75.9,0)" xlink:href="#D"/><use transform="matrix(0.05,0,0,0.05,85.9,0)" xlink:href="#E"/><use transform="matrix(0.05,0,0,0.05,91.85000000000001,0)" xlink:href="#G"/><use transform="matrix(0.05,0,0,0.05,101.85000000000001,0)" xlink:href="#J"/></g><path d="M100-194c62-1 85 37 85 99 1 63-27 99-86 99S16-35 15-95c0-66 28-99 85-99zM99-20c44 1 53-31 53-75 0-43-8-75-51-75s-53 32-53 75 10 74 51 75zm66-238c-3 23-9 48-36 47-26-1-65-44-74 0H39c4-23 8-48 36-47s64 44 74 0h16" id="aj"/><g id="A"><use transform="matrix(0.05,0,0,0.05,0,0)" xlink:href="#X"/><use transform="matrix(0.05,0,0,0.05,12.950000000000001,0)" xlink:href="#G"/><use transform="matrix(0.05,0,0,0.05,22.950000000000003,0)" xlink:href="#Z"/><use transform="matrix(0.05,0,0,0.05,32.95,0)" xlink:href="#D"/><use transform="matrix(0.05,0,0,0.05,42.95,0)" xlink:href="#J"/><use transform="matrix(0.05,0,0,0.05,51.95,0)" xlink:href="#M"/><use transform="matrix(0.05,0,0,0.05,55.900000000000006,0)" xlink:href="#aa"/><use transform="matrix(0.05,0,0,0.05,64.9,0)" xlink:href="#aj"/><use transform="matrix(0.05,0,0,0.05,74.9,0)" xlink:href="#G"/><use transform="matrix(0.05,0,0,0.05,84.9,0)" xlink:href="#J"/></g></defs></g></svg>