<svg xmlns="http://www.w3.org/2000/svg" xmlns:xlink="http://www.w3.org/1999/xlink" xmlns:lucid="lucid" width="2762" height="1653.28"><g transform="translate(-220.83913303497388 -452.0821674819076)" lucid:page-tab-id="HWEp-vi-RSFO"><path d="M0 0h3203.68v2557.44H0z" fill="#fff"/><path d="M221.84 453.08h2760v1651.28h-2760z" stroke="#333" stroke-width="2" fill="#fff"/><path d="M2971.84 463.08h-15v20h15z" stroke="#333" fill="#fff"/><path d="M2961.84 466.42h-10v3.33h10zm0 10h-10v3.33h10z" stroke="#333" fill="#fff"/><use xlink:href="#a" transform="matrix(1,0,0,1,221.83913303497388,453.0821674819076) translate(1298.58 19.41)"/><path d="M331.65 513.08h1477.3v1480H331.65z" stroke="#333" stroke-width="2" fill="#fff"/><path d="M1798.95 523.08h-15v20h15z" stroke="#333" fill="#fff"/><path d="M1788.95 526.42h-10v3.33h10zm0 10h-10v3.33h10z" stroke="#333" fill="#fff"/><use xlink:href="#b" transform="matrix(1,0,0,1,331.6525494500496,513.0821674819076) translate(656.53 19.41)"/><use xlink:href="#c" transform="matrix(1,0,0,1,331.6525494500496,513.0821674819076) translate(676.5799999999999 41.01)"/><path d="M420.3 1194.25h244.04v234.56H420.3z" stroke="#333" stroke-width="2" fill="#fff"/><path d="M654.34 1204.25h-15v20h15z" stroke="#333" fill="#fff"/><path d="M644.34 1207.58h-10v3.34h10zm0 10h-10v3.34h10z" stroke="#333" fill="#fff"/><use xlink:href="#d" transform="matrix(1,0,0,1,420.2904921204575,1194.2508946765277) translate(56.53000000000001 109.86875)"/><use xlink:href="#e" transform="matrix(1,0,0,1,420.2904921204575,1194.2508946765277) translate(89.00500000000001 131.46875)"/><path d="M948.28 1194.25h244.05v234.56H948.28z" stroke="#333" stroke-width="2" fill="#fff"/><path d="M1182.33 1204.25h-15v20h15z" stroke="#333" fill="#fff"/><path d="M1172.33 1207.58h-10v3.34h10zm0 10h-10v3.34h10z" stroke="#333" fill="#fff"/><use xlink:href="#d" transform="matrix(1,0,0,1,948.2763550835523,1194.2502577406835) translate(56.53000000000001 109.86875)"/><use xlink:href="#f" transform="matrix(1,0,0,1,948.2763550835523,1194.2502577406835) translate(96.50500000000001 131.46875)"/><path d="M2631.65 613.1h244.05v234.55h-244.05z" stroke="#333" stroke-width="2" fill="#fff"/><path d="M2865.7 623.1h-15v20h15z" stroke="#333" fill="#fff"/><path d="M2855.7 626.42h-10v3.34h10zm0 10h-10v3.34h10z" stroke="#333" fill="#fff"/><use xlink:href="#d" transform="matrix(1,0,0,1,2631.6525494500493,613.0898004771964) translate(56.53000000000001 109.86875)"/><use xlink:href="#g" transform="matrix(1,0,0,1,2631.6525494500493,613.0898004771964) translate(85.53 131.46875)"/><path d="M1454.4 1194.25h244.05v234.56H1454.4z" stroke="#333" stroke-width="2" fill="#fff"/><path d="M1688.45 1204.25h-15v20h15z" stroke="#333" fill="#fff"/><path d="M1678.45 1207.58h-10v3.34h10zm0 10h-10v3.34h10z" stroke="#333" fill="#fff"/><use xlink:href="#d" transform="matrix(1,0,0,1,1454.3998232752192,1194.2508946765277) translate(56.53000000000001 109.86875)"/><use xlink:href="#h" transform="matrix(1,0,0,1,1454.3998232752192,1194.2508946765277) translate(70.03 131.46875)"/><path d="M948.28 613.08h244.05v234.56H948.28z" stroke="#333" stroke-width="2" fill="#fff"/><path d="M1182.33 623.08h-15v20h15z" stroke="#333" fill="#fff"/><path d="M1172.33 626.42h-10v3.33h10zm0 10h-10v3.33h10z" stroke="#333" fill="#fff"/><use xlink:href="#d" transform="matrix(1,0,0,1,948.2763550835527,613.0821674819076) translate(56.53000000000001 109.86875)"/><use xlink:href="#i" transform="matrix(1,0,0,1,948.2763550835527,613.0821674819076) translate(86.53 131.46875)"/><path d="M1070.3 849.14v83.44" stroke="#333" fill="none"/><path d="M1070.78 849.15h-.95v-.5h.95zM1070.78 933.08h-.95v-.5h.95z" stroke="#333" stroke-width=".05" fill="#333"/><path d="M542.32 1192.75v-76.77a12 12 0 0 1 12-12h503.98a12 12 0 0 0 12-12v-76.76" stroke="#333" fill="none"/><path d="M542.8 1193.25h-.96v-.5h.95zM1070.78 1015.23h-.95v-.5h.95z" stroke="#333" stroke-width=".05" fill="#333"/><path d="M1070.3 1192.75v-177.53" stroke="#333" fill="none"/><path d="M1070.78 1193.25h-.95v-.5h.95zM1070.78 1015.23h-.95v-.5h.95z" stroke="#333" stroke-width=".05" fill="#333"/><path d="M1576.43 1192.75v-76.77a12 12 0 0 0-12-12H1082.3a12 12 0 0 1-12-12v-76.76" stroke="#333" fill="none"/><path d="M1576.9 1193.25h-.95v-.5h.95zM1070.78 1015.23h-.95v-.5h.95z" stroke="#333" stroke-width=".05" fill="#333"/><path d="M1070.3 1014.7v-17.94M1070.3 941.25v-8.17" stroke="#333" stroke-width="2" fill="none"/><path d="M1049.62 973.9c0-12.63 9.26-22.86 20.68-22.86s20.68 10.23 20.68 22.86c0 12.62-9.26 22.86-20.68 22.86s-20.68-10.24-20.68-22.86z" stroke="#333" stroke-width="2" fill="#fff"/><path d="M1099.85 973.9c0-18.04-13.23-32.65-29.55-32.65s-29.54 14.6-29.54 32.65" stroke="#333" stroke-width="2" fill="none"/><path d="M1069.12 1014.7v-17.94h2.36v17.95z" fill="none"/><path d="M769.38 1311.53h16.25M835.86 1311.53h7.38" stroke="#333" stroke-width="2" fill="none"/><path d="M806.3 1288.67c11.43 0 20.7 10.24 20.7 22.86s-9.27 22.86-20.7 22.86c-11.4 0-20.67-10.25-20.67-22.87 0-12.62 9.26-22.86 20.68-22.86z" stroke="#333" stroke-width="2" fill="#fff"/><path d="M806.3 1344.18c16.33 0 29.56-14.62 29.56-32.65s-13.23-32.65-29.55-32.65" stroke="#333" stroke-width="2" fill="none"/><path d="M769.38 1310.22h16.25v2.62h-16.25z" fill="none"/><path d="M843.74 1311.53h103.04" stroke="#333" fill="none"/><path d="M843.75 1312h-.5v-.95h.5zM947.28 1312h-.52v-.95h.52z" stroke="#333" stroke-width=".05" fill="#333"/><path d="M768.88 1311.53H665.84" stroke="#333" fill="none"/><path d="M769.38 1312h-.52v-.95h.52zM665.86 1312h-.52v-.95h.5z" stroke="#333" stroke-width=".05" fill="#333"/><path d="M2211.65 730.37h16.25M2278.13 730.37h7.4" stroke="#333" stroke-width="2" fill="none"/><path d="M2248.6 707.5c11.4 0 20.67 10.24 20.67 22.87 0 12.62-9.26 22.86-20.68 22.86-11.44 0-20.7-10.24-20.7-22.86 0-12.63 9.26-22.86 20.68-22.86z" stroke="#333" stroke-width="2" fill="#fff"/><path d="M2248.6 763.02c16.3 0 29.53-14.62 29.53-32.65 0-18.04-13.23-32.65-29.55-32.65" stroke="#333" stroke-width="2" fill="none"/><path d="M2211.65 729.06h16.25v2.6h-16.25z" fill="none"/><path d="M2286.02 730.36h344.12" stroke="#333" fill="none"/><path d="M2286.03 730.84h-.5v-.95h.5zM2630.65 730.84h-.5v-.95h.5z" stroke="#333" stroke-width=".05" fill="#333"/><path d="M420.3 1666.55h244.04v234.56H420.3z" stroke="#333" stroke-width="2" fill="#fff"/><path d="M654.34 1676.55h-15v20h15z" stroke="#333" fill="#fff"/><path d="M644.34 1679.88h-10v3.34h10zm0 10h-10v3.34h10z" stroke="#333" fill="#fff"/><use xlink:href="#j" transform="matrix(1,0,0,1,420.29049212045754,1666.55155523701) translate(64.005 109.86875)"/><use xlink:href="#k" transform="matrix(1,0,0,1,420.29049212045754,1666.55155523701) translate(71.53 131.46875)"/><path d="M948.28 1666.55h244.05v234.56H948.28z" stroke="#333" stroke-width="2" fill="#fff"/><path d="M1182.33 1676.55h-15v20h15z" stroke="#333" fill="#fff"/><path d="M1172.33 1679.88h-10v3.34h10zm0 10h-10v3.34h10z" stroke="#333" fill="#fff"/><use xlink:href="#j" transform="matrix(1,0,0,1,948.2763550835518,1666.55155523701) translate(64.005 109.86875)"/><use xlink:href="#l" transform="matrix(1,0,0,1,948.2763550835518,1666.55155523701) translate(79.03 131.46875)"/><path d="M545.86 1588.5v-17.96M545.86 1515.03v-8.17" stroke="#333" stroke-width="2" fill="none"/><path d="M525.18 1547.68c0-12.62 9.26-22.86 20.68-22.86s20.68 10.24 20.68 22.86-9.26 22.86-20.68 22.86-20.68-10.24-20.68-22.86z" stroke="#333" stroke-width="2" fill="#fff"/><path d="M575.4 1547.68c0-18.03-13.22-32.65-29.54-32.65s-29.54 14.62-29.54 32.65" stroke="#333" stroke-width="2" fill="none"/><path d="M544.68 1588.5v-17.96h2.36v17.96z" fill="none"/><path d="M1070.3 1588.5v-17.96M1070.3 1515.03v-8.17" stroke="#333" stroke-width="2" fill="none"/><path d="M1049.62 1547.68c0-12.62 9.26-22.86 20.68-22.86s20.68 10.24 20.68 22.86-9.26 22.86-20.68 22.86-20.68-10.24-20.68-22.86z" stroke="#333" stroke-width="2" fill="#fff"/><path d="M1099.85 1547.68c0-18.03-13.23-32.65-29.55-32.65s-29.54 14.62-29.54 32.65" stroke="#333" stroke-width="2" fill="none"/><path d="M1069.12 1588.5v-17.96h2.36v17.96z" fill="none"/><path d="M545.86 1506.36v-38-.02h-.02v-38.03" stroke="#333" fill="none"/><path d="M546.33 1506.86h-.95v-.5h.95zM546.3 1430.32h-.94v-.5h.95z" stroke="#333" stroke-width=".05" fill="#333"/><path d="M545.86 1589v38.02h-.02v38.03" stroke="#333" fill="none"/><path d="M546.33 1589h-.95v-.5h.95zM546.3 1665.55h-.94v-.5h.95z" stroke="#333" stroke-width=".05" fill="#333"/><path d="M1070.3 1506.36V1430.3" stroke="#333" fill="none"/><path d="M1070.78 1506.86h-.95v-.5h.95zM1070.78 1430.32h-.95v-.5h.95z" stroke="#333" stroke-width=".05" fill="#333"/><path d="M1070.3 1589V1665.05" stroke="#333" fill="none"/><path d="M1070.77 1589h-.95v-.5h.95zM1070.77 1665.55h-.95v-.5h.95z" stroke="#333" stroke-width=".05" fill="#333"/><path d="M2211.15 730.36h-400.7" stroke="#333" fill="none"/><path d="M2211.65 730.84h-.5v-.95h.5zM1810.46 730.84h-.5v-.95h.5z" stroke="#333" stroke-width=".05" fill="#333"/><path d="M1791.65 710.36h40v38h-40zM1556.43 1173.08h40v38h-40zM1050.3 1173.08h40v38h-40zM522.32 1173.08h40v38h-40zM1050.3 830.3h40v38h-40z" stroke="#333" stroke-width="2" fill="#fff"/><path d="M1482.06 730.37h-144.1-144.12" stroke="#333" fill="none"/><path d="M1482.56 730.84h-.5v-.95h.5zM1193.84 730.84h-.5v-.95h.5z" stroke="#333" stroke-width=".05" fill="#333"/><path d="M1556.93 730.37h233.22" stroke="#333" fill="none"/><path d="M1556.94 730.84h-.5v-.95h.5zM1790.65 730.84h-.5v-.95h.5z" stroke="#333" stroke-width=".05" fill="#333"/><path d="M1171.65 710.36h40v38h-40z" stroke="#333" stroke-width="2" fill="#fff"/><g><path d="M1556.43 730.37h-16.25M1489.95 730.37h-7.4" stroke="#333" stroke-width="2" fill="none"/><path d="M1519.5 753.23c-11.43 0-20.7-10.24-20.7-22.86 0-12.63 9.27-22.86 20.7-22.86 11.42 0 20.68 10.24 20.68 22.87 0 12.62-9.26 22.86-20.7 22.86z" stroke="#333" stroke-width="2" fill="#fff"/><path d="M1519.5 697.72c-16.32 0-29.55 14.6-29.55 32.65 0 18.03 13.23 32.65 29.54 32.65" stroke="#333" stroke-width="2" fill="none"/><path d="M1556.43 731.67h-16.25v-2.6h16.25z" fill="none"/></g><path d="M1050.3 1653.08h40v38h-40zM522.32 1653.08h40v38h-40zM1050.3 1404.28h40v38h-40zM525.86 1404.28h40v38h-40zM2611.65 710.36h40v38h-40z" stroke="#333" stroke-width="2" fill="#fff"/><defs><path d="M85-194c31 0 48 13 60 33l-1-100h32l1 261h-30c-2-10 0-23-3-31C134-8 116 4 85 4 32 4 16-35 15-94c0-66 23-100 70-100zm9 24c-40 0-46 34-46 75 0 40 6 74 45 74 42 0 51-32 51-76 0-42-9-74-50-73" id="m"/><path d="M100-194c62-1 85 37 85 99 1 63-27 99-86 99S16-35 15-95c0-66 28-99 85-99zM99-20c44 1 53-31 53-75 0-43-8-75-51-75s-53 32-53 75 10 74 51 75" id="n"/><path d="M96-169c-40 0-48 33-48 73s9 75 48 75c24 0 41-14 43-38l32 2c-6 37-31 61-74 61-59 0-76-41-82-99-10-93 101-131 147-64 4 7 5 14 7 22l-32 3c-4-21-16-35-41-35" id="o"/><path d="M143 0L79-87 56-68V0H24v-261h32v163l83-92h37l-77 82L181 0h-38" id="p"/><path d="M100-194c63 0 86 42 84 106H49c0 40 14 67 53 68 26 1 43-12 49-29l28 8c-11 28-37 45-77 45C44 4 14-33 15-96c1-61 26-98 85-98zm52 81c6-60-76-77-97-28-3 7-6 17-6 28h103" id="q"/><path d="M114-163C36-179 61-72 57 0H25l-1-190h30c1 12-1 29 2 39 6-27 23-49 58-41v29" id="r"/><path d="M16-82v-28h88v28H16" id="s"/><path d="M210-169c-67 3-38 105-44 169h-31v-121c0-29-5-50-35-48C34-165 62-65 56 0H25l-1-190h30c1 10-1 24 2 32 10-44 99-50 107 0 11-21 27-35 58-36 85-2 47 119 55 194h-31v-121c0-29-5-49-35-48" id="t"/><path d="M115-194c55 1 70 41 70 98S169 2 115 4C84 4 66-9 55-30l1 105H24l-1-265h31l2 30c10-21 28-34 59-34zm-8 174c40 0 45-34 45-75s-6-73-45-74c-42 0-51 32-51 76 0 43 10 73 51 73" id="u"/><path d="M135-143c-3-34-86-38-87 0 15 53 115 12 119 90S17 21 10-45l28-5c4 36 97 45 98 0-10-56-113-15-118-90-4-57 82-63 122-42 12 7 21 19 24 35" id="v"/><g id="a"><use transform="matrix(0.05,0,0,0.05,0,0)" xlink:href="#m"/><use transform="matrix(0.05,0,0,0.05,10,0)" xlink:href="#n"/><use transform="matrix(0.05,0,0,0.05,20,0)" xlink:href="#o"/><use transform="matrix(0.05,0,0,0.05,29,0)" xlink:href="#p"/><use transform="matrix(0.05,0,0,0.05,38,0)" xlink:href="#q"/><use transform="matrix(0.05,0,0,0.05,48,0)" xlink:href="#r"/><use transform="matrix(0.05,0,0,0.05,53.95,0)" xlink:href="#s"/><use transform="matrix(0.05,0,0,0.05,59.900000000000006,0)" xlink:href="#o"/><use transform="matrix(0.05,0,0,0.05,68.9,0)" xlink:href="#n"/><use transform="matrix(0.05,0,0,0.05,78.9,0)" xlink:href="#t"/><use transform="matrix(0.05,0,0,0.05,93.85000000000001,0)" xlink:href="#u"/><use transform="matrix(0.05,0,0,0.05,103.85000000000001,0)" xlink:href="#n"/><use transform="matrix(0.05,0,0,0.05,113.85000000000001,0)" xlink:href="#v"/><use transform="matrix(0.05,0,0,0.05,122.85000000000001,0)" xlink:href="#q"/></g><path d="M18-100v-36l175-74v27L42-118l151 64v27" id="w"/><path d="M185-189c-5-48-123-54-124 2 14 75 158 14 163 119 3 78-121 87-175 55-17-10-28-26-33-46l33-7c5 56 141 63 141-1 0-78-155-14-162-118-5-82 145-84 179-34 5 7 8 16 11 25" id="x"/><path d="M84 4C-5 8 30-112 23-190h32v120c0 31 7 50 39 49 72-2 45-101 50-169h31l1 190h-30c-1-10 1-25-2-33-11 22-28 36-60 37" id="y"/><path d="M115-194c53 0 69 39 70 98 0 66-23 100-70 100C84 3 66-7 56-30L54 0H23l1-261h32v101c10-23 28-34 59-34zm-8 174c40 0 45-34 45-75 0-40-5-75-45-74-42 0-51 32-51 76 0 43 10 73 51 73" id="z"/><path d="M179-190L93 31C79 59 56 82 12 73V49c39 6 53-20 64-50L1-190h34L92-34l54-156h33" id="A"/><path d="M59-47c-2 24 18 29 38 22v24C64 9 27 4 27-40v-127H5v-23h24l9-43h21v43h35v23H59v120" id="B"/><path d="M18-27v-27l151-64-151-65v-27l175 74v36" id="C"/><g id="b"><use transform="matrix(0.05,0,0,0.05,0,0)" xlink:href="#w"/><use transform="matrix(0.05,0,0,0.05,10.5,0)" xlink:href="#w"/><use transform="matrix(0.05,0,0,0.05,21,0)" xlink:href="#x"/><use transform="matrix(0.05,0,0,0.05,33,0)" xlink:href="#y"/><use transform="matrix(0.05,0,0,0.05,43,0)" xlink:href="#z"/><use transform="matrix(0.05,0,0,0.05,53,0)" xlink:href="#x"/><use transform="matrix(0.05,0,0,0.05,65,0)" xlink:href="#A"/><use transform="matrix(0.05,0,0,0.05,74,0)" xlink:href="#v"/><use transform="matrix(0.05,0,0,0.05,83,0)" xlink:href="#B"/><use transform="matrix(0.05,0,0,0.05,88,0)" xlink:href="#q"/><use transform="matrix(0.05,0,0,0.05,98,0)" xlink:href="#t"/><use transform="matrix(0.05,0,0,0.05,112.95,0)" xlink:href="#C"/><use transform="matrix(0.05,0,0,0.05,123.45,0)" xlink:href="#C"/></g><path d="M141-36C126-15 110 5 73 4 37 3 15-17 15-53c-1-64 63-63 125-63 3-35-9-54-41-54-24 1-41 7-42 31l-33-3c5-37 33-52 76-52 45 0 72 20 72 64v82c-1 20 7 32 28 27v20c-31 9-61-2-59-35zM48-53c0 20 12 33 32 33 41-3 63-29 60-74-43 2-92-5-92 41" id="D"/><path d="M24-231v-30h32v30H24zM24 0v-190h32V0H24" id="E"/><path d="M117-194c89-4 53 116 60 194h-32v-121c0-31-8-49-39-48C34-167 62-67 57 0H25l-1-190h30c1 10-1 24 2 32 11-22 29-35 61-36" id="F"/><path d="M106-169C34-169 62-67 57 0H25v-261h32l-1 103c12-21 28-36 61-36 89 0 53 116 60 194h-32v-121c2-32-8-49-39-48" id="G"/><g id="c"><use transform="matrix(0.05,0,0,0.05,0,0)" xlink:href="#t"/><use transform="matrix(0.05,0,0,0.05,14.950000000000001,0)" xlink:href="#q"/><use transform="matrix(0.05,0,0,0.05,24.950000000000003,0)" xlink:href="#r"/><use transform="matrix(0.05,0,0,0.05,30.900000000000002,0)" xlink:href="#o"/><use transform="matrix(0.05,0,0,0.05,39.900000000000006,0)" xlink:href="#D"/><use transform="matrix(0.05,0,0,0.05,49.900000000000006,0)" xlink:href="#m"/><use transform="matrix(0.05,0,0,0.05,59.900000000000006,0)" xlink:href="#E"/><use transform="matrix(0.05,0,0,0.05,63.85,0)" xlink:href="#F"/><use transform="matrix(0.05,0,0,0.05,73.85000000000001,0)" xlink:href="#G"/><use transform="matrix(0.05,0,0,0.05,83.85000000000001,0)" xlink:href="#n"/></g><g id="d"><use transform="matrix(0.05,0,0,0.05,0,0)" xlink:href="#w"/><use transform="matrix(0.05,0,0,0.05,10.5,0)" xlink:href="#w"/><use transform="matrix(0.05,0,0,0.05,21,0)" xlink:href="#o"/><use transform="matrix(0.05,0,0,0.05,30,0)" xlink:href="#n"/><use transform="matrix(0.05,0,0,0.05,40,0)" xlink:href="#t"/><use transform="matrix(0.05,0,0,0.05,54.95,0)" xlink:href="#u"/><use transform="matrix(0.05,0,0,0.05,64.95,0)" xlink:href="#n"/><use transform="matrix(0.05,0,0,0.05,74.95,0)" xlink:href="#F"/><use transform="matrix(0.05,0,0,0.05,84.95,0)" xlink:href="#q"/><use transform="matrix(0.05,0,0,0.05,94.95,0)" xlink:href="#F"/><use transform="matrix(0.05,0,0,0.05,104.95,0)" xlink:href="#B"/><use transform="matrix(0.05,0,0,0.05,109.95,0)" xlink:href="#C"/><use transform="matrix(0.05,0,0,0.05,120.45,0)" xlink:href="#C"/></g><path d="M30 0v-248h187v28H63v79h144v27H63v87h162V0H30" id="H"/><path d="M145-31C134-9 116 4 85 4 32 4 16-35 15-94c0-59 17-99 70-100 32-1 48 14 60 33 0-11-1-24 2-32h30l-1 268h-32zM93-21c41 0 51-33 51-76s-8-73-50-73c-40 0-46 35-46 75s5 74 45 74" id="I"/><g id="e"><use transform="matrix(0.05,0,0,0.05,0,0)" xlink:href="#H"/><use transform="matrix(0.05,0,0,0.05,12,0)" xlink:href="#v"/><use transform="matrix(0.05,0,0,0.05,21,0)" xlink:href="#B"/><use transform="matrix(0.05,0,0,0.05,26,0)" xlink:href="#n"/><use transform="matrix(0.05,0,0,0.05,36,0)" xlink:href="#I"/><use transform="matrix(0.05,0,0,0.05,46,0)" xlink:href="#y"/><use transform="matrix(0.05,0,0,0.05,56,0)" xlink:href="#q"/></g><path d="M137 0h-34L2-248h35l83 218 83-218h36" id="J"/><g id="f"><use transform="matrix(0.05,0,0,0.05,0,0)" xlink:href="#J"/><use transform="matrix(0.05,0,0,0.05,11,0)" xlink:href="#q"/><use transform="matrix(0.05,0,0,0.05,21,0)" xlink:href="#F"/><use transform="matrix(0.05,0,0,0.05,31,0)" xlink:href="#m"/><use transform="matrix(0.05,0,0,0.05,41,0)" xlink:href="#D"/></g><path d="M194 0L95-120 63-95V0H30v-248h33v124l119-124h40L117-140 236 0h-42" id="K"/><path d="M24 0v-261h32V0H24" id="L"/><g id="g"><use transform="matrix(0.05,0,0,0.05,0,0)" xlink:href="#K"/><use transform="matrix(0.05,0,0,0.05,12,0)" xlink:href="#q"/><use transform="matrix(0.05,0,0,0.05,22,0)" xlink:href="#A"/><use transform="matrix(0.05,0,0,0.05,31,0)" xlink:href="#o"/><use transform="matrix(0.05,0,0,0.05,40,0)" xlink:href="#L"/><use transform="matrix(0.05,0,0,0.05,43.95,0)" xlink:href="#n"/><use transform="matrix(0.05,0,0,0.05,53.95,0)" xlink:href="#D"/><use transform="matrix(0.05,0,0,0.05,63.95,0)" xlink:href="#p"/></g><path d="M205 0l-28-72H64L36 0H1l101-248h38L239 0h-34zm-38-99l-47-123c-12 45-31 82-46 123h93" id="M"/><path d="M96-169c-40 0-48 33-48 73s9 75 48 75c24 0 41-14 43-38l32 2c-6 37-31 61-74 61-59 0-76-41-82-99-10-93 101-131 147-64 4 7 5 14 7 22l-32 3c-4-21-16-35-41-35zm3 187c19-1 33 8 33 26 0 31-30 33-64 32V58c18 2 39 4 41-13 1-15-18-13-34-13L87 0h19" id="N"/><path d="M141-36C126-15 110 5 73 4 37 3 15-17 15-53c-1-64 63-63 125-63 3-35-9-54-41-54-24 1-41 7-42 31l-33-3c5-37 33-52 76-52 45 0 72 20 72 64v82c-1 20 7 32 28 27v20c-31 9-61-2-59-35zM48-53c0 20 12 33 32 33 41-3 63-29 60-74-43 2-92-5-92 41zm117-205c-3 23-9 48-36 47-26-1-65-44-74 0H39c4-23 8-48 36-47s64 44 74 0h16" id="O"/><g id="h"><use transform="matrix(0.05,0,0,0.05,0,0)" xlink:href="#M"/><use transform="matrix(0.05,0,0,0.05,12,0)" xlink:href="#y"/><use transform="matrix(0.05,0,0,0.05,22,0)" xlink:href="#B"/><use transform="matrix(0.05,0,0,0.05,27,0)" xlink:href="#q"/><use transform="matrix(0.05,0,0,0.05,37,0)" xlink:href="#F"/><use transform="matrix(0.05,0,0,0.05,47,0)" xlink:href="#B"/><use transform="matrix(0.05,0,0,0.05,52,0)" xlink:href="#E"/><use transform="matrix(0.05,0,0,0.05,55.95,0)" xlink:href="#o"/><use transform="matrix(0.05,0,0,0.05,64.95,0)" xlink:href="#D"/><use transform="matrix(0.05,0,0,0.05,74.95,0)" xlink:href="#N"/><use transform="matrix(0.05,0,0,0.05,83.95,0)" xlink:href="#O"/><use transform="matrix(0.05,0,0,0.05,93.95,0)" xlink:href="#n"/></g><path d="M143 4C61 4 22-44 18-125c-5-107 100-154 193-111 17 8 29 25 37 43l-32 9c-13-25-37-40-76-40-61 0-88 39-88 99 0 61 29 100 91 101 35 0 62-11 79-27v-45h-74v-28h105v86C228-13 192 4 143 4" id="P"/><path d="M206 0h-36l-40-164L89 0H53L-1-190h32L70-26l43-164h34l41 164 42-164h31" id="Q"/><g id="i"><use transform="matrix(0.05,0,0,0.05,0,0)" xlink:href="#P"/><use transform="matrix(0.05,0,0,0.05,14,0)" xlink:href="#D"/><use transform="matrix(0.05,0,0,0.05,24,0)" xlink:href="#B"/><use transform="matrix(0.05,0,0,0.05,29,0)" xlink:href="#q"/><use transform="matrix(0.05,0,0,0.05,39,0)" xlink:href="#Q"/><use transform="matrix(0.05,0,0,0.05,51.95,0)" xlink:href="#D"/><use transform="matrix(0.05,0,0,0.05,61.95,0)" xlink:href="#A"/></g><g id="j"><use transform="matrix(0.05,0,0,0.05,0,0)" xlink:href="#w"/><use transform="matrix(0.05,0,0,0.05,10.5,0)" xlink:href="#w"/><use transform="matrix(0.05,0,0,0.05,21,0)" xlink:href="#m"/><use transform="matrix(0.05,0,0,0.05,31,0)" xlink:href="#D"/><use transform="matrix(0.05,0,0,0.05,41,0)" xlink:href="#B"/><use transform="matrix(0.05,0,0,0.05,46,0)" xlink:href="#D"/><use transform="matrix(0.05,0,0,0.05,56,0)" xlink:href="#z"/><use transform="matrix(0.05,0,0,0.05,66,0)" xlink:href="#D"/><use transform="matrix(0.05,0,0,0.05,76,0)" xlink:href="#v"/><use transform="matrix(0.05,0,0,0.05,85,0)" xlink:href="#q"/><use transform="matrix(0.05,0,0,0.05,95,0)" xlink:href="#C"/><use transform="matrix(0.05,0,0,0.05,105.5,0)" xlink:href="#C"/></g><path d="M-5 72V49h209v23H-5" id="R"/><path d="M160-131c35 5 61 23 61 61C221 17 115-2 30 0v-248c76 3 177-17 177 60 0 33-19 50-47 57zm-97-11c50-1 110 9 110-42 0-47-63-36-110-37v79zm0 115c55-2 124 14 124-45 0-56-70-42-124-44v89" id="S"/><path d="M30-248c118-7 216 8 213 122C240-48 200 0 122 0H30v-248zM63-27c89 8 146-16 146-99s-60-101-146-95v194" id="T"/><g id="k"><use transform="matrix(0.05,0,0,0.05,0,0)" xlink:href="#H"/><use transform="matrix(0.05,0,0,0.05,12,0)" xlink:href="#v"/><use transform="matrix(0.05,0,0,0.05,21,0)" xlink:href="#B"/><use transform="matrix(0.05,0,0,0.05,26,0)" xlink:href="#n"/><use transform="matrix(0.05,0,0,0.05,36,0)" xlink:href="#I"/><use transform="matrix(0.05,0,0,0.05,46,0)" xlink:href="#y"/><use transform="matrix(0.05,0,0,0.05,56,0)" xlink:href="#q"/><use transform="matrix(0.05,0,0,0.05,66,0)" xlink:href="#R"/><use transform="matrix(0.05,0,0,0.05,76,0)" xlink:href="#S"/><use transform="matrix(0.05,0,0,0.05,88,0)" xlink:href="#T"/></g><g id="l"><use transform="matrix(0.05,0,0,0.05,0,0)" xlink:href="#J"/><use transform="matrix(0.05,0,0,0.05,11,0)" xlink:href="#q"/><use transform="matrix(0.05,0,0,0.05,21,0)" xlink:href="#F"/><use transform="matrix(0.05,0,0,0.05,31,0)" xlink:href="#m"/><use transform="matrix(0.05,0,0,0.05,41,0)" xlink:href="#D"/><use transform="matrix(0.05,0,0,0.05,51,0)" xlink:href="#R"/><use transform="matrix(0.05,0,0,0.05,61,0)" xlink:href="#S"/><use transform="matrix(0.05,0,0,0.05,73,0)" xlink:href="#T"/></g></defs></g></svg>