<svg xmlns="http://www.w3.org/2000/svg" xmlns:xlink="http://www.w3.org/1999/xlink" contentstyletype="text/css" data-diagram-type="SEQUENCE" height="681px" preserveAspectRatio="none" style="width:1184px;height:681px;background:#FFFFFF;" version="1.1" viewBox="0 0 1184 681" width="1184px" zoomAndPan="magnify"><defs></defs><g><rect fill="none" height="90.2031" style="stroke:#000000;stroke-width:1.5;" width="693.9927" x="10" y="185.6953"></rect><rect fill="none" height="119.3359" style="stroke:#000000;stroke-width:1.5;" width="1098.3882" x="79.2041" y="435.5625"></rect><line style="stroke:#181818;stroke-width:0.5;stroke-dasharray:5.0,5.0;" x1="49" x2="49" y1="81.2969" y2="601.0313"></line><line style="stroke:#181818;stroke-width:0.5;stroke-dasharray:5.0,5.0;" x1="134.2041" x2="134.2041" y1="81.2969" y2="601.0313"></line><line style="stroke:#181818;stroke-width:0.5;stroke-dasharray:5.0,5.0;" x1="516.2437" x2="516.2437" y1="81.2969" y2="601.0313"></line><line style="stroke:#181818;stroke-width:0.5;stroke-dasharray:5.0,5.0;" x1="629.9214" x2="629.9214" y1="81.2969" y2="601.0313"></line><line style="stroke:#181818;stroke-width:0.5;stroke-dasharray:5.0,5.0;" x1="916.4185" x2="916.4185" y1="81.2969" y2="601.0313"></line><line style="stroke:#181818;stroke-width:0.5;stroke-dasharray:5.0,5.0;" x1="1027.7261" x2="1027.7261" y1="81.2969" y2="601.0313"></line><line style="stroke:#181818;stroke-width:0.5;stroke-dasharray:5.0,5.0;" x1="1121.6401" x2="1121.6401" y1="81.2969" y2="601.0313"></line><text fill="#000000" font-family="sans-serif" font-size="14" lengthAdjust="spacing" textLength="53.2041" x="20" y="77.9951">Usuario</text><ellipse cx="49.6021" cy="13.5" fill="#E2E2F0" rx="8" ry="8" style="stroke:#181818;stroke-width:0.5;"></ellipse><path d="M49.6021,21.5 L49.6021,48.5 M36.6021,29.5 L62.6021,29.5 M49.6021,48.5 L36.6021,63.5 M49.6021,48.5 L62.6021,63.5 " fill="none" style="stroke:#181818;stroke-width:0.5;"></path><text fill="#000000" font-family="sans-serif" font-size="14" lengthAdjust="spacing" textLength="53.2041" x="20" y="613.0264">Usuario</text><ellipse cx="49.6021" cy="624.8281" fill="#E2E2F0" rx="8" ry="8" style="stroke:#181818;stroke-width:0.5;"></ellipse><path d="M49.6021,632.8281 L49.6021,659.8281 M36.6021,640.8281 L62.6021,640.8281 M49.6021,659.8281 L36.6021,674.8281 M49.6021,659.8281 L62.6021,674.8281 " fill="none" style="stroke:#181818;stroke-width:0.5;"></path><text fill="#000000" font-family="sans-serif" font-size="14" lengthAdjust="spacing" textLength="85.7158" x="89.2041" y="77.9951">API_Estoque</text><ellipse cx="135.062" cy="49" fill="#E2E2F0" rx="12" ry="12" style="stroke:#181818;stroke-width:0.5;"></ellipse><line style="stroke:#181818;stroke-width:0.5;" x1="123.062" x2="147.062" y1="63" y2="63"></line><text fill="#000000" font-family="sans-serif" font-size="14" lengthAdjust="spacing" textLength="85.7158" x="89.2041" y="613.0264">API_Estoque</text><ellipse cx="135.062" cy="632.3281" fill="#E2E2F0" rx="12" ry="12" style="stroke:#181818;stroke-width:0.5;"></ellipse><line style="stroke:#181818;stroke-width:0.5;" x1="123.062" x2="147.062" y1="646.3281" y2="646.3281"></line><text fill="#000000" font-family="sans-serif" font-size="14" lengthAdjust="spacing" textLength="73.6777" x="477.2437" y="77.9951">API_Venda</text><ellipse cx="517.0825" cy="49" fill="#E2E2F0" rx="12" ry="12" style="stroke:#181818;stroke-width:0.5;"></ellipse><line style="stroke:#181818;stroke-width:0.5;" x1="505.0825" x2="529.0825" y1="63" y2="63"></line><text fill="#000000" font-family="sans-serif" font-size="14" lengthAdjust="spacing" textLength="73.6777" x="477.2437" y="613.0264">API_Venda</text><ellipse cx="517.0825" cy="632.3281" fill="#E2E2F0" rx="12" ry="12" style="stroke:#181818;stroke-width:0.5;"></ellipse><line style="stroke:#181818;stroke-width:0.5;" x1="505.0825" x2="529.0825" y1="646.3281" y2="646.3281"></line><text fill="#000000" font-family="sans-serif" font-size="14" lengthAdjust="spacing" textLength="121.0713" x="566.9214" y="77.9951">API_Autenticacao</text><ellipse cx="630.457" cy="49" fill="#E2E2F0" rx="12" ry="12" style="stroke:#181818;stroke-width:0.5;"></ellipse><line style="stroke:#181818;stroke-width:0.5;" x1="618.457" x2="642.457" y1="63" y2="63"></line><text fill="#000000" font-family="sans-serif" font-size="14" lengthAdjust="spacing" textLength="121.0713" x="566.9214" y="613.0264">API_Autenticacao</text><ellipse cx="630.457" cy="632.3281" fill="#E2E2F0" rx="12" ry="12" style="stroke:#181818;stroke-width:0.5;"></ellipse><line style="stroke:#181818;stroke-width:0.5;" x1="618.457" x2="642.457" y1="646.3281" y2="646.3281"></line><text fill="#000000" font-family="sans-serif" font-size="14" lengthAdjust="spacing" textLength="119.3076" x="854.4185" y="77.9951">DB_Autenticacao</text><path d="M899.0723,29 C899.0723,19 917.0723,19 917.0723,19 C917.0723,19 935.0723,19 935.0723,29 L935.0723,55 C935.0723,65 917.0723,65 917.0723,65 C917.0723,65 899.0723,65 899.0723,55 L899.0723,29 " fill="#E2E2F0" style="stroke:#181818;stroke-width:1.5;"></path><path d="M899.0723,29 C899.0723,39 917.0723,39 917.0723,39 C917.0723,39 935.0723,39 935.0723,29 " fill="none" style="stroke:#181818;stroke-width:1.5;"></path><text fill="#000000" font-family="sans-serif" font-size="14" lengthAdjust="spacing" textLength="119.3076" x="854.4185" y="613.0264">DB_Autenticacao</text><path d="M899.0723,626.3281 C899.0723,616.3281 917.0723,616.3281 917.0723,616.3281 C917.0723,616.3281 935.0723,616.3281 935.0723,626.3281 L935.0723,652.3281 C935.0723,662.3281 917.0723,662.3281 917.0723,662.3281 C917.0723,662.3281 899.0723,662.3281 899.0723,652.3281 L899.0723,626.3281 " fill="#E2E2F0" style="stroke:#181818;stroke-width:1.5;"></path><path d="M899.0723,626.3281 C899.0723,636.3281 917.0723,636.3281 917.0723,636.3281 C917.0723,636.3281 935.0723,636.3281 935.0723,626.3281 " fill="none" style="stroke:#181818;stroke-width:1.5;"></path><text fill="#000000" font-family="sans-serif" font-size="14" lengthAdjust="spacing" textLength="71.9141" x="989.7261" y="77.9951">DB_Venda</text><path d="M1010.6831,29 C1010.6831,19 1028.6831,19 1028.6831,19 C1028.6831,19 1046.6831,19 1046.6831,29 L1046.6831,55 C1046.6831,65 1028.6831,65 1028.6831,65 C1028.6831,65 1010.6831,65 1010.6831,55 L1010.6831,29 " fill="#E2E2F0" style="stroke:#181818;stroke-width:1.5;"></path><path d="M1010.6831,29 C1010.6831,39 1028.6831,39 1028.6831,39 C1028.6831,39 1046.6831,39 1046.6831,29 " fill="none" style="stroke:#181818;stroke-width:1.5;"></path><text fill="#000000" font-family="sans-serif" font-size="14" lengthAdjust="spacing" textLength="71.9141" x="989.7261" y="613.0264">DB_Venda</text><path d="M1010.6831,626.3281 C1010.6831,616.3281 1028.6831,616.3281 1028.6831,616.3281 C1028.6831,616.3281 1046.6831,616.3281 1046.6831,626.3281 L1046.6831,652.3281 C1046.6831,662.3281 1028.6831,662.3281 1028.6831,662.3281 C1028.6831,662.3281 1010.6831,662.3281 1010.6831,652.3281 L1010.6831,626.3281 " fill="#E2E2F0" style="stroke:#181818;stroke-width:1.5;"></path><path d="M1010.6831,626.3281 C1010.6831,636.3281 1028.6831,636.3281 1028.6831,636.3281 C1028.6831,636.3281 1046.6831,636.3281 1046.6831,626.3281 " fill="none" style="stroke:#181818;stroke-width:1.5;"></path><text fill="#000000" font-family="sans-serif" font-size="14" lengthAdjust="spacing" textLength="83.9521" x="1077.6401" y="77.9951">DB_Estoque</text><path d="M1104.6162,29 C1104.6162,19 1122.6162,19 1122.6162,19 C1122.6162,19 1140.6162,19 1140.6162,29 L1140.6162,55 C1140.6162,65 1122.6162,65 1122.6162,65 C1122.6162,65 1104.6162,65 1104.6162,55 L1104.6162,29 " fill="#E2E2F0" style="stroke:#181818;stroke-width:1.5;"></path><path d="M1104.6162,29 C1104.6162,39 1122.6162,39 1122.6162,39 C1122.6162,39 1140.6162,39 1140.6162,29 " fill="none" style="stroke:#181818;stroke-width:1.5;"></path><text fill="#000000" font-family="sans-serif" font-size="14" lengthAdjust="spacing" textLength="83.9521" x="1077.6401" y="613.0264">DB_Estoque</text><path d="M1104.6162,626.3281 C1104.6162,616.3281 1122.6162,616.3281 1122.6162,616.3281 C1122.6162,616.3281 1140.6162,616.3281 1140.6162,626.3281 L1140.6162,652.3281 C1140.6162,662.3281 1122.6162,662.3281 1122.6162,662.3281 C1122.6162,662.3281 1104.6162,662.3281 1104.6162,652.3281 L1104.6162,626.3281 " fill="#E2E2F0" style="stroke:#181818;stroke-width:1.5;"></path><path d="M1104.6162,626.3281 C1104.6162,636.3281 1122.6162,636.3281 1122.6162,636.3281 C1122.6162,636.3281 1140.6162,636.3281 1140.6162,626.3281 " fill="none" style="stroke:#181818;stroke-width:1.5;"></path><polygon fill="#181818" points="618.457,108.4297,628.457,112.4297,618.457,116.4297,622.457,112.4297" style="stroke:#181818;stroke-width:1;"></polygon><line style="stroke:#181818;stroke-width:1;" x1="49.6021" x2="624.457" y1="112.4297" y2="112.4297"></line><text fill="#000000" font-family="sans-serif" font-size="13" lengthAdjust="spacing" textLength="181.6636" x="56.6021" y="107.3638">Solicita login (nome, senha)</text><polygon fill="#181818" points="905.0723,137.5625,915.0723,141.5625,905.0723,145.5625,909.0723,141.5625" style="stroke:#181818;stroke-width:1;"></polygon><line style="stroke:#181818;stroke-width:1;" x1="630.457" x2="911.0723" y1="141.5625" y2="141.5625"></line><text fill="#000000" font-family="sans-serif" font-size="13" lengthAdjust="spacing" textLength="262.6152" x="637.457" y="136.4966">Verifica credenciais no DB_Autenticacao</text><polygon fill="#181818" points="641.457,166.6953,631.457,170.6953,641.457,174.6953,637.457,170.6953" style="stroke:#181818;stroke-width:1;"></polygon><line style="stroke:#181818;stroke-width:1;" x1="635.457" x2="916.0723" y1="170.6953" y2="170.6953"></line><text fill="#000000" font-family="sans-serif" font-size="13" lengthAdjust="spacing" textLength="225.9131" x="647.457" y="165.6294">Retorna resultado da autenticação</text><path d="M10,185.6953 L74.4429,185.6953 L74.4429,192.8281 L64.4429,202.8281 L10,202.8281 L10,185.6953 " fill="#EEEEEE" style="stroke:#000000;stroke-width:1.5;"></path><rect fill="none" height="90.2031" style="stroke:#000000;stroke-width:1.5;" width="693.9927" x="10" y="185.6953"></rect><text fill="#000000" font-family="sans-serif" font-size="13" font-weight="bold" lengthAdjust="spacing" textLength="19.4429" x="25" y="198.7622">alt</text><text fill="#000000" font-family="sans-serif" font-size="11" font-weight="bold" lengthAdjust="spacing" textLength="60.4409" x="89.4429" y="197.9058">[Sucesso]</text><polygon fill="#181818" points="60.6021,219.9609,50.6021,223.9609,60.6021,227.9609,56.6021,223.9609" style="stroke:#181818;stroke-width:1;"></polygon><line style="stroke:#181818;stroke-width:1;" x1="54.6021" x2="629.457" y1="223.9609" y2="223.9609"></line><text fill="#000000" font-family="sans-serif" font-size="13" lengthAdjust="spacing" textLength="95.2339" x="66.6021" y="218.895">Confirma login</text><line style="stroke:#000000;stroke-width:1;stroke-dasharray:2.0,2.0;" x1="10" x2="703.9927" y1="232.9609" y2="232.9609"></line><text fill="#000000" font-family="sans-serif" font-size="11" font-weight="bold" lengthAdjust="spacing" textLength="44.0161" x="15" y="243.1714">[Falha]</text><polygon fill="#181818" points="60.6021,263.8984,50.6021,267.8984,60.6021,271.8984,56.6021,267.8984" style="stroke:#181818;stroke-width:1;"></polygon><line style="stroke:#181818;stroke-width:1;" x1="54.6021" x2="629.457" y1="267.8984" y2="267.8984"></line><text fill="#000000" font-family="sans-serif" font-size="13" lengthAdjust="spacing" textLength="137.5347" x="66.6021" y="262.8325">Informa erro de login</text><polygon fill="#181818" points="505.0825,300.0313,515.0825,304.0313,505.0825,308.0313,509.0825,304.0313" style="stroke:#181818;stroke-width:1;"></polygon><line style="stroke:#181818;stroke-width:1;" x1="49.6021" x2="511.0825" y1="304.0313" y2="304.0313"></line><text fill="#000000" font-family="sans-serif" font-size="13" lengthAdjust="spacing" textLength="247.7427" x="56.6021" y="298.9653">Inicia venda (produtos e quantidades)</text><polygon fill="#181818" points="1016.6831,329.1641,1026.6831,333.1641,1016.6831,337.1641,1020.6831,333.1641" style="stroke:#181818;stroke-width:1;"></polygon><line style="stroke:#181818;stroke-width:1;" x1="517.0825" x2="1022.6831" y1="333.1641" y2="333.1641"></line><text fill="#000000" font-family="sans-serif" font-size="13" lengthAdjust="spacing" textLength="189.5918" x="524.0825" y="328.0981">Registra venda no DB_Venda</text><polygon fill="#181818" points="1016.6831,358.2969,1026.6831,362.2969,1016.6831,366.2969,1020.6831,362.2969" style="stroke:#181818;stroke-width:1;"></polygon><line style="stroke:#181818;stroke-width:1;" x1="517.0825" x2="1022.6831" y1="362.2969" y2="362.2969"></line><text fill="#000000" font-family="sans-serif" font-size="13" lengthAdjust="spacing" textLength="266.5762" x="524.0825" y="357.231">Registra itens da venda (venda_produto)</text><polygon fill="#181818" points="146.062,387.4297,136.062,391.4297,146.062,395.4297,142.062,391.4297" style="stroke:#181818;stroke-width:1;"></polygon><line style="stroke:#181818;stroke-width:1;" x1="140.062" x2="516.0825" y1="391.4297" y2="391.4297"></line><text fill="#000000" font-family="sans-serif" font-size="13" lengthAdjust="spacing" textLength="358.0205" x="152.062" y="386.3638">Solicita atualização do estoque (produto e quantidade)</text><polygon fill="#181818" points="1110.6162,416.5625,1120.6162,420.5625,1110.6162,424.5625,1114.6162,420.5625" style="stroke:#181818;stroke-width:1;"></polygon><line style="stroke:#181818;stroke-width:1;" x1="135.062" x2="1116.6162" y1="420.5625" y2="420.5625"></line><text fill="#000000" font-family="sans-serif" font-size="13" lengthAdjust="spacing" textLength="299.6982" x="142.062" y="415.4966">Verifica quantidade disponível no DB_Estoque</text><path d="M79.2041,435.5625 L143.647,435.5625 L143.647,442.6953 L133.647,452.6953 L79.2041,452.6953 L79.2041,435.5625 " fill="#EEEEEE" style="stroke:#000000;stroke-width:1.5;"></path><rect fill="none" height="119.3359" style="stroke:#000000;stroke-width:1.5;" width="1098.3882" x="79.2041" y="435.5625"></rect><text fill="#000000" font-family="sans-serif" font-size="13" font-weight="bold" lengthAdjust="spacing" textLength="19.4429" x="94.2041" y="448.6294">alt</text><text fill="#000000" font-family="sans-serif" font-size="11" font-weight="bold" lengthAdjust="spacing" textLength="147.2163" x="158.647" y="447.7729">[Quantidade suficiente]</text><polygon fill="#181818" points="1110.6162,469.8281,1120.6162,473.8281,1110.6162,477.8281,1114.6162,473.8281" style="stroke:#181818;stroke-width:1;"></polygon><line style="stroke:#181818;stroke-width:1;" x1="135.062" x2="1116.6162" y1="473.8281" y2="473.8281"></line><text fill="#000000" font-family="sans-serif" font-size="13" lengthAdjust="spacing" textLength="249.1646" x="142.062" y="468.7622">Atualiza estoque (diminui quantidade)</text><polygon fill="#181818" points="505.0825,498.9609,515.0825,502.9609,505.0825,506.9609,509.0825,502.9609" style="stroke:#181818;stroke-width:1;"></polygon><line style="stroke:#181818;stroke-width:1;" x1="135.062" x2="511.0825" y1="502.9609" y2="502.9609"></line><text fill="#000000" font-family="sans-serif" font-size="13" lengthAdjust="spacing" textLength="214.6968" x="142.062" y="497.895">Confirma atualização do estoque</text><line style="stroke:#000000;stroke-width:1;stroke-dasharray:2.0,2.0;" x1="79.2041" x2="1177.5923" y1="511.9609" y2="511.9609"></line><text fill="#000000" font-family="sans-serif" font-size="11" font-weight="bold" lengthAdjust="spacing" textLength="158.8179" x="84.2041" y="522.1714">[Quantidade insuficiente]</text><polygon fill="#181818" points="505.0825,542.8984,515.0825,546.8984,505.0825,550.8984,509.0825,546.8984" style="stroke:#181818;stroke-width:1;"></polygon><line style="stroke:#181818;stroke-width:1;" x1="135.062" x2="511.0825" y1="546.8984" y2="546.8984"></line><text fill="#000000" font-family="sans-serif" font-size="13" lengthAdjust="spacing" textLength="251.6973" x="142.062" y="541.8325">Informa que não há estoque suficiente</text><polygon fill="#181818" points="60.6021,579.0313,50.6021,583.0313,60.6021,587.0313,56.6021,583.0313" style="stroke:#181818;stroke-width:1;"></polygon><line style="stroke:#181818;stroke-width:1;" x1="54.6021" x2="516.0825" y1="583.0313" y2="583.0313"></line><text fill="#000000" font-family="sans-serif" font-size="13" lengthAdjust="spacing" textLength="246.2192" x="66.6021" y="577.9653">Informa venda realizada com sucesso</text><!--SRC=[TP8zRXin48LxdcAwE41I9EvK1DXaru0xsmjjQqoM8sk05Mdpnu1pco15Afz25_EGNEsFewYHHCwy-UOzOX-iWwsFwDW2UjWgCe732rGtr_UD3_OfKZflc-L5HqPZFkwMnrKCwL-FFMQnjb8Q0_v4Jr1__-UwNbzFedMtEbzGr8rIwWFSeFSMlcnWKZp-FVwnQWkVlybGs41h1-uv80psWGrS67kWJ-39xF6ZaWgfgrDTHuvtqW-z8qscPsGFnhwdLNKrIT-HM6OG7Fau1DGM4lKQ18S0RUn9C1N8fqpSIlSFQtRi3YEOea5slC9XZ-_ghitEfZ9oJWRGgTpeUV-lYGK7_bM69eniuMX3brN41OJdxEp5exCw1kk1u2cYu6hKvCMFBllHvUKUs0TtQYbE5DLpLInR-pHud92_xiSv9-6sMGQ28IwPBT0OxmblHISQJHxRBCEQxq6pVxJc-FfCmqWxFfUSmUrSwAEqieH4nUbPjXg9PXBD1pQHLnnpKtPsol5_-vHe5m1ipYACEPMqqtIJTFR7tnFEecsL_-K6hjYSUm35z-KpAlcuybpaLsyFefiVw1i0]--></g></svg>