<svg xmlns="http://www.w3.org/2000/svg" xmlns:xlink="http://www.w3.org/1999/xlink" xmlns:lucid="lucid" width="1880" height="1357"><g transform="translate(-414 -215)" lucid:page-tab-id="PaLdq~84CkD7"><path d="M0 0h6373.17v5220.58H0z" fill="#fff"/><path d="M659.8 441a8 8 0 0 1 8-8h144a8 8 0 0 1 8 8v104a8 8 0 0 1-8 8h-144a8 8 0 0 1-8-8z" stroke="#333" fill="#fff"/><use xlink:href="#a" transform="matrix(1,0,0,1,659.7938144329897,432.98969072164954) translate(49.381752929687494 64.966875)"/><path d="M739.8 554v4.95m0 4.95v9.92m0 4.95v9.92m0 4.94v9.9m0 4.97v9.92m0 4.96v9.9m0 4.97v9.9m0 4.97v9.9m0 4.97v9.9m0 4.96v9.9m0 4.97v9.9m0 4.97v9.9m0 4.97v9.9m0 4.97v9.9m0 4.97v9.92m0 4.96v9.9m0 4.97v9.9m0 4.97v9.9m0 4.97v9.9m0 4.96v9.9m0 4.97v9.9m0 4.97v9.9m0 4.97v9.9m0 4.97v9.9m0 4.97v9.92m0 4.95v9.92m0 4.94v9.92m0 4.96v9.9m0 4.96v9.92m0 4.95v9.92m0 4.95v9.92m0 4.95v9.9m0 4.96v9.92m0 4.95v9.92m0 4.95v9.92m0 4.95v9.9m0 4.97v9.92m0 4.95v9.92m0 4.96v9.9m0 4.97v9.9m0 4.97v9.9m0 4.97v9.9m0 4.96v9.9m0 4.97v9.9m0 4.97v9.9m0 4.97v9.9m0 4.97v9.9m0 4.97v9.92m0 4.96v9.9m0 4.97v9.9m0 4.97v9.9m0 4.97v9.9m0 4.96v9.9m0 4.97v9.9m0 4.97v9.9m0 4.97v9.9m0 4.97v9.9m0 4.96v4.96" stroke="#333" fill="none"/><path d="M740.27 554h-.95v-.5h.95z" stroke="#333" stroke-width=".05" fill="#333"/><path d="M739.8 1401.55v.5" stroke="#333" fill="none"/><path d="M719.8 605.94a8 8 0 0 1 8-8h24a8 8 0 0 1 8 8v664.4a8 8 0 0 1-8 8h-24a8 8 0 0 1-8-8zM1443.3 441a8 8 0 0 1 8-8h144a8 8 0 0 1 8 8v104a8 8 0 0 1-8 8h-144a8 8 0 0 1-8-8z" stroke="#333" fill="#fff"/><use xlink:href="#b" transform="matrix(1,0,0,1,1443.298969072165,432.98972972765046) translate(27.888671874999993 64.966875)"/><path d="M2082.47 441a8 8 0 0 1 8-8h144a8 8 0 0 1 8 8v104a8 8 0 0 1-8 8h-144a8 8 0 0 1-8-8z" stroke="#333" fill="#fff"/><use xlink:href="#c" transform="matrix(1,0,0,1,2082.4742268041236,432.98972972765057) translate(15.983491210937482 64.966875)"/><use xlink:href="#d" transform="matrix(1,0,0,1,2082.4742268041236,432.98972972765057) translate(70.53562011718749 64.966875)"/><use xlink:href="#e" transform="matrix(1,0,0,1,2082.4742268041236,432.98972972765057) translate(95.2532763671875 64.966875)"/><path d="M1523.3 1203.47v5.08m0 5.08v10.16m0 5.07v10.16m0 5.08v10.17m0 5.08v10.15m0 5.08v10.16m0 5.08v10.16m0 5.08v10.16m0 5.08v10.15m0 5.08v10.16m0 5.07v10.16m0 5.08v10.17m0 5.07v10.16m0 5.08v5.08M1523.3 1203.5v-.53M1523.3 1401.55v.5M1523.3 554v5.03m0 5.04v10.08m0 5.05v10.08m0 5.04v10.08m0 5.04v10.08m0 5.04v10.1m0 5.03v10.07m0 5.04v10.1m0 5.03V680m0 5.05v10.1m0 5.03v10.08m0 5.04v10.08m0 5.04v10.1m0 5.03v10.08m0 5.04v10.08m0 5.04v10.08m0 5.04V801m0 5.04v10.08m0 5.04v10.08m0 5.04v10.1m0 5.03v10.1m0 5.03v10.08m0 5.05v10.1m0 5.03v10.08m0 5.04v10.08m0 5.04v10.08m0 5.04v10.1m0 5.03v10.08m0 5.04v10.07m0 5.04v10.1m0 5.04v10.08m0 5.04v10.08m0 5.04v10.08m0 5.05v10.1m0 5.03v10.08m0 5.05v10.08m0 5.04v10.1m0 5.03v10.08m0 5.04v10.08m0 5.04v10.1m0 5.03v10.08m0 5.04v10.07m0 5.04v10.1m0 5.03v5.05" stroke="#333" fill="none"/><path d="M1523.77 554h-.95v-.5h.95z" stroke="#333" stroke-width=".05" fill="#333"/><path d="M1523.3 1204.26v.52M2162.47 554v4.95m0 4.95v9.92m0 4.95v9.92m0 4.94v9.9m0 4.97v9.92m0 4.96v9.9m0 4.97v9.9m0 4.97v9.9m0 4.97v9.9m0 4.96v9.9m0 4.97v9.9m0 4.97v9.9m0 4.97v9.9m0 4.97v9.9m0 4.97v9.92m0 4.96v9.9m0 4.97v9.9m0 4.97v9.9m0 4.97v9.9m0 4.96v9.9m0 4.97v9.9m0 4.97v9.9m0 4.97v9.9m0 4.97v9.9m0 4.97v9.92m0 4.95v9.92m0 4.94v9.92m0 4.96v9.9m0 4.96v9.92m0 4.95v9.92m0 4.95v9.92m0 4.95v9.9m0 4.96v9.92m0 4.95v9.92m0 4.95v9.92m0 4.95v9.9m0 4.97v9.92m0 4.95v9.92m0 4.96v9.9m0 4.97v9.9m0 4.97v9.9m0 4.97v9.9m0 4.96v9.9m0 4.97v9.9m0 4.97v9.9m0 4.97v9.9m0 4.97v9.9m0 4.97v9.92m0 4.96v9.9m0 4.97v9.9m0 4.97v9.9m0 4.97v9.9m0 4.96v9.9m0 4.97v9.9m0 4.97v9.9m0 4.97v9.9m0 4.97v9.9m0 4.96v4.96" stroke="#333" fill="none"/><path d="M2162.95 554h-.95v-.5h.95z" stroke="#333" stroke-width=".05" fill="#333"/><path d="M2162.47 1401.55v.5M760.8 615.75h725.61" stroke="#333" fill="none"/><path d="M760.8 616.22h-.5v-.95h.5z" stroke="#333" stroke-width=".05" fill="#333"/><path d="M1501.18 615.75l-14.27 4.63v-9.27z" stroke="#333" fill="#333"/><use xlink:href="#f" transform="matrix(1,0,0,1,984.5051525510285,589.967262401649) translate(0.0049999999999954525 17.4375)"/><use xlink:href="#g" transform="matrix(1,0,0,1,984.5051525510285,589.967262401649) translate(78.0079296875 17.4375)"/><use xlink:href="#h" transform="matrix(1,0,0,1,984.5051525510285,589.967262401649) translate(124.2559765625 17.4375)"/><use xlink:href="#i" transform="matrix(1,0,0,1,984.5051525510285,589.967262401649) translate(220.5841015625 17.4375)"/><use xlink:href="#j" transform="matrix(1,0,0,1,984.5051525510285,589.967262401649) translate(236.1407421875 17.4375)"/><path d="M1503.3 605.94a8 8 0 0 1 8-8h24a8 8 0 0 1 8 8v664.4a8 8 0 0 1-8 8h-24a8 8 0 0 1-8-8z" stroke="#333" fill="#fff"/><path d="M1544.3 644.28h581.3" stroke="#333" fill="none"/><path d="M1544.3 644.76h-.5v-.95h.5z" stroke="#333" stroke-width=".05" fill="#333"/><path d="M2140.36 644.28l-14.27 4.64v-9.27z" stroke="#333" fill="#333"/><use xlink:href="#k" transform="matrix(1,0,0,1,1721.2283528131334,618.5018542232168) translate(0.0049999999999954525 17.4375)"/><use xlink:href="#l" transform="matrix(1,0,0,1,1721.2283528131334,618.5018542232168) translate(56.799921874999995 17.4375)"/><use xlink:href="#m" transform="matrix(1,0,0,1,1721.2283528131334,618.5018542232168) translate(124.967890625 17.4375)"/><use xlink:href="#n" transform="matrix(1,0,0,1,1721.2283528131334,618.5018542232168) translate(158.6212109375 17.4375)"/><path d="M2142.47 626.56a8 8 0 0 1 8-8h24a8 8 0 0 1 8 8V754.9a8 8 0 0 1-8 8h-24a8 8 0 0 1-8-8z" stroke="#333" fill="#fff"/><path d="M2141.47 743.08h-581.3" stroke="#333" fill="none"/><path d="M2141.97 743.55h-.5v-.95h.5z" stroke="#333" stroke-width=".05" fill="#333"/><path d="M1545.42 743.08l14.26-4.64v9.27z" stroke="#333" fill="#333"/><use xlink:href="#o" transform="matrix(1,0,0,1,1778.1640444685968,747.0754506070756) translate(0.0049999999999954525 17.4375)"/><use xlink:href="#p" transform="matrix(1,0,0,1,1778.1640444685968,747.0754506070756) translate(66.34484375 17.4375)"/><path d="M1502.3 912H776.68" stroke="#333" fill="none"/><path d="M1502.8 912.46h-.5v-.95h.5z" stroke="#333" stroke-width=".05" fill="#333"/><path d="M761.9 912l14.28-4.65v9.27z" stroke="#333" fill="#333"/><use xlink:href="#q" transform="matrix(1,0,0,1,901.0699389388096,915.9856990396424) translate(0.0049999999999954525 17.4375)"/><use xlink:href="#r" transform="matrix(1,0,0,1,901.0699389388096,915.9856990396424) translate(68.17296875 17.4375)"/><use xlink:href="#s" transform="matrix(1,0,0,1,901.0699389388096,915.9856990396424) translate(104.770625 17.4375)"/><path d="M1544.3 987.1h155.04a12 12 0 0 1 12 12v19.55a12 12 0 0 1-12 12h-139.16" stroke="#333" fill="none"/><path d="M1544.3 987.56h-.5v-.95h.5z" stroke="#333" stroke-width=".05" fill="#333"/><path d="M1545.42 1030.65l14.26-4.63v9.27z" stroke="#333" fill="#333"/><use xlink:href="#t" transform="matrix(1,0,0,1,1719.340206185567,997.9805933774475) translate(0.005000000000002558 17.4375)"/><use xlink:href="#u" transform="matrix(1,0,0,1,1719.340206185567,997.9805933774475) translate(55.0508984375 17.4375)"/><path d="M453.6 770.9a8 8 0 0 1 8-8h169.57a8 8 0 0 1 8 8v4.92a17.07 17.07 0 0 1-5 12.07 17.07 17.07 0 0 1-12.07 5H461.6a8 8 0 0 1-8-8z" fill="#fff"/><path d="M639.17 762.9v20l-10 10H453.6" stroke="#333" fill="none"/><path d="M453.6 770.9a8 8 0 0 1 8-8H1559a8 8 0 0 1 8 8v169.55a8 8 0 0 1-8 8H461.6a8 8 0 0 1-8-8zM453.6 855.67h20m15 0h20m15 0h20m15 0h20m15 0h20m15 0h20m15 0h20m15 0h20m15 0h20m15 0h20m15 0h20m15 0h20m15 0h20m15 0h20m15 0h20m15 0h20m15 0h20m15 0h20m15 0h20m15 0h20m15 0h20m15 0h20m15 0h20m15 0h20m15 0h20m15 0h20m15 0h20m15 0h20m15 0h20m15 0h20m15 0h20m15 0h20" stroke="#333" fill="none"/><use xlink:href="#q" transform="matrix(1,0,0,1,461.60824742268045,762.8865979381444) translate(1.20263671875 21.5478515625)"/><use xlink:href="#s" transform="matrix(1,0,0,1,461.60824742268045,762.8865979381444) translate(69.37060546875 21.5478515625)"/><use xlink:href="#v" transform="matrix(1,0,0,1,465.60824742268045,800.8865979381444) translate(10.17724609375 21.5478515625)"/><use xlink:href="#w" transform="matrix(1,0,0,1,465.60824742268045,863.6701030927835) translate(14.13525390625 21.5478515625)"/><path d="M453.6 1080.16a8 8 0 0 1 8-8h143.8a8 8 0 0 1 8 8v4.93a17.07 17.07 0 0 1-5 12.07 17.07 17.07 0 0 1-12.07 5H461.6a8 8 0 0 1-8-8z" fill="#fff"/><path d="M613.4 1072.16v20l-10 10H453.6" stroke="#333" fill="none"/><path d="M453.6 1080.16a8 8 0 0 1 8-8H1559a8 8 0 0 1 8 8v210.8a8 8 0 0 1-8 8H461.6a8 8 0 0 1-8-8zM453.6 1200.78h20m15 0h20m15 0h20m15 0h20m15 0h20m15 0h20m15 0h20m15 0h20m15 0h20m15 0h20m15 0h20m15 0h20m15 0h20m15 0h20m15 0h20m15 0h20m15 0h20m15 0h20m15 0h20m15 0h20m15 0h20m15 0h20m15 0h20m15 0h20m15 0h20m15 0h20m15 0h20m15 0h20m15 0h20m15 0h20m15 0h20m15 0h20" stroke="#333" fill="none"/><g><use xlink:href="#x" transform="matrix(1,0,0,1,461.6082474226805,1072.1649484536083) translate(17.78662109375 21.5478515625)"/><use xlink:href="#y" transform="matrix(1,0,0,1,461.6082474226805,1072.1649484536083) translate(74.22998046875 21.5478515625)"/></g><g><use xlink:href="#v" transform="matrix(1,0,0,1,465.6082474226805,1110.1649484536083) translate(10.17724609375 21.5478515625)"/></g><g><use xlink:href="#w" transform="matrix(1,0,0,1,465.6082474226805,1208.7803330669892) translate(14.13525390625 21.5478515625)"/></g><path d="M1502.3 1157H776.68" stroke="#333" fill="none"/><path d="M1502.8 1157.46h-.5v-.95h.5z" stroke="#333" stroke-width=".05" fill="#333"/><path d="M761.9 1157l14.28-4.65v9.27z" stroke="#333" fill="#333"/><g><use xlink:href="#z" transform="matrix(1,0,0,1,901.192233781604,1160.9867598952487) translate(0.005000000000002558 17.4375)"/><use xlink:href="#A" transform="matrix(1,0,0,1,901.192233781604,1160.9867598952487) translate(80.7325390625 17.4375)"/></g><path d="M1502.3 1260.44H776.68" stroke="#333" fill="none"/><path d="M1502.8 1260.9h-.5v-.94h.5z" stroke="#333" stroke-width=".05" fill="#333"/><path d="M761.9 1260.44l14.28-4.64v9.27z" stroke="#333" fill="#333"/><g><use xlink:href="#B" transform="matrix(1,0,0,1,897.6660485447105,1264.4371917469798) translate(0.0049999999999954525 17.4375)"/><use xlink:href="#C" transform="matrix(1,0,0,1,897.6660485447105,1264.4371917469798) translate(103.083125 17.4375)"/></g><path d="M1278.35 276.04a8 8 0 0 1 8-8h224a8 8 0 0 1 8 8v44a8 8 0 0 1-8 8h-224a8 8 0 0 1-8-8z" fill="none"/><g><use xlink:href="#D" transform="matrix(1,0,0,1,1278.3505154639176,268.0412371134021) translate(99.4072265625 36.5478515625)"/></g><defs><path d="M763 24c-353 0-583-224-583-531v-983h190v968c0 214 149 370 393 370 243 0 391-156 391-370v-968h190v983c0 307-230 531-581 531" id="E"/><path d="M538 24C308 24 148-78 108-271l171-41c32 123 123 178 257 178 156 0 256-77 256-169 0-77-54-128-164-154l-186-44c-203-48-300-148-300-305 0-192 176-326 414-326 230 0 351 112 402 269l-163 42c-31-80-94-158-238-158-133 0-233 69-233 162 0 83 57 129 188 160l169 40c203 48 298 149 298 302 0 196-179 339-441 339" id="F"/><path d="M537 14c-226 0-379-139-379-422v-710h180v695c0 172 97 275 253 275 160 0 281-109 281-300v-670h181V0H879v-209C806-46 684 14 537 14" id="G"/><path d="M471 26C259 26 90-98 90-318c0-256 228-303 435-329 202-27 287-16 287-108 0-139-79-219-234-219-161 0-248 86-283 164l-173-57c86-203 278-265 451-265 150 0 419 46 419 395V0H815v-152h-12C765-73 660 26 471 26zm31-159c199 0 310-134 310-271v-155c-30 35-226 55-295 64-131 17-246 59-246 186 0 116 97 176 231 176zm-23-1131l140-294h201l-194 294H479" id="H"/><path d="M158 0v-1118h174v172h12c41-113 157-188 290-188 26 0 70 2 91 3v181c-11-2-60-10-108-10-161 0-279 109-279 260V0H158" id="I"/><path d="M158 0v-1118h180V0H158zm91-1301c-68 0-125-53-125-119s57-119 125-119c69 0 126 53 126 119s-57 119-126 119" id="J"/><path d="M613 24c-304 0-509-231-509-576 0-350 205-580 509-580 305 0 511 230 511 580 0 345-206 576-511 576zm0-161c226 0 329-195 329-415 0-222-103-419-329-419-223 0-326 196-326 419 0 220 103 415 326 415" id="K"/><g id="a"><use transform="matrix(0.008173828125000001,0,0,0.008173828125000001,0,0)" xlink:href="#E"/><use transform="matrix(0.008173828125000001,0,0,0.008173828125000001,12.456914062500001,0)" xlink:href="#F"/><use transform="matrix(0.008173828125000001,0,0,0.008173828125000001,21.292822265625002,0)" xlink:href="#G"/><use transform="matrix(0.008173828125000001,0,0,0.008173828125000001,31.191328125000005,0)" xlink:href="#H"/><use transform="matrix(0.008173828125000001,0,0,0.008173828125000001,40.591230468750005,0)" xlink:href="#I"/><use transform="matrix(0.008173828125000001,0,0,0.008173828125000001,47.154814453125,0)" xlink:href="#J"/><use transform="matrix(0.008173828125000001,0,0,0.008173828125000001,51.209033203125,0)" xlink:href="#K"/><path d="M-.84 3.42h62.92v1.14H-.84z"/></g><path d="M52 0l541-1490h220L1361 0h-200l-149-416H398L254 0H52zm404-582h497c-103-290-145-390-251-756-108 377-145 460-246 756" id="L"/><path d="M598-1118v154H368v674c0 100 37 144 132 144 23 0 62-6 92-12L629-6c-37 13-88 20-134 20-193 0-307-107-307-290v-688H20v-154h168v-266h180v266h230" id="M"/><path d="M628 24c-324 0-524-230-524-574 0-343 198-582 503-582 237 0 487 146 487 559v75H286c9 234 145 362 343 362 132 0 231-58 273-172l174 48C1024-91 857 24 628 24zM287-650h624c-17-190-120-322-304-322-192 0-309 151-320 322" id="N"/><path d="M338-670V0H158v-1118h173l1 207c72-158 192-221 342-221 226 0 378 139 378 422V0H872v-695c0-172-96-275-252-275-161 0-282 109-282 300" id="O"/><path d="M613 24c-304 0-509-231-509-576 0-350 205-580 509-580 216 0 392 114 453 309l-173 49c-33-115-133-197-280-197-223 0-326 196-326 419 0 220 103 415 326 415 150 0 252-85 285-206l172 49C1010-95 832 24 613 24" id="P"/><path d="M471 26C259 26 90-98 90-318c0-256 228-303 435-329 202-27 287-16 287-108 0-139-79-219-234-219-161 0-248 86-283 164l-173-57c86-203 278-265 451-265 150 0 419 46 419 395V0H815v-152h-12C765-73 660 26 471 26zm31-159c199 0 310-134 310-271v-155c-30 35-226 55-295 64-131 17-246 59-246 186 0 116 97 176 231 176" id="Q"/><path d="M502 418V313h118c73 0 98-17 98-66s-25-65-98-65h-82l21-161C285-4 104-228 104-552c0-350 205-580 509-580 216 0 392 114 453 309l-173 49c-33-115-133-197-280-197-223 0-326 196-326 419 0 220 103 415 326 415 150 0 252-85 285-206l172 49C1015-110 859 5 663 22v64c130 5 189 54 189 162 0 118-71 170-231 170H502" id="R"/><path d="M471 26C259 26 90-98 90-318c0-256 228-303 435-329 202-27 287-16 287-108 0-139-79-219-234-219-161 0-248 86-283 164l-173-57c86-203 278-265 451-265 150 0 419 46 419 395V0H815v-152h-12C765-73 660 26 471 26zm31-159c199 0 310-134 310-271v-155c-30 35-226 55-295 64-131 17-246 59-246 186 0 116 97 176 231 176zm187-1180c-99 0-192-83-243-83-35 0-51 40-53 79H267c4-120 55-208 162-208 104 0 174 85 241 85 33 0 49-23 56-81h123c-4 126-62 208-160 208" id="S"/><g id="b"><use transform="matrix(0.008173828125000001,0,0,0.008173828125000001,0,0)" xlink:href="#L"/><use transform="matrix(0.008173828125000001,0,0,0.008173828125000001,11.549619140625001,0)" xlink:href="#G"/><use transform="matrix(0.008173828125000001,0,0,0.008173828125000001,21.448125000000005,0)" xlink:href="#M"/><use transform="matrix(0.008173828125000001,0,0,0.008173828125000001,26.761113281250005,0)" xlink:href="#N"/><use transform="matrix(0.008173828125000001,0,0,0.008173828125000001,36.5206640625,0)" xlink:href="#O"/><use transform="matrix(0.008173828125000001,0,0,0.008173828125000001,46.41099609375,0)" xlink:href="#M"/><use transform="matrix(0.008173828125000001,0,0,0.008173828125000001,51.8874609375,0)" xlink:href="#J"/><use transform="matrix(0.008173828125000001,0,0,0.008173828125000001,55.9416796875,0)" xlink:href="#P"/><use transform="matrix(0.008173828125000001,0,0,0.008173828125000001,65.66853515625,0)" xlink:href="#Q"/><use transform="matrix(0.008173828125000001,0,0,0.008173828125000001,75.06843750000002,0)" xlink:href="#R"/><use transform="matrix(0.008173828125000001,0,0,0.008173828125000001,84.79529296875,0)" xlink:href="#S"/><use transform="matrix(0.008173828125000001,0,0,0.008173828125000001,94.1951953125,0)" xlink:href="#K"/><path d="M-.84 3.42h105.9v1.14H-.83z"/></g><path d="M180 0v-1490h528c311 0 458 177 458 395 0 191-114 278-244 313v14c139 9 302 137 302 371 0 225-148 397-499 397H180zm190-168h350c232 0 321-102 321-231 0-149-120-277-311-277H370v508zm0-668h328c160 0 286-101 286-255 0-129-87-231-280-231H370v486" id="T"/><g id="c"><use transform="matrix(0.008173828125000001,0,0,0.008173828125000001,0,0)" xlink:href="#T"/><use transform="matrix(0.008173828125000001,0,0,0.008173828125000001,10.952929687500001,0)" xlink:href="#Q"/><use transform="matrix(0.008173828125000001,0,0,0.008173828125000001,20.352832031250003,0)" xlink:href="#O"/><use transform="matrix(0.008173828125000001,0,0,0.008173828125000001,30.243164062500004,0)" xlink:href="#P"/><use transform="matrix(0.008173828125000001,0,0,0.008173828125000001,39.806542968750016,0)" xlink:href="#K"/><path d="M-.84 3.42H55.4v1.14H-.85z"/></g><path d="M577 24c-279 0-473-224-473-580 0-354 195-576 474-576 218 0 287 134 324 193h14v-551h180V0H922v-173h-20C865-111 790 24 577 24zm27-161c203 0 314-172 314-421 0-247-108-413-314-413-212 0-317 181-317 413 0 235 108 421 317 421" id="U"/><g id="d"><use transform="matrix(0.008173828125000001,0,0,0.008173828125000001,0,0)" xlink:href="#U"/><use transform="matrix(0.008173828125000001,0,0,0.008173828125000001,10.249980468750001,0)" xlink:href="#N"/><path d="M-.84 3.42h26.4v1.14H-.85z"/></g><g id="e"><use transform="matrix(0.008173828125000001,0,0,0.008173828125000001,0,0)" xlink:href="#U"/><use transform="matrix(0.008173828125000001,0,0,0.008173828125000001,10.249980468750001,0)" xlink:href="#Q"/><use transform="matrix(0.008173828125000001,0,0,0.008173828125000001,19.649882812500003,0)" xlink:href="#U"/><use transform="matrix(0.008173828125000001,0,0,0.008173828125000001,29.899863281250006,0)" xlink:href="#K"/><use transform="matrix(0.008173828125000001,0,0,0.008173828125000001,39.93732421875001,0)" xlink:href="#F"/><path d="M-.84 3.42H49.6v1.14H-.83z"/></g><path fill="#333" d="M158 0v-1118h174v172h12c41-113 157-188 290-188 26 0 70 2 91 3v181c-11-2-60-10-108-10-161 0-279 109-279 260V0H158" id="V"/><path fill="#333" d="M628 24c-324 0-524-230-524-574 0-343 198-582 503-582 237 0 487 146 487 559v75H286c9 234 145 362 343 362 132 0 231-58 273-172l174 48C1024-91 857 24 628 24zM287-650h624c-17-190-120-322-304-322-192 0-309 151-320 322" id="W"/><path fill="#333" d="M1096 418H916v-591h-14C865-111 790 24 577 24c-279 0-473-224-473-580 0-354 195-576 474-576 218 0 287 134 324 193h20v-179h174V418zM604-137c203 0 314-172 314-421 0-247-108-413-314-413-212 0-317 181-317 413 0 235 108 421 317 421" id="X"/><path fill="#333" d="M537 14c-226 0-379-139-379-422v-710h180v695c0 172 97 275 253 275 160 0 281-109 281-300v-670h181V0H879v-209C806-46 684 14 537 14" id="Y"/><path fill="#333" d="M158 0v-1118h180V0H158zm91-1301c-68 0-125-53-125-119s57-119 125-119c69 0 126 53 126 119s-57 119-126 119" id="Z"/><path fill="#333" d="M538 24C308 24 148-78 108-271l171-41c32 123 123 178 257 178 156 0 256-77 256-169 0-77-54-128-164-154l-186-44c-203-48-300-148-300-305 0-192 176-326 414-326 230 0 351 112 402 269l-163 42c-31-80-94-158-238-158-133 0-233 69-233 162 0 83 57 129 188 160l169 40c203 48 298 149 298 302 0 196-179 339-441 339" id="aa"/><path fill="#333" d="M598-1118v154H368v674c0 100 37 144 132 144 23 0 62-6 92-12L629-6c-37 13-88 20-134 20-193 0-307-107-307-290v-688H20v-154h168v-266h180v266h230" id="ab"/><path fill="#333" d="M471 26C259 26 90-98 90-318c0-256 228-303 435-329 202-27 287-16 287-108 0-139-79-219-234-219-161 0-248 86-283 164l-173-57c86-203 278-265 451-265 150 0 419 46 419 395V0H815v-152h-12C765-73 660 26 471 26zm31-159c199 0 310-134 310-271v-155c-30 35-226 55-295 64-131 17-246 59-246 186 0 116 97 176 231 176" id="ac"/><g id="f"><use transform="matrix(0.0087890625,0,0,0.0087890625,0,0)" xlink:href="#V"/><use transform="matrix(0.0087890625,0,0,0.0087890625,6.4775390625,0)" xlink:href="#W"/><use transform="matrix(0.0087890625,0,0,0.0087890625,16.9716796875,0)" xlink:href="#X"/><use transform="matrix(0.0087890625,0,0,0.0087890625,27.9931640625,0)" xlink:href="#Y"/><use transform="matrix(0.0087890625,0,0,0.0087890625,38.63671875,0)" xlink:href="#Z"/><use transform="matrix(0.0087890625,0,0,0.0087890625,42.99609375,0)" xlink:href="#aa"/><use transform="matrix(0.0087890625,0,0,0.0087890625,52.4970703125,0)" xlink:href="#Z"/><use transform="matrix(0.0087890625,0,0,0.0087890625,56.8564453125,0)" xlink:href="#ab"/><use transform="matrix(0.0087890625,0,0,0.0087890625,62.8330078125,0)" xlink:href="#ac"/></g><path fill="#333" d="M338-1490V0H158v-1490h180" id="ad"/><path fill="#333" d="M613 24c-304 0-509-231-509-576 0-350 205-580 509-580 305 0 511 230 511 580 0 345-206 576-511 576zm0-161c226 0 329-195 329-415 0-222-103-419-329-419-223 0-326 196-326 419 0 220 103 415 326 415" id="ae"/><path fill="#333" d="M611 442c-248 0-391-105-460-228l146-94c47 65 117 165 314 165 178 0 307-82 307-266v-224h-17C863-141 792-18 576-18c-268 0-472-195-472-546 0-346 197-568 476-568 216 0 288 133 326 193h17v-179h175V29c0 289-215 413-487 413zm-5-620c203 0 314-146 314-390 0-237-108-403-314-403-213 0-319 180-319 403 0 230 109 390 319 390" id="af"/><path fill="#333" d="M338-670V0H158v-1118h173l1 207c72-158 192-221 342-221 226 0 378 139 378 422V0H872v-695c0-172-96-275-252-275-161 0-282 109-282 300" id="ag"/><g id="g"><use transform="matrix(0.0087890625,0,0,0.0087890625,0,0)" xlink:href="#ad"/><use transform="matrix(0.0087890625,0,0,0.0087890625,4.359375,0)" xlink:href="#ae"/><use transform="matrix(0.0087890625,0,0,0.0087890625,15.15234375,0)" xlink:href="#af"/><use transform="matrix(0.0087890625,0,0,0.0087890625,26.19140625,0)" xlink:href="#Z"/><use transform="matrix(0.0087890625,0,0,0.0087890625,30.55078125,0)" xlink:href="#ag"/></g><path fill="#333" d="M218-607c0-325 108-727 258-974h175c-155 315-250 682-250 974 0 265 78 531 250 886H476C306-10 218-315 218-607" id="ah"/><path fill="#333" d="M158 0v-1118h175l1 205c55-151 181-225 313-225 147 0 245 90 285 228 53-141 190-228 352-228 194 0 352 125 352 384V0h-181v-749c0-161-105-225-225-225-151 0-243 103-243 244V0H807v-767c0-124-93-207-219-207-131 0-250 92-250 270V0H158" id="ai"/><g id="h"><use transform="matrix(0.0087890625,0,0,0.0087890625,0,0)" xlink:href="#ah"/><use transform="matrix(0.0087890625,0,0,0.0087890625,6.5654296875,0)" xlink:href="#Y"/><use transform="matrix(0.0087890625,0,0,0.0087890625,17.208984375,0)" xlink:href="#aa"/><use transform="matrix(0.0087890625,0,0,0.0087890625,26.7099609375,0)" xlink:href="#W"/><use transform="matrix(0.0087890625,0,0,0.0087890625,37.2041015625,0)" xlink:href="#V"/><use transform="matrix(0.0087890625,0,0,0.0087890625,44.26171875,0)" xlink:href="#ag"/><use transform="matrix(0.0087890625,0,0,0.0087890625,54.896484375,0)" xlink:href="#ac"/><use transform="matrix(0.0087890625,0,0,0.0087890625,65.00390625,0)" xlink:href="#ai"/><use transform="matrix(0.0087890625,0,0,0.0087890625,80.771484375,0)" xlink:href="#W"/></g><use transform="matrix(0.0087890625,0,0,0.0087890625,0,0)" xlink:href="#W" id="i"/><path fill="#333" d="M338-670V0H158v-1490h180v566c73-149 190-208 336-208 226 0 379 139 379 422V0H872v-695c0-172-96-275-252-275-161 0-282 109-282 300" id="aj"/><path fill="#333" d="M96 279C273-86 346-350 346-607c0-292-95-659-250-974h175c150 246 258 650 258 974 0 297-91 602-258 886H96" id="ak"/><g id="j"><use transform="matrix(0.0087890625,0,0,0.0087890625,0,0)" xlink:href="#aa"/><use transform="matrix(0.0087890625,0,0,0.0087890625,9.5009765625,0)" xlink:href="#W"/><use transform="matrix(0.0087890625,0,0,0.0087890625,19.9951171875,0)" xlink:href="#ag"/><use transform="matrix(0.0087890625,0,0,0.0087890625,30.6298828125,0)" xlink:href="#aj"/><use transform="matrix(0.0087890625,0,0,0.0087890625,41.2734375,0)" xlink:href="#ac"/><use transform="matrix(0.0087890625,0,0,0.0087890625,51.380859375,0)" xlink:href="#ak"/></g><path fill="#333" d="M677 24c-213 0-288-135-325-197h-20V0H158v-1490h180v551h14c37-59 106-193 324-193 279 0 474 222 474 576 0 356-194 580-473 580zm-27-161c209 0 317-186 317-421 0-232-105-413-317-413-206 0-314 166-314 413 0 249 111 421 314 421" id="al"/><path fill="#333" d="M613 24c-304 0-509-231-509-576 0-350 205-580 509-580 216 0 392 114 453 309l-173 49c-33-115-133-197-280-197-223 0-326 196-326 419 0 220 103 415 326 415 150 0 252-85 285-206l172 49C1010-95 832 24 613 24" id="am"/><g id="k"><use transform="matrix(0.0087890625,0,0,0.0087890625,0,0)" xlink:href="#al"/><use transform="matrix(0.0087890625,0,0,0.0087890625,11.021484375,0)" xlink:href="#Y"/><use transform="matrix(0.0087890625,0,0,0.0087890625,21.6650390625,0)" xlink:href="#aa"/><use transform="matrix(0.0087890625,0,0,0.0087890625,31.166015625,0)" xlink:href="#am"/><use transform="matrix(0.0087890625,0,0,0.0087890625,41.625,0)" xlink:href="#ac"/></g><path fill="#333" d="M471 26C259 26 90-98 90-318c0-256 228-303 435-329 202-27 287-16 287-108 0-139-79-219-234-219-161 0-248 86-283 164l-173-57c86-203 278-265 451-265 150 0 419 46 419 395V0H815v-152h-12C765-73 660 26 471 26zm31-159c199 0 310-134 310-271v-155c-30 35-226 55-295 64-131 17-246 59-246 186 0 116 97 176 231 176zm-23-1131l140-294h201l-194 294H479" id="an"/><g id="l"><use transform="matrix(0.0087890625,0,0,0.0087890625,0,0)" xlink:href="#Y"/><use transform="matrix(0.0087890625,0,0,0.0087890625,10.6435546875,0)" xlink:href="#aa"/><use transform="matrix(0.0087890625,0,0,0.0087890625,20.14453125,0)" xlink:href="#Y"/><use transform="matrix(0.0087890625,0,0,0.0087890625,30.7880859375,0)" xlink:href="#an"/><use transform="matrix(0.0087890625,0,0,0.0087890625,40.8955078125,0)" xlink:href="#V"/><use transform="matrix(0.0087890625,0,0,0.0087890625,47.953125,0)" xlink:href="#Z"/><use transform="matrix(0.0087890625,0,0,0.0087890625,52.3125,0)" xlink:href="#ae"/></g><path fill="#333" d="M158 418v-1536h174v179h20c37-59 106-193 324-193 279 0 474 222 474 576 0 356-194 580-473 580-213 0-288-135-325-197h-14v591H158zm492-555c209 0 317-186 317-421 0-232-105-413-317-413-206 0-314 166-314 413 0 249 111 421 314 421" id="ao"/><g id="m"><use transform="matrix(0.0087890625,0,0,0.0087890625,0,0)" xlink:href="#ao"/><use transform="matrix(0.0087890625,0,0,0.0087890625,11.021484375,0)" xlink:href="#ae"/><use transform="matrix(0.0087890625,0,0,0.0087890625,21.814453125,0)" xlink:href="#V"/></g><g id="n"><use transform="matrix(0.0087890625,0,0,0.0087890625,0,0)" xlink:href="#Y"/><use transform="matrix(0.0087890625,0,0,0.0087890625,10.6435546875,0)" xlink:href="#aa"/><use transform="matrix(0.0087890625,0,0,0.0087890625,20.14453125,0)" xlink:href="#W"/><use transform="matrix(0.0087890625,0,0,0.0087890625,30.638671875,0)" xlink:href="#V"/><use transform="matrix(0.0087890625,0,0,0.0087890625,37.6962890625,0)" xlink:href="#ag"/><use transform="matrix(0.0087890625,0,0,0.0087890625,48.3310546875,0)" xlink:href="#ac"/><use transform="matrix(0.0087890625,0,0,0.0087890625,58.4384765625,0)" xlink:href="#ai"/><use transform="matrix(0.0087890625,0,0,0.0087890625,74.2060546875,0)" xlink:href="#W"/></g><g id="o"><use transform="matrix(0.0087890625,0,0,0.0087890625,0,0)" xlink:href="#V"/><use transform="matrix(0.0087890625,0,0,0.0087890625,6.4775390625,0)" xlink:href="#W"/><use transform="matrix(0.0087890625,0,0,0.0087890625,16.9716796875,0)" xlink:href="#ab"/><use transform="matrix(0.0087890625,0,0,0.0087890625,22.6845703125,0)" xlink:href="#ae"/><use transform="matrix(0.0087890625,0,0,0.0087890625,33.4775390625,0)" xlink:href="#V"/><use transform="matrix(0.0087890625,0,0,0.0087890625,40.53515625,0)" xlink:href="#ag"/><use transform="matrix(0.0087890625,0,0,0.0087890625,51.169921875,0)" xlink:href="#ac"/></g><g id="p"><use transform="matrix(0.0087890625,0,0,0.0087890625,0,0)" xlink:href="#Y"/><use transform="matrix(0.0087890625,0,0,0.0087890625,10.6435546875,0)" xlink:href="#aa"/><use transform="matrix(0.0087890625,0,0,0.0087890625,20.14453125,0)" xlink:href="#Y"/><use transform="matrix(0.0087890625,0,0,0.0087890625,30.7880859375,0)" xlink:href="#an"/><use transform="matrix(0.0087890625,0,0,0.0087890625,40.8955078125,0)" xlink:href="#V"/><use transform="matrix(0.0087890625,0,0,0.0087890625,47.953125,0)" xlink:href="#Z"/><use transform="matrix(0.0087890625,0,0,0.0087890625,52.3125,0)" xlink:href="#ae"/></g><g id="q"><use transform="matrix(0.0087890625,0,0,0.0087890625,0,0)" xlink:href="#Y"/><use transform="matrix(0.0087890625,0,0,0.0087890625,10.6435546875,0)" xlink:href="#aa"/><use transform="matrix(0.0087890625,0,0,0.0087890625,20.14453125,0)" xlink:href="#Y"/><use transform="matrix(0.0087890625,0,0,0.0087890625,30.7880859375,0)" xlink:href="#an"/><use transform="matrix(0.0087890625,0,0,0.0087890625,40.8955078125,0)" xlink:href="#V"/><use transform="matrix(0.0087890625,0,0,0.0087890625,47.953125,0)" xlink:href="#Z"/><use transform="matrix(0.0087890625,0,0,0.0087890625,52.3125,0)" xlink:href="#ae"/></g><path fill="#333" d="M471 26C259 26 90-98 90-318c0-256 228-303 435-329 202-27 287-16 287-108 0-139-79-219-234-219-161 0-248 86-283 164l-173-57c86-203 278-265 451-265 150 0 419 46 419 395V0H815v-152h-12C765-73 660 26 471 26zm31-159c199 0 310-134 310-271v-155c-30 35-226 55-295 64-131 17-246 59-246 186 0 116 97 176 231 176zm187-1180c-99 0-192-83-243-83-35 0-51 40-53 79H267c4-120 55-208 162-208 104 0 174 85 241 85 33 0 49-23 56-81h123c-4 126-62 208-160 208" id="ap"/><g id="r"><use transform="matrix(0.0087890625,0,0,0.0087890625,0,0)" xlink:href="#ag"/><use transform="matrix(0.0087890625,0,0,0.0087890625,10.634765625,0)" xlink:href="#ap"/><use transform="matrix(0.0087890625,0,0,0.0087890625,20.7421875,0)" xlink:href="#ae"/></g><path fill="#333" d="M577 24c-279 0-473-224-473-580 0-354 195-576 474-576 218 0 287 134 324 193h14v-551h180V0H922v-173h-20C865-111 790 24 577 24zm27-161c203 0 314-172 314-421 0-247-108-413-314-413-212 0-317 181-317 413 0 235 108 421 317 421" id="aq"/><g id="s"><use transform="matrix(0.0087890625,0,0,0.0087890625,0,0)" xlink:href="#W"/><use transform="matrix(0.0087890625,0,0,0.0087890625,10.494140625,0)" xlink:href="#ag"/><use transform="matrix(0.0087890625,0,0,0.0087890625,21.12890625,0)" xlink:href="#am"/><use transform="matrix(0.0087890625,0,0,0.0087890625,31.412109375,0)" xlink:href="#ae"/><use transform="matrix(0.0087890625,0,0,0.0087890625,42.205078125,0)" xlink:href="#ag"/><use transform="matrix(0.0087890625,0,0,0.0087890625,52.83984375,0)" xlink:href="#ab"/><use transform="matrix(0.0087890625,0,0,0.0087890625,58.728515625,0)" xlink:href="#V"/><use transform="matrix(0.0087890625,0,0,0.0087890625,65.5048828125,0)" xlink:href="#ac"/><use transform="matrix(0.0087890625,0,0,0.0087890625,75.6123046875,0)" xlink:href="#aq"/><use transform="matrix(0.0087890625,0,0,0.0087890625,86.6337890625,0)" xlink:href="#ae"/></g><path fill="#333" d="M481 0L54-1118h197c107 314 236 620 325 951 87-331 217-637 324-951h197L670 0H481" id="ar"/><g id="t"><use transform="matrix(0.0087890625,0,0,0.0087890625,0,0)" xlink:href="#ar"/><use transform="matrix(0.0087890625,0,0,0.0087890625,10.0283203125,0)" xlink:href="#ac"/><use transform="matrix(0.0087890625,0,0,0.0087890625,20.1357421875,0)" xlink:href="#ad"/><use transform="matrix(0.0087890625,0,0,0.0087890625,24.4951171875,0)" xlink:href="#Z"/><use transform="matrix(0.0087890625,0,0,0.0087890625,28.8544921875,0)" xlink:href="#aq"/><use transform="matrix(0.0087890625,0,0,0.0087890625,39.8759765625,0)" xlink:href="#ac"/></g><g id="u"><use transform="matrix(0.0087890625,0,0,0.0087890625,0,0)" xlink:href="#aa"/><use transform="matrix(0.0087890625,0,0,0.0087890625,9.5009765625,0)" xlink:href="#W"/><use transform="matrix(0.0087890625,0,0,0.0087890625,19.9951171875,0)" xlink:href="#ag"/><use transform="matrix(0.0087890625,0,0,0.0087890625,30.6298828125,0)" xlink:href="#aj"/><use transform="matrix(0.0087890625,0,0,0.0087890625,41.2734375,0)" xlink:href="#ac"/></g><path fill="#333" d="M226 279v-1860h398v153H398V126h226v153H226" id="as"/><path fill="#333" d="M123 279V126h226v-1554H123v-153h398V279H123" id="at"/><g id="v"><use transform="matrix(0.0087890625,0,0,0.0087890625,0,0)" xlink:href="#as"/><use transform="matrix(0.0087890625,0,0,0.0087890625,6.5654296875,0)" xlink:href="#aa"/><use transform="matrix(0.0087890625,0,0,0.0087890625,16.06640625,0)" xlink:href="#Y"/><use transform="matrix(0.0087890625,0,0,0.0087890625,26.7099609375,0)" xlink:href="#am"/><use transform="matrix(0.0087890625,0,0,0.0087890625,36.9931640625,0)" xlink:href="#W"/><use transform="matrix(0.0087890625,0,0,0.0087890625,47.4873046875,0)" xlink:href="#aa"/><use transform="matrix(0.0087890625,0,0,0.0087890625,56.98828125,0)" xlink:href="#aa"/><use transform="matrix(0.0087890625,0,0,0.0087890625,66.4892578125,0)" xlink:href="#ae"/><use transform="matrix(0.0087890625,0,0,0.0087890625,77.080078125,0)" xlink:href="#at"/></g><path fill="#333" d="M678-1118v154H420V0H240v-964H20v-154h220v-149c0-194 155-293 318-293 85 0 141 18 168 30l-50 154c-19-6-47-17-97-17-111 0-159 58-159 166v109h258" id="au"/><g id="w"><use transform="matrix(0.0087890625,0,0,0.0087890625,0,0)" xlink:href="#as"/><use transform="matrix(0.0087890625,0,0,0.0087890625,6.5654296875,0)" xlink:href="#au"/><use transform="matrix(0.0087890625,0,0,0.0087890625,12.9462890625,0)" xlink:href="#ac"/><use transform="matrix(0.0087890625,0,0,0.0087890625,23.0537109375,0)" xlink:href="#ad"/><use transform="matrix(0.0087890625,0,0,0.0087890625,27.4130859375,0)" xlink:href="#aj"/><use transform="matrix(0.0087890625,0,0,0.0087890625,38.056640625,0)" xlink:href="#ac"/><use transform="matrix(0.0087890625,0,0,0.0087890625,48.1640625,0)" xlink:href="#at"/></g><g id="x"><use transform="matrix(0.0087890625,0,0,0.0087890625,0,0)" xlink:href="#aa"/><use transform="matrix(0.0087890625,0,0,0.0087890625,9.5009765625,0)" xlink:href="#W"/><use transform="matrix(0.0087890625,0,0,0.0087890625,19.9951171875,0)" xlink:href="#ag"/><use transform="matrix(0.0087890625,0,0,0.0087890625,30.6298828125,0)" xlink:href="#aj"/><use transform="matrix(0.0087890625,0,0,0.0087890625,41.2734375,0)" xlink:href="#ac"/></g><g id="y"><use transform="matrix(0.0087890625,0,0,0.0087890625,0,0)" xlink:href="#ar"/><use transform="matrix(0.0087890625,0,0,0.0087890625,10.0283203125,0)" xlink:href="#an"/><use transform="matrix(0.0087890625,0,0,0.0087890625,20.1357421875,0)" xlink:href="#ad"/><use transform="matrix(0.0087890625,0,0,0.0087890625,24.4951171875,0)" xlink:href="#Z"/><use transform="matrix(0.0087890625,0,0,0.0087890625,28.8544921875,0)" xlink:href="#aq"/><use transform="matrix(0.0087890625,0,0,0.0087890625,39.8759765625,0)" xlink:href="#ac"/></g><g id="z"><use transform="matrix(0.0087890625,0,0,0.0087890625,0,0)" xlink:href="#am"/><use transform="matrix(0.0087890625,0,0,0.0087890625,10.283203125,0)" xlink:href="#ae"/><use transform="matrix(0.0087890625,0,0,0.0087890625,21.076171875,0)" xlink:href="#ag"/><use transform="matrix(0.0087890625,0,0,0.0087890625,31.7109375,0)" xlink:href="#au"/><use transform="matrix(0.0087890625,0,0,0.0087890625,38.373046875,0)" xlink:href="#Z"/><use transform="matrix(0.0087890625,0,0,0.0087890625,42.732421875,0)" xlink:href="#V"/><use transform="matrix(0.0087890625,0,0,0.0087890625,49.7900390625,0)" xlink:href="#ai"/><use transform="matrix(0.0087890625,0,0,0.0087890625,65.5576171875,0)" xlink:href="#ac"/></g><g id="A"><use transform="matrix(0.0087890625,0,0,0.0087890625,0,0)" xlink:href="#ad"/><use transform="matrix(0.0087890625,0,0,0.0087890625,4.359375,0)" xlink:href="#ae"/><use transform="matrix(0.0087890625,0,0,0.0087890625,15.15234375,0)" xlink:href="#af"/><use transform="matrix(0.0087890625,0,0,0.0087890625,26.19140625,0)" xlink:href="#Z"/><use transform="matrix(0.0087890625,0,0,0.0087890625,30.55078125,0)" xlink:href="#ag"/></g><g id="B"><use transform="matrix(0.0087890625,0,0,0.0087890625,0,0)" xlink:href="#am"/><use transform="matrix(0.0087890625,0,0,0.0087890625,10.283203125,0)" xlink:href="#V"/><use transform="matrix(0.0087890625,0,0,0.0087890625,16.7607421875,0)" xlink:href="#W"/><use transform="matrix(0.0087890625,0,0,0.0087890625,27.2548828125,0)" xlink:href="#aq"/><use transform="matrix(0.0087890625,0,0,0.0087890625,38.2763671875,0)" xlink:href="#W"/><use transform="matrix(0.0087890625,0,0,0.0087890625,48.7705078125,0)" xlink:href="#ag"/><use transform="matrix(0.0087890625,0,0,0.0087890625,59.4052734375,0)" xlink:href="#am"/><use transform="matrix(0.0087890625,0,0,0.0087890625,69.6884765625,0)" xlink:href="#Z"/><use transform="matrix(0.0087890625,0,0,0.0087890625,74.0478515625,0)" xlink:href="#ac"/><use transform="matrix(0.0087890625,0,0,0.0087890625,84.1552734375,0)" xlink:href="#Z"/><use transform="matrix(0.0087890625,0,0,0.0087890625,88.5146484375,0)" xlink:href="#aa"/></g><g id="C"><use transform="matrix(0.0087890625,0,0,0.0087890625,0,0)" xlink:href="#Z"/><use transform="matrix(0.0087890625,0,0,0.0087890625,4.359375,0)" xlink:href="#ag"/><use transform="matrix(0.0087890625,0,0,0.0087890625,14.994140625,0)" xlink:href="#am"/><use transform="matrix(0.0087890625,0,0,0.0087890625,25.27734375,0)" xlink:href="#ae"/><use transform="matrix(0.0087890625,0,0,0.0087890625,36.0703125,0)" xlink:href="#V"/><use transform="matrix(0.0087890625,0,0,0.0087890625,43.1279296875,0)" xlink:href="#V"/><use transform="matrix(0.0087890625,0,0,0.0087890625,49.60546875,0)" xlink:href="#W"/><use transform="matrix(0.0087890625,0,0,0.0087890625,60.099609375,0)" xlink:href="#ab"/><use transform="matrix(0.0087890625,0,0,0.0087890625,66.076171875,0)" xlink:href="#ac"/><use transform="matrix(0.0087890625,0,0,0.0087890625,76.18359375,0)" xlink:href="#aa"/></g><g id="D"><use transform="matrix(0.0087890625,0,0,0.0087890625,0,0)" xlink:href="#ad"/><use transform="matrix(0.0087890625,0,0,0.0087890625,4.359375,0)" xlink:href="#ae"/><use transform="matrix(0.0087890625,0,0,0.0087890625,15.15234375,0)" xlink:href="#af"/><use transform="matrix(0.0087890625,0,0,0.0087890625,26.19140625,0)" xlink:href="#Z"/><use transform="matrix(0.0087890625,0,0,0.0087890625,30.55078125,0)" xlink:href="#ag"/></g></defs></g></svg>