<svg xmlns="http://www.w3.org/2000/svg" xmlns:xlink="http://www.w3.org/1999/xlink" xmlns:lucid="lucid" width="1365.15" height="866.48"><g transform="translate(-224.6390871405772 -41.23711340206186)" lucid:page-tab-id="PaLdq~84CkD7"><path d="M0 0h1814.43v1402.06H0z" fill="#fff"/><path d="M225.14 172.95a8 8 0 0 1 8-8h144a8 8 0 0 1 8 8v104a8 8 0 0 1-8 8h-144a8 8 0 0 1-8-8z" stroke="#333" fill="#fff"/><use xlink:href="#a" transform="matrix(1,0,0,1,225.1390871405772,164.94845360824743) translate(38.882470703124994 64.966875)"/><path d="M829.93 172.95a8 8 0 0 1 8-8h144a8 8 0 0 1 8 8v104a8 8 0 0 1-8 8h-144a8 8 0 0 1-8-8z" stroke="#333" fill="#fff"/><use xlink:href="#b" transform="matrix(1,0,0,1,829.9280112858562,164.94889591665483) translate(47.92681152343749 64.966875)"/><path d="M1429.3 172.95a8 8 0 0 1 8-8h144a8 8 0 0 1 8 8v104a8 8 0 0 1-8 8h-144a8 8 0 0 1-8-8z" stroke="#333" fill="#fff"/><use xlink:href="#c" transform="matrix(1,0,0,1,1429.2939025501448,164.9488959166548) translate(15.983491210937482 64.966875)"/><use xlink:href="#d" transform="matrix(1,0,0,1,1429.2939025501448,164.9488959166548) translate(70.53562011718749 64.966875)"/><use xlink:href="#e" transform="matrix(1,0,0,1,1429.2939025501448,164.9488959166548) translate(95.2532763671875 64.966875)"/><path d="M305.14 285.95V291m0 5.04v10.1m0 5.04v10.1m0 5.04v10.1m0 5.04v10.1m0 5.05v10.1m0 5.05v10.1m0 5.04v10.08m0 5.05v10.1m0 5.04v10.1m0 5.04v10.1m0 5.05v10.1m0 5.04v10.08m0 5.05v10.1m0 5.04v10.1m0 5.04v10.1m0 5.05v10.1m0 5.04v10.1m0 5.03v10.1m0 5.05v10.1m0 5.04v10.1m0 5.04v10.1m0 5.04v10.1m0 5.04v10.1m0 5.04v10.1m0 5.04v10.1m0 5.04v10.1m0 5.04v10.1m0 5.04v10.1m0 5.04v10.1m0 5.04v10.1m0 5.04v10.1m0 5.04v10.1m0 5.04v10.1m0 5.04v10.1m0 5.05v10.1m0 5.04v10.1m0 5.04v10.1m0 5.05v10.1m0 5.04v10.08m0 5.05v10.1m0 5.04v5.05" stroke="#333" fill="none"/><path d="M305.6 285.96h-.94v-.5h.95z" stroke="#333" stroke-width=".05" fill="#333"/><path d="M305.14 906.7v.52M909.93 285.95V291m0 5.04v10.1m0 5.04v10.1m0 5.04v10.1m0 5.04v10.1m0 5.05v10.1m0 5.05v10.1m0 5.04v10.08m0 5.05v10.1m0 5.04v10.1m0 5.04v10.1m0 5.05v10.1m0 5.04v10.08m0 5.05v10.1m0 5.04v10.1m0 5.04v10.1m0 5.05v10.1m0 5.04v10.1m0 5.03v10.1m0 5.05v10.1m0 5.04v10.1m0 5.04v10.1m0 5.04v10.1m0 5.04v10.1m0 5.04v10.1m0 5.04v10.1m0 5.04v10.1m0 5.04v10.1m0 5.04v10.1m0 5.04v10.1m0 5.04v10.1m0 5.04v10.1m0 5.04v10.1m0 5.04v10.1m0 5.04v10.1m0 5.05v10.1m0 5.04v10.1m0 5.04v10.1m0 5.05v10.1m0 5.04v10.08m0 5.05v10.1m0 5.04v5.05" stroke="#333" fill="none"/><path d="M910.4 285.96h-.95v-.5h.95z" stroke="#333" stroke-width=".05" fill="#333"/><path d="M909.93 906.7v.52M1509.3 285.95V291m0 5.04v10.1m0 5.04v10.1m0 5.04v10.1m0 5.04v10.1m0 5.05v10.1m0 5.05v10.1m0 5.04v10.08m0 5.05v10.1m0 5.04v10.1m0 5.04v10.1m0 5.05v10.1m0 5.04v10.08m0 5.05v10.1m0 5.04v10.1m0 5.04v10.1m0 5.05v10.1m0 5.04v10.1m0 5.03v10.1m0 5.05v10.1m0 5.04v10.1m0 5.04v10.1m0 5.04v10.1m0 5.04v10.1m0 5.04v10.1m0 5.04v10.1m0 5.04v10.1m0 5.04v10.1m0 5.04v10.1m0 5.04v10.1m0 5.04v10.1m0 5.04v10.1m0 5.04v10.1m0 5.04v10.1m0 5.04v10.1m0 5.05v10.1m0 5.04v10.1m0 5.04v10.1m0 5.05v10.1m0 5.04v10.08m0 5.05v10.1m0 5.04v5.05" stroke="#333" fill="none"/><path d="M1509.77 285.96h-.95v-.5h.95z" stroke="#333" stroke-width=".05" fill="#333"/><path d="M1509.3 906.7v.52" stroke="#333" fill="none"/><path d="M285.14 358.5a8 8 0 0 1 8-8h24a8 8 0 0 1 8 8v437.62a8 8 0 0 1-8 8h-24a8 8 0 0 1-8-8zM889.93 358.52a8 8 0 0 1 8-8h24a8 8 0 0 1 8 8v437.6a8 8 0 0 1-8 8h-24a8 8 0 0 1-8-8zM1491.15 563.72a8 8 0 0 1 8-8h24a8 8 0 0 1 8 8V754.9a8 8 0 0 1-8 8h-24a8 8 0 0 1-8-8z" stroke="#333" fill="#fff"/><path d="M325.87 356.5H873.3" stroke="#333" fill="none"/><path d="M325.88 356.96h-.4l-.23-.94h.63z" stroke="#333" stroke-width=".05" fill="#333"/><path d="M888.08 356.5l-14.27 4.63v-9.27z" stroke="#333" fill="#333"/><use xlink:href="#f" transform="matrix(1,0,0,1,422.464842003611,330.71089423673345) translate(0.0049999999999954525 17.4375)"/><use xlink:href="#g" transform="matrix(1,0,0,1,422.464842003611,330.71089423673345) translate(57.028437499999995 17.4375)"/><use xlink:href="#h" transform="matrix(1,0,0,1,422.464842003611,330.71089423673345) translate(114.5352734375 17.4375)"/><use xlink:href="#i" transform="matrix(1,0,0,1,422.464842003611,330.71089423673345) translate(141.4122265625 17.4375)"/><path d="M930.93 422.45h124.1a12 12 0 0 1 12 12v36.53a12 12 0 0 1-12 12H946.82" stroke="#333" fill="none"/><path d="M930.94 422.93h-.5v-.95h.5z" stroke="#333" stroke-width=".05" fill="#333"/><path d="M932.05 482.98l14.26-4.63v9.27z" stroke="#333" fill="#333"/><use xlink:href="#j" transform="matrix(1,0,0,1,1075.0414133477123,441.8272064600127) translate(0.0049999999999954525 17.4375)"/><use xlink:href="#g" transform="matrix(1,0,0,1,1075.0414133477123,441.8272064600127) translate(55.050898437499995 17.4375)"/><use xlink:href="#h" transform="matrix(1,0,0,1,1075.0414133477123,441.8272064600127) translate(112.557734375 17.4375)"/><use xlink:href="#i" transform="matrix(1,0,0,1,1075.0414133477123,441.8272064600127) translate(139.4346875 17.4375)"/><path d="M706.22 544.08a8 8 0 0 1 8-8h154.1a8 8 0 0 1 8 8V549a17.07 17.07 0 0 1-5 12.08 17.07 17.07 0 0 1-12.07 5H714.22a8 8 0 0 1-8-8z" fill="#fff"/><path d="M876.32 536.08v20l-10 10h-160.1" stroke="#333" fill="none"/><path d="M706.22 544.08a8 8 0 0 1 8-8h349.94a8 8 0 0 1 8 8v148.95a8 8 0 0 1-8 8H714.22a8 8 0 0 1-8-8zM706.22 618.56h20m15 0h20m15 0h20m15 0h20m15 0h20m15 0h20m15 0h20m15 0h20m15 0h20m15 0h20m15 0h15.94" stroke="#333" fill="none"/><use xlink:href="#k" transform="matrix(1,0,0,1,714.2166710796707,536.0829165352116) translate(15.40283203125 21.5478515625)"/><use xlink:href="#l" transform="matrix(1,0,0,1,714.2166710796707,536.0829165352116) translate(86.92822265625 21.5478515625)"/><use xlink:href="#m" transform="matrix(1,0,0,1,718.2166710796707,574.0829165352116) translate(10.17724609375 21.5478515625)"/><use xlink:href="#n" transform="matrix(1,0,0,1,718.2166710796707,626.5571433393352) translate(14.13525390625 21.5478515625)"/><path d="M930.93 567h543.34" stroke="#333" fill="none"/><path d="M930.94 567.5h-.5v-.96h.5z" stroke="#333" stroke-width=".05" fill="#333"/><path d="M1489.03 567l-14.26 4.65v-9.27z" stroke="#333" fill="#333"/><use xlink:href="#o" transform="matrix(1,0,0,1,1119.1060410535663,541.2314550550313) translate(0.0049999999999954525 17.4375)"/><use xlink:href="#p" transform="matrix(1,0,0,1,1119.1060410535663,541.2314550550313) translate(69.7110546875 17.4375)"/><use xlink:href="#i" transform="matrix(1,0,0,1,1119.1060410535663,541.2314550550313) translate(116.40734375 17.4375)"/><path d="M888.93 670.2h-546.9" stroke="#333" fill="none"/><path d="M889.43 670.68h-.5v-.95h.5z" stroke="#333" stroke-width=".05" fill="#333"/><path d="M327.26 670.2l14.26-4.63v9.27z" stroke="#333" fill="#333"/><use xlink:href="#q" transform="matrix(1,0,0,1,346.62930820749943,674.2018894033599) translate(0.0049999999999954525 17.4375)"/><use xlink:href="#r" transform="matrix(1,0,0,1,346.62930820749943,674.2018894033599) translate(66.34484375 17.4375)"/><use xlink:href="#s" transform="matrix(1,0,0,1,346.62930820749943,674.2018894033599) translate(106.229609375 17.4375)"/><use xlink:href="#t" transform="matrix(1,0,0,1,346.62930820749943,674.2018894033599) translate(177.755 17.4375)"/><use xlink:href="#g" transform="matrix(1,0,0,1,346.62930820749943,674.2018894033599) translate(219.66125 17.4375)"/><use xlink:href="#u" transform="matrix(1,0,0,1,346.62930820749943,674.2018894033599) translate(277.1680859375 17.4375)"/><path d="M1490.15 751.75H946.8" stroke="#333" fill="none"/><path d="M1490.65 752.23h-.5v-.95h.5z" stroke="#333" stroke-width=".05" fill="#333"/><path d="M932.05 751.75l14.26-4.63v9.27z" stroke="#333" fill="#333"/><g><use xlink:href="#q" transform="matrix(1,0,0,1,1114.795183378774,755.7511158147089) translate(0.0049999999999954525 17.4375)"/><use xlink:href="#s" transform="matrix(1,0,0,1,1114.795183378774,755.7511158147089) translate(66.34484375 17.4375)"/><use xlink:href="#v" transform="matrix(1,0,0,1,1114.795183378774,755.7511158147089) translate(137.870234375 17.4375)"/></g><path d="M888.93 791.37h-546.9" stroke="#333" fill="none"/><path d="M889.43 791.85h-.5v-.95h.5z" stroke="#333" stroke-width=".05" fill="#333"/><path d="M327.26 791.37l14.26-4.63V796z" stroke="#333" fill="#333"/><g><use xlink:href="#w" transform="matrix(1,0,0,1,486.5345746898438,795.3718441822535) translate(0.0049999999999954525 17.4375)"/><use xlink:href="#x" transform="matrix(1,0,0,1,486.5345746898438,795.3718441822535) translate(80.7325390625 17.4375)"/><use xlink:href="#y" transform="matrix(1,0,0,1,486.5345746898438,795.3718441822535) translate(148.96203125 17.4375)"/><use xlink:href="#i" transform="matrix(1,0,0,1,486.5345746898438,795.3718441822535) translate(175.54015625 17.4375)"/></g><path d="M787.22 49.24a8 8 0 0 1 8-8h224a8 8 0 0 1 8 8v44a8 8 0 0 1-8 8h-224a8 8 0 0 1-8-8z" fill="none"/><g><use xlink:href="#f" transform="matrix(1,0,0,1,787.216494845361,41.23711340206186) translate(58.2568359375 36.5478515625)"/><use xlink:href="#i" transform="matrix(1,0,0,1,787.216494845361,41.23711340206186) translate(115.2802734375 36.5478515625)"/></g><defs><path d="M180 0v-1490h908v168H370v486h669v168H370v500h727V0H180" id="z"/><path d="M538 24C308 24 148-78 108-271l171-41c32 123 123 178 257 178 156 0 256-77 256-169 0-77-54-128-164-154l-186-44c-203-48-300-148-300-305 0-192 176-326 414-326 230 0 351 112 402 269l-163 42c-31-80-94-158-238-158-133 0-233 69-233 162 0 83 57 129 188 160l169 40c203 48 298 149 298 302 0 196-179 339-441 339" id="A"/><path d="M598-1118v154H368v674c0 100 37 144 132 144 23 0 62-6 92-12L629-6c-37 13-88 20-134 20-193 0-307-107-307-290v-688H20v-154h168v-266h180v266h230" id="B"/><path d="M613 24c-304 0-509-231-509-576 0-350 205-580 509-580 305 0 511 230 511 580 0 345-206 576-511 576zm0-161c226 0 329-195 329-415 0-222-103-419-329-419-223 0-326 196-326 419 0 220 103 415 326 415" id="C"/><path d="M1096 418H916v-591h-14C865-111 790 24 577 24c-279 0-473-224-473-580 0-354 195-576 474-576 218 0 287 134 324 193h20v-179h174V418zM604-137c203 0 314-172 314-421 0-247-108-413-314-413-212 0-317 181-317 413 0 235 108 421 317 421" id="D"/><path d="M537 14c-226 0-379-139-379-422v-710h180v695c0 172 97 275 253 275 160 0 281-109 281-300v-670h181V0H879v-209C806-46 684 14 537 14" id="E"/><path d="M158 0v-1118h180V0H158zm91-1301c-68 0-125-53-125-119s57-119 125-119c69 0 126 53 126 119s-57 119-126 119" id="F"/><path d="M471 26C259 26 90-98 90-318c0-256 228-303 435-329 202-27 287-16 287-108 0-139-79-219-234-219-161 0-248 86-283 164l-173-57c86-203 278-265 451-265 150 0 419 46 419 395V0H815v-152h-12C765-73 660 26 471 26zm31-159c199 0 310-134 310-271v-155c-30 35-226 55-295 64-131 17-246 59-246 186 0 116 97 176 231 176" id="G"/><g id="a"><use transform="matrix(0.008173828125000001,0,0,0.008173828125000001,0,0)" xlink:href="#z"/><use transform="matrix(0.008173828125000001,0,0,0.008173828125000001,10.061982421875001,0)" xlink:href="#A"/><use transform="matrix(0.008173828125000001,0,0,0.008173828125000001,18.897890625000002,0)" xlink:href="#B"/><use transform="matrix(0.008173828125000001,0,0,0.008173828125000001,24.210878906250002,0)" xlink:href="#C"/><use transform="matrix(0.008173828125000001,0,0,0.008173828125000001,34.24833984375,0)" xlink:href="#D"/><use transform="matrix(0.008173828125000001,0,0,0.008173828125000001,44.498320312500006,0)" xlink:href="#E"/><use transform="matrix(0.008173828125000001,0,0,0.008173828125000001,54.396826171875006,0)" xlink:href="#F"/><use transform="matrix(0.008173828125000001,0,0,0.008173828125000001,58.45104492187501,0)" xlink:href="#A"/><use transform="matrix(0.008173828125000001,0,0,0.008173828125000001,67.28695312500001,0)" xlink:href="#B"/><use transform="matrix(0.008173828125000001,0,0,0.008173828125000001,72.84515625,0)" xlink:href="#G"/><path d="M-.84 3.42h83.92v1.14H-.84z"/></g><path d="M628 24c-324 0-524-230-524-574 0-343 198-582 503-582 237 0 487 146 487 559v75H286c9 234 145 362 343 362 132 0 231-58 273-172l174 48C1024-91 857 24 628 24zM287-650h624c-17-190-120-322-304-322-192 0-309 151-320 322" id="H"/><g id="b"><use transform="matrix(0.008173828125000001,0,0,0.008173828125000001,0,0)" xlink:href="#z"/><use transform="matrix(0.008173828125000001,0,0,0.008173828125000001,10.061982421875001,0)" xlink:href="#A"/><use transform="matrix(0.008173828125000001,0,0,0.008173828125000001,18.897890625000002,0)" xlink:href="#B"/><use transform="matrix(0.008173828125000001,0,0,0.008173828125000001,24.210878906250002,0)" xlink:href="#C"/><use transform="matrix(0.008173828125000001,0,0,0.008173828125000001,34.24833984375,0)" xlink:href="#D"/><use transform="matrix(0.008173828125000001,0,0,0.008173828125000001,44.498320312500006,0)" xlink:href="#E"/><use transform="matrix(0.008173828125000001,0,0,0.008173828125000001,54.396826171875006,0)" xlink:href="#H"/><path d="M-.84 3.42H65v1.14H-.85z"/></g><path d="M180 0v-1490h528c311 0 458 177 458 395 0 191-114 278-244 313v14c139 9 302 137 302 371 0 225-148 397-499 397H180zm190-168h350c232 0 321-102 321-231 0-149-120-277-311-277H370v508zm0-668h328c160 0 286-101 286-255 0-129-87-231-280-231H370v486" id="I"/><path d="M338-670V0H158v-1118h173l1 207c72-158 192-221 342-221 226 0 378 139 378 422V0H872v-695c0-172-96-275-252-275-161 0-282 109-282 300" id="J"/><path d="M613 24c-304 0-509-231-509-576 0-350 205-580 509-580 216 0 392 114 453 309l-173 49c-33-115-133-197-280-197-223 0-326 196-326 419 0 220 103 415 326 415 150 0 252-85 285-206l172 49C1010-95 832 24 613 24" id="K"/><g id="c"><use transform="matrix(0.008173828125000001,0,0,0.008173828125000001,0,0)" xlink:href="#I"/><use transform="matrix(0.008173828125000001,0,0,0.008173828125000001,10.952929687500001,0)" xlink:href="#G"/><use transform="matrix(0.008173828125000001,0,0,0.008173828125000001,20.352832031250003,0)" xlink:href="#J"/><use transform="matrix(0.008173828125000001,0,0,0.008173828125000001,30.243164062500004,0)" xlink:href="#K"/><use transform="matrix(0.008173828125000001,0,0,0.008173828125000001,39.806542968750016,0)" xlink:href="#C"/><path d="M-.84 3.42H55.4v1.14H-.85z"/></g><path d="M577 24c-279 0-473-224-473-580 0-354 195-576 474-576 218 0 287 134 324 193h14v-551h180V0H922v-173h-20C865-111 790 24 577 24zm27-161c203 0 314-172 314-421 0-247-108-413-314-413-212 0-317 181-317 413 0 235 108 421 317 421" id="L"/><g id="d"><use transform="matrix(0.008173828125000001,0,0,0.008173828125000001,0,0)" xlink:href="#L"/><use transform="matrix(0.008173828125000001,0,0,0.008173828125000001,10.249980468750001,0)" xlink:href="#H"/><path d="M-.84 3.42h26.4v1.14H-.85z"/></g><g id="e"><use transform="matrix(0.008173828125000001,0,0,0.008173828125000001,0,0)" xlink:href="#L"/><use transform="matrix(0.008173828125000001,0,0,0.008173828125000001,10.249980468750001,0)" xlink:href="#G"/><use transform="matrix(0.008173828125000001,0,0,0.008173828125000001,19.649882812500003,0)" xlink:href="#L"/><use transform="matrix(0.008173828125000001,0,0,0.008173828125000001,29.899863281250006,0)" xlink:href="#C"/><use transform="matrix(0.008173828125000001,0,0,0.008173828125000001,39.93732421875001,0)" xlink:href="#A"/><path d="M-.84 3.42H49.6v1.14H-.83z"/></g><path fill="#333" d="M158 0v-1118h180V0H158zm91-1301c-68 0-125-53-125-119s57-119 125-119c69 0 126 53 126 119s-57 119-126 119" id="M"/><path fill="#333" d="M338-670V0H158v-1118h173l1 207c72-158 192-221 342-221 226 0 378 139 378 422V0H872v-695c0-172-96-275-252-275-161 0-282 109-282 300" id="N"/><path fill="#333" d="M538 24C308 24 148-78 108-271l171-41c32 123 123 178 257 178 156 0 256-77 256-169 0-77-54-128-164-154l-186-44c-203-48-300-148-300-305 0-192 176-326 414-326 230 0 351 112 402 269l-163 42c-31-80-94-158-238-158-133 0-233 69-233 162 0 83 57 129 188 160l169 40c203 48 298 149 298 302 0 196-179 339-441 339" id="O"/><path fill="#333" d="M628 24c-324 0-524-230-524-574 0-343 198-582 503-582 237 0 487 146 487 559v75H286c9 234 145 362 343 362 132 0 231-58 273-172l174 48C1024-91 857 24 628 24zM287-650h624c-17-190-120-322-304-322-192 0-309 151-320 322" id="P"/><path fill="#333" d="M158 0v-1118h174v172h12c41-113 157-188 290-188 26 0 70 2 91 3v181c-11-2-60-10-108-10-161 0-279 109-279 260V0H158" id="Q"/><g id="f"><use transform="matrix(0.0087890625,0,0,0.0087890625,0,0)" xlink:href="#M"/><use transform="matrix(0.0087890625,0,0,0.0087890625,4.359375,0)" xlink:href="#N"/><use transform="matrix(0.0087890625,0,0,0.0087890625,14.994140625,0)" xlink:href="#O"/><use transform="matrix(0.0087890625,0,0,0.0087890625,24.4951171875,0)" xlink:href="#P"/><use transform="matrix(0.0087890625,0,0,0.0087890625,34.9892578125,0)" xlink:href="#Q"/><use transform="matrix(0.0087890625,0,0,0.0087890625,41.466796875,0)" xlink:href="#P"/></g><path fill="#333" d="M577 24c-279 0-473-224-473-580 0-354 195-576 474-576 218 0 287 134 324 193h14v-551h180V0H922v-173h-20C865-111 790 24 577 24zm27-161c203 0 314-172 314-421 0-247-108-413-314-413-212 0-317 181-317 413 0 235 108 421 317 421" id="R"/><path fill="#333" d="M471 26C259 26 90-98 90-318c0-256 228-303 435-329 202-27 287-16 287-108 0-139-79-219-234-219-161 0-248 86-283 164l-173-57c86-203 278-265 451-265 150 0 419 46 419 395V0H815v-152h-12C765-73 660 26 471 26zm31-159c199 0 310-134 310-271v-155c-30 35-226 55-295 64-131 17-246 59-246 186 0 116 97 176 231 176" id="S"/><path fill="#333" d="M613 24c-304 0-509-231-509-576 0-350 205-580 509-580 305 0 511 230 511 580 0 345-206 576-511 576zm0-161c226 0 329-195 329-415 0-222-103-419-329-419-223 0-326 196-326 419 0 220 103 415 326 415" id="T"/><g id="g"><use transform="matrix(0.0087890625,0,0,0.0087890625,0,0)" xlink:href="#R"/><use transform="matrix(0.0087890625,0,0,0.0087890625,11.021484375,0)" xlink:href="#S"/><use transform="matrix(0.0087890625,0,0,0.0087890625,21.12890625,0)" xlink:href="#R"/><use transform="matrix(0.0087890625,0,0,0.0087890625,32.150390625,0)" xlink:href="#T"/><use transform="matrix(0.0087890625,0,0,0.0087890625,42.943359375,0)" xlink:href="#O"/></g><g id="h"><use transform="matrix(0.0087890625,0,0,0.0087890625,0,0)" xlink:href="#R"/><use transform="matrix(0.0087890625,0,0,0.0087890625,11.021484375,0)" xlink:href="#T"/></g><path fill="#333" d="M158 418v-1536h174v179h20c37-59 106-193 324-193 279 0 474 222 474 576 0 356-194 580-473 580-213 0-288-135-325-197h-14v591H158zm492-555c209 0 317-186 317-421 0-232-105-413-317-413-206 0-314 166-314 413 0 249 111 421 314 421" id="U"/><path fill="#333" d="M537 14c-226 0-379-139-379-422v-710h180v695c0 172 97 275 253 275 160 0 281-109 281-300v-670h181V0H879v-209C806-46 684 14 537 14" id="V"/><path fill="#333" d="M598-1118v154H368v674c0 100 37 144 132 144 23 0 62-6 92-12L629-6c-37 13-88 20-134 20-193 0-307-107-307-290v-688H20v-154h168v-266h180v266h230" id="W"/><g id="i"><use transform="matrix(0.0087890625,0,0,0.0087890625,0,0)" xlink:href="#U"/><use transform="matrix(0.0087890625,0,0,0.0087890625,11.021484375,0)" xlink:href="#Q"/><use transform="matrix(0.0087890625,0,0,0.0087890625,17.4990234375,0)" xlink:href="#T"/><use transform="matrix(0.0087890625,0,0,0.0087890625,28.2919921875,0)" xlink:href="#R"/><use transform="matrix(0.0087890625,0,0,0.0087890625,39.3134765625,0)" xlink:href="#V"/><use transform="matrix(0.0087890625,0,0,0.0087890625,49.95703125,0)" xlink:href="#W"/><use transform="matrix(0.0087890625,0,0,0.0087890625,55.669921875,0)" xlink:href="#T"/></g><path fill="#333" d="M481 0L54-1118h197c107 314 236 620 325 951 87-331 217-637 324-951h197L670 0H481" id="X"/><path fill="#333" d="M338-1490V0H158v-1490h180" id="Y"/><g id="j"><use transform="matrix(0.0087890625,0,0,0.0087890625,0,0)" xlink:href="#X"/><use transform="matrix(0.0087890625,0,0,0.0087890625,10.0283203125,0)" xlink:href="#S"/><use transform="matrix(0.0087890625,0,0,0.0087890625,20.1357421875,0)" xlink:href="#Y"/><use transform="matrix(0.0087890625,0,0,0.0087890625,24.4951171875,0)" xlink:href="#M"/><use transform="matrix(0.0087890625,0,0,0.0087890625,28.8544921875,0)" xlink:href="#R"/><use transform="matrix(0.0087890625,0,0,0.0087890625,39.8759765625,0)" xlink:href="#S"/></g><g id="k"><use transform="matrix(0.0087890625,0,0,0.0087890625,0,0)" xlink:href="#U"/><use transform="matrix(0.0087890625,0,0,0.0087890625,11.021484375,0)" xlink:href="#Q"/><use transform="matrix(0.0087890625,0,0,0.0087890625,17.4990234375,0)" xlink:href="#T"/><use transform="matrix(0.0087890625,0,0,0.0087890625,28.2919921875,0)" xlink:href="#R"/><use transform="matrix(0.0087890625,0,0,0.0087890625,39.3134765625,0)" xlink:href="#V"/><use transform="matrix(0.0087890625,0,0,0.0087890625,49.95703125,0)" xlink:href="#W"/><use transform="matrix(0.0087890625,0,0,0.0087890625,55.669921875,0)" xlink:href="#T"/></g><path fill="#333" d="M471 26C259 26 90-98 90-318c0-256 228-303 435-329 202-27 287-16 287-108 0-139-79-219-234-219-161 0-248 86-283 164l-173-57c86-203 278-265 451-265 150 0 419 46 419 395V0H815v-152h-12C765-73 660 26 471 26zm31-159c199 0 310-134 310-271v-155c-30 35-226 55-295 64-131 17-246 59-246 186 0 116 97 176 231 176zm-23-1131l140-294h201l-194 294H479" id="Z"/><g id="l"><use transform="matrix(0.0087890625,0,0,0.0087890625,0,0)" xlink:href="#X"/><use transform="matrix(0.0087890625,0,0,0.0087890625,10.0283203125,0)" xlink:href="#Z"/><use transform="matrix(0.0087890625,0,0,0.0087890625,20.1357421875,0)" xlink:href="#Y"/><use transform="matrix(0.0087890625,0,0,0.0087890625,24.4951171875,0)" xlink:href="#M"/><use transform="matrix(0.0087890625,0,0,0.0087890625,28.8544921875,0)" xlink:href="#R"/><use transform="matrix(0.0087890625,0,0,0.0087890625,39.8759765625,0)" xlink:href="#T"/></g><path fill="#333" d="M226 279v-1860h398v153H398V126h226v153H226" id="aa"/><path fill="#333" d="M613 24c-304 0-509-231-509-576 0-350 205-580 509-580 216 0 392 114 453 309l-173 49c-33-115-133-197-280-197-223 0-326 196-326 419 0 220 103 415 326 415 150 0 252-85 285-206l172 49C1010-95 832 24 613 24" id="ab"/><path fill="#333" d="M123 279V126h226v-1554H123v-153h398V279H123" id="ac"/><g id="m"><use transform="matrix(0.0087890625,0,0,0.0087890625,0,0)" xlink:href="#aa"/><use transform="matrix(0.0087890625,0,0,0.0087890625,6.5654296875,0)" xlink:href="#O"/><use transform="matrix(0.0087890625,0,0,0.0087890625,16.06640625,0)" xlink:href="#V"/><use transform="matrix(0.0087890625,0,0,0.0087890625,26.7099609375,0)" xlink:href="#ab"/><use transform="matrix(0.0087890625,0,0,0.0087890625,36.9931640625,0)" xlink:href="#P"/><use transform="matrix(0.0087890625,0,0,0.0087890625,47.4873046875,0)" xlink:href="#O"/><use transform="matrix(0.0087890625,0,0,0.0087890625,56.98828125,0)" xlink:href="#O"/><use transform="matrix(0.0087890625,0,0,0.0087890625,66.4892578125,0)" xlink:href="#T"/><use transform="matrix(0.0087890625,0,0,0.0087890625,77.080078125,0)" xlink:href="#ac"/></g><path fill="#333" d="M678-1118v154H420V0H240v-964H20v-154h220v-149c0-194 155-293 318-293 85 0 141 18 168 30l-50 154c-19-6-47-17-97-17-111 0-159 58-159 166v109h258" id="ad"/><path fill="#333" d="M338-670V0H158v-1490h180v566c73-149 190-208 336-208 226 0 379 139 379 422V0H872v-695c0-172-96-275-252-275-161 0-282 109-282 300" id="ae"/><g id="n"><use transform="matrix(0.0087890625,0,0,0.0087890625,0,0)" xlink:href="#aa"/><use transform="matrix(0.0087890625,0,0,0.0087890625,6.5654296875,0)" xlink:href="#ad"/><use transform="matrix(0.0087890625,0,0,0.0087890625,12.9462890625,0)" xlink:href="#S"/><use transform="matrix(0.0087890625,0,0,0.0087890625,23.0537109375,0)" xlink:href="#Y"/><use transform="matrix(0.0087890625,0,0,0.0087890625,27.4130859375,0)" xlink:href="#ae"/><use transform="matrix(0.0087890625,0,0,0.0087890625,38.056640625,0)" xlink:href="#S"/><use transform="matrix(0.0087890625,0,0,0.0087890625,48.1640625,0)" xlink:href="#ac"/></g><path fill="#333" d="M611 442c-248 0-391-105-460-228l146-94c47 65 117 165 314 165 178 0 307-82 307-266v-224h-17C863-141 792-18 576-18c-268 0-472-195-472-546 0-346 197-568 476-568 216 0 288 133 326 193h17v-179h175V29c0 289-215 413-487 413zm-5-620c203 0 314-146 314-390 0-237-108-403-314-403-213 0-319 180-319 403 0 230 109 390 319 390" id="af"/><g id="o"><use transform="matrix(0.0087890625,0,0,0.0087890625,0,0)" xlink:href="#Q"/><use transform="matrix(0.0087890625,0,0,0.0087890625,6.4775390625,0)" xlink:href="#P"/><use transform="matrix(0.0087890625,0,0,0.0087890625,16.9716796875,0)" xlink:href="#af"/><use transform="matrix(0.0087890625,0,0,0.0087890625,28.0107421875,0)" xlink:href="#M"/><use transform="matrix(0.0087890625,0,0,0.0087890625,32.3701171875,0)" xlink:href="#O"/><use transform="matrix(0.0087890625,0,0,0.0087890625,41.87109375,0)" xlink:href="#W"/><use transform="matrix(0.0087890625,0,0,0.0087890625,47.759765625,0)" xlink:href="#Q"/><use transform="matrix(0.0087890625,0,0,0.0087890625,54.5361328125,0)" xlink:href="#S"/></g><g id="p"><use transform="matrix(0.0087890625,0,0,0.0087890625,0,0)" xlink:href="#N"/><use transform="matrix(0.0087890625,0,0,0.0087890625,10.634765625,0)" xlink:href="#T"/><use transform="matrix(0.0087890625,0,0,0.0087890625,21.076171875,0)" xlink:href="#X"/><use transform="matrix(0.0087890625,0,0,0.0087890625,30.8408203125,0)" xlink:href="#T"/></g><g id="q"><use transform="matrix(0.0087890625,0,0,0.0087890625,0,0)" xlink:href="#Q"/><use transform="matrix(0.0087890625,0,0,0.0087890625,6.4775390625,0)" xlink:href="#P"/><use transform="matrix(0.0087890625,0,0,0.0087890625,16.9716796875,0)" xlink:href="#W"/><use transform="matrix(0.0087890625,0,0,0.0087890625,22.6845703125,0)" xlink:href="#T"/><use transform="matrix(0.0087890625,0,0,0.0087890625,33.4775390625,0)" xlink:href="#Q"/><use transform="matrix(0.0087890625,0,0,0.0087890625,40.53515625,0)" xlink:href="#N"/><use transform="matrix(0.0087890625,0,0,0.0087890625,51.169921875,0)" xlink:href="#S"/></g><g id="r"><use transform="matrix(0.0087890625,0,0,0.0087890625,0,0)" xlink:href="#P"/><use transform="matrix(0.0087890625,0,0,0.0087890625,10.494140625,0)" xlink:href="#Q"/><use transform="matrix(0.0087890625,0,0,0.0087890625,17.5517578125,0)" xlink:href="#Q"/><use transform="matrix(0.0087890625,0,0,0.0087890625,24.029296875,0)" xlink:href="#T"/></g><g id="s"><use transform="matrix(0.0087890625,0,0,0.0087890625,0,0)" xlink:href="#U"/><use transform="matrix(0.0087890625,0,0,0.0087890625,11.021484375,0)" xlink:href="#Q"/><use transform="matrix(0.0087890625,0,0,0.0087890625,17.4990234375,0)" xlink:href="#T"/><use transform="matrix(0.0087890625,0,0,0.0087890625,28.2919921875,0)" xlink:href="#R"/><use transform="matrix(0.0087890625,0,0,0.0087890625,39.3134765625,0)" xlink:href="#V"/><use transform="matrix(0.0087890625,0,0,0.0087890625,49.95703125,0)" xlink:href="#W"/><use transform="matrix(0.0087890625,0,0,0.0087890625,55.669921875,0)" xlink:href="#T"/></g><path fill="#333" d="M158 0v-1118h175l1 205c55-151 181-225 313-225 147 0 245 90 285 228 53-141 190-228 352-228 194 0 352 125 352 384V0h-181v-749c0-161-105-225-225-225-151 0-243 103-243 244V0H807v-767c0-124-93-207-219-207-131 0-250 92-250 270V0H158" id="ag"/><g id="t"><use transform="matrix(0.0087890625,0,0,0.0087890625,0,0)" xlink:href="#ab"/><use transform="matrix(0.0087890625,0,0,0.0087890625,10.283203125,0)" xlink:href="#T"/><use transform="matrix(0.0087890625,0,0,0.0087890625,21.076171875,0)" xlink:href="#ag"/></g><g id="u"><use transform="matrix(0.0087890625,0,0,0.0087890625,0,0)" xlink:href="#M"/><use transform="matrix(0.0087890625,0,0,0.0087890625,4.359375,0)" xlink:href="#N"/><use transform="matrix(0.0087890625,0,0,0.0087890625,14.73046875,0)" xlink:href="#X"/><use transform="matrix(0.0087890625,0,0,0.0087890625,24.7587890625,0)" xlink:href="#Z"/><use transform="matrix(0.0087890625,0,0,0.0087890625,34.8662109375,0)" xlink:href="#Y"/><use transform="matrix(0.0087890625,0,0,0.0087890625,39.2255859375,0)" xlink:href="#M"/><use transform="matrix(0.0087890625,0,0,0.0087890625,43.5849609375,0)" xlink:href="#R"/><use transform="matrix(0.0087890625,0,0,0.0087890625,54.6064453125,0)" xlink:href="#T"/><use transform="matrix(0.0087890625,0,0,0.0087890625,65.3994140625,0)" xlink:href="#O"/></g><g id="v"><use transform="matrix(0.0087890625,0,0,0.0087890625,0,0)" xlink:href="#ab"/><use transform="matrix(0.0087890625,0,0,0.0087890625,10.283203125,0)" xlink:href="#Q"/><use transform="matrix(0.0087890625,0,0,0.0087890625,17.3408203125,0)" xlink:href="#M"/><use transform="matrix(0.0087890625,0,0,0.0087890625,21.7001953125,0)" xlink:href="#S"/><use transform="matrix(0.0087890625,0,0,0.0087890625,31.8076171875,0)" xlink:href="#R"/><use transform="matrix(0.0087890625,0,0,0.0087890625,42.8291015625,0)" xlink:href="#T"/></g><g id="w"><use transform="matrix(0.0087890625,0,0,0.0087890625,0,0)" xlink:href="#ab"/><use transform="matrix(0.0087890625,0,0,0.0087890625,10.283203125,0)" xlink:href="#T"/><use transform="matrix(0.0087890625,0,0,0.0087890625,21.076171875,0)" xlink:href="#N"/><use transform="matrix(0.0087890625,0,0,0.0087890625,31.7109375,0)" xlink:href="#ad"/><use transform="matrix(0.0087890625,0,0,0.0087890625,38.373046875,0)" xlink:href="#M"/><use transform="matrix(0.0087890625,0,0,0.0087890625,42.732421875,0)" xlink:href="#Q"/><use transform="matrix(0.0087890625,0,0,0.0087890625,49.7900390625,0)" xlink:href="#ag"/><use transform="matrix(0.0087890625,0,0,0.0087890625,65.5576171875,0)" xlink:href="#S"/></g><path fill="#333" d="M502 418V313h118c73 0 98-17 98-66s-25-65-98-65h-82l21-161C285-4 104-228 104-552c0-350 205-580 509-580 216 0 392 114 453 309l-173 49c-33-115-133-197-280-197-223 0-326 196-326 419 0 220 103 415 326 415 150 0 252-85 285-206l172 49C1015-110 859 5 663 22v64c130 5 189 54 189 162 0 118-71 170-231 170H502" id="ah"/><path fill="#333" d="M471 26C259 26 90-98 90-318c0-256 228-303 435-329 202-27 287-16 287-108 0-139-79-219-234-219-161 0-248 86-283 164l-173-57c86-203 278-265 451-265 150 0 419 46 419 395V0H815v-152h-12C765-73 660 26 471 26zm31-159c199 0 310-134 310-271v-155c-30 35-226 55-295 64-131 17-246 59-246 186 0 116 97 176 231 176zm187-1180c-99 0-192-83-243-83-35 0-51 40-53 79H267c4-120 55-208 162-208 104 0 174 85 241 85 33 0 49-23 56-81h123c-4 126-62 208-160 208" id="ai"/><g id="x"><use transform="matrix(0.0087890625,0,0,0.0087890625,0,0)" xlink:href="#ab"/><use transform="matrix(0.0087890625,0,0,0.0087890625,10.283203125,0)" xlink:href="#Q"/><use transform="matrix(0.0087890625,0,0,0.0087890625,17.3408203125,0)" xlink:href="#M"/><use transform="matrix(0.0087890625,0,0,0.0087890625,21.7001953125,0)" xlink:href="#S"/><use transform="matrix(0.0087890625,0,0,0.0087890625,31.8076171875,0)" xlink:href="#ah"/><use transform="matrix(0.0087890625,0,0,0.0087890625,42.2666015625,0)" xlink:href="#ai"/><use transform="matrix(0.0087890625,0,0,0.0087890625,52.3740234375,0)" xlink:href="#T"/></g><g id="y"><use transform="matrix(0.0087890625,0,0,0.0087890625,0,0)" xlink:href="#R"/><use transform="matrix(0.0087890625,0,0,0.0087890625,11.021484375,0)" xlink:href="#P"/></g></defs></g></svg>