<svg xmlns="http://www.w3.org/2000/svg" xmlns:xlink="http://www.w3.org/1999/xlink" xmlns:lucid="lucid" width="2780" height="1946"><g transform="translate(-2613 -143)" lucid:page-tab-id="PaLdq~84CkD7"><path d="M0 0h6373.17v5220.58H0z" fill="#fff"/><path d="M2639.18 667.8a8 8 0 0 1 8-8h339.66a8 8 0 0 1 8 8v4.92a17.07 17.07 0 0 1-5 12.07 17.07 17.07 0 0 1-12.07 5h-330.6a8 8 0 0 1-8-8z" fill="#fff"/><path d="M2994.84 659.8v20l-10 10H2639.2" stroke="#333" fill="none"/><path d="M2639.18 667.8a8 8 0 0 1 8-8h2664.4a8 8 0 0 1 8 8v788.12a8 8 0 0 1-8 8H2647.2a8 8 0 0 1-8-8z" stroke="#333" fill="none"/><use xlink:href="#a" transform="matrix(1,0,0,1,2647.175257731959,659.7938144329897) translate(147.87109375 21.5478515625)"/><use xlink:href="#b" transform="matrix(1,0,0,1,2651.175257731959,697.7938144329897) translate(6.03076171875 21.5478515625)"/><use xlink:href="#c" transform="matrix(1,0,0,1,2651.175257731959,697.7938144329897) translate(97.49853515625 21.5478515625)"/><use xlink:href="#d" transform="matrix(1,0,0,1,2651.175257731959,697.7938144329897) translate(161.67626953125 21.5478515625)"/><use xlink:href="#e" transform="matrix(1,0,0,1,2651.175257731959,697.7938144329897) translate(242.70263671875 21.5478515625)"/><use xlink:href="#f" transform="matrix(1,0,0,1,2651.175257731959,697.7938144329897) translate(268.50732421875 21.5478515625)"/><path d="M2969.07 441a8 8 0 0 1 8-8h144a8 8 0 0 1 8 8v104a8 8 0 0 1-8 8h-144a8 8 0 0 1-8-8z" stroke="#333" fill="#fff"/><use xlink:href="#g" transform="matrix(1,0,0,1,2969.0721649484535,432.9896907216496) translate(41.53079101562499 64.966875)"/><path d="M3711.34 441a8 8 0 0 1 8-8h144a8 8 0 0 1 8 8v104a8 8 0 0 1-8 8h-144a8 8 0 0 1-8-8z" stroke="#333" fill="#fff"/><use xlink:href="#h" transform="matrix(1,0,0,1,3711.3402061855672,432.9897297276507) translate(55.0053466796875 64.966875)"/><path d="M4453.6 441a8 8 0 0 1 8-8h144a8 8 0 0 1 8 8v104a8 8 0 0 1-8 8h-144a8 8 0 0 1-8-8z" stroke="#333" fill="#fff"/><use xlink:href="#i" transform="matrix(1,0,0,1,4453.608247422681,432.9897297276507) translate(47.92681152343749 64.966875)"/><path d="M5195.88 441a8 8 0 0 1 8-8h144a8 8 0 0 1 8 8v104a8 8 0 0 1-8 8h-144a8 8 0 0 1-8-8z" stroke="#333" fill="#fff"/><use xlink:href="#j" transform="matrix(1,0,0,1,5195.876288659794,432.9897297276507) translate(15.983491210937482 64.966875)"/><use xlink:href="#k" transform="matrix(1,0,0,1,5195.876288659794,432.9897297276507) translate(70.53562011718749 64.966875)"/><use xlink:href="#l" transform="matrix(1,0,0,1,5195.876288659794,432.9897297276507) translate(95.2532763671875 64.966875)"/><path d="M3049.07 554v5m0 5v10m0 5v10m0 5v10m0 5v10m0 4.98v10m0 5v10m0 5v10m0 5v10m0 5v10m0 5v10m0 5v10m0 5v10m0 5v10m0 5v10m0 5v10m0 5v10m0 5v10m0 5v10m0 5v10m0 5v10m0 5v10m0 5v9.98m0 5v10m0 5v10m0 5v10m0 5v10m0 5v10m0 5v10m0 5v10m0 5v10m0 5v10m0 5v10m0 5v10m0 5v10m0 5v10m0 5v10m0 5v10m0 5v10m0 5v9.98m0 5v10m0 5v10m0 5v10m0 5v10m0 5v10m0 5v10m0 5v10m0 5v10m0 5v10m0 5v10m0 5v10m0 5v10m0 5v10m0 5v10m0 5v10m0 5v10m0 5v9.98m0 5v10m0 5v10m0 5v10m0 5v10m0 5v10m0 5v10m0 5v10m0 5v10m0 5v10m0 5v10m0 5v10m0 5v10m0 5v10m0 5v10m0 5v10m0 5v10m0 5v10m0 5v9.98m0 5v10m0 5v10m0 5v10m0 5v10m0 5v10m0 5v10m0 5v10m0 5v10m0 5v10m0 5v10m0 5v10m0 5v10m0 5v10m0 5v10m0 5v10m0 5v10m0 5v10m0 4.98v10m0 5v10m0 5v10m0 5v5" stroke="#333" fill="none"/><path d="M3049.55 554h-.95v-.5h.95z" stroke="#333" stroke-width=".05" fill="#333"/><path d="M3049.07 1978.87v.5M3791.34 554v5m0 5v10m0 5v10m0 5v10m0 5v10m0 4.98v10m0 5v10m0 5v10m0 5v10m0 5v10m0 5v10m0 5v10m0 5v10m0 5v10m0 5v10m0 5v10m0 5v10m0 5v10m0 5v10m0 5v10m0 5v10m0 5v10m0 5v9.98m0 5v10m0 5v10m0 5v10m0 5v10m0 5v10m0 5v10m0 5v10m0 5v10m0 5v10m0 5v10m0 5v10m0 5v10m0 5v10m0 5v10m0 5v10m0 5v10m0 5v9.98m0 5v10m0 5v10m0 5v10m0 5v10m0 5v10m0 5v10m0 5v10m0 5v10m0 5v10m0 5v10m0 5v10m0 5v10m0 5v10m0 5v10m0 5v10m0 5v10m0 5v9.98m0 5v10m0 5v10m0 5v10m0 5v10m0 5v10m0 5v10m0 5v10m0 5v10m0 5v10m0 5v10m0 5v10m0 5v10m0 5v10m0 5v10m0 5v10m0 5v10m0 5v10m0 5v9.98m0 5v10m0 5v10m0 5v10m0 5v10m0 5v10m0 5v10m0 5v10m0 5v10m0 5v10m0 5v10m0 5v10m0 5v10m0 5v10m0 5v10m0 5v10m0 5v10m0 5v10m0 4.98v10m0 5v10m0 5v10m0 5v5" stroke="#333" fill="none"/><path d="M3791.8 554h-.94v-.5h.95z" stroke="#333" stroke-width=".05" fill="#333"/><path d="M3791.34 1978.87v.5M4533.6 554v5.04m0 5.06v10.1m0 5.05v10.1m0 5.06v10.12m0 5.05v10.1m0 5.06v10.1m0 5.06V650m0 5.05v10.1m0 5.05v10.1m0 5.06v10.1m0 5.06v10.1m0 5.06v10.1m0 5.06v10.1m0 5.06v10.1m0 5.05v10.1m0 5.06v10.12m0 5.05v10.1m0 5.06v10.1m0 5.06v10.1m0 5.05v10.1m0 5.06v10.1m0 5.06v10.1m0 5.06v10.1m0 5.06v10.1m0 5.06v10.1m0 5.06V938m0 5.06v10.1m0 5.05v10.12m0 5.05v10.1m0 5.06v10.1m0 5.06v10.1m0 5.05v10.1m0 5.06v10.1m0 5.07v10.1m0 5.05v10.1m0 5.06v10.1m0 5.06v10.1m0 5.06v10.1m0 5.06v10.1m0 5.06v10.1m0 5.05v10.1m0 5.06v10.1m0 5.06v10.1m0 5.05v10.1m0 5.06v10.1m0 5.07v10.1m0 5.05v10.1m0 5.06v10.11m0 5.04v10.1m0 5.06v10.1m0 5.06v10.1m0 5.06v10.1m0 5.06v10.1m0 5.05v10.1m0 5.06v10.1m0 5.05v10.1m0 5.06v10.1m0 5.07v10.1m0 5.06v10.1m0 5.05v10.1m0 5.06v10.1m0 5.06v10.1m0 5.06v10.1m0 5.06v10.1m0 5.06v10.1m0 5.05v10.1m0 5.06v10.1m0 5.05v10.1m0 5.06v10.12m0 5.05v10.1m0 5.06v10.1m0 5.05v10.1m0 5.06v10.1m0 5.06v10.1m0 5.06v10.1m0 5.06v10.1m0 5.06v10.1m0 5.06v10.1m0 5.05v10.1m0 5.05v10.1m0 5.06v10.12m0 5.05v10.1m0 5.06v10.1m0 5.06v10.1m0 5.04v10.1m0 5.06v10.1m0 5.06v10.1m0 5.06v10.1m0 5.06v10.1m0 5.06v10.1m0 5.05v10.1m0 5.05v10.1m0 5.06v10.12m0 5.05v10.1m0 5.06v5.05" stroke="#333" fill="none"/><path d="M4534.08 554h-.95v-.5h.95z" stroke="#333" stroke-width=".05" fill="#333"/><path d="M4533.6 1978.87v.5M5275.88 554v5m0 5v10m0 5v10m0 5v10m0 5v10m0 4.98v10m0 5v10m0 5v10m0 5v10m0 5v10m0 5v10m0 5v10m0 5v10m0 5v10m0 5v10m0 5v10m0 5v10m0 5v10m0 5v10m0 5v10m0 5v10m0 5v10m0 5v9.98m0 5v10m0 5v10m0 5v10m0 5v10m0 5v10m0 5v10m0 5v10m0 5v10m0 5v10m0 5v10m0 5v10m0 5v10m0 5v10m0 5v10m0 5v10m0 5v10m0 5v9.98m0 5v10m0 5v10m0 5v10m0 5v10m0 5v10m0 5v10m0 5v10m0 5v10m0 5v10m0 5v10m0 5v10m0 5v10m0 5v10m0 5v10m0 5v10m0 5v10m0 5v9.98m0 5v10m0 5v10m0 5v10m0 5v10m0 5v10m0 5v10m0 5v10m0 5v10m0 5v10m0 5v10m0 5v10m0 5v10m0 5v10m0 5v10m0 5v10m0 5v10m0 5v10m0 5v9.98m0 5v10m0 5v10m0 5v10m0 5v10m0 5v10m0 5v10m0 5v10m0 5v10m0 5v10m0 5v10m0 5v10m0 5v10m0 5v10m0 5v10m0 5v10m0 5v10m0 5v10m0 4.98v10m0 5v10m0 5v10m0 5v5" stroke="#333" fill="none"/><path d="M5276.35 554h-.95v-.5h.95z" stroke="#333" stroke-width=".05" fill="#333"/><path d="M5275.88 1978.87v.5" stroke="#333" fill="none"/><path d="M3029.07 647.17a8 8 0 0 1 8-8h24a8 8 0 0 1 8 8v1179.88a8 8 0 0 1-8 8h-24a8 8 0 0 1-8-8z" stroke="#333" fill="#fff"/><path d="M3070.02 646.5h684.5" stroke="#333" fill="none"/><path d="M3070.03 646.98h-.47l-.08-.95h.55z" stroke="#333" stroke-width=".05" fill="#333"/><path d="M3769.27 646.5l-14.26 4.64v-9.27z" stroke="#333" fill="#333"/><use xlink:href="#m" transform="matrix(1,0,0,1,3369.611901366938,620.7213855661815) translate(0.005000000000002558 17.4375)"/><use xlink:href="#n" transform="matrix(1,0,0,1,3369.611901366938,620.7213855661815) translate(49.171015625 17.4375)"/><path d="M3771.34 647.17a8 8 0 0 1 8-8h24a8 8 0 0 1 8 8v1159.26a8 8 0 0 1-8 8h-24a8 8 0 0 1-8-8z" stroke="#333" fill="#fff"/><path d="M3812.34 690.84h684.38" stroke="#333" fill="none"/><path d="M3812.35 691.3h-.5v-.94h.5z" stroke="#333" stroke-width=".05" fill="#333"/><path d="M4511.5 690.84l-14.28 4.63v-9.27z" stroke="#333" fill="#333"/><use xlink:href="#o" transform="matrix(1,0,0,1,4096.84185488145,665.0555031140859) translate(0.0049999999999954525 17.4375)"/><use xlink:href="#p" transform="matrix(1,0,0,1,4096.84185488145,665.0555031140859) translate(64.8067578125 17.4375)"/><path d="M4513.6 688.4a8 8 0 0 1 8-8h24a8 8 0 0 1 8 8v293.3a8 8 0 0 1-8 8h-24a8 8 0 0 1-8-8z" stroke="#333" fill="#fff"/><path d="M4554.6 707.32h351.02a.12.12 0 0 1 .12.1.12.12 0 0 0 .12.13H5241" stroke="#333" fill="none"/><path d="M4554.62 707.8h-.5v-.96h.5z" stroke="#333" stroke-width=".05" fill="#333"/><path d="M5255.75 707.55l-14.26 4.64v-9.28z" stroke="#333" fill="#333"/><use xlink:href="#q" transform="matrix(1,0,0,1,4647.793084207449,681.5359443139595) translate(0.0049999999999954525 17.4375)"/><use xlink:href="#r" transform="matrix(1,0,0,1,4647.793084207449,681.5359443139595) translate(68.331171875 17.4375)"/><path d="M5257.73 709.03a8 8 0 0 1 8-8h24a8 8 0 0 1 8 8v66.48a8 8 0 0 1-8 8h-24a8 8 0 0 1-8-8z" stroke="#333" fill="#fff"/><path d="M2783.5 770.9a8 8 0 0 1 8-8h195.34a8 8 0 0 1 8 8v4.92a17.07 17.07 0 0 1-5 12.07 17.07 17.07 0 0 1-12.07 5H2791.5a8 8 0 0 1-8-8z" fill="#fff"/><path d="M2994.84 762.9v20l-10 10H2783.5" stroke="#333" fill="none"/><path d="M2783.5 770.9a8 8 0 0 1 8-8h1798.44a8 8 0 0 1 8 8v293.26a8 8 0 0 1-8 8H2791.5a8 8 0 0 1-8-8zM2783.5 932.02h20m15 0h20m15 0h20m15 0h20m15 0h20m15 0h20m15 0h20m15 0h20m15 0h20m15 0h20m15 0h20m15 0h20m15 0h20m15 0h20m15 0h20m15 0h20m15 0h20m15 0h20m15 0h20m15 0h20m15 0h20m15 0h20m15 0h20m15 0h20m15 0h20m15 0h20m15 0h20m15 0h20m15 0h20m15 0h20m15 0h20m15 0h20m15 0h20m15 0h20m15 0h20m15 0h20m15 0h20m15 0h20m15 0h20m15 0h20m15 0h20m15 0h20m15 0h20m15 0h20m15 0h20m15 0h20m15 0h20m15 0h20m15 0h20m15 0h20m15 0h20m15 0h20" stroke="#333" fill="none"/><use xlink:href="#s" transform="matrix(1,0,0,1,2791.5051546391755,762.886597931385) translate(12.52392578125 21.5478515625)"/><use xlink:href="#t" transform="matrix(1,0,0,1,2791.5051546391755,762.886597931385) translate(84.04931640625 21.5478515625)"/><use xlink:href="#u" transform="matrix(1,0,0,1,2795.5051546391755,800.886597931385) translate(10.17724609375 21.5478515625)"/><use xlink:href="#v" transform="matrix(1,0,0,1,2795.5051546391755,940.0231745418191) translate(14.13525390625 21.5478515625)"/><path d="M5258.1 780.08H4570.5" stroke="#333" fill="none"/><path d="M5258.85 780.5l.05.05h-.82v-.95h.22z" stroke="#333" stroke-width=".05" fill="#333"/><path d="M4555.73 780.08l14.26-4.64v9.27z" stroke="#333" fill="#333"/><use xlink:href="#w" transform="matrix(1,0,0,1,4601.973948909515,784.078701430964) translate(0.0049999999999954525 17.4375)"/><use xlink:href="#x" transform="matrix(1,0,0,1,4601.973948909515,784.078701430964) translate(66.34484375 17.4375)"/><use xlink:href="#y" transform="matrix(1,0,0,1,4601.973948909515,784.078701430964) translate(123.139765625 17.4375)"/><use xlink:href="#r" transform="matrix(1,0,0,1,4601.973948909515,784.078701430964) translate(156.7930859375 17.4375)"/><path d="M4512.6 981.8h-350.1a.02.02 0 0 0-.02 0 .02.02 0 0 1-.03.03h-334.23" stroke="#333" fill="none"/><path d="M4513.1 981.7l.05.56h-.55v-.95h.5z" stroke="#333" stroke-width=".05" fill="#333"/><path d="M3813.46 981.83l14.26-4.63v9.27z" stroke="#333" fill="#333"/><use xlink:href="#z" transform="matrix(1,0,0,1,4026.532910486714,985.8332761582848) translate(0.0049999999999954525 17.4375)"/><use xlink:href="#A" transform="matrix(1,0,0,1,4026.532910486714,985.8332761582848) translate(66.34484375 17.4375)"/><use xlink:href="#B" transform="matrix(1,0,0,1,4026.532910486714,985.8332761582848) translate(137.870234375 17.4375)"/><use xlink:href="#C" transform="matrix(1,0,0,1,4026.532910486714,985.8332761582848) translate(174.467890625 17.4375)"/><path d="M4512.6 819.55h-684.38" stroke="#333" fill="none"/><path d="M4513.1 820.02h-.5v-.95h.5z" stroke="#333" stroke-width=".05" fill="#333"/><path d="M3813.46 819.55l14.26-4.64v9.28z" stroke="#333" fill="#333"/><use xlink:href="#z" transform="matrix(1,0,0,1,4096.072856240062,823.5486487644141) translate(0.0049999999999954525 17.4375)"/><use xlink:href="#p" transform="matrix(1,0,0,1,4096.072856240062,823.5486487644141) translate(66.34484375 17.4375)"/><path d="M3770.34 1030.35h-684.37" stroke="#333" fill="none"/><path d="M3770.84 1030.82h-.5v-.95h.5z" stroke="#333" stroke-width=".05" fill="#333"/><path d="M3071.2 1030.35l14.26-4.64v9.28z" stroke="#333" fill="#333"/><use xlink:href="#z" transform="matrix(1,0,0,1,3264.3189700194343,1034.3464106962228) translate(0.0049999999999954525 17.4375)"/><use xlink:href="#D" transform="matrix(1,0,0,1,3264.3189700194343,1034.3464106962228) translate(66.34484375 17.4375)"/><use xlink:href="#A" transform="matrix(1,0,0,1,3264.3189700194343,1034.3464106962228) translate(106.229609375 17.4375)"/><use xlink:href="#B" transform="matrix(1,0,0,1,3264.3189700194343,1034.3464106962228) translate(177.755 17.4375)"/><use xlink:href="#C" transform="matrix(1,0,0,1,3264.3189700194343,1034.3464106962228) translate(214.35265625 17.4375)"/><path d="M3812.34 1123.4h684.38" stroke="#333" fill="none"/><path d="M3812.35 1123.88h-.5v-.95h.5z" stroke="#333" stroke-width=".05" fill="#333"/><path d="M4511.5 1123.4l-14.28 4.64v-9.27z" stroke="#333" fill="#333"/><use xlink:href="#E" transform="matrix(1,0,0,1,4033.2222818976115,1097.624726523519) translate(0.0049999999999954525 17.4375)"/><use xlink:href="#F" transform="matrix(1,0,0,1,4033.2222818976115,1097.624726523519) translate(64.8067578125 17.4375)"/><use xlink:href="#G" transform="matrix(1,0,0,1,4033.2222818976115,1097.624726523519) translate(165.1690625 17.4375)"/><use xlink:href="#r" transform="matrix(1,0,0,1,4033.2222818976115,1097.624726523519) translate(192.046015625 17.4375)"/><path d="M4554.6 1154.4h686.25M4554.62 1154.4h-.5" stroke="#333" fill="none"/><path d="M5255.6 1154.4l-14.25 4.64v-9.27z" stroke="#333" fill="#333"/><use xlink:href="#q" transform="matrix(1,0,0,1,4586.299222186323,1128.6300182983891) translate(0.0049999999999954525 17.4375)"/><use xlink:href="#F" transform="matrix(1,0,0,1,4586.299222186323,1128.6300182983891) translate(68.331171875 17.4375)"/><use xlink:href="#H" transform="matrix(1,0,0,1,4586.299222186323,1128.6300182983891) translate(168.6934765625 17.4375)"/><path d="M2783.5 1203.88a8 8 0 0 1 8-8h205.66a8 8 0 0 1 8 8v4.92a17.07 17.07 0 0 1-5 12.08 17.07 17.07 0 0 1-12.08 5H2791.5a8 8 0 0 1-8-8z" fill="#fff"/><path d="M3005.16 1195.88v20l-10 10H2783.5" stroke="#333" fill="none"/><path d="M2783.5 1203.88a8 8 0 0 1 8-8h1056.17a8 8 0 0 1 8 8v210.8a8 8 0 0 1-8 8H2791.5a8 8 0 0 1-8-8zM2783.5 1309.28h20m15 0h20m15 0h20m15 0h20m15 0h20m15 0h20m15 0h20m15 0h20m15 0h20m15 0h20m15 0h20m15 0h20m15 0h20m15 0h20m15 0h20m15 0h20m15 0h20m15 0h20m15 0h20m15 0h20m15 0h20m15 0h20m15 0h20m15 0h20m15 0h20m15 0h20m15 0h20m15 0h20m15 0h20m15 0h20m15 0h20" stroke="#333" fill="none"/><use xlink:href="#I" transform="matrix(1,0,0,1,2791.5051546391755,1195.876288659794) translate(8.66455078125 21.5478515625)"/><use xlink:href="#H" transform="matrix(1,0,0,1,2791.5051546391755,1195.876288659794) translate(109.02685546875 21.5478515625)"/><use xlink:href="#u" transform="matrix(1,0,0,1,2795.5051546391755,1233.876288659794) translate(10.17724609375 21.5478515625)"/><use xlink:href="#v" transform="matrix(1,0,0,1,2795.5051546391755,1317.278350515464) translate(14.13525390625 21.5478515625)"/><path d="M5257.12 1260.7H4570.5" stroke="#333" fill="none"/><path d="M5257.65 1260.8l.14.37h-.7v-.95h.4z" stroke="#333" stroke-width=".05" fill="#333"/><path d="M4555.73 1260.7l14.26-4.64v9.27z" stroke="#333" fill="#333"/><use xlink:href="#w" transform="matrix(1,0,0,1,4635.21687973088,1264.6909408701783) translate(0.0049999999999954525 17.4375)"/><use xlink:href="#J" transform="matrix(1,0,0,1,4635.21687973088,1264.6909408701783) translate(66.34484375 17.4375)"/><path d="M4512.83 1292.8H3828.2M4512.82 1292.8h.5" stroke="#333" fill="none"/><path d="M3813.46 1292.8l14.26-4.64v9.27z" stroke="#333" fill="#333"/><use xlink:href="#w" transform="matrix(1,0,0,1,4081.7658402930956,1296.797625981836) translate(0.0049999999999954525 17.4375)"/><use xlink:href="#J" transform="matrix(1,0,0,1,4081.7658402930956,1296.797625981836) translate(66.34484375 17.4375)"/><path d="M3770.34 1373.7h-684.37" stroke="#333" fill="none"/><path d="M3770.84 1374.16h-.5v-.95h.5z" stroke="#333" stroke-width=".05" fill="#333"/><path d="M3071.2 1373.7l14.26-4.65v9.27z" stroke="#333" fill="#333"/><use xlink:href="#w" transform="matrix(1,0,0,1,3266.2613717725626,1377.6870220955532) translate(0.0049999999999954525 17.4375)"/><use xlink:href="#K" transform="matrix(1,0,0,1,3266.2613717725626,1377.6870220955532) translate(66.34484375 17.4375)"/><use xlink:href="#F" transform="matrix(1,0,0,1,3266.2613717725626,1377.6870220955532) translate(106.229609375 17.4375)"/><use xlink:href="#L" transform="matrix(1,0,0,1,3266.2613717725626,1377.6870220955532) translate(206.5919140625 17.4375)"/><path d="M3812.34 1519.97H5239" stroke="#333" fill="none"/><path d="M3812.35 1520.44h-.5v-.95h.5z" stroke="#333" stroke-width=".05" fill="#333"/><path d="M5253.76 1519.97l-14.27 4.63v-9.27z" stroke="#333" fill="#333"/><g><use xlink:href="#M" transform="matrix(1,0,0,1,4102.631742144595,1494.1862252320307) translate(0.005000000000002558 17.4375)"/><use xlink:href="#N" transform="matrix(1,0,0,1,4102.631742144595,1494.1862252320307) translate(69.7110546875 17.4375)"/></g><path d="M5255.88 1513.15a8 8 0 0 1 8-8h24a8 8 0 0 1 8 8v66.48a8 8 0 0 1-8 8h-24a8 8 0 0 1-8-8z" stroke="#333" fill="#fff"/><path d="M3812.34 1584.5h1428.19" stroke="#333" fill="none"/><path d="M3812.35 1584.97h-.5v-.95h.5z" stroke="#333" stroke-width=".05" fill="#333"/><path d="M5255.3 1584.5l-14.27 4.63v-9.27z" stroke="#333" fill="#333"/><g><use xlink:href="#M" transform="matrix(1,0,0,1,4066.8355951905223,1558.713126277419) translate(0.0049999999999954525 17.4375)"/><use xlink:href="#O" transform="matrix(1,0,0,1,4066.8355951905223,1558.713126277419) translate(69.7110546875 17.4375)"/><use xlink:href="#P" transform="matrix(1,0,0,1,4066.8355951905223,1558.713126277419) translate(115.475703125 17.4375)"/><use xlink:href="#N" transform="matrix(1,0,0,1,4066.8355951905223,1558.713126277419) translate(142.053828125 17.4375)"/></g><path d="M4513.6 1678.1a8 8 0 0 1 8-8h24a8 8 0 0 1 8 8v66.48a8 8 0 0 1-8 8h-24a8 8 0 0 1-8-8z" stroke="#333" fill="#fff"/><path d="M3812.34 1681.86h684.38" stroke="#333" fill="none"/><path d="M3812.35 1682.33h-.5v-.95h.5z" stroke="#333" stroke-width=".05" fill="#333"/><path d="M4511.5 1681.86l-14.28 4.63v-9.28z" stroke="#333" fill="#333"/><g><use xlink:href="#E" transform="matrix(1,0,0,1,4018.1666079063825,1656.075500769339) translate(0.0049999999999954525 17.4375)"/><use xlink:href="#Q" transform="matrix(1,0,0,1,4018.1666079063825,1656.075500769339) translate(64.8067578125 17.4375)"/><use xlink:href="#P" transform="matrix(1,0,0,1,4018.1666079063825,1656.075500769339) translate(166.7423046875 17.4375)"/><use xlink:href="#J" transform="matrix(1,0,0,1,4018.1666079063825,1656.075500769339) translate(193.3204296875 17.4375)"/></g><path d="M5255.88 1698.72a8 8 0 0 1 8-8h24a8 8 0 0 1 8 8v25.24a8 8 0 0 1-8 8h-24a8 8 0 0 1-8-8z" stroke="#333" fill="#fff"/><path d="M4554.6 1709.48H5239" stroke="#333" fill="none"/><path d="M4554.62 1709.96h-.5v-.95h.5z" stroke="#333" stroke-width=".05" fill="#333"/><path d="M5253.76 1709.48l-14.27 4.64v-9.27z" stroke="#333" fill="#333"/><g><use xlink:href="#R" transform="matrix(1,0,0,1,4578.594442244116,1683.7052055696317) translate(0.0049999999999954525 17.4375)"/><use xlink:href="#F" transform="matrix(1,0,0,1,4578.594442244116,1683.7052055696317) translate(70.581171875 17.4375)"/><use xlink:href="#H" transform="matrix(1,0,0,1,4578.594442244116,1683.7052055696317) translate(170.9434765625 17.4375)"/></g><path d="M4512.6 1743.22h-684.38" stroke="#333" fill="none"/><path d="M4513.1 1743.7h-.5v-.96h.5z" stroke="#333" stroke-width=".05" fill="#333"/><path d="M3813.46 1743.22l14.26-4.64v9.27z" stroke="#333" fill="#333"/><g><use xlink:href="#S" transform="matrix(1,0,0,1,4010.203766203462,1747.2184895114376) translate(0.0049999999999954525 17.4375)"/><use xlink:href="#Q" transform="matrix(1,0,0,1,4010.203766203462,1747.2184895114376) translate(80.7325390625 17.4375)"/><use xlink:href="#P" transform="matrix(1,0,0,1,4010.203766203462,1747.2184895114376) translate(182.6680859375 17.4375)"/><use xlink:href="#J" transform="matrix(1,0,0,1,4010.203766203462,1747.2184895114376) translate(209.2462109375 17.4375)"/></g><path d="M3770.45 1807.78h-684.5" stroke="#333" fill="none"/><path d="M3770.94 1807.76l.12.5h-.63v-.96h.48z" stroke="#333" stroke-width=".05" fill="#333"/><path d="M3071.2 1807.78l14.26-4.64v9.27z" stroke="#333" fill="#333"/><g><use xlink:href="#S" transform="matrix(1,0,0,1,3253.9352694438116,1811.7772078649145) translate(0.0049999999999954525 17.4375)"/><use xlink:href="#T" transform="matrix(1,0,0,1,3253.9352694438116,1811.7772078649145) translate(80.7325390625 17.4375)"/><use xlink:href="#U" transform="matrix(1,0,0,1,3253.9352694438116,1811.7772078649145) translate(137.8175 17.4375)"/><use xlink:href="#V" transform="matrix(1,0,0,1,3253.9352694438116,1811.7772078649145) translate(220.030390625 17.4375)"/><use xlink:href="#W" transform="matrix(1,0,0,1,3253.9352694438116,1811.7772078649145) translate(261.936640625 17.4375)"/></g><path d="M4513.6 1121.4a8 8 0 0 1 8-8h24a8 8 0 0 1 8 8v169.57a8 8 0 0 1-8 8h-24a8 8 0 0 1-8-8zM5257.73 1154.2a8 8 0 0 1 8-8h24a8 8 0 0 1 8 8v104a8 8 0 0 1-8 8h-24a8 8 0 0 1-8-8z" stroke="#333" fill="#fff"/><path d="M4020.62 276.04a8 8 0 0 1 8-8h224a8 8 0 0 1 8 8v44a8 8 0 0 1-8 8h-224a8 8 0 0 1-8-8z" fill="none"/><g><use xlink:href="#X" transform="matrix(1,0,0,1,4020.618556701031,268.0412371134021) translate(65.47705078125 36.5478515625)"/><use xlink:href="#N" transform="matrix(1,0,0,1,4020.618556701031,268.0412371134021) translate(122.50048828125 36.5478515625)"/></g><defs><path fill="#333" d="M135 0v-1490h305v1237h643V0H135" id="Y"/><path fill="#333" d="M440 22C227 22 68-92 68-313c0-250 202-322 422-343 195-21 271-24 271-105 0-95-63-149-175-149-116 0-187 57-211 129l-275-46c57-194 237-305 487-305 240 0 474 108 474 379V0H777v-155h-10C713-51 605 22 440 22zm85-211c140 0 238-93 238-211v-121c-37 26-156 42-222 51-111 16-185 59-185 149 0 87 70 132 169 132" id="Z"/><path fill="#333" d="M499 418V299c80-5 216 24 216-62 0-44-25-60-89-60h-91l26-158C264-10 81-233 81-554c0-346 210-578 547-578 265 0 455 142 497 372l-279 52c-25-116-99-188-215-188-160 0-244 139-244 341 0 200 84 341 244 341 116 0 193-74 217-195l279 51C1088-140 923 0 685 20l-4 68c126-6 197 51 197 157 0 123-72 173-239 173H499" id="aa"/><path fill="#333" d="M628 22C291 22 81-210 81-554c0-346 210-578 547-578 336 0 547 232 547 578 0 344-211 576-547 576zm0-236c160 0 242-146 242-341 0-197-82-341-242-341S387-753 387-555c0 195 81 341 241 341" id="ab"/><g id="a"><use transform="matrix(0.0087890625,0,0,0.0087890625,0,0)" xlink:href="#Y"/><use transform="matrix(0.0087890625,0,0,0.0087890625,10.177734375,0)" xlink:href="#Z"/><use transform="matrix(0.0087890625,0,0,0.0087890625,20.6279296875,0)" xlink:href="#aa"/><use transform="matrix(0.0087890625,0,0,0.0087890625,31.21875,0)" xlink:href="#ab"/></g><path fill="#333" d="M226 279v-1860h398v153H398V126h226v153H226" id="ac"/><path fill="#333" d="M628 24c-324 0-524-230-524-574 0-343 198-582 503-582 237 0 487 146 487 559v75H286c9 234 145 362 343 362 132 0 231-58 273-172l174 48C1024-91 857 24 628 24zM287-650h624c-17-190-120-322-304-322-192 0-309 151-320 322" id="ad"/><path fill="#333" d="M338-670V0H158v-1118h173l1 207c72-158 192-221 342-221 226 0 378 139 378 422V0H872v-695c0-172-96-275-252-275-161 0-282 109-282 300" id="ae"/><path fill="#333" d="M1096 418H916v-591h-14C865-111 790 24 577 24c-279 0-473-224-473-580 0-354 195-576 474-576 218 0 287 134 324 193h20v-179h174V418zM604-137c203 0 314-172 314-421 0-247-108-413-314-413-212 0-317 181-317 413 0 235 108 421 317 421" id="af"/><path fill="#333" d="M537 14c-226 0-379-139-379-422v-710h180v695c0 172 97 275 253 275 160 0 281-109 281-300v-670h181V0H879v-209C806-46 684 14 537 14" id="ag"/><path fill="#333" d="M471 26C259 26 90-98 90-318c0-256 228-303 435-329 202-27 287-16 287-108 0-139-79-219-234-219-161 0-248 86-283 164l-173-57c86-203 278-265 451-265 150 0 419 46 419 395V0H815v-152h-12C765-73 660 26 471 26zm31-159c199 0 310-134 310-271v-155c-30 35-226 55-295 64-131 17-246 59-246 186 0 116 97 176 231 176" id="ah"/><path fill="#333" d="M598-1118v154H368v674c0 100 37 144 132 144 23 0 62-6 92-12L629-6c-37 13-88 20-134 20-193 0-307-107-307-290v-688H20v-154h168v-266h180v266h230" id="ai"/><path fill="#333" d="M613 24c-304 0-509-231-509-576 0-350 205-580 509-580 305 0 511 230 511 580 0 345-206 576-511 576zm0-161c226 0 329-195 329-415 0-222-103-419-329-419-223 0-326 196-326 419 0 220 103 415 326 415" id="aj"/><g id="b"><use transform="matrix(0.0087890625,0,0,0.0087890625,0,0)" xlink:href="#ac"/><use transform="matrix(0.0087890625,0,0,0.0087890625,6.36328125,0)" xlink:href="#ad"/><use transform="matrix(0.0087890625,0,0,0.0087890625,16.857421875,0)" xlink:href="#ae"/><use transform="matrix(0.0087890625,0,0,0.0087890625,27.4921875,0)" xlink:href="#af"/><use transform="matrix(0.0087890625,0,0,0.0087890625,38.513671875,0)" xlink:href="#ag"/><use transform="matrix(0.0087890625,0,0,0.0087890625,49.1572265625,0)" xlink:href="#ah"/><use transform="matrix(0.0087890625,0,0,0.0087890625,59.2646484375,0)" xlink:href="#ae"/><use transform="matrix(0.0087890625,0,0,0.0087890625,69.8994140625,0)" xlink:href="#ai"/><use transform="matrix(0.0087890625,0,0,0.0087890625,75.6123046875,0)" xlink:href="#aj"/></g><path fill="#333" d="M338-670V0H158v-1490h180v566c73-149 190-208 336-208 226 0 379 139 379 422V0H872v-695c0-172-96-275-252-275-161 0-282 109-282 300" id="ak"/><path fill="#333" d="M481 0L54-1118h197c107 314 236 620 325 951 87-331 217-637 324-951h197L670 0H481" id="al"/><path fill="#333" d="M158 0v-1118h174v172h12c41-113 157-188 290-188 26 0 70 2 91 3v181c-11-2-60-10-108-10-161 0-279 109-279 260V0H158" id="am"/><g id="c"><use transform="matrix(0.0087890625,0,0,0.0087890625,0,0)" xlink:href="#ak"/><use transform="matrix(0.0087890625,0,0,0.0087890625,10.6435546875,0)" xlink:href="#aj"/><use transform="matrix(0.0087890625,0,0,0.0087890625,21.4365234375,0)" xlink:href="#ag"/><use transform="matrix(0.0087890625,0,0,0.0087890625,32.080078125,0)" xlink:href="#al"/><use transform="matrix(0.0087890625,0,0,0.0087890625,41.8447265625,0)" xlink:href="#ad"/><use transform="matrix(0.0087890625,0,0,0.0087890625,52.3388671875,0)" xlink:href="#am"/></g><path fill="#333" d="M158 418v-1536h174v179h20c37-59 106-193 324-193 279 0 474 222 474 576 0 356-194 580-473 580-213 0-288-135-325-197h-14v591H158zm492-555c209 0 317-186 317-421 0-232-105-413-317-413-206 0-314 166-314 413 0 249 111 421 314 421" id="an"/><path fill="#333" d="M577 24c-279 0-473-224-473-580 0-354 195-576 474-576 218 0 287 134 324 193h14v-551h180V0H922v-173h-20C865-111 790 24 577 24zm27-161c203 0 314-172 314-421 0-247-108-413-314-413-212 0-317 181-317 413 0 235 108 421 317 421" id="ao"/><path fill="#333" d="M538 24C308 24 148-78 108-271l171-41c32 123 123 178 257 178 156 0 256-77 256-169 0-77-54-128-164-154l-186-44c-203-48-300-148-300-305 0-192 176-326 414-326 230 0 351 112 402 269l-163 42c-31-80-94-158-238-158-133 0-233 69-233 162 0 83 57 129 188 160l169 40c203 48 298 149 298 302 0 196-179 339-441 339" id="ap"/><g id="d"><use transform="matrix(0.0087890625,0,0,0.0087890625,0,0)" xlink:href="#an"/><use transform="matrix(0.0087890625,0,0,0.0087890625,11.021484375,0)" xlink:href="#am"/><use transform="matrix(0.0087890625,0,0,0.0087890625,17.4990234375,0)" xlink:href="#aj"/><use transform="matrix(0.0087890625,0,0,0.0087890625,28.2919921875,0)" xlink:href="#ao"/><use transform="matrix(0.0087890625,0,0,0.0087890625,39.3134765625,0)" xlink:href="#ag"/><use transform="matrix(0.0087890625,0,0,0.0087890625,49.95703125,0)" xlink:href="#ai"/><use transform="matrix(0.0087890625,0,0,0.0087890625,55.669921875,0)" xlink:href="#aj"/><use transform="matrix(0.0087890625,0,0,0.0087890625,66.462890625,0)" xlink:href="#ap"/></g><g id="e"><use transform="matrix(0.0087890625,0,0,0.0087890625,0,0)" xlink:href="#ae"/><use transform="matrix(0.0087890625,0,0,0.0087890625,10.634765625,0)" xlink:href="#ah"/></g><path fill="#333" d="M338-1490V0H158v-1490h180" id="aq"/><path fill="#333" d="M158 0v-1118h180V0H158zm91-1301c-68 0-125-53-125-119s57-119 125-119c69 0 126 53 126 119s-57 119-126 119" id="ar"/><path fill="#333" d="M613 24c-304 0-509-231-509-576 0-350 205-580 509-580 216 0 392 114 453 309l-173 49c-33-115-133-197-280-197-223 0-326 196-326 419 0 220 103 415 326 415 150 0 252-85 285-206l172 49C1010-95 832 24 613 24" id="as"/><path fill="#333" d="M502 418V313h118c73 0 98-17 98-66s-25-65-98-65h-82l21-161C285-4 104-228 104-552c0-350 205-580 509-580 216 0 392 114 453 309l-173 49c-33-115-133-197-280-197-223 0-326 196-326 419 0 220 103 415 326 415 150 0 252-85 285-206l172 49C1015-110 859 5 663 22v64c130 5 189 54 189 162 0 118-71 170-231 170H502" id="at"/><path fill="#333" d="M471 26C259 26 90-98 90-318c0-256 228-303 435-329 202-27 287-16 287-108 0-139-79-219-234-219-161 0-248 86-283 164l-173-57c86-203 278-265 451-265 150 0 419 46 419 395V0H815v-152h-12C765-73 660 26 471 26zm31-159c199 0 310-134 310-271v-155c-30 35-226 55-295 64-131 17-246 59-246 186 0 116 97 176 231 176zm187-1180c-99 0-192-83-243-83-35 0-51 40-53 79H267c4-120 55-208 162-208 104 0 174 85 241 85 33 0 49-23 56-81h123c-4 126-62 208-160 208" id="au"/><path fill="#333" d="M123 279V126h226v-1554H123v-153h398V279H123" id="av"/><g id="f"><use transform="matrix(0.0087890625,0,0,0.0087890625,0,0)" xlink:href="#ap"/><use transform="matrix(0.0087890625,0,0,0.0087890625,9.5009765625,0)" xlink:href="#aj"/><use transform="matrix(0.0087890625,0,0,0.0087890625,20.2939453125,0)" xlink:href="#aq"/><use transform="matrix(0.0087890625,0,0,0.0087890625,24.6533203125,0)" xlink:href="#ar"/><use transform="matrix(0.0087890625,0,0,0.0087890625,29.0126953125,0)" xlink:href="#as"/><use transform="matrix(0.0087890625,0,0,0.0087890625,39.2958984375,0)" xlink:href="#ar"/><use transform="matrix(0.0087890625,0,0,0.0087890625,43.6552734375,0)" xlink:href="#ai"/><use transform="matrix(0.0087890625,0,0,0.0087890625,49.6318359375,0)" xlink:href="#ah"/><use transform="matrix(0.0087890625,0,0,0.0087890625,59.7392578125,0)" xlink:href="#at"/><use transform="matrix(0.0087890625,0,0,0.0087890625,70.1982421875,0)" xlink:href="#au"/><use transform="matrix(0.0087890625,0,0,0.0087890625,80.3056640625,0)" xlink:href="#aj"/><use transform="matrix(0.0087890625,0,0,0.0087890625,90.896484375,0)" xlink:href="#av"/></g><path d="M600 0L52-1490h200c166 485 304 806 458 1336 156-533 285-846 449-1336h202L819 0H600" id="aw"/><path d="M628 24c-324 0-524-230-524-574 0-343 198-582 503-582 237 0 487 146 487 559v75H286c9 234 145 362 343 362 132 0 231-58 273-172l174 48C1024-91 857 24 628 24zM287-650h624c-17-190-120-322-304-322-192 0-309 151-320 322" id="ax"/><path d="M338-670V0H158v-1118h173l1 207c72-158 192-221 342-221 226 0 378 139 378 422V0H872v-695c0-172-96-275-252-275-161 0-282 109-282 300" id="ay"/><path d="M577 24c-279 0-473-224-473-580 0-354 195-576 474-576 218 0 287 134 324 193h14v-551h180V0H922v-173h-20C865-111 790 24 577 24zm27-161c203 0 314-172 314-421 0-247-108-413-314-413-212 0-317 181-317 413 0 235 108 421 317 421" id="az"/><path d="M613 24c-304 0-509-231-509-576 0-350 205-580 509-580 305 0 511 230 511 580 0 345-206 576-511 576zm0-161c226 0 329-195 329-415 0-222-103-419-329-419-223 0-326 196-326 419 0 220 103 415 326 415" id="aA"/><path d="M158 0v-1118h174v172h12c41-113 157-188 290-188 26 0 70 2 91 3v181c-11-2-60-10-108-10-161 0-279 109-279 260V0H158" id="aB"/><g id="g"><use transform="matrix(0.008173828125000001,0,0,0.008173828125000001,0,0)" xlink:href="#aw"/><use transform="matrix(0.008173828125000001,0,0,0.008173828125000001,10.699541015625002,0)" xlink:href="#ax"/><use transform="matrix(0.008173828125000001,0,0,0.008173828125000001,20.459091796874997,0)" xlink:href="#ay"/><use transform="matrix(0.008173828125000001,0,0,0.008173828125000001,30.349423828125,0)" xlink:href="#az"/><use transform="matrix(0.008173828125000001,0,0,0.008173828125000001,40.599404296875,0)" xlink:href="#ax"/><use transform="matrix(0.008173828125000001,0,0,0.008173828125000001,50.358955078125,0)" xlink:href="#az"/><use transform="matrix(0.008173828125000001,0,0,0.008173828125000001,60.608935546875,0)" xlink:href="#aA"/><use transform="matrix(0.008173828125000001,0,0,0.008173828125000001,70.646396484375,0)" xlink:href="#aB"/><path d="M-.84 3.42h78.62v1.14H-.84z"/></g><path d="M471 26C259 26 90-98 90-318c0-256 228-303 435-329 202-27 287-16 287-108 0-139-79-219-234-219-161 0-248 86-283 164l-173-57c86-203 278-265 451-265 150 0 419 46 419 395V0H815v-152h-12C765-73 660 26 471 26zm31-159c199 0 310-134 310-271v-155c-30 35-226 55-295 64-131 17-246 59-246 186 0 116 97 176 231 176" id="aC"/><g id="h"><use transform="matrix(0.008173828125000001,0,0,0.008173828125000001,0,0)" xlink:href="#aw"/><use transform="matrix(0.008173828125000001,0,0,0.008173828125000001,10.699541015625002,0)" xlink:href="#ax"/><use transform="matrix(0.008173828125000001,0,0,0.008173828125000001,20.459091796874997,0)" xlink:href="#ay"/><use transform="matrix(0.008173828125000001,0,0,0.008173828125000001,30.349423828125,0)" xlink:href="#az"/><use transform="matrix(0.008173828125000001,0,0,0.008173828125000001,40.599404296875,0)" xlink:href="#aC"/><path d="M-.84 3.42h51.67v1.14H-.84z"/></g><path d="M180 0v-1490h908v168H370v486h669v168H370v500h727V0H180" id="aD"/><path d="M538 24C308 24 148-78 108-271l171-41c32 123 123 178 257 178 156 0 256-77 256-169 0-77-54-128-164-154l-186-44c-203-48-300-148-300-305 0-192 176-326 414-326 230 0 351 112 402 269l-163 42c-31-80-94-158-238-158-133 0-233 69-233 162 0 83 57 129 188 160l169 40c203 48 298 149 298 302 0 196-179 339-441 339" id="aE"/><path d="M598-1118v154H368v674c0 100 37 144 132 144 23 0 62-6 92-12L629-6c-37 13-88 20-134 20-193 0-307-107-307-290v-688H20v-154h168v-266h180v266h230" id="aF"/><path d="M1096 418H916v-591h-14C865-111 790 24 577 24c-279 0-473-224-473-580 0-354 195-576 474-576 218 0 287 134 324 193h20v-179h174V418zM604-137c203 0 314-172 314-421 0-247-108-413-314-413-212 0-317 181-317 413 0 235 108 421 317 421" id="aG"/><path d="M537 14c-226 0-379-139-379-422v-710h180v695c0 172 97 275 253 275 160 0 281-109 281-300v-670h181V0H879v-209C806-46 684 14 537 14" id="aH"/><g id="i"><use transform="matrix(0.008173828125000001,0,0,0.008173828125000001,0,0)" xlink:href="#aD"/><use transform="matrix(0.008173828125000001,0,0,0.008173828125000001,10.061982421875001,0)" xlink:href="#aE"/><use transform="matrix(0.008173828125000001,0,0,0.008173828125000001,18.897890625000002,0)" xlink:href="#aF"/><use transform="matrix(0.008173828125000001,0,0,0.008173828125000001,24.210878906250002,0)" xlink:href="#aA"/><use transform="matrix(0.008173828125000001,0,0,0.008173828125000001,34.24833984375,0)" xlink:href="#aG"/><use transform="matrix(0.008173828125000001,0,0,0.008173828125000001,44.498320312500006,0)" xlink:href="#aH"/><use transform="matrix(0.008173828125000001,0,0,0.008173828125000001,54.396826171875006,0)" xlink:href="#ax"/><path d="M-.84 3.42H65v1.14H-.85z"/></g><path d="M180 0v-1490h528c311 0 458 177 458 395 0 191-114 278-244 313v14c139 9 302 137 302 371 0 225-148 397-499 397H180zm190-168h350c232 0 321-102 321-231 0-149-120-277-311-277H370v508zm0-668h328c160 0 286-101 286-255 0-129-87-231-280-231H370v486" id="aI"/><path d="M613 24c-304 0-509-231-509-576 0-350 205-580 509-580 216 0 392 114 453 309l-173 49c-33-115-133-197-280-197-223 0-326 196-326 419 0 220 103 415 326 415 150 0 252-85 285-206l172 49C1010-95 832 24 613 24" id="aJ"/><g id="j"><use transform="matrix(0.008173828125000001,0,0,0.008173828125000001,0,0)" xlink:href="#aI"/><use transform="matrix(0.008173828125000001,0,0,0.008173828125000001,10.952929687500001,0)" xlink:href="#aC"/><use transform="matrix(0.008173828125000001,0,0,0.008173828125000001,20.352832031250003,0)" xlink:href="#ay"/><use transform="matrix(0.008173828125000001,0,0,0.008173828125000001,30.243164062500004,0)" xlink:href="#aJ"/><use transform="matrix(0.008173828125000001,0,0,0.008173828125000001,39.806542968750016,0)" xlink:href="#aA"/><path d="M-.84 3.42H55.4v1.14H-.85z"/></g><g id="k"><use transform="matrix(0.008173828125000001,0,0,0.008173828125000001,0,0)" xlink:href="#az"/><use transform="matrix(0.008173828125000001,0,0,0.008173828125000001,10.249980468750001,0)" xlink:href="#ax"/><path d="M-.84 3.42h26.4v1.14H-.85z"/></g><g id="l"><use transform="matrix(0.008173828125000001,0,0,0.008173828125000001,0,0)" xlink:href="#az"/><use transform="matrix(0.008173828125000001,0,0,0.008173828125000001,10.249980468750001,0)" xlink:href="#aC"/><use transform="matrix(0.008173828125000001,0,0,0.008173828125000001,19.649882812500003,0)" xlink:href="#az"/><use transform="matrix(0.008173828125000001,0,0,0.008173828125000001,29.899863281250006,0)" xlink:href="#aA"/><use transform="matrix(0.008173828125000001,0,0,0.008173828125000001,39.93732421875001,0)" xlink:href="#aE"/><path d="M-.84 3.42H49.6v1.14H-.83z"/></g><g id="m"><use transform="matrix(0.0087890625,0,0,0.0087890625,0,0)" xlink:href="#ar"/><use transform="matrix(0.0087890625,0,0,0.0087890625,4.359375,0)" xlink:href="#ae"/><use transform="matrix(0.0087890625,0,0,0.0087890625,14.994140625,0)" xlink:href="#ar"/><use transform="matrix(0.0087890625,0,0,0.0087890625,19.353515625,0)" xlink:href="#as"/><use transform="matrix(0.0087890625,0,0,0.0087890625,29.63671875,0)" xlink:href="#ar"/><use transform="matrix(0.0087890625,0,0,0.0087890625,33.99609375,0)" xlink:href="#ah"/></g><g id="n"><use transform="matrix(0.0087890625,0,0,0.0087890625,0,0)" xlink:href="#al"/><use transform="matrix(0.0087890625,0,0,0.0087890625,9.7646484375,0)" xlink:href="#ad"/><use transform="matrix(0.0087890625,0,0,0.0087890625,20.2587890625,0)" xlink:href="#ae"/><use transform="matrix(0.0087890625,0,0,0.0087890625,30.8935546875,0)" xlink:href="#ao"/><use transform="matrix(0.0087890625,0,0,0.0087890625,41.9150390625,0)" xlink:href="#ah"/></g><g id="o"><use transform="matrix(0.0087890625,0,0,0.0087890625,0,0)" xlink:href="#ap"/><use transform="matrix(0.0087890625,0,0,0.0087890625,9.5009765625,0)" xlink:href="#aj"/><use transform="matrix(0.0087890625,0,0,0.0087890625,20.2939453125,0)" xlink:href="#aq"/><use transform="matrix(0.0087890625,0,0,0.0087890625,24.6533203125,0)" xlink:href="#ar"/><use transform="matrix(0.0087890625,0,0,0.0087890625,29.0126953125,0)" xlink:href="#as"/><use transform="matrix(0.0087890625,0,0,0.0087890625,39.2958984375,0)" xlink:href="#ar"/><use transform="matrix(0.0087890625,0,0,0.0087890625,43.6552734375,0)" xlink:href="#ai"/><use transform="matrix(0.0087890625,0,0,0.0087890625,49.6318359375,0)" xlink:href="#ah"/></g><g id="p"><use transform="matrix(0.0087890625,0,0,0.0087890625,0,0)" xlink:href="#an"/><use transform="matrix(0.0087890625,0,0,0.0087890625,11.021484375,0)" xlink:href="#am"/><use transform="matrix(0.0087890625,0,0,0.0087890625,17.4990234375,0)" xlink:href="#aj"/><use transform="matrix(0.0087890625,0,0,0.0087890625,28.2919921875,0)" xlink:href="#ao"/><use transform="matrix(0.0087890625,0,0,0.0087890625,39.3134765625,0)" xlink:href="#ag"/><use transform="matrix(0.0087890625,0,0,0.0087890625,49.95703125,0)" xlink:href="#ai"/><use transform="matrix(0.0087890625,0,0,0.0087890625,55.669921875,0)" xlink:href="#aj"/></g><path fill="#333" d="M678-1118v154H420V0H240v-964H20v-154h220v-149c0-194 155-293 318-293 85 0 141 18 168 30l-50 154c-19-6-47-17-97-17-111 0-159 58-159 166v109h258" id="aK"/><g id="q"><use transform="matrix(0.0087890625,0,0,0.0087890625,0,0)" xlink:href="#al"/><use transform="matrix(0.0087890625,0,0,0.0087890625,9.7646484375,0)" xlink:href="#ad"/><use transform="matrix(0.0087890625,0,0,0.0087890625,20.2587890625,0)" xlink:href="#am"/><use transform="matrix(0.0087890625,0,0,0.0087890625,27.31640625,0)" xlink:href="#ar"/><use transform="matrix(0.0087890625,0,0,0.0087890625,31.67578125,0)" xlink:href="#aK"/><use transform="matrix(0.0087890625,0,0,0.0087890625,38.337890625,0)" xlink:href="#ar"/><use transform="matrix(0.0087890625,0,0,0.0087890625,42.697265625,0)" xlink:href="#as"/><use transform="matrix(0.0087890625,0,0,0.0087890625,53.15625,0)" xlink:href="#ah"/></g><g id="r"><use transform="matrix(0.0087890625,0,0,0.0087890625,0,0)" xlink:href="#an"/><use transform="matrix(0.0087890625,0,0,0.0087890625,11.021484375,0)" xlink:href="#am"/><use transform="matrix(0.0087890625,0,0,0.0087890625,17.4990234375,0)" xlink:href="#aj"/><use transform="matrix(0.0087890625,0,0,0.0087890625,28.2919921875,0)" xlink:href="#ao"/><use transform="matrix(0.0087890625,0,0,0.0087890625,39.3134765625,0)" xlink:href="#ag"/><use transform="matrix(0.0087890625,0,0,0.0087890625,49.95703125,0)" xlink:href="#ai"/><use transform="matrix(0.0087890625,0,0,0.0087890625,55.669921875,0)" xlink:href="#aj"/></g><g id="s"><use transform="matrix(0.0087890625,0,0,0.0087890625,0,0)" xlink:href="#an"/><use transform="matrix(0.0087890625,0,0,0.0087890625,11.021484375,0)" xlink:href="#am"/><use transform="matrix(0.0087890625,0,0,0.0087890625,17.4990234375,0)" xlink:href="#aj"/><use transform="matrix(0.0087890625,0,0,0.0087890625,28.2919921875,0)" xlink:href="#ao"/><use transform="matrix(0.0087890625,0,0,0.0087890625,39.3134765625,0)" xlink:href="#ag"/><use transform="matrix(0.0087890625,0,0,0.0087890625,49.95703125,0)" xlink:href="#ai"/><use transform="matrix(0.0087890625,0,0,0.0087890625,55.669921875,0)" xlink:href="#aj"/></g><g id="t"><use transform="matrix(0.0087890625,0,0,0.0087890625,0,0)" xlink:href="#ad"/><use transform="matrix(0.0087890625,0,0,0.0087890625,10.494140625,0)" xlink:href="#ae"/><use transform="matrix(0.0087890625,0,0,0.0087890625,21.12890625,0)" xlink:href="#as"/><use transform="matrix(0.0087890625,0,0,0.0087890625,31.412109375,0)" xlink:href="#aj"/><use transform="matrix(0.0087890625,0,0,0.0087890625,42.205078125,0)" xlink:href="#ae"/><use transform="matrix(0.0087890625,0,0,0.0087890625,52.83984375,0)" xlink:href="#ai"/><use transform="matrix(0.0087890625,0,0,0.0087890625,58.728515625,0)" xlink:href="#am"/><use transform="matrix(0.0087890625,0,0,0.0087890625,65.5048828125,0)" xlink:href="#ah"/><use transform="matrix(0.0087890625,0,0,0.0087890625,75.6123046875,0)" xlink:href="#ao"/><use transform="matrix(0.0087890625,0,0,0.0087890625,86.6337890625,0)" xlink:href="#aj"/></g><g id="u"><use transform="matrix(0.0087890625,0,0,0.0087890625,0,0)" xlink:href="#ac"/><use transform="matrix(0.0087890625,0,0,0.0087890625,6.5654296875,0)" xlink:href="#ap"/><use transform="matrix(0.0087890625,0,0,0.0087890625,16.06640625,0)" xlink:href="#ag"/><use transform="matrix(0.0087890625,0,0,0.0087890625,26.7099609375,0)" xlink:href="#as"/><use transform="matrix(0.0087890625,0,0,0.0087890625,36.9931640625,0)" xlink:href="#ad"/><use transform="matrix(0.0087890625,0,0,0.0087890625,47.4873046875,0)" xlink:href="#ap"/><use transform="matrix(0.0087890625,0,0,0.0087890625,56.98828125,0)" xlink:href="#ap"/><use transform="matrix(0.0087890625,0,0,0.0087890625,66.4892578125,0)" xlink:href="#aj"/><use transform="matrix(0.0087890625,0,0,0.0087890625,77.080078125,0)" xlink:href="#av"/></g><g id="v"><use transform="matrix(0.0087890625,0,0,0.0087890625,0,0)" xlink:href="#ac"/><use transform="matrix(0.0087890625,0,0,0.0087890625,6.5654296875,0)" xlink:href="#aK"/><use transform="matrix(0.0087890625,0,0,0.0087890625,12.9462890625,0)" xlink:href="#ah"/><use transform="matrix(0.0087890625,0,0,0.0087890625,23.0537109375,0)" xlink:href="#aq"/><use transform="matrix(0.0087890625,0,0,0.0087890625,27.4130859375,0)" xlink:href="#ak"/><use transform="matrix(0.0087890625,0,0,0.0087890625,38.056640625,0)" xlink:href="#ah"/><use transform="matrix(0.0087890625,0,0,0.0087890625,48.1640625,0)" xlink:href="#av"/></g><g id="w"><use transform="matrix(0.0087890625,0,0,0.0087890625,0,0)" xlink:href="#am"/><use transform="matrix(0.0087890625,0,0,0.0087890625,6.4775390625,0)" xlink:href="#ad"/><use transform="matrix(0.0087890625,0,0,0.0087890625,16.9716796875,0)" xlink:href="#ai"/><use transform="matrix(0.0087890625,0,0,0.0087890625,22.6845703125,0)" xlink:href="#aj"/><use transform="matrix(0.0087890625,0,0,0.0087890625,33.4775390625,0)" xlink:href="#am"/><use transform="matrix(0.0087890625,0,0,0.0087890625,40.53515625,0)" xlink:href="#ae"/><use transform="matrix(0.0087890625,0,0,0.0087890625,51.169921875,0)" xlink:href="#ah"/></g><path fill="#333" d="M677 24c-213 0-288-135-325-197h-20V0H158v-1490h180v551h14c37-59 106-193 324-193 279 0 474 222 474 576 0 356-194 580-473 580zm-27-161c209 0 317-186 317-421 0-232-105-413-317-413-206 0-314 166-314 413 0 249 111 421 314 421" id="aL"/><g id="x"><use transform="matrix(0.0087890625,0,0,0.0087890625,0,0)" xlink:href="#aL"/><use transform="matrix(0.0087890625,0,0,0.0087890625,11.021484375,0)" xlink:href="#ag"/><use transform="matrix(0.0087890625,0,0,0.0087890625,21.6650390625,0)" xlink:href="#ap"/><use transform="matrix(0.0087890625,0,0,0.0087890625,31.166015625,0)" xlink:href="#as"/><use transform="matrix(0.0087890625,0,0,0.0087890625,41.625,0)" xlink:href="#ah"/></g><g id="y"><use transform="matrix(0.0087890625,0,0,0.0087890625,0,0)" xlink:href="#an"/><use transform="matrix(0.0087890625,0,0,0.0087890625,11.021484375,0)" xlink:href="#aj"/><use transform="matrix(0.0087890625,0,0,0.0087890625,21.814453125,0)" xlink:href="#am"/></g><g id="z"><use transform="matrix(0.0087890625,0,0,0.0087890625,0,0)" xlink:href="#am"/><use transform="matrix(0.0087890625,0,0,0.0087890625,6.4775390625,0)" xlink:href="#ad"/><use transform="matrix(0.0087890625,0,0,0.0087890625,16.9716796875,0)" xlink:href="#ai"/><use transform="matrix(0.0087890625,0,0,0.0087890625,22.6845703125,0)" xlink:href="#aj"/><use transform="matrix(0.0087890625,0,0,0.0087890625,33.4775390625,0)" xlink:href="#am"/><use transform="matrix(0.0087890625,0,0,0.0087890625,40.53515625,0)" xlink:href="#ae"/><use transform="matrix(0.0087890625,0,0,0.0087890625,51.169921875,0)" xlink:href="#ah"/></g><g id="A"><use transform="matrix(0.0087890625,0,0,0.0087890625,0,0)" xlink:href="#an"/><use transform="matrix(0.0087890625,0,0,0.0087890625,11.021484375,0)" xlink:href="#am"/><use transform="matrix(0.0087890625,0,0,0.0087890625,17.4990234375,0)" xlink:href="#aj"/><use transform="matrix(0.0087890625,0,0,0.0087890625,28.2919921875,0)" xlink:href="#ao"/><use transform="matrix(0.0087890625,0,0,0.0087890625,39.3134765625,0)" xlink:href="#ag"/><use transform="matrix(0.0087890625,0,0,0.0087890625,49.95703125,0)" xlink:href="#ai"/><use transform="matrix(0.0087890625,0,0,0.0087890625,55.669921875,0)" xlink:href="#aj"/></g><g id="B"><use transform="matrix(0.0087890625,0,0,0.0087890625,0,0)" xlink:href="#ae"/><use transform="matrix(0.0087890625,0,0,0.0087890625,10.634765625,0)" xlink:href="#au"/><use transform="matrix(0.0087890625,0,0,0.0087890625,20.7421875,0)" xlink:href="#aj"/></g><g id="C"><use transform="matrix(0.0087890625,0,0,0.0087890625,0,0)" xlink:href="#ad"/><use transform="matrix(0.0087890625,0,0,0.0087890625,10.494140625,0)" xlink:href="#ae"/><use transform="matrix(0.0087890625,0,0,0.0087890625,21.12890625,0)" xlink:href="#as"/><use transform="matrix(0.0087890625,0,0,0.0087890625,31.412109375,0)" xlink:href="#aj"/><use transform="matrix(0.0087890625,0,0,0.0087890625,42.205078125,0)" xlink:href="#ae"/><use transform="matrix(0.0087890625,0,0,0.0087890625,52.83984375,0)" xlink:href="#ai"/><use transform="matrix(0.0087890625,0,0,0.0087890625,58.728515625,0)" xlink:href="#am"/><use transform="matrix(0.0087890625,0,0,0.0087890625,65.5048828125,0)" xlink:href="#ah"/><use transform="matrix(0.0087890625,0,0,0.0087890625,75.6123046875,0)" xlink:href="#ao"/><use transform="matrix(0.0087890625,0,0,0.0087890625,86.6337890625,0)" xlink:href="#aj"/></g><g id="D"><use transform="matrix(0.0087890625,0,0,0.0087890625,0,0)" xlink:href="#ad"/><use transform="matrix(0.0087890625,0,0,0.0087890625,10.494140625,0)" xlink:href="#am"/><use transform="matrix(0.0087890625,0,0,0.0087890625,17.5517578125,0)" xlink:href="#am"/><use transform="matrix(0.0087890625,0,0,0.0087890625,24.029296875,0)" xlink:href="#aj"/></g><g id="E"><use transform="matrix(0.0087890625,0,0,0.0087890625,0,0)" xlink:href="#ap"/><use transform="matrix(0.0087890625,0,0,0.0087890625,9.5009765625,0)" xlink:href="#aj"/><use transform="matrix(0.0087890625,0,0,0.0087890625,20.2939453125,0)" xlink:href="#aq"/><use transform="matrix(0.0087890625,0,0,0.0087890625,24.6533203125,0)" xlink:href="#ar"/><use transform="matrix(0.0087890625,0,0,0.0087890625,29.0126953125,0)" xlink:href="#as"/><use transform="matrix(0.0087890625,0,0,0.0087890625,39.2958984375,0)" xlink:href="#ar"/><use transform="matrix(0.0087890625,0,0,0.0087890625,43.6552734375,0)" xlink:href="#ai"/><use transform="matrix(0.0087890625,0,0,0.0087890625,49.6318359375,0)" xlink:href="#ah"/></g><g id="F"><use transform="matrix(0.0087890625,0,0,0.0087890625,0,0)" xlink:href="#af"/><use transform="matrix(0.0087890625,0,0,0.0087890625,11.021484375,0)" xlink:href="#ag"/><use transform="matrix(0.0087890625,0,0,0.0087890625,21.6650390625,0)" xlink:href="#ah"/><use transform="matrix(0.0087890625,0,0,0.0087890625,31.7724609375,0)" xlink:href="#ae"/><use transform="matrix(0.0087890625,0,0,0.0087890625,42.4072265625,0)" xlink:href="#ai"/><use transform="matrix(0.0087890625,0,0,0.0087890625,48.2958984375,0)" xlink:href="#ar"/><use transform="matrix(0.0087890625,0,0,0.0087890625,52.6552734375,0)" xlink:href="#ao"/><use transform="matrix(0.0087890625,0,0,0.0087890625,63.6767578125,0)" xlink:href="#ah"/><use transform="matrix(0.0087890625,0,0,0.0087890625,73.7841796875,0)" xlink:href="#ao"/><use transform="matrix(0.0087890625,0,0,0.0087890625,84.8056640625,0)" xlink:href="#ad"/></g><g id="G"><use transform="matrix(0.0087890625,0,0,0.0087890625,0,0)" xlink:href="#ao"/><use transform="matrix(0.0087890625,0,0,0.0087890625,11.021484375,0)" xlink:href="#aj"/></g><path fill="#333" d="M158 0v-1118h180V0H158zm12-1264l140-294h201l-194 294H170" id="aM"/><g id="H"><use transform="matrix(0.0087890625,0,0,0.0087890625,0,0)" xlink:href="#ao"/><use transform="matrix(0.0087890625,0,0,0.0087890625,11.021484375,0)" xlink:href="#ar"/><use transform="matrix(0.0087890625,0,0,0.0087890625,15.380859375,0)" xlink:href="#ap"/><use transform="matrix(0.0087890625,0,0,0.0087890625,24.8818359375,0)" xlink:href="#an"/><use transform="matrix(0.0087890625,0,0,0.0087890625,35.9033203125,0)" xlink:href="#aj"/><use transform="matrix(0.0087890625,0,0,0.0087890625,46.6962890625,0)" xlink:href="#ae"/><use transform="matrix(0.0087890625,0,0,0.0087890625,57.3310546875,0)" xlink:href="#aM"/><use transform="matrix(0.0087890625,0,0,0.0087890625,61.6904296875,0)" xlink:href="#al"/><use transform="matrix(0.0087890625,0,0,0.0087890625,71.455078125,0)" xlink:href="#ad"/><use transform="matrix(0.0087890625,0,0,0.0087890625,81.94921875,0)" xlink:href="#aq"/></g><g id="I"><use transform="matrix(0.0087890625,0,0,0.0087890625,0,0)" xlink:href="#af"/><use transform="matrix(0.0087890625,0,0,0.0087890625,11.021484375,0)" xlink:href="#ag"/><use transform="matrix(0.0087890625,0,0,0.0087890625,21.6650390625,0)" xlink:href="#ah"/><use transform="matrix(0.0087890625,0,0,0.0087890625,31.7724609375,0)" xlink:href="#ae"/><use transform="matrix(0.0087890625,0,0,0.0087890625,42.4072265625,0)" xlink:href="#ai"/><use transform="matrix(0.0087890625,0,0,0.0087890625,48.2958984375,0)" xlink:href="#ar"/><use transform="matrix(0.0087890625,0,0,0.0087890625,52.6552734375,0)" xlink:href="#ao"/><use transform="matrix(0.0087890625,0,0,0.0087890625,63.6767578125,0)" xlink:href="#ah"/><use transform="matrix(0.0087890625,0,0,0.0087890625,73.7841796875,0)" xlink:href="#ao"/><use transform="matrix(0.0087890625,0,0,0.0087890625,84.8056640625,0)" xlink:href="#ad"/></g><g id="J"><use transform="matrix(0.0087890625,0,0,0.0087890625,0,0)" xlink:href="#af"/><use transform="matrix(0.0087890625,0,0,0.0087890625,11.021484375,0)" xlink:href="#ag"/><use transform="matrix(0.0087890625,0,0,0.0087890625,21.6650390625,0)" xlink:href="#ah"/><use transform="matrix(0.0087890625,0,0,0.0087890625,31.7724609375,0)" xlink:href="#ae"/><use transform="matrix(0.0087890625,0,0,0.0087890625,42.4072265625,0)" xlink:href="#ai"/><use transform="matrix(0.0087890625,0,0,0.0087890625,48.2958984375,0)" xlink:href="#ar"/><use transform="matrix(0.0087890625,0,0,0.0087890625,52.6552734375,0)" xlink:href="#ao"/><use transform="matrix(0.0087890625,0,0,0.0087890625,63.6767578125,0)" xlink:href="#ah"/><use transform="matrix(0.0087890625,0,0,0.0087890625,73.7841796875,0)" xlink:href="#ao"/><use transform="matrix(0.0087890625,0,0,0.0087890625,84.8056640625,0)" xlink:href="#ad"/></g><g id="K"><use transform="matrix(0.0087890625,0,0,0.0087890625,0,0)" xlink:href="#ad"/><use transform="matrix(0.0087890625,0,0,0.0087890625,10.494140625,0)" xlink:href="#am"/><use transform="matrix(0.0087890625,0,0,0.0087890625,17.5517578125,0)" xlink:href="#am"/><use transform="matrix(0.0087890625,0,0,0.0087890625,24.029296875,0)" xlink:href="#aj"/></g><g id="L"><use transform="matrix(0.0087890625,0,0,0.0087890625,0,0)" xlink:href="#ar"/><use transform="matrix(0.0087890625,0,0,0.0087890625,4.359375,0)" xlink:href="#ae"/><use transform="matrix(0.0087890625,0,0,0.0087890625,14.994140625,0)" xlink:href="#ao"/><use transform="matrix(0.0087890625,0,0,0.0087890625,26.015625,0)" xlink:href="#ar"/><use transform="matrix(0.0087890625,0,0,0.0087890625,30.375,0)" xlink:href="#ap"/><use transform="matrix(0.0087890625,0,0,0.0087890625,39.8759765625,0)" xlink:href="#an"/><use transform="matrix(0.0087890625,0,0,0.0087890625,50.8974609375,0)" xlink:href="#aj"/><use transform="matrix(0.0087890625,0,0,0.0087890625,61.6904296875,0)" xlink:href="#ae"/><use transform="matrix(0.0087890625,0,0,0.0087890625,72.3251953125,0)" xlink:href="#aM"/><use transform="matrix(0.0087890625,0,0,0.0087890625,76.6845703125,0)" xlink:href="#al"/><use transform="matrix(0.0087890625,0,0,0.0087890625,86.44921875,0)" xlink:href="#ad"/><use transform="matrix(0.0087890625,0,0,0.0087890625,96.943359375,0)" xlink:href="#aq"/></g><path fill="#333" d="M611 442c-248 0-391-105-460-228l146-94c47 65 117 165 314 165 178 0 307-82 307-266v-224h-17C863-141 792-18 576-18c-268 0-472-195-472-546 0-346 197-568 476-568 216 0 288 133 326 193h17v-179h175V29c0 289-215 413-487 413zm-5-620c203 0 314-146 314-390 0-237-108-403-314-403-213 0-319 180-319 403 0 230 109 390 319 390" id="aN"/><g id="M"><use transform="matrix(0.0087890625,0,0,0.0087890625,0,0)" xlink:href="#am"/><use transform="matrix(0.0087890625,0,0,0.0087890625,6.4775390625,0)" xlink:href="#ad"/><use transform="matrix(0.0087890625,0,0,0.0087890625,16.9716796875,0)" xlink:href="#aN"/><use transform="matrix(0.0087890625,0,0,0.0087890625,28.0107421875,0)" xlink:href="#ar"/><use transform="matrix(0.0087890625,0,0,0.0087890625,32.3701171875,0)" xlink:href="#ap"/><use transform="matrix(0.0087890625,0,0,0.0087890625,41.87109375,0)" xlink:href="#ai"/><use transform="matrix(0.0087890625,0,0,0.0087890625,47.759765625,0)" xlink:href="#am"/><use transform="matrix(0.0087890625,0,0,0.0087890625,54.5361328125,0)" xlink:href="#ah"/></g><g id="N"><use transform="matrix(0.0087890625,0,0,0.0087890625,0,0)" xlink:href="#al"/><use transform="matrix(0.0087890625,0,0,0.0087890625,9.7646484375,0)" xlink:href="#ad"/><use transform="matrix(0.0087890625,0,0,0.0087890625,20.2587890625,0)" xlink:href="#ae"/><use transform="matrix(0.0087890625,0,0,0.0087890625,30.8935546875,0)" xlink:href="#ao"/><use transform="matrix(0.0087890625,0,0,0.0087890625,41.9150390625,0)" xlink:href="#ah"/></g><g id="O"><use transform="matrix(0.0087890625,0,0,0.0087890625,0,0)" xlink:href="#ar"/><use transform="matrix(0.0087890625,0,0,0.0087890625,4.359375,0)" xlink:href="#ai"/><use transform="matrix(0.0087890625,0,0,0.0087890625,10.072265625,0)" xlink:href="#ad"/><use transform="matrix(0.0087890625,0,0,0.0087890625,20.56640625,0)" xlink:href="#ae"/><use transform="matrix(0.0087890625,0,0,0.0087890625,31.201171875,0)" xlink:href="#ap"/></g><g id="P"><use transform="matrix(0.0087890625,0,0,0.0087890625,0,0)" xlink:href="#ao"/><use transform="matrix(0.0087890625,0,0,0.0087890625,11.021484375,0)" xlink:href="#ad"/></g><path fill="#333" d="M126 0v-134l627-806v-11H146v-167h839v143L376-178v11h629V0H126" id="aO"/><g id="Q"><use transform="matrix(0.0087890625,0,0,0.0087890625,0,0)" xlink:href="#ah"/><use transform="matrix(0.0087890625,0,0,0.0087890625,10.107421875,0)" xlink:href="#ai"/><use transform="matrix(0.0087890625,0,0,0.0087890625,15.99609375,0)" xlink:href="#ag"/><use transform="matrix(0.0087890625,0,0,0.0087890625,26.6396484375,0)" xlink:href="#ah"/><use transform="matrix(0.0087890625,0,0,0.0087890625,36.7470703125,0)" xlink:href="#aq"/><use transform="matrix(0.0087890625,0,0,0.0087890625,41.1064453125,0)" xlink:href="#ar"/><use transform="matrix(0.0087890625,0,0,0.0087890625,45.4658203125,0)" xlink:href="#aO"/><use transform="matrix(0.0087890625,0,0,0.0087890625,55.40625,0)" xlink:href="#ah"/><use transform="matrix(0.0087890625,0,0,0.0087890625,65.513671875,0)" xlink:href="#at"/><use transform="matrix(0.0087890625,0,0,0.0087890625,75.97265625,0)" xlink:href="#au"/><use transform="matrix(0.0087890625,0,0,0.0087890625,86.080078125,0)" xlink:href="#aj"/></g><g id="R"><use transform="matrix(0.0087890625,0,0,0.0087890625,0,0)" xlink:href="#ah"/><use transform="matrix(0.0087890625,0,0,0.0087890625,10.107421875,0)" xlink:href="#ai"/><use transform="matrix(0.0087890625,0,0,0.0087890625,15.99609375,0)" xlink:href="#ag"/><use transform="matrix(0.0087890625,0,0,0.0087890625,26.6396484375,0)" xlink:href="#ah"/><use transform="matrix(0.0087890625,0,0,0.0087890625,36.7470703125,0)" xlink:href="#aq"/><use transform="matrix(0.0087890625,0,0,0.0087890625,41.1064453125,0)" xlink:href="#ar"/><use transform="matrix(0.0087890625,0,0,0.0087890625,45.4658203125,0)" xlink:href="#aO"/><use transform="matrix(0.0087890625,0,0,0.0087890625,55.40625,0)" xlink:href="#ah"/></g><path fill="#333" d="M158 0v-1118h175l1 205c55-151 181-225 313-225 147 0 245 90 285 228 53-141 190-228 352-228 194 0 352 125 352 384V0h-181v-749c0-161-105-225-225-225-151 0-243 103-243 244V0H807v-767c0-124-93-207-219-207-131 0-250 92-250 270V0H158" id="aP"/><g id="S"><use transform="matrix(0.0087890625,0,0,0.0087890625,0,0)" xlink:href="#as"/><use transform="matrix(0.0087890625,0,0,0.0087890625,10.283203125,0)" xlink:href="#aj"/><use transform="matrix(0.0087890625,0,0,0.0087890625,21.076171875,0)" xlink:href="#ae"/><use transform="matrix(0.0087890625,0,0,0.0087890625,31.7109375,0)" xlink:href="#aK"/><use transform="matrix(0.0087890625,0,0,0.0087890625,38.373046875,0)" xlink:href="#ar"/><use transform="matrix(0.0087890625,0,0,0.0087890625,42.732421875,0)" xlink:href="#am"/><use transform="matrix(0.0087890625,0,0,0.0087890625,49.7900390625,0)" xlink:href="#aP"/><use transform="matrix(0.0087890625,0,0,0.0087890625,65.5576171875,0)" xlink:href="#ah"/></g><g id="T"><use transform="matrix(0.0087890625,0,0,0.0087890625,0,0)" xlink:href="#al"/><use transform="matrix(0.0087890625,0,0,0.0087890625,9.7646484375,0)" xlink:href="#ad"/><use transform="matrix(0.0087890625,0,0,0.0087890625,20.2587890625,0)" xlink:href="#ae"/><use transform="matrix(0.0087890625,0,0,0.0087890625,30.8935546875,0)" xlink:href="#ao"/><use transform="matrix(0.0087890625,0,0,0.0087890625,41.9150390625,0)" xlink:href="#ah"/></g><g id="U"><use transform="matrix(0.0087890625,0,0,0.0087890625,0,0)" xlink:href="#am"/><use transform="matrix(0.0087890625,0,0,0.0087890625,6.4775390625,0)" xlink:href="#ad"/><use transform="matrix(0.0087890625,0,0,0.0087890625,17.1474609375,0)" xlink:href="#ah"/><use transform="matrix(0.0087890625,0,0,0.0087890625,27.2548828125,0)" xlink:href="#aq"/><use transform="matrix(0.0087890625,0,0,0.0087890625,31.6142578125,0)" xlink:href="#ar"/><use transform="matrix(0.0087890625,0,0,0.0087890625,35.9736328125,0)" xlink:href="#aO"/><use transform="matrix(0.0087890625,0,0,0.0087890625,45.9140625,0)" xlink:href="#ah"/><use transform="matrix(0.0087890625,0,0,0.0087890625,56.021484375,0)" xlink:href="#ao"/><use transform="matrix(0.0087890625,0,0,0.0087890625,67.04296875,0)" xlink:href="#ah"/></g><g id="V"><use transform="matrix(0.0087890625,0,0,0.0087890625,0,0)" xlink:href="#as"/><use transform="matrix(0.0087890625,0,0,0.0087890625,10.283203125,0)" xlink:href="#aj"/><use transform="matrix(0.0087890625,0,0,0.0087890625,21.076171875,0)" xlink:href="#aP"/></g><g id="W"><use transform="matrix(0.0087890625,0,0,0.0087890625,0,0)" xlink:href="#ap"/><use transform="matrix(0.0087890625,0,0,0.0087890625,9.5009765625,0)" xlink:href="#ag"/><use transform="matrix(0.0087890625,0,0,0.0087890625,20.14453125,0)" xlink:href="#as"/><use transform="matrix(0.0087890625,0,0,0.0087890625,30.427734375,0)" xlink:href="#ad"/><use transform="matrix(0.0087890625,0,0,0.0087890625,40.921875,0)" xlink:href="#ap"/><use transform="matrix(0.0087890625,0,0,0.0087890625,50.4228515625,0)" xlink:href="#ap"/><use transform="matrix(0.0087890625,0,0,0.0087890625,59.923828125,0)" xlink:href="#aj"/></g><g id="X"><use transform="matrix(0.0087890625,0,0,0.0087890625,0,0)" xlink:href="#ar"/><use transform="matrix(0.0087890625,0,0,0.0087890625,4.359375,0)" xlink:href="#ae"/><use transform="matrix(0.0087890625,0,0,0.0087890625,14.994140625,0)" xlink:href="#ap"/><use transform="matrix(0.0087890625,0,0,0.0087890625,24.4951171875,0)" xlink:href="#ad"/><use transform="matrix(0.0087890625,0,0,0.0087890625,34.9892578125,0)" xlink:href="#am"/><use transform="matrix(0.0087890625,0,0,0.0087890625,41.466796875,0)" xlink:href="#ad"/></g></defs></g></svg>