<svg xmlns="http://www.w3.org/2000/svg" xmlns:xlink="http://www.w3.org/1999/xlink" contentstyletype="text/css" data-diagram-type="DESCRIPTION" height="316px" preserveAspectRatio="none" style="width:2205px;height:316px;background:#FFFFFF;" version="1.1" viewBox="0 0 2205 316" width="2205px" zoomAndPan="magnify"><defs></defs><g><!--entity Usuario--><g id="elem_Usuario"><ellipse cx="135.331" cy="14" fill="#F1F1F1" rx="8" ry="8" style="stroke:#181818;stroke-width:0.5;"></ellipse><path d="M135.331,22 L135.331,49 M122.331,30 L148.331,30 M135.331,49 L122.331,64 M135.331,49 L148.331,64 " fill="none" style="stroke:#181818;stroke-width:0.5;"></path><text fill="#000000" font-family="sans-serif" font-size="14" lengthAdjust="spacing" textLength="87.042" x="91.81" y="78.4951">Ator Usuário</text></g><!--entity Gerente--><g id="elem_Gerente"><ellipse cx="443.3323" cy="14" fill="#F1F1F1" rx="8" ry="8" style="stroke:#181818;stroke-width:0.5;"></ellipse><path d="M443.3323,22 L443.3323,49 M430.3323,30 L456.3323,30 M443.3323,49 L430.3323,64 M443.3323,49 L456.3323,64 " fill="none" style="stroke:#181818;stroke-width:0.5;"></path><text fill="#000000" font-family="sans-serif" font-size="14" lengthAdjust="spacing" textLength="90.6445" x="398.01" y="78.4951">Ator Gerente</text></g><!--entity Estoquista--><g id="elem_Estoquista"><ellipse cx="1418.332" cy="14" fill="#F1F1F1" rx="8" ry="8" style="stroke:#181818;stroke-width:0.5;"></ellipse><path d="M1418.332,22 L1418.332,49 M1405.332,30 L1431.332,30 M1418.332,49 L1405.332,64 M1418.332,49 L1431.332,64 " fill="none" style="stroke:#181818;stroke-width:0.5;"></path><text fill="#000000" font-family="sans-serif" font-size="14" lengthAdjust="spacing" textLength="107.0439" x="1364.81" y="78.4951">Ator Estoquista</text></g><!--entity Vendedor--><g id="elem_Vendedor"><ellipse cx="1985.3347" cy="14" fill="#F1F1F1" rx="8" ry="8" style="stroke:#181818;stroke-width:0.5;"></ellipse><path d="M1985.3347,22 L1985.3347,49 M1972.3347,30 L1998.3347,30 M1985.3347,49 L1972.3347,64 M1985.3347,49 L1998.3347,64 " fill="none" style="stroke:#181818;stroke-width:0.5;"></path><text fill="#000000" font-family="sans-serif" font-size="14" lengthAdjust="spacing" textLength="101.6094" x="1934.53" y="78.4951">Ator Vendedor</text></g><g id="elem_Cadastrar"><ellipse cx="67.3314" cy="166.6305" fill="#F1F1F1" rx="61.3314" ry="14.7805" style="stroke:#181818;stroke-width:0.5;"></ellipse><text fill="#000000" font-family="sans-serif" font-size="14" lengthAdjust="spacing" textLength="68.6943" x="29.9843" y="170.3781">Cadastrar</text></g><g id="elem_Logar"><ellipse cx="203.3289" cy="166.6283" fill="#F1F1F1" rx="39.6189" ry="14.5683" style="stroke:#181818;stroke-width:0.5;"></ellipse><text fill="#000000" font-family="sans-serif" font-size="14" lengthAdjust="spacing" textLength="39.5869" x="181.2615" y="170.1934">Logar</text></g><g id="elem_Cadastrar funcionários"><ellipse cx="375.3288" cy="166.6258" fill="#F1F1F1" rx="97.6788" ry="21.9358" style="stroke:#181818;stroke-width:0.5;"></ellipse><text fill="#000000" font-family="sans-serif" font-size="14" lengthAdjust="spacing" textLength="158.9287" x="295.8645" y="169.4724">Cadastrar funcionários</text></g><g id="elem_Consultar funcionários"><ellipse cx="605.3275" cy="166.6315" fill="#F1F1F1" rx="96.9575" ry="21.7915" style="stroke:#181818;stroke-width:0.5;"></ellipse><text fill="#000000" font-family="sans-serif" font-size="14" lengthAdjust="spacing" textLength="157.3291" x="526.663" y="169.4782">Consultar funcionários</text></g><g id="elem_Atualizar funcionários"><ellipse cx="496.3304" cy="288.8021" fill="#F1F1F1" rx="94.6604" ry="21.3321" style="stroke:#181818;stroke-width:0.5;"></ellipse><text fill="#000000" font-family="sans-serif" font-size="14" lengthAdjust="spacing" textLength="152.2158" x="420.2225" y="291.6488">Atualizar funcionários</text></g><g id="elem_Excluir funcionários"><ellipse cx="714.3293" cy="288.8039" fill="#F1F1F1" rx="88.1193" ry="20.0239" style="stroke:#181818;stroke-width:0.5;"></ellipse><text fill="#000000" font-family="sans-serif" font-size="14" lengthAdjust="spacing" textLength="137.4707" x="645.594" y="291.6505">Excluir funcionários</text></g><g id="elem_Registrar entradas/saídas"><ellipse cx="1091.3331" cy="166.6346" fill="#F1F1F1" rx="107.1731" ry="23.8346" style="stroke:#181818;stroke-width:0.5;"></ellipse><text fill="#000000" font-family="sans-serif" font-size="14" lengthAdjust="spacing" textLength="179.751" x="1001.4576" y="169.4813">Registrar entradas/saídas</text></g><g id="elem_Cadastrar Lotes"><ellipse cx="914.3292" cy="288.8038" fill="#F1F1F1" rx="76.9192" ry="17.7838" style="stroke:#181818;stroke-width:0.5;"></ellipse><text fill="#000000" font-family="sans-serif" font-size="14" lengthAdjust="spacing" textLength="110.9063" x="855.9714" y="292.5268">Cadastrar Lotes</text></g><g id="elem_Atualizar Lotes"><ellipse cx="1100.3344" cy="288.7989" fill="#F1F1F1" rx="74.2944" ry="17.2589" style="stroke:#181818;stroke-width:0.5;"></ellipse><text fill="#000000" font-family="sans-serif" font-size="14" lengthAdjust="spacing" textLength="104.1934" x="1045.2378" y="292.5464">Atualizar Lotes</text></g><g id="elem_Cadastrar Produto"><ellipse cx="1317.3258" cy="166.6252" fill="#F1F1F1" rx="83.8758" ry="19.1752" style="stroke:#181818;stroke-width:0.5;"></ellipse><text fill="#000000" font-family="sans-serif" font-size="14" lengthAdjust="spacing" textLength="127.7227" x="1253.1637" y="169.5749">Cadastrar Produto</text></g><g id="elem_Atualizar Produto"><ellipse cx="1299.3312" cy="288.7962" fill="#F1F1F1" rx="81.0312" ry="18.6062" style="stroke:#181818;stroke-width:0.5;"></ellipse><text fill="#000000" font-family="sans-serif" font-size="14" lengthAdjust="spacing" textLength="121.0098" x="1237.5422" y="292.0621">Atualizar Produto</text></g><g id="elem_Excluir Produto"><ellipse cx="1490.3278" cy="288.7996" fill="#F1F1F1" rx="75.0978" ry="17.4196" style="stroke:#181818;stroke-width:0.5;"></ellipse><text fill="#000000" font-family="sans-serif" font-size="14" lengthAdjust="spacing" textLength="106.2646" x="1434.1955" y="292.5471">Excluir Produto</text></g><g id="elem_Consultar Produto"><ellipse cx="1519.3304" cy="166.6281" fill="#F1F1F1" rx="83.1904" ry="19.0381" style="stroke:#181818;stroke-width:0.5;"></ellipse><text fill="#000000" font-family="sans-serif" font-size="14" lengthAdjust="spacing" textLength="126.123" x="1455.7401" y="169.654">Consultar Produto</text></g><g id="elem_Gerenciar estoque"><ellipse cx="1722.334" cy="166.6308" fill="#F1F1F1" rx="84.604" ry="19.3208" style="stroke:#181818;stroke-width:0.5;"></ellipse><text fill="#000000" font-family="sans-serif" font-size="14" lengthAdjust="spacing" textLength="129.4111" x="1657.5645" y="169.4997">Gerenciar estoque</text></g><g id="elem_Consultar estoque"><ellipse cx="1926.3334" cy="166.6287" fill="#F1F1F1" rx="83.9434" ry="19.1887" style="stroke:#181818;stroke-width:0.5;"></ellipse><text fill="#000000" font-family="sans-serif" font-size="14" lengthAdjust="spacing" textLength="127.8799" x="1862.115" y="169.571">Consultar estoque</text></g><g id="elem_Registrar venda"><ellipse cx="2122.3257" cy="166.6251" fill="#F1F1F1" rx="77.2257" ry="17.8451" style="stroke:#181818;stroke-width:0.5;"></ellipse><text fill="#000000" font-family="sans-serif" font-size="14" lengthAdjust="spacing" textLength="111.6787" x="2063.7121" y="170.314">Registrar venda</text></g><g id="elem_Finalizar venda"><ellipse cx="2122.3269" cy="288.8014" fill="#F1F1F1" rx="75.2069" ry="17.4414" style="stroke:#181818;stroke-width:0.5;"></ellipse><text fill="#000000" font-family="sans-serif" font-size="14" lengthAdjust="spacing" textLength="106.5449" x="2066.0545" y="292.5489">Finalizar venda</text></g><!--link Usuario to Cadastrar--><g id="link_Usuario_Cadastrar"><path d="M114.19,82.26 C100.93,105.85 87.561,129.6402 78.091,146.4802 " fill="none" id="Usuario-to-Cadastrar" style="stroke:#181818;stroke-width:1;"></path><polygon fill="#181818" points="75.15,151.71,83.048,145.826,77.6008,147.3518,76.0749,141.9047,75.15,151.71" style="stroke:#181818;stroke-width:1;"></polygon></g><!--link Usuario to Logar--><g id="link_Usuario_Logar"><path d="M156.47,82.26 C169.81,105.99 183.3032,129.9779 192.7332,146.7779 " fill="none" id="Usuario-to-Logar" style="stroke:#181818;stroke-width:1;"></path><polygon fill="#181818" points="195.67,152.01,194.7528,142.2039,193.2226,147.6499,187.7767,146.1197,195.67,152.01" style="stroke:#181818;stroke-width:1;"></polygon></g><!--link Gerente to Cadastrar funcion?rios--><g id="link_Gerente_Cadastrar funcionários"><path d="M422.19,82.26 C410.65,102.8 399.73,122.2197 390.09,139.3697 " fill="none" id="Gerente-to-Cadastrar funcionários" style="stroke:#181818;stroke-width:1;"></path><polygon fill="#181818" points="387.15,144.6,395.0469,138.7145,389.6,140.2414,388.0731,134.7945,387.15,144.6" style="stroke:#181818;stroke-width:1;"></polygon></g><!--link Gerente to Consultar funcion?rios--><g id="link_Gerente_Consultar funcionários"><path d="M488.89,78.67 C517.71,100.2 549.1936,123.6985 573.5236,141.8785 " fill="none" id="Gerente-to-Consultar funcionários" style="stroke:#181818;stroke-width:1;"></path><polygon fill="#181818" points="578.33,145.47,573.5147,136.8785,574.3247,142.4771,568.7261,143.2871,578.33,145.47" style="stroke:#181818;stroke-width:1;"></polygon></g><!--reverse link Consultar funcion?rios to Atualizar funcion?rios--><g id="link_Consultar funcionários_Atualizar funcionários"><path d="M574.4975,201.6231 C554.4175,223.7631 534.82,245.37 514.82,267.41 " fill="none" id="Consultar funcionários-backto-Atualizar funcionários" style="stroke:#181818;stroke-width:1;"></path><polygon fill="none" points="586.59,188.29,570.0531,197.5922,578.9418,205.6539,586.59,188.29" style="stroke:#181818;stroke-width:1;"></polygon><text fill="#000000" font-family="sans-serif" font-size="13" lengthAdjust="spacing" textLength="61.1851" x="559.33" y="233.5369">«extend»</text></g><!--reverse link Consultar funcion?rios to Excluir funcion?rios--><g id="link_Consultar funcionários_Excluir funcionários"><path d="M636.1626,201.623 C656.7326,224.303 677.39,247.07 697.27,268.99 " fill="none" id="Consultar funcionários-backto-Excluir funcionários" style="stroke:#181818;stroke-width:1;"></path><polygon fill="none" points="624.07,188.29,631.7183,205.6539,640.6069,197.5921,624.07,188.29" style="stroke:#181818;stroke-width:1;"></polygon><text fill="#000000" font-family="sans-serif" font-size="13" lengthAdjust="spacing" textLength="61.1851" x="668.33" y="233.5369">«extend»</text></g><!--link Estoquista to Registrar entradas/sa?das--><g id="link_Estoquista_Registrar entradas/saídas"><path d="M1364.33,64.63 C1303.75,87.04 1211.6575,121.1187 1151.0375,143.5387 " fill="none" id="Estoquista-to-Registrar entradas/saídas" style="stroke:#181818;stroke-width:1;"></path><polygon fill="#181818" points="1145.41,145.62,1155.2387,146.2497,1150.0995,143.8856,1152.4637,138.7464,1145.41,145.62" style="stroke:#181818;stroke-width:1;"></polygon></g><!--reverse link Registrar entradas/sa?das to Cadastrar Lotes--><g id="link_Registrar entradas/saídas_Cadastrar Lotes"><path d="M1043.9785,199.7815 C1009.1485,223.4315 969.53,250.32 938.36,271.48 " fill="none" id="Registrar entradas/saídas-backto-Cadastrar Lotes" style="stroke:#181818;stroke-width:1;"></path><polygon fill="none" points="1058.87,189.67,1040.608,194.8177,1047.349,204.7454,1058.87,189.67" style="stroke:#181818;stroke-width:1;"></polygon><text fill="#000000" font-family="sans-serif" font-size="13" lengthAdjust="spacing" textLength="61.1851" x="1015.33" y="233.5369">«extend»</text></g><!--reverse link Registrar entradas/sa?das to Atualizar Lotes--><g id="link_Registrar entradas/saídas_Atualizar Lotes"><path d="M1094.4087,208.7502 C1096.1687,232.3502 1097.53,250.4 1099.09,271.26 " fill="none" id="Registrar entradas/saídas-backto-Atualizar Lotes" style="stroke:#181818;stroke-width:1;"></path><polygon fill="none" points="1093.07,190.8,1088.4253,209.1964,1100.392,208.3039,1093.07,190.8" style="stroke:#181818;stroke-width:1;"></polygon><text fill="#000000" font-family="sans-serif" font-size="13" lengthAdjust="spacing" textLength="61.1851" x="1098.33" y="233.5369">«extend»</text></g><!--link Estoquista to Cadastrar Produto--><g id="link_Estoquista_Cadastrar Produto"><path d="M1386.93,82.26 C1368.86,103.91 1350.8164,125.5251 1336.4664,142.7051 " fill="none" id="Estoquista-to-Cadastrar Produto" style="stroke:#181818;stroke-width:1;"></path><polygon fill="#181818" points="1332.62,147.31,1341.4595,142.9669,1335.8253,143.4726,1335.3196,137.8384,1332.62,147.31" style="stroke:#181818;stroke-width:1;"></polygon></g><!--reverse link Cadastrar Produto to Atualizar Produto--><g id="link_Cadastrar Produto_Atualizar Produto"><path d="M1311.8952,203.9417 C1308.4852,226.7217 1305.39,247.34 1302.02,269.85 " fill="none" id="Cadastrar Produto-backto-Atualizar Produto" style="stroke:#181818;stroke-width:1;"></path><polygon fill="none" points="1314.56,186.14,1305.9613,203.0534,1317.8291,204.8299,1314.56,186.14" style="stroke:#181818;stroke-width:1;"></polygon><text fill="#000000" font-family="sans-serif" font-size="13" lengthAdjust="spacing" textLength="61.1851" x="1311.33" y="233.5369">«extend»</text></g><!--reverse link Cadastrar Produto to Excluir Produto--><g id="link_Cadastrar Produto_Excluir Produto"><path d="M1357.6443,195.6277 C1391.2943,218.9977 1435.2,249.5 1467.46,271.91 " fill="none" id="Cadastrar Produto-backto-Excluir Produto" style="stroke:#181818;stroke-width:1;"></path><polygon fill="none" points="1342.86,185.36,1354.2217,200.5558,1361.0668,190.6996,1342.86,185.36" style="stroke:#181818;stroke-width:1;"></polygon><text fill="#000000" font-family="sans-serif" font-size="13" lengthAdjust="spacing" textLength="61.1851" x="1415.33" y="233.5369">«extend»</text></g><!--link Estoquista to Consultar Produto--><g id="link_Estoquista_Consultar Produto"><path d="M1449.73,82.26 C1467.92,104.05 1486.1239,125.8649 1500.4639,143.0349 " fill="none" id="Estoquista-to-Consultar Produto" style="stroke:#181818;stroke-width:1;"></path><polygon fill="#181818" points="1504.31,147.64,1501.6109,138.1682,1501.1049,143.8024,1495.4707,143.2964,1504.31,147.64" style="stroke:#181818;stroke-width:1;"></polygon></g><!--link Estoquista to Gerenciar estoque--><g id="link_Estoquista_Gerenciar estoque"><path d="M1472.33,66.14 C1532.22,89.97 1621.915,125.672 1675.905,147.152 " fill="none" id="Estoquista-to-Gerenciar estoque" style="stroke:#181818;stroke-width:1;"></path><polygon fill="#181818" points="1681.48,149.37,1674.5962,142.3263,1676.8342,147.5217,1671.6389,149.7596,1681.48,149.37" style="stroke:#181818;stroke-width:1;"></polygon></g><!--link Vendedor to Consultar estoque--><g id="link_Vendedor_Consultar estoque"><path d="M1966.99,82.26 C1956.43,103.91 1946.2704,124.7373 1937.8904,141.9173 " fill="none" id="Vendedor-to-Consultar estoque" style="stroke:#181818;stroke-width:1;"></path><polygon fill="#181818" points="1935.26,147.31,1942.8007,140.9746,1937.452,142.8161,1935.6105,137.4674,1935.26,147.31" style="stroke:#181818;stroke-width:1;"></polygon></g><!--link Vendedor to Registrar venda--><g id="link_Vendedor_Registrar venda"><path d="M2027.93,82.26 C2053.22,104.6 2079.5423,127.8488 2098.9323,144.9688 " fill="none" id="Vendedor-to-Registrar venda" style="stroke:#181818;stroke-width:1;"></path><polygon fill="#181818" points="2103.43,148.94,2099.3308,139.9847,2099.6819,145.6307,2094.0359,145.9817,2103.43,148.94" style="stroke:#181818;stroke-width:1;"></polygon></g><!--reverse link Registrar venda to Finalizar venda--><g id="link_Registrar venda_Finalizar venda"><path d="M2122.33,202.85 C2122.33,225.82 2122.33,248.24 2122.33,271 " fill="none" id="Registrar venda-backto-Finalizar venda" style="stroke:#181818;stroke-width:1;"></path><polygon fill="none" points="2122.33,184.85,2116.33,202.85,2128.33,202.85,2122.33,184.85" style="stroke:#181818;stroke-width:1;"></polygon><text fill="#000000" font-family="sans-serif" font-size="13" lengthAdjust="spacing" textLength="63.0068" x="2123.33" y="233.5369">«include»</text></g><!--SRC=[XL9BQWGX5Dnx2fdLpAB9FZJ242RPp284alsZDOFG-8YVC8HS9WV8AUPYKTjkeyvdqwslolUgIc6mgEbg6xwlnfr-jCGL1HCsuDS4_X6UX1RAYeYdTO7lZCKF9us5ICdRWlKc51SSTUJC6qBIGDfrZAuVW8En6lIchE_n46eaJQ_8zDsfGQAABiocOg4oRhGjwo92- - -ke-kjTJ3AhnQ-ftqlZjOxOEncbzrn69syteFan2RDB-8W9sVUXmusxmoSVltVoxu2ffavc3rQqIY-tI1RFzUWaPldFMlapc88jwarlHUW2lJIoJdAy-TQLSl5BAfgIdmeWmn9H4Ju9pQ_pBh9mYW9ESnFNuVYVgPAKlyeLVAToa6zLDuI5upz0G00]--></g></svg>