<svg xmlns="http://www.w3.org/2000/svg" xmlns:xlink="http://www.w3.org/1999/xlink" contentstyletype="text/css" data-diagram-type="ACTIVITY" height="1443px" preserveAspectRatio="none" style="width:428px;height:1443px;background:#FFFFFF;" version="1.1" viewBox="0 0 428 1443" width="428px" zoomAndPan="magnify"><defs></defs><g><ellipse cx="181.9253" cy="20" fill="#222222" rx="10" ry="10" style="stroke:#222222;stroke-width:1;"></ellipse><rect fill="#F1F1F1" height="33.9688" rx="12.5" ry="12.5" style="stroke:#181818;stroke-width:0.5;" width="301.6133" x="31.1187" y="50"></rect><text fill="#000000" font-family="sans-serif" font-size="12" lengthAdjust="spacing" textLength="281.6133" x="41.1187" y="71.1387">Login (Gerente Geral, Estoquista ou Vendedor)</text><polygon fill="#F1F1F1" points="123.4717,103.9688,240.3789,103.9688,252.3789,115.9688,240.3789,127.9688,123.4717,127.9688,111.4717,115.9688,123.4717,103.9688" style="stroke:#181818;stroke-width:0.5;"></polygon><text fill="#000000" font-family="sans-serif" font-size="11" lengthAdjust="spacing" textLength="116.9072" x="123.4717" y="119.7769">Login bem-sucedido?</text><text fill="#000000" font-family="sans-serif" font-size="11" lengthAdjust="spacing" textLength="20.7539" x="90.7178" y="113.3745">Sim</text><text fill="#000000" font-family="sans-serif" font-size="11" lengthAdjust="spacing" textLength="21.6992" x="252.3789" y="113.3745">Não</text><rect fill="#F1F1F1" height="33.9688" rx="12.5" ry="12.5" style="stroke:#181818;stroke-width:0.5;" width="123.9863" x="36.1792" y="137.9688"></rect><text fill="#000000" font-family="sans-serif" font-size="12" lengthAdjust="spacing" textLength="103.9863" x="46.1792" y="159.1074">Acessa o sistema</text><rect fill="#F1F1F1" height="33.9688" rx="12.5" ry="12.5" style="stroke:#181818;stroke-width:0.5;" width="171.0254" x="180.1655" y="137.9688"></rect><text fill="#000000" font-family="sans-serif" font-size="12" lengthAdjust="spacing" textLength="151.0254" x="190.1655" y="159.1074">Exibe mensagem de erro</text><ellipse cx="265.6782" cy="202.9375" fill="none" rx="11" ry="11" style="stroke:#222222;stroke-width:1;"></ellipse><ellipse cx="265.6782" cy="202.9375" fill="#222222" rx="6" ry="6" style="stroke:#222222;stroke-width:1;"></ellipse><rect fill="none" height="136.2344" style="stroke:#000000;stroke-width:1.5;" width="298.8027" x="32.5239" y="223.9375"></rect><path d="M141.4673,223.9375 L141.4673,233.2344 L131.4673,243.2344 L32.5239,243.2344 " fill="none" style="stroke:#000000;stroke-width:1.5;"></path><text fill="#000000" font-family="sans-serif" font-size="14" lengthAdjust="spacing" textLength="98.9434" x="35.5239" y="237.9326">Gerente Geral</text><rect fill="#F1F1F1" height="33.9688" rx="12.5" ry="12.5" style="stroke:#181818;stroke-width:0.5;" width="158.8438" x="102.5034" y="260.2344"></rect><text fill="#000000" font-family="sans-serif" font-size="12" lengthAdjust="spacing" textLength="138.8438" x="112.5034" y="281.373">Gerenciar Funcionários</text><rect fill="#F1F1F1" height="33.9688" rx="12.5" ry="12.5" style="stroke:#181818;stroke-width:0.5;" width="278.8027" x="42.5239" y="314.2031"></rect><text fill="#000000" font-family="sans-serif" font-size="12" lengthAdjust="spacing" textLength="258.8027" x="52.5239" y="335.3418">Cadastrar, Editar ou Remover Funcionários</text><ellipse cx="181.9253" cy="391.1719" fill="none" rx="11" ry="11" style="stroke:#222222;stroke-width:1;"></ellipse><ellipse cx="181.9253" cy="391.1719" fill="#222222" rx="6" ry="6" style="stroke:#222222;stroke-width:1;"></ellipse><ellipse cx="181.9253" cy="422.1719" fill="#222222" rx="10" ry="10" style="stroke:#222222;stroke-width:1;"></ellipse><rect fill="#F1F1F1" height="33.9688" rx="12.5" ry="12.5" style="stroke:#181818;stroke-width:0.5;" width="301.6133" x="31.1187" y="452.1719"></rect><text fill="#000000" font-family="sans-serif" font-size="12" lengthAdjust="spacing" textLength="281.6133" x="41.1187" y="473.3105">Login (Gerente Geral, Estoquista ou Vendedor)</text><polygon fill="#F1F1F1" points="123.4717,506.1406,240.3789,506.1406,252.3789,518.1406,240.3789,530.1406,123.4717,530.1406,111.4717,518.1406,123.4717,506.1406" style="stroke:#181818;stroke-width:0.5;"></polygon><text fill="#000000" font-family="sans-serif" font-size="11" lengthAdjust="spacing" textLength="116.9072" x="123.4717" y="521.9487">Login bem-sucedido?</text><text fill="#000000" font-family="sans-serif" font-size="11" lengthAdjust="spacing" textLength="20.7539" x="90.7178" y="515.5464">Sim</text><text fill="#000000" font-family="sans-serif" font-size="11" lengthAdjust="spacing" textLength="21.6992" x="252.3789" y="515.5464">Não</text><rect fill="#F1F1F1" height="33.9688" rx="12.5" ry="12.5" style="stroke:#181818;stroke-width:0.5;" width="123.9863" x="36.1792" y="540.1406"></rect><text fill="#000000" font-family="sans-serif" font-size="12" lengthAdjust="spacing" textLength="103.9863" x="46.1792" y="561.2793">Acessa o sistema</text><rect fill="#F1F1F1" height="33.9688" rx="12.5" ry="12.5" style="stroke:#181818;stroke-width:0.5;" width="171.0254" x="180.1655" y="540.1406"></rect><text fill="#000000" font-family="sans-serif" font-size="12" lengthAdjust="spacing" textLength="151.0254" x="190.1655" y="561.2793">Exibe mensagem de erro</text><ellipse cx="265.6782" cy="605.1094" fill="none" rx="11" ry="11" style="stroke:#222222;stroke-width:1;"></ellipse><ellipse cx="265.6782" cy="605.1094" fill="#222222" rx="6" ry="6" style="stroke:#222222;stroke-width:1;"></ellipse><rect fill="none" height="244.1719" style="stroke:#000000;stroke-width:1.5;" width="294.3086" x="34.771" y="626.1094"></rect><path d="M117.9771,626.1094 L117.9771,635.4063 L107.9771,645.4063 L34.771,645.4063 " fill="none" style="stroke:#000000;stroke-width:1.5;"></path><text fill="#000000" font-family="sans-serif" font-size="14" lengthAdjust="spacing" textLength="73.2061" x="37.771" y="640.1045">Estoquista</text><rect fill="#F1F1F1" height="33.9688" rx="12.5" ry="12.5" style="stroke:#181818;stroke-width:0.5;" width="193.8301" x="85.0103" y="662.4063"></rect><text fill="#000000" font-family="sans-serif" font-size="12" lengthAdjust="spacing" textLength="173.8301" x="95.0103" y="683.5449">Cadastrar ou Editar Produtos</text><rect fill="#F1F1F1" height="33.9688" rx="12.5" ry="12.5" style="stroke:#181818;stroke-width:0.5;" width="131.123" x="116.3638" y="716.375"></rect><text fill="#000000" font-family="sans-serif" font-size="12" lengthAdjust="spacing" textLength="111.123" x="126.3638" y="737.5137">Gerenciar Estoque</text><rect fill="#F1F1F1" height="33.9688" rx="12.5" ry="12.5" style="stroke:#181818;stroke-width:0.5;" width="251.2988" x="56.2759" y="770.3438"></rect><text fill="#000000" font-family="sans-serif" font-size="12" lengthAdjust="spacing" textLength="231.2988" x="66.2759" y="791.4824">Registrar Entradas/Saídas de Produtos</text><rect fill="#F1F1F1" height="33.9688" rx="12.5" ry="12.5" style="stroke:#181818;stroke-width:0.5;" width="274.3086" x="44.771" y="824.3125"></rect><text fill="#000000" font-family="sans-serif" font-size="12" lengthAdjust="spacing" textLength="254.3086" x="54.771" y="845.4512">Gerenciar Lotes e Registrar Recebimentos</text><ellipse cx="181.9253" cy="901.2813" fill="none" rx="11" ry="11" style="stroke:#222222;stroke-width:1;"></ellipse><ellipse cx="181.9253" cy="901.2813" fill="#222222" rx="6" ry="6" style="stroke:#222222;stroke-width:1;"></ellipse><ellipse cx="181.9253" cy="932.2813" fill="#222222" rx="10" ry="10" style="stroke:#222222;stroke-width:1;"></ellipse><rect fill="#F1F1F1" height="33.9688" rx="12.5" ry="12.5" style="stroke:#181818;stroke-width:0.5;" width="301.6133" x="31.1187" y="962.2813"></rect><text fill="#000000" font-family="sans-serif" font-size="12" lengthAdjust="spacing" textLength="281.6133" x="41.1187" y="983.4199">Login (Gerente Geral, Estoquista ou Vendedor)</text><polygon fill="#F1F1F1" points="123.4717,1016.25,240.3789,1016.25,252.3789,1028.25,240.3789,1040.25,123.4717,1040.25,111.4717,1028.25,123.4717,1016.25" style="stroke:#181818;stroke-width:0.5;"></polygon><text fill="#000000" font-family="sans-serif" font-size="11" lengthAdjust="spacing" textLength="116.9072" x="123.4717" y="1032.0581">Login bem-sucedido?</text><text fill="#000000" font-family="sans-serif" font-size="11" lengthAdjust="spacing" textLength="20.7539" x="90.7178" y="1025.6558">Sim</text><text fill="#000000" font-family="sans-serif" font-size="11" lengthAdjust="spacing" textLength="21.6992" x="252.3789" y="1025.6558">Não</text><rect fill="#F1F1F1" height="33.9688" rx="12.5" ry="12.5" style="stroke:#181818;stroke-width:0.5;" width="123.9863" x="36.1792" y="1050.25"></rect><text fill="#000000" font-family="sans-serif" font-size="12" lengthAdjust="spacing" textLength="103.9863" x="46.1792" y="1071.3887">Acessa o sistema</text><rect fill="#F1F1F1" height="33.9688" rx="12.5" ry="12.5" style="stroke:#181818;stroke-width:0.5;" width="171.0254" x="180.1655" y="1050.25"></rect><text fill="#000000" font-family="sans-serif" font-size="12" lengthAdjust="spacing" textLength="151.0254" x="190.1655" y="1071.3887">Exibe mensagem de erro</text><ellipse cx="265.6782" cy="1115.2188" fill="none" rx="11" ry="11" style="stroke:#222222;stroke-width:1;"></ellipse><ellipse cx="265.6782" cy="1115.2188" fill="#222222" rx="6" ry="6" style="stroke:#222222;stroke-width:1;"></ellipse><rect fill="none" height="254.2031" style="stroke:#000000;stroke-width:1.5;" width="406.0371" x="11" y="1136.2188"></rect><path d="M88.7715,1136.2188 L88.7715,1145.5156 L78.7715,1155.5156 L11,1155.5156 " fill="none" style="stroke:#000000;stroke-width:1.5;"></path><text fill="#000000" font-family="sans-serif" font-size="14" lengthAdjust="spacing" textLength="67.7715" x="14" y="1150.2139">Vendedor</text><rect fill="#F1F1F1" height="33.9688" rx="12.5" ry="12.5" style="stroke:#181818;stroke-width:0.5;" width="98.6797" x="132.5854" y="1172.5156"></rect><text fill="#000000" font-family="sans-serif" font-size="12" lengthAdjust="spacing" textLength="78.6797" x="142.5854" y="1193.6543">Iniciar Venda</text><rect fill="#F1F1F1" height="33.9688" rx="12.5" ry="12.5" style="stroke:#181818;stroke-width:0.5;" width="129.8105" x="117.02" y="1226.4844"></rect><text fill="#000000" font-family="sans-serif" font-size="12" lengthAdjust="spacing" textLength="109.8105" x="127.02" y="1247.623">Consultar Estoque</text><polygon fill="#F1F1F1" points="127.1133,1280.4531,236.7373,1280.4531,248.7373,1292.4531,236.7373,1304.4531,127.1133,1304.4531,115.1133,1292.4531,127.1133,1280.4531" style="stroke:#181818;stroke-width:0.5;"></polygon><text fill="#000000" font-family="sans-serif" font-size="11" lengthAdjust="spacing" textLength="109.624" x="127.1133" y="1296.2612">Estoque disponível?</text><text fill="#000000" font-family="sans-serif" font-size="11" lengthAdjust="spacing" textLength="20.7539" x="94.3594" y="1289.8589">Sim</text><text fill="#000000" font-family="sans-serif" font-size="11" lengthAdjust="spacing" textLength="21.6992" x="248.7373" y="1289.8589">Não</text><rect fill="#F1F1F1" height="33.9688" rx="12.5" ry="12.5" style="stroke:#181818;stroke-width:0.5;" width="116.832" x="23" y="1314.4531"></rect><text fill="#000000" font-family="sans-serif" font-size="12" lengthAdjust="spacing" textLength="96.832" x="33" y="1335.5918">Registrar Venda</text><rect fill="#F1F1F1" height="33.9688" rx="12.5" ry="12.5" style="stroke:#181818;stroke-width:0.5;" width="245.2051" x="159.832" y="1314.4531"></rect><text fill="#000000" font-family="sans-serif" font-size="12" lengthAdjust="spacing" textLength="225.2051" x="169.832" y="1335.5918">Exibir mensagem de falta de estoque</text><polygon fill="#F1F1F1" points="181.9253,1354.4219,193.9253,1366.4219,181.9253,1378.4219,169.9253,1366.4219,181.9253,1354.4219" style="stroke:#181818;stroke-width:0.5;"></polygon><ellipse cx="181.9253" cy="1421.4219" fill="none" rx="11" ry="11" style="stroke:#222222;stroke-width:1;"></ellipse><ellipse cx="181.9253" cy="1421.4219" fill="#222222" rx="6" ry="6" style="stroke:#222222;stroke-width:1;"></ellipse><line style="stroke:#181818;stroke-width:1;" x1="181.9253" x2="181.9253" y1="30" y2="50"></line><polygon fill="#181818" points="177.9253,40,181.9253,50,185.9253,40,181.9253,44" style="stroke:#181818;stroke-width:1;"></polygon><line style="stroke:#181818;stroke-width:1;" x1="265.6782" x2="265.6782" y1="171.9375" y2="191.9375"></line><polygon fill="#181818" points="261.6782,181.9375,265.6782,191.9375,269.6782,181.9375,265.6782,185.9375" style="stroke:#181818;stroke-width:1;"></polygon><line style="stroke:#181818;stroke-width:1;" x1="111.4717" x2="98.1724" y1="115.9688" y2="115.9688"></line><line style="stroke:#181818;stroke-width:1;" x1="98.1724" x2="98.1724" y1="115.9688" y2="137.9688"></line><polygon fill="#181818" points="94.1724,127.9688,98.1724,137.9688,102.1724,127.9688,98.1724,131.9688" style="stroke:#181818;stroke-width:1;"></polygon><line style="stroke:#181818;stroke-width:1;" x1="252.3789" x2="265.6782" y1="115.9688" y2="115.9688"></line><line style="stroke:#181818;stroke-width:1;" x1="265.6782" x2="265.6782" y1="115.9688" y2="137.9688"></line><polygon fill="#181818" points="261.6782,127.9688,265.6782,137.9688,269.6782,127.9688,265.6782,131.9688" style="stroke:#181818;stroke-width:1;"></polygon><line style="stroke:#181818;stroke-width:1;" x1="98.1724" x2="98.1724" y1="171.9375" y2="218.9375"></line><line style="stroke:#181818;stroke-width:1;" x1="98.1724" x2="181.9253" y1="218.9375" y2="218.9375"></line><line style="stroke:#181818;stroke-width:1;" x1="181.9253" x2="181.9253" y1="218.9375" y2="260.2344"></line><polygon fill="#181818" points="177.9253,250.2344,181.9253,260.2344,185.9253,250.2344,181.9253,254.2344" style="stroke:#181818;stroke-width:1;"></polygon><line style="stroke:#181818;stroke-width:1;" x1="181.9253" x2="181.9253" y1="83.9688" y2="103.9688"></line><polygon fill="#181818" points="177.9253,93.9688,181.9253,103.9688,185.9253,93.9688,181.9253,97.9688" style="stroke:#181818;stroke-width:1;"></polygon><line style="stroke:#181818;stroke-width:1;" x1="181.9253" x2="181.9253" y1="294.2031" y2="314.2031"></line><polygon fill="#181818" points="177.9253,304.2031,181.9253,314.2031,185.9253,304.2031,181.9253,308.2031" style="stroke:#181818;stroke-width:1;"></polygon><line style="stroke:#181818;stroke-width:1;" x1="181.9253" x2="181.9253" y1="348.1719" y2="380.1719"></line><polygon fill="#181818" points="177.9253,370.1719,181.9253,380.1719,185.9253,370.1719,181.9253,374.1719" style="stroke:#181818;stroke-width:1;"></polygon><line style="stroke:#181818;stroke-width:1;" x1="181.9253" x2="181.9253" y1="432.1719" y2="452.1719"></line><polygon fill="#181818" points="177.9253,442.1719,181.9253,452.1719,185.9253,442.1719,181.9253,446.1719" style="stroke:#181818;stroke-width:1;"></polygon><line style="stroke:#181818;stroke-width:1;" x1="265.6782" x2="265.6782" y1="574.1094" y2="594.1094"></line><polygon fill="#181818" points="261.6782,584.1094,265.6782,594.1094,269.6782,584.1094,265.6782,588.1094" style="stroke:#181818;stroke-width:1;"></polygon><line style="stroke:#181818;stroke-width:1;" x1="111.4717" x2="98.1724" y1="518.1406" y2="518.1406"></line><line style="stroke:#181818;stroke-width:1;" x1="98.1724" x2="98.1724" y1="518.1406" y2="540.1406"></line><polygon fill="#181818" points="94.1724,530.1406,98.1724,540.1406,102.1724,530.1406,98.1724,534.1406" style="stroke:#181818;stroke-width:1;"></polygon><line style="stroke:#181818;stroke-width:1;" x1="252.3789" x2="265.6782" y1="518.1406" y2="518.1406"></line><line style="stroke:#181818;stroke-width:1;" x1="265.6782" x2="265.6782" y1="518.1406" y2="540.1406"></line><polygon fill="#181818" points="261.6782,530.1406,265.6782,540.1406,269.6782,530.1406,265.6782,534.1406" style="stroke:#181818;stroke-width:1;"></polygon><line style="stroke:#181818;stroke-width:1;" x1="98.1724" x2="98.1724" y1="574.1094" y2="621.1094"></line><line style="stroke:#181818;stroke-width:1;" x1="98.1724" x2="181.9253" y1="621.1094" y2="621.1094"></line><line style="stroke:#181818;stroke-width:1;" x1="181.9253" x2="181.9253" y1="621.1094" y2="662.4063"></line><polygon fill="#181818" points="177.9253,652.4063,181.9253,662.4063,185.9253,652.4063,181.9253,656.4063" style="stroke:#181818;stroke-width:1;"></polygon><line style="stroke:#181818;stroke-width:1;" x1="181.9253" x2="181.9253" y1="486.1406" y2="506.1406"></line><polygon fill="#181818" points="177.9253,496.1406,181.9253,506.1406,185.9253,496.1406,181.9253,500.1406" style="stroke:#181818;stroke-width:1;"></polygon><line style="stroke:#181818;stroke-width:1;" x1="181.9253" x2="181.9253" y1="696.375" y2="716.375"></line><polygon fill="#181818" points="177.9253,706.375,181.9253,716.375,185.9253,706.375,181.9253,710.375" style="stroke:#181818;stroke-width:1;"></polygon><line style="stroke:#181818;stroke-width:1;" x1="181.9253" x2="181.9253" y1="750.3438" y2="770.3438"></line><polygon fill="#181818" points="177.9253,760.3438,181.9253,770.3438,185.9253,760.3438,181.9253,764.3438" style="stroke:#181818;stroke-width:1;"></polygon><line style="stroke:#181818;stroke-width:1;" x1="181.9253" x2="181.9253" y1="804.3125" y2="824.3125"></line><polygon fill="#181818" points="177.9253,814.3125,181.9253,824.3125,185.9253,814.3125,181.9253,818.3125" style="stroke:#181818;stroke-width:1;"></polygon><line style="stroke:#181818;stroke-width:1;" x1="181.9253" x2="181.9253" y1="858.2813" y2="890.2813"></line><polygon fill="#181818" points="177.9253,880.2813,181.9253,890.2813,185.9253,880.2813,181.9253,884.2813" style="stroke:#181818;stroke-width:1;"></polygon><line style="stroke:#181818;stroke-width:1;" x1="181.9253" x2="181.9253" y1="942.2813" y2="962.2813"></line><polygon fill="#181818" points="177.9253,952.2813,181.9253,962.2813,185.9253,952.2813,181.9253,956.2813" style="stroke:#181818;stroke-width:1;"></polygon><line style="stroke:#181818;stroke-width:1;" x1="265.6782" x2="265.6782" y1="1084.2188" y2="1104.2188"></line><polygon fill="#181818" points="261.6782,1094.2188,265.6782,1104.2188,269.6782,1094.2188,265.6782,1098.2188" style="stroke:#181818;stroke-width:1;"></polygon><line style="stroke:#181818;stroke-width:1;" x1="111.4717" x2="98.1724" y1="1028.25" y2="1028.25"></line><line style="stroke:#181818;stroke-width:1;" x1="98.1724" x2="98.1724" y1="1028.25" y2="1050.25"></line><polygon fill="#181818" points="94.1724,1040.25,98.1724,1050.25,102.1724,1040.25,98.1724,1044.25" style="stroke:#181818;stroke-width:1;"></polygon><line style="stroke:#181818;stroke-width:1;" x1="252.3789" x2="265.6782" y1="1028.25" y2="1028.25"></line><line style="stroke:#181818;stroke-width:1;" x1="265.6782" x2="265.6782" y1="1028.25" y2="1050.25"></line><polygon fill="#181818" points="261.6782,1040.25,265.6782,1050.25,269.6782,1040.25,265.6782,1044.25" style="stroke:#181818;stroke-width:1;"></polygon><line style="stroke:#181818;stroke-width:1;" x1="98.1724" x2="98.1724" y1="1084.2188" y2="1131.2188"></line><line style="stroke:#181818;stroke-width:1;" x1="98.1724" x2="181.9253" y1="1131.2188" y2="1131.2188"></line><line style="stroke:#181818;stroke-width:1;" x1="181.9253" x2="181.9253" y1="1131.2188" y2="1172.5156"></line><polygon fill="#181818" points="177.9253,1162.5156,181.9253,1172.5156,185.9253,1162.5156,181.9253,1166.5156" style="stroke:#181818;stroke-width:1;"></polygon><line style="stroke:#181818;stroke-width:1;" x1="181.9253" x2="181.9253" y1="996.25" y2="1016.25"></line><polygon fill="#181818" points="177.9253,1006.25,181.9253,1016.25,185.9253,1006.25,181.9253,1010.25" style="stroke:#181818;stroke-width:1;"></polygon><line style="stroke:#181818;stroke-width:1;" x1="181.9253" x2="181.9253" y1="1206.4844" y2="1226.4844"></line><polygon fill="#181818" points="177.9253,1216.4844,181.9253,1226.4844,185.9253,1216.4844,181.9253,1220.4844" style="stroke:#181818;stroke-width:1;"></polygon><line style="stroke:#181818;stroke-width:1;" x1="115.1133" x2="81.416" y1="1292.4531" y2="1292.4531"></line><line style="stroke:#181818;stroke-width:1;" x1="81.416" x2="81.416" y1="1292.4531" y2="1314.4531"></line><polygon fill="#181818" points="77.416,1304.4531,81.416,1314.4531,85.416,1304.4531,81.416,1308.4531" style="stroke:#181818;stroke-width:1;"></polygon><line style="stroke:#181818;stroke-width:1;" x1="248.7373" x2="282.4346" y1="1292.4531" y2="1292.4531"></line><line style="stroke:#181818;stroke-width:1;" x1="282.4346" x2="282.4346" y1="1292.4531" y2="1314.4531"></line><polygon fill="#181818" points="278.4346,1304.4531,282.4346,1314.4531,286.4346,1304.4531,282.4346,1308.4531" style="stroke:#181818;stroke-width:1;"></polygon><line style="stroke:#181818;stroke-width:1;" x1="81.416" x2="81.416" y1="1348.4219" y2="1366.4219"></line><line style="stroke:#181818;stroke-width:1;" x1="81.416" x2="169.9253" y1="1366.4219" y2="1366.4219"></line><polygon fill="#181818" points="159.9253,1362.4219,169.9253,1366.4219,159.9253,1370.4219,163.9253,1366.4219" style="stroke:#181818;stroke-width:1;"></polygon><line style="stroke:#181818;stroke-width:1;" x1="282.4346" x2="282.4346" y1="1348.4219" y2="1366.4219"></line><line style="stroke:#181818;stroke-width:1;" x1="282.4346" x2="193.9253" y1="1366.4219" y2="1366.4219"></line><polygon fill="#181818" points="203.9253,1362.4219,193.9253,1366.4219,203.9253,1370.4219,199.9253,1366.4219" style="stroke:#181818;stroke-width:1;"></polygon><line style="stroke:#181818;stroke-width:1;" x1="181.9253" x2="181.9253" y1="1260.4531" y2="1280.4531"></line><polygon fill="#181818" points="177.9253,1270.4531,181.9253,1280.4531,185.9253,1270.4531,181.9253,1274.4531" style="stroke:#181818;stroke-width:1;"></polygon><line style="stroke:#181818;stroke-width:1;" x1="181.9253" x2="181.9253" y1="1378.4219" y2="1410.4219"></line><polygon fill="#181818" points="177.9253,1400.4219,181.9253,1410.4219,185.9253,1400.4219,181.9253,1404.4219" style="stroke:#181818;stroke-width:1;"></polygon><!--SRC=[tPBFIiD04CRl-nH3JmaetjE3Y5GHYaWBthVPQHn8TkhEfWZYmuZdFaLVpCcVfl_m0MeE6PZDVFFzlgn46w8nsPGByf0yOa0V4RJQyWec4lcz9eaMk8PNz0uTXtHiQ0b9DxB0wbhg71qvlaqXlg7ApAbA3UYJtUKeejCWgeAL7Hii1I5vtlvm_ydaWnO85Ngn1LRW43047hU7kdzbT2qjZLcfKuh47aP7DaVmsGcrtPniW8TQA_ljTo2MJYcxjyvA33OebYF5Rf1cMF4QpmQ-Z6atw_iIuzdx6h8Pw1kdFVzBO5V78Q1zVDqyzlqP5jIDJhmMrRcPs-r6QsFcJv4fHnH0s8_FCCS5AKdy1ndld0m9FtbgkPi3kxjpxAKkuscaZVM-0OvafHTliyRotFj9_WVIfmW31eKZZgNLzItGeO4Ef_y3lm00]--></g></svg>