<svg xmlns="http://www.w3.org/2000/svg" xmlns:xlink="http://www.w3.org/1999/xlink" xmlns:lucid="lucid" width="510" height="953"><g transform="translate(-51 -150)" lucid:page-tab-id="0_0"><path d="M0 0h2720.6v2081.55H0z" fill="#fff"/><path d="M319.33 280c0 11.05-8.95 20-20 20-11.04 0-20-8.95-20-20s8.96-20 20-20c11.05 0 20 8.95 20 20z" stroke="#666"/><path d="M236 540c-8.84 0-16 7.16-16 16v48c0 8.84 7.16 16 16 16h128c8.84 0 16-7.16 16-16v-48c0-8.84-7.16-16-16-16z" stroke="#000" fill="#fff"/><use xlink:href="#a" transform="matrix(1,0,0,1,228,548) translate(18.18923611111111 20.42222222222222)"/><use xlink:href="#b" transform="matrix(1,0,0,1,228,548) translate(74.01388888888889 20.42222222222222)"/><use xlink:href="#c" transform="matrix(1,0,0,1,228,548) translate(19.24826388888889 41.93263888888889)"/><use xlink:href="#d" transform="matrix(1,0,0,1,228,548) translate(114.3871527777778 41.93263888888889)"/><use xlink:href="#e" transform="matrix(1,0,0,1,228,548) translate(43.384548611111114 63.44305555555555)"/><path d="M294.34 665.66a8 8 0 0 1 11.32 0l8.68 8.68a8 8 0 0 1 0 11.32l-8.68 8.68a8 8 0 0 1-11.32 0l-8.68-8.68a8 8 0 0 1 0-11.32z" stroke="#000" stroke-width="2" fill="#fff"/><path d="M300 621.5v22.3" stroke="#333" stroke-width="2" fill="none"/><path d="M300.98 621.53h-1.96v-1.03h1.96z" stroke="#333" stroke-width=".05" fill="#333"/><path d="M300 659.08l-4.63-14.27h9.26z" stroke="#333" stroke-width="2" fill="#333"/><path d="M160.47 783.12h-.94V739.3h.94zM281.8 680.48H172.03l-1.82.14-1.76.42-1.67.7-1.54.94-1.38 1.17-1.17 1.38-.95 1.54-.7 1.67-.4 1.76-.16 1.82v25.77h-.94v-25.82l.15-1.93.45-1.9.75-1.8 1.03-1.68 1.28-1.5 1.5-1.26 1.66-1.02 1.8-.75 1.9-.45 1.94-.15H281.8z" stroke="#333" stroke-width=".05" fill="#333"/><path d="M282.3 680l.05.48h-.55v-.96h.55z" fill="#333"/><path stroke="#333" stroke-width=".05" fill="#333"/><path d="M160 797.88l-4.63-14.26h9.26z" fill="#333"/><path d="M160 799.42l-5.3-16.28h10.6zm-3.98-15.33l3.98 12.25 3.98-12.26z" stroke="#333" stroke-width=".05" fill="#333"/><use xlink:href="#f" transform="matrix(1,0,0,1,101.88802083333333,717.7911368007683) translate(0 17.22222222222222)"/><use xlink:href="#g" transform="matrix(1,0,0,1,101.88802083333333,717.7911368007683) translate(56.79687500000001 17.22222222222222)"/><path d="M96 800c-8.84 0-16 7.16-16 16v48c0 8.84 7.16 16 16 16h128c8.84 0 16-7.16 16-16v-48c0-8.84-7.16-16-16-16z" stroke="#000" fill="#fff"/><use xlink:href="#h" transform="matrix(1,0,0,1,88,808) translate(41.23177083333333 29.311805555555555)"/><use xlink:href="#i" transform="matrix(1,0,0,1,88,808) translate(39.68229166666667 50.822222222222216)"/><path d="M470.48 668.02l-.16 1.93-.45 1.9-.75 1.8-1.03 1.68-1.28 1.5-1.5 1.26-1.66 1.02-1.8.75-1.9.45-1.94.15H318.2v-.95h139.78l1.82-.14 1.76-.42 1.67-.7 1.54-.94 1.38-1.17 1.17-1.38.95-1.54.7-1.67.4-1.76.15-1.82v-75.82h.96zm-10.53-248.34l1.9.45 1.8.75 1.68 1.03 1.5 1.28 1.26 1.5 1.02 1.66.75 1.8.45 1.9.16 1.94v138.67h-.96V432.02l-.14-1.82-.42-1.76-.7-1.67-.94-1.54-1.17-1.38-1.38-1.17-1.54-.95-1.67-.7-1.76-.4-1.82-.15h-61.1v-.96h61.14z" stroke="#333" stroke-width=".05" fill="#333"/><path d="M318.2 680.48h-.55l.04-.48-.05-.48h.55z" fill="#333"/><path stroke="#333" stroke-width=".05" fill="#333"/><path d="M396.38 424.63L382.12 420l14.26-4.63z" fill="#333"/><path d="M396.86 425.3l-16.28-5.3 16.28-5.3zm-13.2-5.3l12.25 3.98v-7.96z" stroke="#333" stroke-width=".05" fill="#333"/><use xlink:href="#f" transform="matrix(1,0,0,1,404.61371527777777,570.6501151375925) translate(0 17.22222222222222)"/><use xlink:href="#j" transform="matrix(1,0,0,1,404.61371527777777,570.6501151375925) translate(56.79687500000001 17.22222222222222)"/><path d="M160 881v72.37" stroke="#333" fill="none"/><path d="M160.47 881h-.94v-.5h.94z" stroke="#333" stroke-width=".05" fill="#333"/><path d="M160 968.13l-4.63-14.26h9.26z" stroke="#333" fill="#333"/><path d="M180 990.25c0 11.05-8.95 20-20 20s-20-8.95-20-20 8.95-20 20-20 20 8.95 20 20z" stroke="#666" fill="#fff"/><path d="M172 990.25c0 6.63-5.37 12-12 12s-12-5.37-12-12 5.37-12 12-12 12 5.37 12 12z" stroke="#666"/><path d="M178.9 188a8 8 0 0 1 8-8h224a8 8 0 0 1 8 8v44a8 8 0 0 1-8 8h-224a8 8 0 0 1-8-8z" fill="none"/><use xlink:href="#k" transform="matrix(1,0,0,1,178.8875547562693,180) translate(99.4072265625 36.5478515625)"/><path d="M236 380c-8.84 0-16 7.16-16 16v48c0 8.84 7.16 16 16 16h128c8.84 0 16-7.16 16-16v-48c0-8.84-7.16-16-16-16z" stroke="#333" fill="#fff"/><use xlink:href="#l" transform="matrix(1,0,0,1,228,388) translate(31.4912109375 27.658203125)"/><use xlink:href="#m" transform="matrix(1,0,0,1,228,388) translate(38.17529296875 49.4375)"/><path d="M299.33 301v38.67a.33.33 0 0 0 .34.33.33.33 0 0 1 .33.33v22.8" stroke="#333" fill="none"/><path d="M299.3 300.5l.5-.02v.53h-.94v-.56z" stroke="#333" stroke-width=".05" fill="#333"/><path d="M300 377.88l-4.63-14.26h9.26z" stroke="#333" fill="#333"/><path d="M300 461v62.12" stroke="#333" fill="none"/><path d="M300.48 461h-.96v-.5h.96z" stroke="#333" stroke-width=".05" fill="#333"/><path d="M300 537.88l-4.63-14.26h9.26z" stroke="#333" fill="#333"/><defs><path d="M600 0L52-1490h200c166 485 304 806 458 1336 156-533 285-846 449-1336h202L819 0H600" id="n"/><path d="M471 26C259 26 90-98 90-318c0-256 228-303 435-329 202-27 287-16 287-108 0-139-79-219-234-219-161 0-248 86-283 164l-173-57c86-203 278-265 451-265 150 0 419 46 419 395V0H815v-152h-12C765-73 660 26 471 26zm31-159c199 0 310-134 310-271v-155c-30 35-226 55-295 64-131 17-246 59-246 186 0 116 97 176 231 176" id="o"/><path d="M338-1490V0H158v-1490h180" id="p"/><path d="M158 0v-1118h180V0H158zm91-1301c-68 0-125-53-125-119s57-119 125-119c69 0 126 53 126 119s-57 119-126 119" id="q"/><path d="M577 24c-279 0-473-224-473-580 0-354 195-576 474-576 218 0 287 134 324 193h14v-551h180V0H922v-173h-20C865-111 790 24 577 24zm27-161c203 0 314-172 314-421 0-247-108-413-314-413-212 0-317 181-317 413 0 235 108 421 317 421" id="r"/><g id="a"><use transform="matrix(0.008680555555555556,0,0,0.008680555555555556,0,0)" xlink:href="#n"/><use transform="matrix(0.008680555555555556,0,0,0.008680555555555556,11.362847222222221,0)" xlink:href="#o"/><use transform="matrix(0.008680555555555556,0,0,0.008680555555555556,21.34548611111111,0)" xlink:href="#p"/><use transform="matrix(0.008680555555555556,0,0,0.008680555555555556,25.651041666666664,0)" xlink:href="#q"/><use transform="matrix(0.008680555555555556,0,0,0.008680555555555556,29.956597222222218,0)" xlink:href="#r"/><use transform="matrix(0.008680555555555556,0,0,0.008680555555555556,40.842013888888886,0)" xlink:href="#o"/></g><path d="M613 24c-304 0-509-231-509-576 0-350 205-580 509-580 305 0 511 230 511 580 0 345-206 576-511 576zm0-161c226 0 329-195 329-415 0-222-103-419-329-419-223 0-326 196-326 419 0 220 103 415 326 415" id="s"/><path d="M538 24C308 24 148-78 108-271l171-41c32 123 123 178 257 178 156 0 256-77 256-169 0-77-54-128-164-154l-186-44c-203-48-300-148-300-305 0-192 176-326 414-326 230 0 351 112 402 269l-163 42c-31-80-94-158-238-158-133 0-233 69-233 162 0 83 57 129 188 160l169 40c203 48 298 149 298 302 0 196-179 339-441 339" id="t"/><g id="b"><use transform="matrix(0.008680555555555556,0,0,0.008680555555555556,0,0)" xlink:href="#r"/><use transform="matrix(0.008680555555555556,0,0,0.008680555555555556,10.885416666666668,0)" xlink:href="#o"/><use transform="matrix(0.008680555555555556,0,0,0.008680555555555556,20.868055555555557,0)" xlink:href="#r"/><use transform="matrix(0.008680555555555556,0,0,0.008680555555555556,31.753472222222225,0)" xlink:href="#s"/><use transform="matrix(0.008680555555555556,0,0,0.008680555555555556,42.41319444444444,0)" xlink:href="#t"/></g><path d="M218-607c0-325 108-727 258-974h175c-155 315-250 682-250 974 0 265 78 531 250 886H476C306-10 218-315 218-607" id="u"/><path d="M537 14c-226 0-379-139-379-422v-710h180v695c0 172 97 275 253 275 160 0 281-109 281-300v-670h181V0H879v-209C806-46 684 14 537 14" id="v"/><path d="M628 24c-324 0-524-230-524-574 0-343 198-582 503-582 237 0 487 146 487 559v75H286c9 234 145 362 343 362 132 0 231-58 273-172l174 48C1024-91 857 24 628 24zM287-650h624c-17-190-120-322-304-322-192 0-309 151-320 322" id="w"/><path d="M158 0v-1118h174v172h12c41-113 157-188 290-188 26 0 70 2 91 3v181c-11-2-60-10-108-10-161 0-279 109-279 260V0H158" id="x"/><path d="M338-670V0H158v-1118h173l1 207c72-158 192-221 342-221 226 0 378 139 378 422V0H872v-695c0-172-96-275-252-275-161 0-282 109-282 300" id="y"/><path d="M158 0v-1118h175l1 205c55-151 181-225 313-225 147 0 245 90 285 228 53-141 190-228 352-228 194 0 352 125 352 384V0h-181v-749c0-161-105-225-225-225-151 0-243 103-243 244V0H807v-767c0-124-93-207-219-207-131 0-250 92-250 270V0H158" id="z"/><g id="c"><use transform="matrix(0.008680555555555556,0,0,0.008680555555555556,0,0)" xlink:href="#u"/><use transform="matrix(0.008680555555555556,0,0,0.008680555555555556,6.484375,0)" xlink:href="#v"/><use transform="matrix(0.008680555555555556,0,0,0.008680555555555556,16.99652777777778,0)" xlink:href="#t"/><use transform="matrix(0.008680555555555556,0,0,0.008680555555555556,26.380208333333336,0)" xlink:href="#w"/><use transform="matrix(0.008680555555555556,0,0,0.008680555555555556,36.74479166666667,0)" xlink:href="#x"/><use transform="matrix(0.008680555555555556,0,0,0.008680555555555556,43.715277777777786,0)" xlink:href="#y"/><use transform="matrix(0.008680555555555556,0,0,0.008680555555555556,54.21875000000001,0)" xlink:href="#o"/><use transform="matrix(0.008680555555555556,0,0,0.008680555555555556,64.2013888888889,0)" xlink:href="#z"/><use transform="matrix(0.008680555555555556,0,0,0.008680555555555556,79.77430555555557,0)" xlink:href="#w"/></g><use transform="matrix(0.008680555555555556,0,0,0.008680555555555556,0,0)" xlink:href="#w" id="d"/><path d="M338-670V0H158v-1490h180v566c73-149 190-208 336-208 226 0 379 139 379 422V0H872v-695c0-172-96-275-252-275-161 0-282 109-282 300" id="A"/><path d="M96 279C273-86 346-350 346-607c0-292-95-659-250-974h175c150 246 258 650 258 974 0 297-91 602-258 886H96" id="B"/><g id="e"><use transform="matrix(0.008680555555555556,0,0,0.008680555555555556,0,0)" xlink:href="#t"/><use transform="matrix(0.008680555555555556,0,0,0.008680555555555556,9.383680555555555,0)" xlink:href="#w"/><use transform="matrix(0.008680555555555556,0,0,0.008680555555555556,19.74826388888889,0)" xlink:href="#y"/><use transform="matrix(0.008680555555555556,0,0,0.008680555555555556,30.25173611111111,0)" xlink:href="#A"/><use transform="matrix(0.008680555555555556,0,0,0.008680555555555556,40.76388888888889,0)" xlink:href="#o"/><use transform="matrix(0.008680555555555556,0,0,0.008680555555555556,50.746527777777786,0)" xlink:href="#B"/></g><g id="f"><use transform="matrix(0.008680555555555556,0,0,0.008680555555555556,0,0)" xlink:href="#r"/><use transform="matrix(0.008680555555555556,0,0,0.008680555555555556,10.885416666666668,0)" xlink:href="#o"/><use transform="matrix(0.008680555555555556,0,0,0.008680555555555556,20.868055555555557,0)" xlink:href="#r"/><use transform="matrix(0.008680555555555556,0,0,0.008680555555555556,31.753472222222225,0)" xlink:href="#s"/><use transform="matrix(0.008680555555555556,0,0,0.008680555555555556,42.41319444444444,0)" xlink:href="#t"/></g><path d="M481 0L54-1118h197c107 314 236 620 325 951 87-331 217-637 324-951h197L670 0H481" id="C"/><path d="M471 26C259 26 90-98 90-318c0-256 228-303 435-329 202-27 287-16 287-108 0-139-79-219-234-219-161 0-248 86-283 164l-173-57c86-203 278-265 451-265 150 0 419 46 419 395V0H815v-152h-12C765-73 660 26 471 26zm31-159c199 0 310-134 310-271v-155c-30 35-226 55-295 64-131 17-246 59-246 186 0 116 97 176 231 176zm-23-1131l140-294h201l-194 294H479" id="D"/><g id="g"><use transform="matrix(0.008680555555555556,0,0,0.008680555555555556,0,0)" xlink:href="#C"/><use transform="matrix(0.008680555555555556,0,0,0.008680555555555556,9.90451388888889,0)" xlink:href="#D"/><use transform="matrix(0.008680555555555556,0,0,0.008680555555555556,19.88715277777778,0)" xlink:href="#p"/><use transform="matrix(0.008680555555555556,0,0,0.008680555555555556,24.192708333333336,0)" xlink:href="#q"/><use transform="matrix(0.008680555555555556,0,0,0.008680555555555556,28.498263888888893,0)" xlink:href="#r"/><use transform="matrix(0.008680555555555556,0,0,0.008680555555555556,39.38368055555556,0)" xlink:href="#s"/><use transform="matrix(0.008680555555555556,0,0,0.008680555555555556,50.04340277777778,0)" xlink:href="#t"/></g><path d="M52 0l541-1490h220L1361 0h-200l-149-416H398L254 0H52zm404-582h497c-103-290-145-390-251-756-108 377-145 460-246 756" id="E"/><path d="M613 24c-304 0-509-231-509-576 0-350 205-580 509-580 216 0 392 114 453 309l-173 49c-33-115-133-197-280-197-223 0-326 196-326 419 0 220 103 415 326 415 150 0 252-85 285-206l172 49C1010-95 832 24 613 24" id="F"/><g id="h"><use transform="matrix(0.008680555555555556,0,0,0.008680555555555556,0,0)" xlink:href="#E"/><use transform="matrix(0.008680555555555556,0,0,0.008680555555555556,12.265625,0)" xlink:href="#F"/><use transform="matrix(0.008680555555555556,0,0,0.008680555555555556,22.421875,0)" xlink:href="#w"/><use transform="matrix(0.008680555555555556,0,0,0.008680555555555556,32.786458333333336,0)" xlink:href="#t"/><use transform="matrix(0.008680555555555556,0,0,0.008680555555555556,42.17013888888889,0)" xlink:href="#t"/><use transform="matrix(0.008680555555555556,0,0,0.008680555555555556,51.55381944444445,0)" xlink:href="#o"/></g><path d="M598-1118v154H368v674c0 100 37 144 132 144 23 0 62-6 92-12L629-6c-37 13-88 20-134 20-193 0-307-107-307-290v-688H20v-154h168v-266h180v266h230" id="G"/><g id="i"><use transform="matrix(0.008680555555555556,0,0,0.008680555555555556,0,0)" xlink:href="#t"/><use transform="matrix(0.008680555555555556,0,0,0.008680555555555556,9.383680555555555,0)" xlink:href="#q"/><use transform="matrix(0.008680555555555556,0,0,0.008680555555555556,13.689236111111109,0)" xlink:href="#t"/><use transform="matrix(0.008680555555555556,0,0,0.008680555555555556,23.072916666666664,0)" xlink:href="#G"/><use transform="matrix(0.008680555555555556,0,0,0.008680555555555556,28.715277777777775,0)" xlink:href="#w"/><use transform="matrix(0.008680555555555556,0,0,0.008680555555555556,39.07986111111111,0)" xlink:href="#z"/><use transform="matrix(0.008680555555555556,0,0,0.008680555555555556,54.65277777777777,0)" xlink:href="#o"/></g><g id="j"><use transform="matrix(0.008680555555555556,0,0,0.008680555555555556,0,0)" xlink:href="#q"/><use transform="matrix(0.008680555555555556,0,0,0.008680555555555556,4.305555555555555,0)" xlink:href="#y"/><use transform="matrix(0.008680555555555556,0,0,0.008680555555555556,14.548611111111109,0)" xlink:href="#C"/><use transform="matrix(0.008680555555555556,0,0,0.008680555555555556,24.453125,0)" xlink:href="#D"/><use transform="matrix(0.008680555555555556,0,0,0.008680555555555556,34.435763888888886,0)" xlink:href="#p"/><use transform="matrix(0.008680555555555556,0,0,0.008680555555555556,38.74131944444444,0)" xlink:href="#q"/><use transform="matrix(0.008680555555555556,0,0,0.008680555555555556,43.046875,0)" xlink:href="#r"/><use transform="matrix(0.008680555555555556,0,0,0.008680555555555556,53.93229166666667,0)" xlink:href="#s"/><use transform="matrix(0.008680555555555556,0,0,0.008680555555555556,64.5920138888889,0)" xlink:href="#t"/></g><path fill="#666" d="M338-1490V0H158v-1490h180" id="H"/><path fill="#666" d="M613 24c-304 0-509-231-509-576 0-350 205-580 509-580 305 0 511 230 511 580 0 345-206 576-511 576zm0-161c226 0 329-195 329-415 0-222-103-419-329-419-223 0-326 196-326 419 0 220 103 415 326 415" id="I"/><path fill="#666" d="M611 442c-248 0-391-105-460-228l146-94c47 65 117 165 314 165 178 0 307-82 307-266v-224h-17C863-141 792-18 576-18c-268 0-472-195-472-546 0-346 197-568 476-568 216 0 288 133 326 193h17v-179h175V29c0 289-215 413-487 413zm-5-620c203 0 314-146 314-390 0-237-108-403-314-403-213 0-319 180-319 403 0 230 109 390 319 390" id="J"/><path fill="#666" d="M158 0v-1118h180V0H158zm91-1301c-68 0-125-53-125-119s57-119 125-119c69 0 126 53 126 119s-57 119-126 119" id="K"/><path fill="#666" d="M338-670V0H158v-1118h173l1 207c72-158 192-221 342-221 226 0 378 139 378 422V0H872v-695c0-172-96-275-252-275-161 0-282 109-282 300" id="L"/><g id="k"><use transform="matrix(0.0087890625,0,0,0.0087890625,0,0)" xlink:href="#H"/><use transform="matrix(0.0087890625,0,0,0.0087890625,4.359375,0)" xlink:href="#I"/><use transform="matrix(0.0087890625,0,0,0.0087890625,15.15234375,0)" xlink:href="#J"/><use transform="matrix(0.0087890625,0,0,0.0087890625,26.19140625,0)" xlink:href="#K"/><use transform="matrix(0.0087890625,0,0,0.0087890625,30.55078125,0)" xlink:href="#L"/></g><path d="M180 0v-1490h510c348 0 508 209 508 474 0 266-160 477-507 477H370V0H180zm190-706h312c236 0 327-133 327-310 0-176-91-307-329-307H370v617" id="M"/><g id="l"><use transform="matrix(0.0087890625,0,0,0.0087890625,0,0)" xlink:href="#M"/><use transform="matrix(0.0087890625,0,0,0.0087890625,11.49609375,0)" xlink:href="#x"/><use transform="matrix(0.0087890625,0,0,0.0087890625,17.9736328125,0)" xlink:href="#w"/><use transform="matrix(0.0087890625,0,0,0.0087890625,28.4677734375,0)" xlink:href="#w"/><use transform="matrix(0.0087890625,0,0,0.0087890625,38.9619140625,0)" xlink:href="#y"/><use transform="matrix(0.0087890625,0,0,0.0087890625,49.5966796875,0)" xlink:href="#F"/><use transform="matrix(0.0087890625,0,0,0.0087890625,59.8798828125,0)" xlink:href="#A"/><use transform="matrix(0.0087890625,0,0,0.0087890625,70.5234375,0)" xlink:href="#w"/></g><path d="M158 418v-1536h174v179h20c37-59 106-193 324-193 279 0 474 222 474 576 0 356-194 580-473 580-213 0-288-135-325-197h-14v591H158zm492-555c209 0 317-186 317-421 0-232-105-413-317-413-206 0-314 166-314 413 0 249 111 421 314 421" id="N"/><g id="m"><use transform="matrix(0.0087890625,0,0,0.0087890625,0,0)" xlink:href="#F"/><use transform="matrix(0.0087890625,0,0,0.0087890625,10.458984375,0)" xlink:href="#o"/><use transform="matrix(0.0087890625,0,0,0.0087890625,20.56640625,0)" xlink:href="#z"/><use transform="matrix(0.0087890625,0,0,0.0087890625,36.333984375,0)" xlink:href="#N"/><use transform="matrix(0.0087890625,0,0,0.0087890625,47.35546875,0)" xlink:href="#s"/><use transform="matrix(0.0087890625,0,0,0.0087890625,58.1484375,0)" xlink:href="#t"/></g></defs></g></svg>