<svg xmlns="http://www.w3.org/2000/svg" xmlns:xlink="http://www.w3.org/1999/xlink" xmlns:lucid="lucid" width="1326" height="944"><g transform="translate(-430 -208)" lucid:page-tab-id="0_0"><path d="M0 0h3696v3018H0z" fill="#fff"/><path d="M1520 420c0 11.05-8.95 20-20 20s-20-8.95-20-20 8.95-20 20-20 20 8.95 20 20z" stroke="#333"/><path d="M1116 700c-8.84 0-16 7.16-16 16v48c0 8.84 7.16 16 16 16h128c8.84 0 16-7.16 16-16v-48c0-8.84-7.16-16-16-16z" stroke="#333" fill="#fff"/><use xlink:href="#a" transform="matrix(1,0,0,1,1108,708.0000000000001) translate(18.81298828125 27.658203125)"/><use xlink:href="#b" transform="matrix(1,0,0,1,1108,708.0000000000001) translate(104.89306640625 27.658203125)"/><use xlink:href="#c" transform="matrix(1,0,0,1,1108,708.0000000000001) translate(38.17529296875 49.4375)"/><path d="M1380 288a8 8 0 0 1 8-8h224a8 8 0 0 1 8 8v44a8 8 0 0 1-8 8h-224a8 8 0 0 1-8-8z" fill="none"/><use xlink:href="#d" transform="matrix(1,0,0,1,1380,280) translate(49.248046875 36.5478515625)"/><use xlink:href="#e" transform="matrix(1,0,0,1,1380,280) translate(106.74609375 36.5478515625)"/><path d="M1436 540c-8.84 0-16 7.16-16 16v48c0 8.84 7.16 16 16 16h128c8.84 0 16-7.16 16-16v-48c0-8.84-7.16-16-16-16z" stroke="#333" fill="#fff"/><use xlink:href="#f" transform="matrix(1,0,0,1,1428,548) translate(9.9931640625 27.658203125)"/><use xlink:href="#g" transform="matrix(1,0,0,1,1428,548) translate(67.5439453125 27.658203125)"/><use xlink:href="#h" transform="matrix(1,0,0,1,1428,548) translate(46.26123046875 49.4375)"/><use xlink:href="#i" transform="matrix(1,0,0,1,1428,548) translate(79.91455078125 49.4375)"/><path d="M1500 441v82.12" stroke="#333" fill="none"/><path d="M1499.98 440.5l.5-.02v.53h-.95v-.56z" stroke="#333" stroke-width=".05" fill="#333"/><path d="M1500 537.88l-4.63-14.26h9.27z" stroke="#333" fill="#333"/><path d="M1494.34 725.66a8 8 0 0 1 11.32 0l8.68 8.68a8 8 0 0 1 0 11.32l-8.68 8.68a8 8 0 0 1-11.32 0l-8.68-8.68a8 8 0 0 1 0-11.32z" stroke="#333" fill="#fff"/><path d="M1500 621v85.43" stroke="#333" fill="none"/><path d="M1500.47 621h-.94v-.5h.94z" stroke="#333" stroke-width=".05" fill="#333"/><path d="M1500 721.2l-4.63-14.27h9.27z" stroke="#333" fill="#333"/><path d="M1670.47 728.02l-.15 1.93-.45 1.9-.75 1.8-1.03 1.68-1.28 1.5-1.5 1.26-1.66 1.02-1.8.75-1.9.45-1.94.15H1517.7v-.95h140.28l1.82-.14 1.76-.42 1.67-.7 1.54-.94 1.38-1.17 1.17-1.38.95-1.54.7-1.67.4-1.76.16-1.82v-25.43h.94zm-10.52-148.34l1.9.45 1.8.75 1.68 1.03 1.5 1.28 1.26 1.5 1.02 1.66.75 1.8.45 1.9.15 1.94v88.8h-.94V592l-.15-1.82-.42-1.76-.7-1.67-.94-1.54-1.17-1.38-1.38-1.17-1.54-.95-1.67-.7-1.76-.4-1.82-.15h-61.1v-.96h61.14z" stroke="#333" stroke-width=".05" fill="#333"/><path d="M1517.7 740.48h-.55l.04-.48-.05-.48h.55z" fill="#333"/><path stroke="#333" stroke-width=".05" fill="#333"/><path d="M1596.38 584.63l-14.26-4.63 14.26-4.63z" fill="#333"/><path d="M1596.86 585.3l-16.28-5.3 16.28-5.3zm-13.2-5.3l12.25 3.98v-7.96z" stroke="#333" stroke-width=".05" fill="#333"/><use xlink:href="#j" transform="matrix(1,0,0,1,1602.98779296875,680.7664482111811) translate(0.0049999999999954525 17.4375)"/><use xlink:href="#k" transform="matrix(1,0,0,1,1602.98779296875,680.7664482111811) translate(36.602656249999995 17.4375)"/><path d="M1322.94 740.48h-46.06v-.96h46.06zm159.37 0h-61.93v-.96h61.94z" stroke="#333" stroke-width=".05" fill="#333"/><path d="M1482.8 740l.05.48h-.55v-.96h.55z" fill="#333"/><path stroke="#333" stroke-width=".05" fill="#333"/><path d="M1276.38 744.63l-14.26-4.63 14.26-4.63z" fill="#333"/><path d="M1276.86 745.3l-16.28-5.3 16.28-5.3zm-13.2-5.3l12.25 3.98v-7.96z" stroke="#333" stroke-width=".05" fill="#333"/><use xlink:href="#l" transform="matrix(1,0,0,1,1322.9427177424311,729.1103515625) translate(0.005000000000002558 17.4375)"/><path d="M796 700c-8.84 0-16 7.16-16 16v48c0 8.84 7.16 16 16 16h128c8.84 0 16-7.16 16-16v-48c0-8.84-7.16-16-16-16z" stroke="#333" fill="#fff"/><path d="M798 730v20m-10 0v-10h20v10" stroke="#333" fill="none"/><use xlink:href="#m" transform="matrix(1,0,0,1,818,708.0000000000001) translate(6.3304394531249955 27.96212890625)"/><use xlink:href="#n" transform="matrix(1,0,0,1,818,708.0000000000001) translate(58.896328125000004 27.96212890625)"/><use xlink:href="#o" transform="matrix(1,0,0,1,818,708.0000000000001) translate(5.758271484374994 48.216875)"/><use xlink:href="#p" transform="matrix(1,0,0,1,818,708.0000000000001) translate(30.116279296875 48.216875)"/><path d="M854.34 865.66a8 8 0 0 1 11.32 0l8.68 8.68a8 8 0 0 1 0 11.32l-8.68 8.68a8 8 0 0 1-11.32 0l-8.68-8.68a8 8 0 0 1 0-11.32z" stroke="#333" fill="#fff"/><path d="M860 781v65.43" stroke="#333" fill="none"/><path d="M860.48 781h-.96v-.5h.96z" stroke="#333" stroke-width=".05" fill="#333"/><path d="M860 861.2l-4.63-14.27h9.26z" stroke="#333" fill="#333"/><path d="M1099 740H956.88" stroke="#333" fill="none"/><path d="M1099.5 740.48h-.5v-.96h.5z" stroke="#333" stroke-width=".05" fill="#333"/><path d="M942.12 740l14.26-4.63v9.26z" stroke="#333" fill="#333"/><path d="M1012.14 880.48H877.7v-.96h134.44zM1180.47 868l-.15 1.93-.45 1.9-.75 1.8-1.03 1.68-1.28 1.5-1.5 1.26-1.66 1.02-1.8.75-1.9.45-1.94.15h-23.47v-.95h23.43l1.82-.14 1.76-.42 1.67-.7 1.54-.94 1.38-1.17 1.17-1.38.95-1.54.7-1.67.4-1.76.16-1.82v-71.1h.94z" stroke="#333" stroke-width=".05" fill="#333"/><path d="M877.7 880.48h-.55l.04-.48-.05-.48h.55z" fill="#333"/><path stroke="#333" stroke-width=".05" fill="#333"/><path d="M1184.63 796.38h-9.27l4.64-14.26z" fill="#333"/><path d="M1185.3 796.86h-10.6l5.3-16.28zm-9.28-.95h7.96l-3.98-12.25z" stroke="#333" stroke-width=".05" fill="#333"/><use xlink:href="#q" transform="matrix(1,0,0,1,1012.1402900700687,869.1103515625) translate(0.0049999999999954525 17.4375)"/><use xlink:href="#r" transform="matrix(1,0,0,1,1012.1402900700687,869.1103515625) translate(57.511835937499995 17.4375)"/><path d="M476 840c-8.84 0-16 7.16-16 16v48c0 8.84 7.16 16 16 16h128c8.84 0 16-7.16 16-16v-48c0-8.84-7.16-16-16-16z" stroke="#333" fill="#fff"/><use xlink:href="#s" transform="matrix(1,0,0,1,468,848) translate(4.34619140625 38.5478515625)"/><use xlink:href="#t" transform="matrix(1,0,0,1,468,848) translate(55.64794921875 38.5478515625)"/><path d="M672.82 880.48h-35.94v-.96h35.94zm169.5 0h-51.83v-.96h51.8z" stroke="#333" stroke-width=".05" fill="#333"/><path d="M842.8 880l.05.48h-.55v-.96h.55z" fill="#333"/><path stroke="#333" stroke-width=".05" fill="#333"/><path d="M636.38 884.63L622.12 880l14.26-4.63z" fill="#333"/><path d="M636.86 885.3l-16.28-5.3 16.28-5.3zm-13.2-5.3l12.25 3.98v-7.96z" stroke="#333" stroke-width=".05" fill="#333"/><g><use xlink:href="#u" transform="matrix(1,0,0,1,672.8177177424312,869.1103515625) translate(0.005000000000002558 17.4375)"/><use xlink:href="#v" transform="matrix(1,0,0,1,672.8177177424312,869.1103515625) translate(57.5118359375 17.4375)"/></g><path d="M540 921v82.12" stroke="#333" fill="none"/><path d="M540.48 921h-.96v-.5h.96z" stroke="#333" stroke-width=".05" fill="#333"/><path d="M540 1017.88l-4.63-14.26h9.26z" stroke="#333" fill="#333"/><path d="M560 1040c0 11.05-8.95 20-20 20s-20-8.95-20-20 8.95-20 20-20 20 8.95 20 20z" stroke="#333" fill="#fff"/><path d="M552 1040c0 6.63-5.37 12-12 12s-12-5.37-12-12 5.37-12 12-12 12 5.37 12 12z" stroke="#333"/><defs><path d="M180 0v-1490h510c348 0 508 209 508 474 0 266-160 477-507 477H370V0H180zm190-706h312c236 0 327-133 327-310 0-176-91-307-329-307H370v617" id="w"/><path d="M158 0v-1118h174v172h12c41-113 157-188 290-188 26 0 70 2 91 3v181c-11-2-60-10-108-10-161 0-279 109-279 260V0H158" id="x"/><path d="M628 24c-324 0-524-230-524-574 0-343 198-582 503-582 237 0 487 146 487 559v75H286c9 234 145 362 343 362 132 0 231-58 273-172l174 48C1024-91 857 24 628 24zM287-650h624c-17-190-120-322-304-322-192 0-309 151-320 322" id="y"/><path d="M338-670V0H158v-1118h173l1 207c72-158 192-221 342-221 226 0 378 139 378 422V0H872v-695c0-172-96-275-252-275-161 0-282 109-282 300" id="z"/><path d="M613 24c-304 0-509-231-509-576 0-350 205-580 509-580 216 0 392 114 453 309l-173 49c-33-115-133-197-280-197-223 0-326 196-326 419 0 220 103 415 326 415 150 0 252-85 285-206l172 49C1010-95 832 24 613 24" id="A"/><path d="M338-670V0H158v-1490h180v566c73-149 190-208 336-208 226 0 379 139 379 422V0H872v-695c0-172-96-275-252-275-161 0-282 109-282 300" id="B"/><g id="a"><use transform="matrix(0.0087890625,0,0,0.0087890625,0,0)" xlink:href="#w"/><use transform="matrix(0.0087890625,0,0,0.0087890625,11.49609375,0)" xlink:href="#x"/><use transform="matrix(0.0087890625,0,0,0.0087890625,17.9736328125,0)" xlink:href="#y"/><use transform="matrix(0.0087890625,0,0,0.0087890625,28.4677734375,0)" xlink:href="#y"/><use transform="matrix(0.0087890625,0,0,0.0087890625,38.9619140625,0)" xlink:href="#z"/><use transform="matrix(0.0087890625,0,0,0.0087890625,49.5966796875,0)" xlink:href="#A"/><use transform="matrix(0.0087890625,0,0,0.0087890625,59.8798828125,0)" xlink:href="#B"/><use transform="matrix(0.0087890625,0,0,0.0087890625,70.5234375,0)" xlink:href="#y"/></g><path d="M613 24c-304 0-509-231-509-576 0-350 205-580 509-580 305 0 511 230 511 580 0 345-206 576-511 576zm0-161c226 0 329-195 329-415 0-222-103-419-329-419-223 0-326 196-326 419 0 220 103 415 326 415" id="C"/><path d="M538 24C308 24 148-78 108-271l171-41c32 123 123 178 257 178 156 0 256-77 256-169 0-77-54-128-164-154l-186-44c-203-48-300-148-300-305 0-192 176-326 414-326 230 0 351 112 402 269l-163 42c-31-80-94-158-238-158-133 0-233 69-233 162 0 83 57 129 188 160l169 40c203 48 298 149 298 302 0 196-179 339-441 339" id="D"/><g id="b"><use transform="matrix(0.0087890625,0,0,0.0087890625,0,0)" xlink:href="#C"/><use transform="matrix(0.0087890625,0,0,0.0087890625,10.79296875,0)" xlink:href="#D"/></g><path d="M471 26C259 26 90-98 90-318c0-256 228-303 435-329 202-27 287-16 287-108 0-139-79-219-234-219-161 0-248 86-283 164l-173-57c86-203 278-265 451-265 150 0 419 46 419 395V0H815v-152h-12C765-73 660 26 471 26zm31-159c199 0 310-134 310-271v-155c-30 35-226 55-295 64-131 17-246 59-246 186 0 116 97 176 231 176" id="E"/><path d="M158 0v-1118h175l1 205c55-151 181-225 313-225 147 0 245 90 285 228 53-141 190-228 352-228 194 0 352 125 352 384V0h-181v-749c0-161-105-225-225-225-151 0-243 103-243 244V0H807v-767c0-124-93-207-219-207-131 0-250 92-250 270V0H158" id="F"/><path d="M158 418v-1536h174v179h20c37-59 106-193 324-193 279 0 474 222 474 576 0 356-194 580-473 580-213 0-288-135-325-197h-14v591H158zm492-555c209 0 317-186 317-421 0-232-105-413-317-413-206 0-314 166-314 413 0 249 111 421 314 421" id="G"/><g id="c"><use transform="matrix(0.0087890625,0,0,0.0087890625,0,0)" xlink:href="#A"/><use transform="matrix(0.0087890625,0,0,0.0087890625,10.458984375,0)" xlink:href="#E"/><use transform="matrix(0.0087890625,0,0,0.0087890625,20.56640625,0)" xlink:href="#F"/><use transform="matrix(0.0087890625,0,0,0.0087890625,36.333984375,0)" xlink:href="#G"/><use transform="matrix(0.0087890625,0,0,0.0087890625,47.35546875,0)" xlink:href="#C"/><use transform="matrix(0.0087890625,0,0,0.0087890625,58.1484375,0)" xlink:href="#D"/></g><path fill="#666" d="M370-1490V0H180v-1490h190" id="H"/><path fill="#666" d="M338-670V0H158v-1118h173l1 207c72-158 192-221 342-221 226 0 378 139 378 422V0H872v-695c0-172-96-275-252-275-161 0-282 109-282 300" id="I"/><path fill="#666" d="M538 24C308 24 148-78 108-271l171-41c32 123 123 178 257 178 156 0 256-77 256-169 0-77-54-128-164-154l-186-44c-203-48-300-148-300-305 0-192 176-326 414-326 230 0 351 112 402 269l-163 42c-31-80-94-158-238-158-133 0-233 69-233 162 0 83 57 129 188 160l169 40c203 48 298 149 298 302 0 196-179 339-441 339" id="J"/><path fill="#666" d="M628 24c-324 0-524-230-524-574 0-343 198-582 503-582 237 0 487 146 487 559v75H286c9 234 145 362 343 362 132 0 231-58 273-172l174 48C1024-91 857 24 628 24zM287-650h624c-17-190-120-322-304-322-192 0-309 151-320 322" id="K"/><path fill="#666" d="M158 0v-1118h174v172h12c41-113 157-188 290-188 26 0 70 2 91 3v181c-11-2-60-10-108-10-161 0-279 109-279 260V0H158" id="L"/><g id="d"><use transform="matrix(0.0087890625,0,0,0.0087890625,0,0)" xlink:href="#H"/><use transform="matrix(0.0087890625,0,0,0.0087890625,4.833984375,0)" xlink:href="#I"/><use transform="matrix(0.0087890625,0,0,0.0087890625,15.46875,0)" xlink:href="#J"/><use transform="matrix(0.0087890625,0,0,0.0087890625,24.9697265625,0)" xlink:href="#K"/><use transform="matrix(0.0087890625,0,0,0.0087890625,35.4638671875,0)" xlink:href="#L"/><use transform="matrix(0.0087890625,0,0,0.0087890625,41.94140625,0)" xlink:href="#K"/></g><path fill="#666" d="M158 418v-1536h174v179h20c37-59 106-193 324-193 279 0 474 222 474 576 0 356-194 580-473 580-213 0-288-135-325-197h-14v591H158zm492-555c209 0 317-186 317-421 0-232-105-413-317-413-206 0-314 166-314 413 0 249 111 421 314 421" id="M"/><path fill="#666" d="M613 24c-304 0-509-231-509-576 0-350 205-580 509-580 305 0 511 230 511 580 0 345-206 576-511 576zm0-161c226 0 329-195 329-415 0-222-103-419-329-419-223 0-326 196-326 419 0 220 103 415 326 415" id="N"/><path fill="#666" d="M158 0v-1118h180V0H158zm91-1301c-68 0-125-53-125-119s57-119 125-119c69 0 126 53 126 119s-57 119-126 119" id="O"/><path fill="#666" d="M502 418V313h118c73 0 98-17 98-66s-25-65-98-65h-82l21-161C285-4 104-228 104-552c0-350 205-580 509-580 216 0 392 114 453 309l-173 49c-33-115-133-197-280-197-223 0-326 196-326 419 0 220 103 415 326 415 150 0 252-85 285-206l172 49C1015-110 859 5 663 22v64c130 5 189 54 189 162 0 118-71 170-231 170H502" id="P"/><path fill="#666" d="M471 26C259 26 90-98 90-318c0-256 228-303 435-329 202-27 287-16 287-108 0-139-79-219-234-219-161 0-248 86-283 164l-173-57c86-203 278-265 451-265 150 0 419 46 419 395V0H815v-152h-12C765-73 660 26 471 26zm31-159c199 0 310-134 310-271v-155c-30 35-226 55-295 64-131 17-246 59-246 186 0 116 97 176 231 176zm187-1180c-99 0-192-83-243-83-35 0-51 40-53 79H267c4-120 55-208 162-208 104 0 174 85 241 85 33 0 49-23 56-81h123c-4 126-62 208-160 208" id="Q"/><g id="e"><use transform="matrix(0.0087890625,0,0,0.0087890625,0,0)" xlink:href="#L"/><use transform="matrix(0.0087890625,0,0,0.0087890625,6.4775390625,0)" xlink:href="#K"/><use transform="matrix(0.0087890625,0,0,0.0087890625,16.9716796875,0)" xlink:href="#M"/><use transform="matrix(0.0087890625,0,0,0.0087890625,27.9931640625,0)" xlink:href="#N"/><use transform="matrix(0.0087890625,0,0,0.0087890625,38.7861328125,0)" xlink:href="#J"/><use transform="matrix(0.0087890625,0,0,0.0087890625,48.287109375,0)" xlink:href="#O"/><use transform="matrix(0.0087890625,0,0,0.0087890625,52.646484375,0)" xlink:href="#P"/><use transform="matrix(0.0087890625,0,0,0.0087890625,63.10546875,0)" xlink:href="#Q"/><use transform="matrix(0.0087890625,0,0,0.0087890625,73.212890625,0)" xlink:href="#N"/></g><path d="M180 0v-1490h528c311 0 458 177 458 395 0 191-114 278-244 313v14c139 9 302 137 302 371 0 225-148 397-499 397H180zm190-168h350c232 0 321-102 321-231 0-149-120-277-311-277H370v508zm0-668h328c160 0 286-101 286-255 0-129-87-231-280-231H370v486" id="R"/><path d="M537 14c-226 0-379-139-379-422v-710h180v695c0 172 97 275 253 275 160 0 281-109 281-300v-670h181V0H879v-209C806-46 684 14 537 14" id="S"/><g id="f"><use transform="matrix(0.0087890625,0,0,0.0087890625,0,0)" xlink:href="#R"/><use transform="matrix(0.0087890625,0,0,0.0087890625,11.77734375,0)" xlink:href="#S"/><use transform="matrix(0.0087890625,0,0,0.0087890625,22.4208984375,0)" xlink:href="#D"/><use transform="matrix(0.0087890625,0,0,0.0087890625,31.921875,0)" xlink:href="#A"/><use transform="matrix(0.0087890625,0,0,0.0087890625,42.380859375,0)" xlink:href="#E"/></g><path d="M577 24c-279 0-473-224-473-580 0-354 195-576 474-576 218 0 287 134 324 193h14v-551h180V0H922v-173h-20C865-111 790 24 577 24zm27-161c203 0 314-172 314-421 0-247-108-413-314-413-212 0-317 181-317 413 0 235 108 421 317 421" id="T"/><path d="M598-1118v154H368v674c0 100 37 144 132 144 23 0 62-6 92-12L629-6c-37 13-88 20-134 20-193 0-307-107-307-290v-688H20v-154h168v-266h180v266h230" id="U"/><g id="g"><use transform="matrix(0.0087890625,0,0,0.0087890625,0,0)" xlink:href="#G"/><use transform="matrix(0.0087890625,0,0,0.0087890625,11.021484375,0)" xlink:href="#x"/><use transform="matrix(0.0087890625,0,0,0.0087890625,17.4990234375,0)" xlink:href="#C"/><use transform="matrix(0.0087890625,0,0,0.0087890625,28.2919921875,0)" xlink:href="#T"/><use transform="matrix(0.0087890625,0,0,0.0087890625,39.3134765625,0)" xlink:href="#S"/><use transform="matrix(0.0087890625,0,0,0.0087890625,49.95703125,0)" xlink:href="#U"/><use transform="matrix(0.0087890625,0,0,0.0087890625,55.669921875,0)" xlink:href="#C"/></g><g id="h"><use transform="matrix(0.0087890625,0,0,0.0087890625,0,0)" xlink:href="#G"/><use transform="matrix(0.0087890625,0,0,0.0087890625,11.021484375,0)" xlink:href="#C"/><use transform="matrix(0.0087890625,0,0,0.0087890625,21.814453125,0)" xlink:href="#x"/></g><path d="M370-1490V0H180v-1490h190" id="V"/><path d="M645 0H180v-1490h484c435 0 692 280 692 742 0 466-257 748-711 748zM370-168h263c363 0 539-218 539-580 0-358-176-574-521-574H370v1154" id="W"/><g id="i"><use transform="matrix(0.0087890625,0,0,0.0087890625,0,0)" xlink:href="#V"/><use transform="matrix(0.0087890625,0,0,0.0087890625,4.833984375,0)" xlink:href="#W"/></g><path d="M471 26C259 26 90-98 90-318c0-256 228-303 435-329 202-27 287-16 287-108 0-139-79-219-234-219-161 0-248 86-283 164l-173-57c86-203 278-265 451-265 150 0 419 46 419 395V0H815v-152h-12C765-73 660 26 471 26zm31-159c199 0 310-134 310-271v-155c-30 35-226 55-295 64-131 17-246 59-246 186 0 116 97 176 231 176zm187-1180c-99 0-192-83-243-83-35 0-51 40-53 79H267c4-120 55-208 162-208 104 0 174 85 241 85 33 0 49-23 56-81h123c-4 126-62 208-160 208" id="X"/><g id="j"><use transform="matrix(0.0087890625,0,0,0.0087890625,0,0)" xlink:href="#z"/><use transform="matrix(0.0087890625,0,0,0.0087890625,10.634765625,0)" xlink:href="#X"/><use transform="matrix(0.0087890625,0,0,0.0087890625,20.7421875,0)" xlink:href="#C"/></g><g id="k"><use transform="matrix(0.0087890625,0,0,0.0087890625,0,0)" xlink:href="#y"/><use transform="matrix(0.0087890625,0,0,0.0087890625,10.494140625,0)" xlink:href="#z"/><use transform="matrix(0.0087890625,0,0,0.0087890625,21.12890625,0)" xlink:href="#A"/><use transform="matrix(0.0087890625,0,0,0.0087890625,31.412109375,0)" xlink:href="#C"/><use transform="matrix(0.0087890625,0,0,0.0087890625,42.205078125,0)" xlink:href="#z"/><use transform="matrix(0.0087890625,0,0,0.0087890625,52.83984375,0)" xlink:href="#U"/><use transform="matrix(0.0087890625,0,0,0.0087890625,58.728515625,0)" xlink:href="#x"/><use transform="matrix(0.0087890625,0,0,0.0087890625,65.5048828125,0)" xlink:href="#E"/><use transform="matrix(0.0087890625,0,0,0.0087890625,75.6123046875,0)" xlink:href="#T"/><use transform="matrix(0.0087890625,0,0,0.0087890625,86.6337890625,0)" xlink:href="#C"/></g><g id="l"><use transform="matrix(0.0087890625,0,0,0.0087890625,0,0)" xlink:href="#y"/><use transform="matrix(0.0087890625,0,0,0.0087890625,10.494140625,0)" xlink:href="#z"/><use transform="matrix(0.0087890625,0,0,0.0087890625,21.12890625,0)" xlink:href="#A"/><use transform="matrix(0.0087890625,0,0,0.0087890625,31.412109375,0)" xlink:href="#C"/><use transform="matrix(0.0087890625,0,0,0.0087890625,42.205078125,0)" xlink:href="#z"/><use transform="matrix(0.0087890625,0,0,0.0087890625,52.83984375,0)" xlink:href="#U"/><use transform="matrix(0.0087890625,0,0,0.0087890625,58.728515625,0)" xlink:href="#x"/><use transform="matrix(0.0087890625,0,0,0.0087890625,65.5048828125,0)" xlink:href="#E"/><use transform="matrix(0.0087890625,0,0,0.0087890625,75.6123046875,0)" xlink:href="#T"/><use transform="matrix(0.0087890625,0,0,0.0087890625,86.6337890625,0)" xlink:href="#C"/></g><path d="M600 0L52-1490h200c166 485 304 806 458 1336 156-533 285-846 449-1336h202L819 0H600" id="Y"/><path d="M338-1490V0H158v-1490h180" id="Z"/><path d="M158 0v-1118h180V0H158zm91-1301c-68 0-125-53-125-119s57-119 125-119c69 0 126 53 126 119s-57 119-126 119" id="aa"/><g id="m"><use transform="matrix(0.008173828125000001,0,0,0.008173828125000001,0,0)" xlink:href="#Y"/><use transform="matrix(0.008173828125000001,0,0,0.008173828125000001,10.699541015625002,0)" xlink:href="#E"/><use transform="matrix(0.008173828125000001,0,0,0.008173828125000001,20.099443359375,0)" xlink:href="#Z"/><use transform="matrix(0.008173828125000001,0,0,0.008173828125000001,24.153662109375002,0)" xlink:href="#aa"/><use transform="matrix(0.008173828125000001,0,0,0.008173828125000001,28.207880859375003,0)" xlink:href="#T"/><use transform="matrix(0.008173828125000001,0,0,0.008173828125000001,38.457861328125006,0)" xlink:href="#E"/></g><g id="n"><use transform="matrix(0.008173828125000001,0,0,0.008173828125000001,0,0)" xlink:href="#T"/><use transform="matrix(0.008173828125000001,0,0,0.008173828125000001,10.249980468750001,0)" xlink:href="#E"/><use transform="matrix(0.008173828125000001,0,0,0.008173828125000001,19.649882812500003,0)" xlink:href="#T"/><use transform="matrix(0.008173828125000001,0,0,0.008173828125000001,29.899863281250006,0)" xlink:href="#C"/><use transform="matrix(0.008173828125000001,0,0,0.008173828125000001,39.93732421875001,0)" xlink:href="#D"/></g><g id="o"><use transform="matrix(0.008173828125000001,0,0,0.008173828125000001,0,0)" xlink:href="#T"/><use transform="matrix(0.008173828125000001,0,0,0.008173828125000001,10.249980468750001,0)" xlink:href="#E"/></g><path d="M502 418V313h118c73 0 98-17 98-66s-25-65-98-65h-82l21-161C285-4 104-228 104-552c0-350 205-580 509-580 216 0 392 114 453 309l-173 49c-33-115-133-197-280-197-223 0-326 196-326 419 0 220 103 415 326 415 150 0 252-85 285-206l172 49C1015-110 859 5 663 22v64c130 5 189 54 189 162 0 118-71 170-231 170H502" id="ab"/><g id="p"><use transform="matrix(0.008173828125000001,0,0,0.008173828125000001,0,0)" xlink:href="#x"/><use transform="matrix(0.008173828125000001,0,0,0.008173828125000001,6.0241113281250005,0)" xlink:href="#y"/><use transform="matrix(0.008173828125000001,0,0,0.008173828125000001,15.783662109375001,0)" xlink:href="#G"/><use transform="matrix(0.008173828125000001,0,0,0.008173828125000001,26.033642578125004,0)" xlink:href="#C"/><use transform="matrix(0.008173828125000001,0,0,0.008173828125000001,36.071103515625005,0)" xlink:href="#D"/><use transform="matrix(0.008173828125000001,0,0,0.008173828125000001,44.907011718750006,0)" xlink:href="#aa"/><use transform="matrix(0.008173828125000001,0,0,0.008173828125000001,48.96123046875,0)" xlink:href="#ab"/><use transform="matrix(0.008173828125000001,0,0,0.008173828125000001,58.688085937500006,0)" xlink:href="#X"/><use transform="matrix(0.008173828125000001,0,0,0.008173828125000001,68.08798828125,0)" xlink:href="#C"/></g><g id="q"><use transform="matrix(0.0087890625,0,0,0.0087890625,0,0)" xlink:href="#T"/><use transform="matrix(0.0087890625,0,0,0.0087890625,11.021484375,0)" xlink:href="#E"/><use transform="matrix(0.0087890625,0,0,0.0087890625,21.12890625,0)" xlink:href="#T"/><use transform="matrix(0.0087890625,0,0,0.0087890625,32.150390625,0)" xlink:href="#C"/><use transform="matrix(0.0087890625,0,0,0.0087890625,42.943359375,0)" xlink:href="#D"/></g><path d="M481 0L54-1118h197c107 314 236 620 325 951 87-331 217-637 324-951h197L670 0H481" id="ac"/><path d="M471 26C259 26 90-98 90-318c0-256 228-303 435-329 202-27 287-16 287-108 0-139-79-219-234-219-161 0-248 86-283 164l-173-57c86-203 278-265 451-265 150 0 419 46 419 395V0H815v-152h-12C765-73 660 26 471 26zm31-159c199 0 310-134 310-271v-155c-30 35-226 55-295 64-131 17-246 59-246 186 0 116 97 176 231 176zm-23-1131l140-294h201l-194 294H479" id="ad"/><g id="r"><use transform="matrix(0.0087890625,0,0,0.0087890625,0,0)" xlink:href="#aa"/><use transform="matrix(0.0087890625,0,0,0.0087890625,4.359375,0)" xlink:href="#z"/><use transform="matrix(0.0087890625,0,0,0.0087890625,14.73046875,0)" xlink:href="#ac"/><use transform="matrix(0.0087890625,0,0,0.0087890625,24.7587890625,0)" xlink:href="#ad"/><use transform="matrix(0.0087890625,0,0,0.0087890625,34.8662109375,0)" xlink:href="#Z"/><use transform="matrix(0.0087890625,0,0,0.0087890625,39.2255859375,0)" xlink:href="#aa"/><use transform="matrix(0.0087890625,0,0,0.0087890625,43.5849609375,0)" xlink:href="#T"/><use transform="matrix(0.0087890625,0,0,0.0087890625,54.6064453125,0)" xlink:href="#C"/><use transform="matrix(0.0087890625,0,0,0.0087890625,65.3994140625,0)" xlink:href="#D"/></g><path d="M657 26c-323 0-524-166-541-416h195c15 169 171 246 346 246 202 0 356-106 356-265 5-203-294-238-475-293-239-73-380-191-380-389 0-252 224-419 512-419 294 0 499 171 508 396H992c-17-145-151-228-328-228-193 0-321 102-321 242 0 156 175 211 284 241l149 41c160 44 422 134 422 412 0 244-197 432-541 432" id="ae"/><g id="s"><use transform="matrix(0.0087890625,0,0,0.0087890625,0,0)" xlink:href="#ae"/><use transform="matrix(0.0087890625,0,0,0.0087890625,11.548828125,0)" xlink:href="#E"/><use transform="matrix(0.0087890625,0,0,0.0087890625,21.65625,0)" xlink:href="#Z"/><use transform="matrix(0.0087890625,0,0,0.0087890625,26.103515625,0)" xlink:href="#ac"/><use transform="matrix(0.0087890625,0,0,0.0087890625,36.1318359375,0)" xlink:href="#E"/></g><g id="t"><use transform="matrix(0.0087890625,0,0,0.0087890625,0,0)" xlink:href="#x"/><use transform="matrix(0.0087890625,0,0,0.0087890625,6.4775390625,0)" xlink:href="#y"/><use transform="matrix(0.0087890625,0,0,0.0087890625,16.9716796875,0)" xlink:href="#G"/><use transform="matrix(0.0087890625,0,0,0.0087890625,27.9931640625,0)" xlink:href="#C"/><use transform="matrix(0.0087890625,0,0,0.0087890625,38.7861328125,0)" xlink:href="#D"/><use transform="matrix(0.0087890625,0,0,0.0087890625,48.287109375,0)" xlink:href="#aa"/><use transform="matrix(0.0087890625,0,0,0.0087890625,52.646484375,0)" xlink:href="#ab"/><use transform="matrix(0.0087890625,0,0,0.0087890625,63.10546875,0)" xlink:href="#X"/><use transform="matrix(0.0087890625,0,0,0.0087890625,73.212890625,0)" xlink:href="#C"/></g><g id="u"><use transform="matrix(0.0087890625,0,0,0.0087890625,0,0)" xlink:href="#T"/><use transform="matrix(0.0087890625,0,0,0.0087890625,11.021484375,0)" xlink:href="#E"/><use transform="matrix(0.0087890625,0,0,0.0087890625,21.12890625,0)" xlink:href="#T"/><use transform="matrix(0.0087890625,0,0,0.0087890625,32.150390625,0)" xlink:href="#C"/><use transform="matrix(0.0087890625,0,0,0.0087890625,42.943359375,0)" xlink:href="#D"/></g><g id="v"><use transform="matrix(0.0087890625,0,0,0.0087890625,0,0)" xlink:href="#ac"/><use transform="matrix(0.0087890625,0,0,0.0087890625,10.0283203125,0)" xlink:href="#ad"/><use transform="matrix(0.0087890625,0,0,0.0087890625,20.1357421875,0)" xlink:href="#Z"/><use transform="matrix(0.0087890625,0,0,0.0087890625,24.4951171875,0)" xlink:href="#aa"/><use transform="matrix(0.0087890625,0,0,0.0087890625,28.8544921875,0)" xlink:href="#T"/><use transform="matrix(0.0087890625,0,0,0.0087890625,39.8759765625,0)" xlink:href="#C"/><use transform="matrix(0.0087890625,0,0,0.0087890625,50.6689453125,0)" xlink:href="#D"/></g></defs></g></svg>