<svg xmlns="http://www.w3.org/2000/svg" xmlns:xlink="http://www.w3.org/1999/xlink" contentstyletype="text/css" data-diagram-type="CLASS" height="134px" preserveAspectRatio="none" style="width:140px;height:134px;background:#FFFFFF;" version="1.1" viewBox="0 0 140 134" width="140px" zoomAndPan="magnify"><defs></defs><g><!--class Usuario--><g id="elem_Usuario"><rect codeline="1" fill="#F1F1F1" height="113.1875" id="Usuario" rx="2.5" ry="2.5" style="stroke:#181818;stroke-width:0.5;" width="119.1807" x="7" y="7"></rect><ellipse cx="37.2895" cy="23" fill="#ADD1B2" rx="11" ry="11" style="stroke:#181818;stroke-width:1;"></ellipse><path d="M40.2582,28.6406 Q39.6801,28.9375 39.0395,29.0781 Q38.3988,29.2344 37.6957,29.2344 Q35.1957,29.2344 33.8676,27.5938 Q32.5551,25.9375 32.5551,22.8125 Q32.5551,19.6875 33.8676,18.0313 Q35.1957,16.375 37.6957,16.375 Q38.3988,16.375 39.0395,16.5313 Q39.6957,16.6875 40.2582,16.9844 L40.2582,19.7031 Q39.6332,19.125 39.0395,18.8594 Q38.4457,18.5781 37.8207,18.5781 Q36.477,18.5781 35.7895,19.6563 Q35.102,20.7188 35.102,22.8125 Q35.102,24.9063 35.7895,25.9844 Q36.477,27.0469 37.8207,27.0469 Q38.4457,27.0469 39.0395,26.7813 Q39.6332,26.5 40.2582,25.9219 L40.2582,28.6406 Z " fill="#000000"></path><text fill="#000000" font-family="sans-serif" font-size="14" lengthAdjust="spacing" textLength="53.2041" x="54.6871" y="27.8467">Usuario</text><line style="stroke:#181818;stroke-width:0.5;" x1="8" x2="125.1807" y1="39" y2="39"></line><rect fill="none" height="6" style="stroke:#C82930;stroke-width:1;" width="6" x="15" y="49.6484"></rect><text fill="#000000" font-family="sans-serif" font-size="14" lengthAdjust="spacing" textLength="56.0684" x="27" y="55.9951">id: Long</text><rect fill="none" height="6" style="stroke:#C82930;stroke-width:1;" width="6" x="15" y="65.9453"></rect><text fill="#000000" font-family="sans-serif" font-size="14" lengthAdjust="spacing" textLength="90.6377" x="27" y="72.292">nome: String</text><rect fill="none" height="6" style="stroke:#C82930;stroke-width:1;" width="6" x="15" y="82.2422"></rect><text fill="#000000" font-family="sans-serif" font-size="14" lengthAdjust="spacing" textLength="93.1807" x="27" y="88.5889">senha: String</text><rect fill="none" height="6" style="stroke:#C82930;stroke-width:1;" width="6" x="15" y="98.5391"></rect><text fill="#000000" font-family="sans-serif" font-size="14" lengthAdjust="spacing" textLength="90.4326" x="27" y="104.8857">cargo: String</text><line style="stroke:#181818;stroke-width:0.5;" x1="8" x2="125.1807" y1="112.1875" y2="112.1875"></line></g><!--SRC=[Iyv9B2vM22qkJIpAp5UeLb1GuEBKLSXCiLBmoSzB1x7pydDJhHI2IueoyzAXqiMfUHc9Q6B9YKNf-N0nhbe0]--></g></svg>