<svg xmlns="http://www.w3.org/2000/svg" xmlns:xlink="http://www.w3.org/1999/xlink" contentstyletype="text/css" data-diagram-type="CLASS" height="317px" preserveAspectRatio="none" style="width:528px;height:317px;background:#FFFFFF;" version="1.1" viewBox="0 0 528 317" width="528px" zoomAndPan="magnify"><defs></defs><g><!--class Venda--><g id="elem_Venda"><rect codeline="1" fill="#F1F1F1" height="80.5938" id="Venda" rx="2.5" ry="2.5" style="stroke:#181818;stroke-width:0.5;" width="100.1631" x="7" y="7"></rect><ellipse cx="32.6352" cy="23" fill="#ADD1B2" rx="11" ry="11" style="stroke:#181818;stroke-width:1;"></ellipse><path d="M35.604,28.6406 Q35.0258,28.9375 34.3852,29.0781 Q33.7446,29.2344 33.0415,29.2344 Q30.5415,29.2344 29.2133,27.5938 Q27.9008,25.9375 27.9008,22.8125 Q27.9008,19.6875 29.2133,18.0313 Q30.5415,16.375 33.0415,16.375 Q33.7446,16.375 34.3852,16.5313 Q35.0415,16.6875 35.604,16.9844 L35.604,19.7031 Q34.979,19.125 34.3852,18.8594 Q33.7915,18.5781 33.1665,18.5781 Q31.8227,18.5781 31.1352,19.6563 Q30.4477,20.7188 30.4477,22.8125 Q30.4477,24.9063 31.1352,25.9844 Q31.8227,27.0469 33.1665,27.0469 Q33.7915,27.0469 34.3852,26.7813 Q34.979,26.5 35.604,25.9219 L35.604,28.6406 Z " fill="#000000"></path><text fill="#000000" font-family="sans-serif" font-size="14" lengthAdjust="spacing" textLength="44.5293" x="48.9986" y="27.8467">Venda</text><line style="stroke:#181818;stroke-width:0.5;" x1="8" x2="106.1631" y1="39" y2="39"></line><rect fill="none" height="6" style="stroke:#C82930;stroke-width:1;" width="6" x="15" y="49.6484"></rect><text fill="#000000" font-family="sans-serif" font-size="14" lengthAdjust="spacing" textLength="56.0684" x="27" y="55.9951">id: Long</text><rect fill="none" height="6" style="stroke:#C82930;stroke-width:1;" width="6" x="15" y="65.9453"></rect><text fill="#000000" font-family="sans-serif" font-size="14" lengthAdjust="spacing" textLength="74.1631" x="27" y="72.292">data: Date</text><line style="stroke:#181818;stroke-width:0.5;" x1="8" x2="106.1631" y1="79.5938" y2="79.5938"></line></g><!--class VendaProduto--><g id="elem_VendaProduto"><rect codeline="6" fill="#F1F1F1" height="145.7813" id="VendaProduto" rx="2.5" ry="2.5" style="stroke:#181818;stroke-width:0.5;" width="144.0908" x="122.04" y="164.6"></rect><ellipse cx="142.8825" cy="180.6" fill="#ADD1B2" rx="11" ry="11" style="stroke:#181818;stroke-width:1;"></ellipse><path d="M145.8513,186.2406 Q145.2732,186.5375 144.6325,186.6781 Q143.9919,186.8344 143.2888,186.8344 Q140.7888,186.8344 139.4607,185.1938 Q138.1482,183.5375 138.1482,180.4125 Q138.1482,177.2875 139.4607,175.6313 Q140.7888,173.975 143.2888,173.975 Q143.9919,173.975 144.6325,174.1313 Q145.2888,174.2875 145.8513,174.5844 L145.8513,177.3031 Q145.2263,176.725 144.6325,176.4594 Q144.0388,176.1781 143.4138,176.1781 Q142.07,176.1781 141.3825,177.2563 Q140.695,178.3188 140.695,180.4125 Q140.695,182.5063 141.3825,183.5844 Q142.07,184.6469 143.4138,184.6469 Q144.0388,184.6469 144.6325,184.3813 Q145.2263,184.1 145.8513,183.5219 L145.8513,186.2406 Z " fill="#000000"></path><text fill="#000000" font-family="sans-serif" font-size="14" lengthAdjust="spacing" textLength="99.1074" x="158.1809" y="185.4467">VendaProduto</text><line style="stroke:#181818;stroke-width:0.5;" x1="123.04" x2="265.1308" y1="196.6" y2="196.6"></line><rect fill="none" height="6" style="stroke:#C82930;stroke-width:1;" width="6" x="130.04" y="207.2484"></rect><text fill="#000000" font-family="sans-serif" font-size="14" lengthAdjust="spacing" textLength="56.0684" x="142.04" y="213.5951">id: Long</text><rect fill="none" height="6" style="stroke:#C82930;stroke-width:1;" width="6" x="130.04" y="223.5453"></rect><text fill="#000000" font-family="sans-serif" font-size="14" lengthAdjust="spacing" textLength="106.3057" x="142.04" y="229.892">id_venda: Long</text><rect fill="none" height="6" style="stroke:#C82930;stroke-width:1;" width="6" x="130.04" y="239.8422"></rect><text fill="#000000" font-family="sans-serif" font-size="14" lengthAdjust="spacing" textLength="118.0908" x="142.04" y="246.1889">id_produto: Long</text><rect fill="none" height="6" style="stroke:#C82930;stroke-width:1;" width="6" x="130.04" y="256.1391"></rect><text fill="#000000" font-family="sans-serif" font-size="14" lengthAdjust="spacing" textLength="106.9756" x="142.04" y="262.4857">quantidade: int</text><rect fill="none" height="6" style="stroke:#C82930;stroke-width:1;" width="6" x="130.04" y="272.4359"></rect><text fill="#000000" font-family="sans-serif" font-size="14" lengthAdjust="spacing" textLength="91.957" x="142.04" y="278.7826">valor: double</text><rect fill="none" height="6" style="stroke:#C82930;stroke-width:1;" width="6" x="130.04" y="288.7328"></rect><text fill="#000000" font-family="sans-serif" font-size="14" lengthAdjust="spacing" textLength="88.8945" x="142.04" y="295.0795">total: double</text><line style="stroke:#181818;stroke-width:0.5;" x1="123.04" x2="265.1308" y1="302.3813" y2="302.3813"></line></g><g id="elem_GMN4"><path d="M142.43,34.74 L142.43,59.8728 A0,0 0 0 0 142.43,59.8728 L319.24,59.8728 L246.9,164.46 L327.24,59.8728 L521.7425,59.8728 A0,0 0 0 0 521.7425,59.8728 L521.7425,44.74 L511.7425,34.74 L142.43,34.74 A0,0 0 0 0 142.43,34.74 " fill="#FEFFDD" style="stroke:#181818;stroke-width:0.5;"></path><path d="M511.7425,34.74 L511.7425,44.74 L521.7425,44.74 L511.7425,34.74 " fill="#FEFFDD" style="stroke:#181818;stroke-width:0.5;"></path><text fill="#000000" font-family="sans-serif" font-size="13" lengthAdjust="spacing" textLength="358.3125" x="148.43" y="51.8069">id_produto referencia um id de um produto de estoque</text></g><!--link Venda to VendaProduto--><g id="link_Venda_VendaProduto"><path codeline="17" d="M85.8,87.75 C101.96,109.95 119.1186,133.5193 138.0686,159.5493 " fill="none" id="Venda-to-VendaProduto" style="stroke:#181818;stroke-width:1;"></path><polygon fill="#181818" points="141.6,164.4,139.5368,154.7697,138.6572,160.3577,133.0691,159.4782,141.6,164.4" style="stroke:#181818;stroke-width:1;"></polygon><text fill="#000000" font-family="sans-serif" font-size="13" lengthAdjust="spacing" textLength="41.6025" x="119.08" y="130.6669">possui</text><text fill="#000000" font-family="sans-serif" font-size="13" lengthAdjust="spacing" textLength="8.271" x="81.9164" y="107.7701">1</text><text fill="#000000" font-family="sans-serif" font-size="13" lengthAdjust="spacing" textLength="23.0356" x="112.3032" y="153.5403">0..*</text></g><!--SRC=[RP2z3i8m38HdyXIdZaX5i6PWOcHWOaMcDYXIYKlZi23UdLOjvKTizdTd- -IgffImbyY4Em0tAn7OOwlntDTCHXuRCe5xE5UzxRjMEPl-dGfykFMUWKo6GpFCVE5hfcY1YSKZH1lfZMfjFLZpiPQHcHhL4-lZHErocJRGqtSe_t4DhPoabLW5Ghvq0bZwuYLtdIJJQnRdXaSKgm9bkKQnN2pcnU_cHbFAuGa0]--></g></svg>