<svg xmlns="http://www.w3.org/2000/svg" xmlns:xlink="http://www.w3.org/1999/xlink" contentstyletype="text/css" data-diagram-type="CLASS" height="572px" preserveAspectRatio="none" style="width:359px;height:572px;background:#FFFFFF;" version="1.1" viewBox="0 0 359 572" width="359px" zoomAndPan="magnify"><defs></defs><g><!--class Fornecedor--><g id="elem_Fornecedor"><rect codeline="1" fill="#F1F1F1" height="113.1875" id="Fornecedor" rx="2.5" ry="2.5" style="stroke:#181818;stroke-width:0.5;" width="130.207" x="24.56" y="7"></rect><ellipse cx="48.0327" cy="23" fill="#ADD1B2" rx="11" ry="11" style="stroke:#181818;stroke-width:1;"></ellipse><path d="M51.0014,28.6406 Q50.4233,28.9375 49.7827,29.0781 Q49.142,29.2344 48.4389,29.2344 Q45.9389,29.2344 44.6108,27.5938 Q43.2983,25.9375 43.2983,22.8125 Q43.2983,19.6875 44.6108,18.0313 Q45.9389,16.375 48.4389,16.375 Q49.142,16.375 49.7827,16.5313 Q50.4389,16.6875 51.0014,16.9844 L51.0014,19.7031 Q50.3764,19.125 49.7827,18.8594 Q49.1889,18.5781 48.5639,18.5781 Q47.2202,18.5781 46.5327,19.6563 Q45.8452,20.7188 45.8452,22.8125 Q45.8452,24.9063 46.5327,25.9844 Q47.2202,27.0469 48.5639,27.0469 Q49.1889,27.0469 49.7827,26.7813 Q50.3764,26.5 51.0014,25.9219 L51.0014,28.6406 Z " fill="#000000"></path><text fill="#000000" font-family="sans-serif" font-size="14" lengthAdjust="spacing" textLength="79.3789" x="63.9155" y="27.8467">Fornecedor</text><line style="stroke:#181818;stroke-width:0.5;" x1="25.56" x2="153.767" y1="39" y2="39"></line><rect fill="none" height="6" style="stroke:#C82930;stroke-width:1;" width="6" x="32.56" y="49.6484"></rect><text fill="#000000" font-family="sans-serif" font-size="14" lengthAdjust="spacing" textLength="56.0684" x="44.56" y="55.9951">id: Long</text><rect fill="none" height="6" style="stroke:#C82930;stroke-width:1;" width="6" x="32.56" y="65.9453"></rect><text fill="#000000" font-family="sans-serif" font-size="14" lengthAdjust="spacing" textLength="90.6377" x="44.56" y="72.292">nome: String</text><rect fill="none" height="6" style="stroke:#C82930;stroke-width:1;" width="6" x="32.56" y="82.2422"></rect><text fill="#000000" font-family="sans-serif" font-size="14" lengthAdjust="spacing" textLength="80.2949" x="44.56" y="88.5889">cnpj: String</text><rect fill="none" height="6" style="stroke:#C82930;stroke-width:1;" width="6" x="32.56" y="98.5391"></rect><text fill="#000000" font-family="sans-serif" font-size="14" lengthAdjust="spacing" textLength="104.207" x="44.56" y="104.8857">contato: String</text><line style="stroke:#181818;stroke-width:0.5;" x1="25.56" x2="153.767" y1="112.1875" y2="112.1875"></line></g><!--class Produto--><g id="elem_Produto"><rect codeline="8" fill="#F1F1F1" height="129.4844" id="Produto" rx="2.5" ry="2.5" style="stroke:#181818;stroke-width:0.5;" width="165.3232" x="7" y="197.19"></rect><ellipse cx="58.1226" cy="213.19" fill="#ADD1B2" rx="11" ry="11" style="stroke:#181818;stroke-width:1;"></ellipse><path d="M61.0913,218.8306 Q60.5132,219.1275 59.8726,219.2681 Q59.2319,219.4244 58.5288,219.4244 Q56.0288,219.4244 54.7007,217.7838 Q53.3882,216.1275 53.3882,213.0025 Q53.3882,209.8775 54.7007,208.2213 Q56.0288,206.565 58.5288,206.565 Q59.2319,206.565 59.8726,206.7213 Q60.5288,206.8775 61.0913,207.1744 L61.0913,209.8931 Q60.4663,209.315 59.8726,209.0494 Q59.2788,208.7681 58.6538,208.7681 Q57.3101,208.7681 56.6226,209.8463 Q55.9351,210.9088 55.9351,213.0025 Q55.9351,215.0963 56.6226,216.1744 Q57.3101,217.2369 58.6538,217.2369 Q59.2788,217.2369 59.8726,216.9713 Q60.4663,216.69 61.0913,216.1119 L61.0913,218.8306 Z " fill="#000000"></path><text fill="#000000" font-family="sans-serif" font-size="14" lengthAdjust="spacing" textLength="54.5781" x="78.6226" y="218.0367">Produto</text><line style="stroke:#181818;stroke-width:0.5;" x1="8" x2="171.3232" y1="229.19" y2="229.19"></line><rect fill="none" height="6" style="stroke:#C82930;stroke-width:1;" width="6" x="15" y="239.8384"></rect><text fill="#000000" font-family="sans-serif" font-size="14" lengthAdjust="spacing" textLength="56.0684" x="27" y="246.1851">id: Long</text><rect fill="none" height="6" style="stroke:#C82930;stroke-width:1;" width="6" x="15" y="256.1353"></rect><text fill="#000000" font-family="sans-serif" font-size="14" lengthAdjust="spacing" textLength="139.3232" x="27" y="262.482">id_fornecedor: Long</text><rect fill="none" height="6" style="stroke:#C82930;stroke-width:1;" width="6" x="15" y="272.4322"></rect><text fill="#000000" font-family="sans-serif" font-size="14" lengthAdjust="spacing" textLength="90.6377" x="27" y="278.7789">nome: String</text><rect fill="none" height="6" style="stroke:#C82930;stroke-width:1;" width="6" x="15" y="288.7291"></rect><text fill="#000000" font-family="sans-serif" font-size="14" lengthAdjust="spacing" textLength="95.1973" x="27" y="295.0757">marca: String</text><rect fill="none" height="6" style="stroke:#C82930;stroke-width:1;" width="6" x="15" y="305.0259"></rect><text fill="#000000" font-family="sans-serif" font-size="14" lengthAdjust="spacing" textLength="94.8008" x="27" y="311.3726">custo: double</text><line style="stroke:#181818;stroke-width:0.5;" x1="8" x2="171.3232" y1="318.6744" y2="318.6744"></line></g><!--class Lote--><g id="elem_Lote"><rect codeline="16" fill="#F1F1F1" height="162.0781" id="Lote" rx="2.5" ry="2.5" style="stroke:#181818;stroke-width:0.5;" width="216.8525" x="98.24" y="403.67"></rect><ellipse cx="187.1824" cy="419.67" fill="#ADD1B2" rx="11" ry="11" style="stroke:#181818;stroke-width:1;"></ellipse><path d="M190.1511,425.3106 Q189.573,425.6075 188.9324,425.7481 Q188.2918,425.9044 187.5886,425.9044 Q185.0886,425.9044 183.7605,424.2637 Q182.448,422.6075 182.448,419.4825 Q182.448,416.3575 183.7605,414.7012 Q185.0886,413.045 187.5886,413.045 Q188.2918,413.045 188.9324,413.2012 Q189.5886,413.3575 190.1511,413.6544 L190.1511,416.3731 Q189.5261,415.795 188.9324,415.5294 Q188.3386,415.2481 187.7136,415.2481 Q186.3699,415.2481 185.6824,416.3262 Q184.9949,417.3887 184.9949,419.4825 Q184.9949,421.5762 185.6824,422.6544 Q186.3699,423.7169 187.7136,423.7169 Q188.3386,423.7169 188.9324,423.4512 Q189.5261,423.17 190.1511,422.5919 L190.1511,425.3106 Z " fill="#000000"></path><text fill="#000000" font-family="sans-serif" font-size="14" lengthAdjust="spacing" textLength="30.4678" x="207.6824" y="424.5167">Lote</text><line style="stroke:#181818;stroke-width:0.5;" x1="99.24" x2="314.0925" y1="435.67" y2="435.67"></line><rect fill="none" height="6" style="stroke:#C82930;stroke-width:1;" width="6" x="106.24" y="446.3184"></rect><text fill="#000000" font-family="sans-serif" font-size="14" lengthAdjust="spacing" textLength="56.0684" x="118.24" y="452.6651">id: Long</text><rect fill="none" height="6" style="stroke:#C82930;stroke-width:1;" width="6" x="106.24" y="462.6153"></rect><text fill="#000000" font-family="sans-serif" font-size="14" lengthAdjust="spacing" textLength="118.0908" x="118.24" y="468.962">id_produto: Long</text><rect fill="none" height="6" style="stroke:#C82930;stroke-width:1;" width="6" x="106.24" y="478.9122"></rect><text fill="#000000" font-family="sans-serif" font-size="14" lengthAdjust="spacing" textLength="151.7031" x="118.24" y="485.2589">id_recebimento: Long</text><rect fill="none" height="6" style="stroke:#C82930;stroke-width:1;" width="6" x="106.24" y="495.2091"></rect><text fill="#000000" font-family="sans-serif" font-size="14" lengthAdjust="spacing" textLength="185.0488" x="118.24" y="501.5557">quantidade_disponivel: int</text><rect fill="none" height="6" style="stroke:#C82930;stroke-width:1;" width="6" x="106.24" y="511.5059"></rect><text fill="#000000" font-family="sans-serif" font-size="14" lengthAdjust="spacing" textLength="145.9883" x="118.24" y="517.8526">quantidade_total: int</text><rect fill="none" height="6" style="stroke:#C82930;stroke-width:1;" width="6" x="106.24" y="527.8028"></rect><text fill="#000000" font-family="sans-serif" font-size="14" lengthAdjust="spacing" textLength="177.3037" x="118.24" y="534.1495">data_validade: LocalDate</text><rect fill="none" height="6" style="stroke:#C82930;stroke-width:1;" width="6" x="106.24" y="544.0997"></rect><text fill="#000000" font-family="sans-serif" font-size="14" lengthAdjust="spacing" textLength="190.8525" x="118.24" y="550.4464">data_fabricacao: LocalDate</text><line style="stroke:#181818;stroke-width:0.5;" x1="99.24" x2="314.0925" y1="557.7481" y2="557.7481"></line></g><!--class Recebimento--><g id="elem_Recebimento"><rect codeline="26" fill="#F1F1F1" height="80.5938" id="Recebimento" rx="2.5" ry="2.5" style="stroke:#181818;stroke-width:0.5;" width="145.2803" x="207.02" y="221.63"></rect><ellipse cx="231.3232" cy="237.63" fill="#ADD1B2" rx="11" ry="11" style="stroke:#181818;stroke-width:1;"></ellipse><path d="M234.292,243.2706 Q233.7138,243.5675 233.0732,243.7081 Q232.4326,243.8644 231.7295,243.8644 Q229.2295,243.8644 227.9013,242.2238 Q226.5888,240.5675 226.5888,237.4425 Q226.5888,234.3175 227.9013,232.6613 Q229.2295,231.005 231.7295,231.005 Q232.4326,231.005 233.0732,231.1613 Q233.7295,231.3175 234.292,231.6144 L234.292,234.3331 Q233.667,233.755 233.0732,233.4894 Q232.4795,233.2081 231.8545,233.2081 Q230.5107,233.2081 229.8232,234.2863 Q229.1357,235.3488 229.1357,237.4425 Q229.1357,239.5363 229.8232,240.6144 Q230.5107,241.6769 231.8545,241.6769 Q232.4795,241.6769 233.0732,241.4113 Q233.667,241.13 234.292,240.5519 L234.292,243.2706 Z " fill="#000000"></path><text fill="#000000" font-family="sans-serif" font-size="14" lengthAdjust="spacing" textLength="92.6064" x="247.3906" y="242.4767">Recebimento</text><line style="stroke:#181818;stroke-width:0.5;" x1="208.02" x2="351.3003" y1="253.63" y2="253.63"></line><rect fill="none" height="6" style="stroke:#C82930;stroke-width:1;" width="6" x="215.02" y="264.2784"></rect><text fill="#000000" font-family="sans-serif" font-size="14" lengthAdjust="spacing" textLength="56.0684" x="227.02" y="270.6251">id: Long</text><rect fill="none" height="6" style="stroke:#C82930;stroke-width:1;" width="6" x="215.02" y="280.5753"></rect><text fill="#000000" font-family="sans-serif" font-size="14" lengthAdjust="spacing" textLength="119.2803" x="227.02" y="286.922">data: Timestamp</text><line style="stroke:#181818;stroke-width:0.5;" x1="208.02" x2="351.3003" y1="294.2238" y2="294.2238"></line></g><!--link Fornecedor to Produto--><g id="link_Fornecedor_Produto"><path codeline="31" d="M89.66,120.59 C89.66,144.4 89.66,166.28 89.66,190.9 " fill="none" id="Fornecedor-to-Produto" style="stroke:#181818;stroke-width:1;"></path><polygon fill="#181818" points="89.66,196.9,93.66,187.9,89.66,191.9,85.66,187.9,89.66,196.9" style="stroke:#181818;stroke-width:1;"></polygon><text fill="#000000" font-family="sans-serif" font-size="13" lengthAdjust="spacing" textLength="49.2578" x="90.66" y="163.2569">fornece</text><text fill="#000000" font-family="sans-serif" font-size="13" lengthAdjust="spacing" textLength="8.271" x="81.2128" y="140.122">1</text><text fill="#000000" font-family="sans-serif" font-size="13" lengthAdjust="spacing" textLength="23.0356" x="65.404" y="186.0409">0..*</text></g><!--link Produto to Lote--><g id="link_Produto_Lote"><path codeline="32" d="M123.66,327.09 C136.28,350.89 147.9406,372.8984 161.2306,397.9784 " fill="none" id="Produto-to-Lote" style="stroke:#181818;stroke-width:1;"></path><polygon fill="#181818" points="164.04,403.28,163.3604,393.4546,161.6989,398.862,156.2915,397.2004,164.04,403.28" style="stroke:#181818;stroke-width:1;"></polygon><text fill="#000000" font-family="sans-serif" font-size="13" lengthAdjust="spacing" textLength="58.0747" x="149.66" y="369.7369">pertence</text><text fill="#000000" font-family="sans-serif" font-size="13" lengthAdjust="spacing" textLength="8.271" x="118.7676" y="346.6566">1</text><text fill="#000000" font-family="sans-serif" font-size="13" lengthAdjust="spacing" textLength="23.0356" x="136.3901" y="392.7103">0..*</text></g><!--link Recebimento to Lote--><g id="link_Recebimento_Lote"><path codeline="33" d="M266.53,302.66 C257.25,330.71 246.3834,363.5833 235.0334,397.9133 " fill="none" id="Recebimento-to-Lote" style="stroke:#181818;stroke-width:1;"></path><polygon fill="#181818" points="233.15,403.61,239.773,396.3205,234.7195,398.8627,232.1773,393.8093,233.15,403.61" style="stroke:#181818;stroke-width:1;"></polygon><text fill="#000000" font-family="sans-serif" font-size="13" lengthAdjust="spacing" textLength="49.0991" x="247.66" y="369.7369">contem</text><text fill="#000000" font-family="sans-serif" font-size="13" lengthAdjust="spacing" textLength="8.271" x="255.8215" y="322.4246">1</text><text fill="#000000" font-family="sans-serif" font-size="13" lengthAdjust="spacing" textLength="23.0356" x="211.533" y="392.5153">0..*</text></g><!--SRC=[VLAnJiCm59p9LpnbH4f5LmzCYAa3WkxHY_rQ6Jdl1UUb2-BVYTDWGXgnMNUdk_FPDc3VmxD49ajE8dn2SLU1TmOEmkTqPcd9m9j6psU0YRRSlQyXOKMLZ1PV8rxOoVubYXjKHc-uSVUkFkNqVqDRZ1RNgKEVCfqCJQ0_cGTHIe4RUTsrpXNBbUeuTcXyIxoYFWPazGuTrSxtdR2_K33WMMy5AeepbnY7YlK5mqGcKulX2PKoTy8cUeiMPSakhl7wMsfplkHYu3WgUiMscoTOl6UvBw6g7g5ysEtko_mK1kRLeVY1LiffG0CTHILEkcMLRMtw0zH-0m00]--></g></svg>