<svg xmlns="http://www.w3.org/2000/svg" xmlns:xlink="http://www.w3.org/1999/xlink" contentstyletype="text/css" data-diagram-type="ACTIVITY" height="600px" preserveAspectRatio="none" style="width:548px;height:600px;background:#FFFFFF;" version="1.1" viewBox="0 0 548 600" width="548px" zoomAndPan="magnify"><defs></defs><g><ellipse cx="278.2988" cy="20" fill="#222222" rx="10" ry="10" style="stroke:#222222;stroke-width:1;"></ellipse><rect fill="#F1F1F1" height="33.9688" rx="12.5" ry="12.5" style="stroke:#181818;stroke-width:0.5;" width="151.2734" x="202.6621" y="50"></rect><text fill="#000000" font-family="sans-serif" font-size="12" lengthAdjust="spacing" textLength="131.2734" x="212.6621" y="71.1387">Login como Vendedor</text><polygon fill="#F1F1F1" points="219.8452,103.9688,336.7524,103.9688,348.7524,115.9688,336.7524,127.9688,219.8452,127.9688,207.8452,115.9688,219.8452,103.9688" style="stroke:#181818;stroke-width:0.5;"></polygon><text fill="#000000" font-family="sans-serif" font-size="11" lengthAdjust="spacing" textLength="116.9072" x="219.8452" y="119.7769">Login bem-sucedido?</text><text fill="#000000" font-family="sans-serif" font-size="11" lengthAdjust="spacing" textLength="20.7539" x="187.0913" y="113.3745">Sim</text><text fill="#000000" font-family="sans-serif" font-size="11" lengthAdjust="spacing" textLength="21.6992" x="348.7524" y="113.3745">Não</text><rect fill="#F1F1F1" height="33.9688" rx="12.5" ry="12.5" style="stroke:#181818;stroke-width:0.5;" width="222.6758" x="58.5356" y="137.9688"></rect><text fill="#000000" font-family="sans-serif" font-size="12" lengthAdjust="spacing" textLength="202.6758" x="68.5356" y="159.1074">Acessa o sistema como Vendedor</text><rect fill="#F1F1F1" height="33.9688" rx="12.5" ry="12.5" style="stroke:#181818;stroke-width:0.5;" width="171.0254" x="301.2114" y="137.9688"></rect><text fill="#000000" font-family="sans-serif" font-size="12" lengthAdjust="spacing" textLength="151.0254" x="311.2114" y="159.1074">Exibe mensagem de erro</text><ellipse cx="386.7241" cy="202.9375" fill="#FFFFFF" fill-opacity="0.00000" rx="11" ry="11" style="stroke:#222222;stroke-width:1;"></ellipse><ellipse cx="386.7241" cy="202.9375" fill="#222222" rx="6" ry="6" style="stroke:#222222;stroke-width:1;"></ellipse><rect fill="#F1F1F1" height="33.9688" rx="12.5" ry="12.5" style="stroke:#181818;stroke-width:0.5;" width="361.6543" x="97.4717" y="233.9375"></rect><text fill="#000000" font-family="sans-serif" font-size="12" lengthAdjust="spacing" textLength="341.6543" x="107.4717" y="255.0762">Iniciar Processo de Venda (Selecionar Itens, Quantidade)</text><rect fill="#F1F1F1" height="33.9688" rx="12.5" ry="12.5" style="stroke:#181818;stroke-width:0.5;" width="314.1113" x="121.2432" y="287.9063"></rect><text fill="#000000" font-family="sans-serif" font-size="12" lengthAdjust="spacing" textLength="294.1113" x="131.2432" y="309.0449">Consultar Disponibilidade de Produto no Estoque</text><polygon fill="#F1F1F1" points="224.2683,341.875,332.3293,341.875,344.3293,353.875,332.3293,365.875,224.2683,365.875,212.2683,353.875,224.2683,341.875" style="stroke:#181818;stroke-width:0.5;"></polygon><text fill="#000000" font-family="sans-serif" font-size="11" lengthAdjust="spacing" textLength="108.061" x="224.2683" y="357.6831">Produto disponível?</text><text fill="#000000" font-family="sans-serif" font-size="11" lengthAdjust="spacing" textLength="20.7539" x="191.5144" y="351.2808">Sim</text><text fill="#000000" font-family="sans-serif" font-size="11" lengthAdjust="spacing" textLength="21.6992" x="344.3293" y="351.2808">Não</text><rect fill="#F1F1F1" height="33.9688" rx="12.5" ry="12.5" style="stroke:#181818;stroke-width:0.5;" width="187.7422" x="47.7939" y="375.875"></rect><text fill="#000000" font-family="sans-serif" font-size="12" lengthAdjust="spacing" textLength="167.7422" x="57.7939" y="397.0137">Registrar Venda no Sistema</text><rect fill="#F1F1F1" height="33.9688" rx="12.5" ry="12.5" style="stroke:#181818;stroke-width:0.5;" width="261.3301" x="11" y="429.8438"></rect><text fill="#000000" font-family="sans-serif" font-size="12" lengthAdjust="spacing" textLength="241.3301" x="21" y="450.9824">Atualizar Estoque com Saída do Produto</text><rect fill="#F1F1F1" height="33.9688" rx="12.5" ry="12.5" style="stroke:#181818;stroke-width:0.5;" width="245.2051" x="292.3301" y="375.875"></rect><text fill="#000000" font-family="sans-serif" font-size="12" lengthAdjust="spacing" textLength="225.2051" x="302.3301" y="397.0137">Exibir mensagem de falta de estoque</text><polygon fill="#F1F1F1" points="278.2988,469.8125,290.2988,481.8125,278.2988,493.8125,266.2988,481.8125,278.2988,469.8125" style="stroke:#181818;stroke-width:0.5;"></polygon><rect fill="#F1F1F1" height="33.9688" rx="12.5" ry="12.5" style="stroke:#181818;stroke-width:0.5;" width="112.4316" x="222.083" y="513.8125"></rect><text fill="#000000" font-family="sans-serif" font-size="12" lengthAdjust="spacing" textLength="92.4316" x="232.083" y="534.9512">Finalizar Venda</text><ellipse cx="278.2988" cy="578.7813" fill="#FFFFFF" fill-opacity="0.00000" rx="11" ry="11" style="stroke:#222222;stroke-width:1;"></ellipse><ellipse cx="278.2988" cy="578.7813" fill="#222222" rx="6" ry="6" style="stroke:#222222;stroke-width:1;"></ellipse><line style="stroke:#181818;stroke-width:1;" x1="278.2988" x2="278.2988" y1="30" y2="50"></line><polygon fill="#181818" points="274.2988,40,278.2988,50,282.2988,40,278.2988,44" style="stroke:#181818;stroke-width:1;"></polygon><line style="stroke:#181818;stroke-width:1;" x1="386.7241" x2="386.7241" y1="171.9375" y2="191.9375"></line><polygon fill="#181818" points="382.7241,181.9375,386.7241,191.9375,390.7241,181.9375,386.7241,185.9375" style="stroke:#181818;stroke-width:1;"></polygon><line style="stroke:#181818;stroke-width:1;" x1="207.8452" x2="169.8735" y1="115.9688" y2="115.9688"></line><line style="stroke:#181818;stroke-width:1;" x1="169.8735" x2="169.8735" y1="115.9688" y2="137.9688"></line><polygon fill="#181818" points="165.8735,127.9688,169.8735,137.9688,173.8735,127.9688,169.8735,131.9688" style="stroke:#181818;stroke-width:1;"></polygon><line style="stroke:#181818;stroke-width:1;" x1="348.7524" x2="386.7241" y1="115.9688" y2="115.9688"></line><line style="stroke:#181818;stroke-width:1;" x1="386.7241" x2="386.7241" y1="115.9688" y2="137.9688"></line><polygon fill="#181818" points="382.7241,127.9688,386.7241,137.9688,390.7241,127.9688,386.7241,131.9688" style="stroke:#181818;stroke-width:1;"></polygon><line style="stroke:#181818;stroke-width:1;" x1="169.8735" x2="169.8735" y1="171.9375" y2="218.9375"></line><line style="stroke:#181818;stroke-width:1;" x1="169.8735" x2="278.2988" y1="218.9375" y2="218.9375"></line><line style="stroke:#181818;stroke-width:1;" x1="278.2988" x2="278.2988" y1="218.9375" y2="233.9375"></line><polygon fill="#181818" points="274.2988,223.9375,278.2988,233.9375,282.2988,223.9375,278.2988,227.9375" style="stroke:#181818;stroke-width:1;"></polygon><line style="stroke:#181818;stroke-width:1;" x1="278.2988" x2="278.2988" y1="83.9688" y2="103.9688"></line><polygon fill="#181818" points="274.2988,93.9688,278.2988,103.9688,282.2988,93.9688,278.2988,97.9688" style="stroke:#181818;stroke-width:1;"></polygon><line style="stroke:#181818;stroke-width:1;" x1="278.2988" x2="278.2988" y1="267.9063" y2="287.9063"></line><polygon fill="#181818" points="274.2988,277.9063,278.2988,287.9063,282.2988,277.9063,278.2988,281.9063" style="stroke:#181818;stroke-width:1;"></polygon><line style="stroke:#181818;stroke-width:1;" x1="141.665" x2="141.665" y1="409.8438" y2="429.8438"></line><polygon fill="#181818" points="137.665,419.8438,141.665,429.8438,145.665,419.8438,141.665,423.8438" style="stroke:#181818;stroke-width:1;"></polygon><line style="stroke:#181818;stroke-width:1;" x1="212.2683" x2="141.665" y1="353.875" y2="353.875"></line><line style="stroke:#181818;stroke-width:1;" x1="141.665" x2="141.665" y1="353.875" y2="375.875"></line><polygon fill="#181818" points="137.665,365.875,141.665,375.875,145.665,365.875,141.665,369.875" style="stroke:#181818;stroke-width:1;"></polygon><line style="stroke:#181818;stroke-width:1;" x1="344.3293" x2="414.9326" y1="353.875" y2="353.875"></line><line style="stroke:#181818;stroke-width:1;" x1="414.9326" x2="414.9326" y1="353.875" y2="375.875"></line><polygon fill="#181818" points="410.9326,365.875,414.9326,375.875,418.9326,365.875,414.9326,369.875" style="stroke:#181818;stroke-width:1;"></polygon><line style="stroke:#181818;stroke-width:1;" x1="141.665" x2="141.665" y1="463.8125" y2="481.8125"></line><line style="stroke:#181818;stroke-width:1;" x1="141.665" x2="266.2988" y1="481.8125" y2="481.8125"></line><polygon fill="#181818" points="256.2988,477.8125,266.2988,481.8125,256.2988,485.8125,260.2988,481.8125" style="stroke:#181818;stroke-width:1;"></polygon><line style="stroke:#181818;stroke-width:1;" x1="414.9326" x2="414.9326" y1="409.8438" y2="481.8125"></line><line style="stroke:#181818;stroke-width:1;" x1="414.9326" x2="290.2988" y1="481.8125" y2="481.8125"></line><polygon fill="#181818" points="300.2988,477.8125,290.2988,481.8125,300.2988,485.8125,296.2988,481.8125" style="stroke:#181818;stroke-width:1;"></polygon><line style="stroke:#181818;stroke-width:1;" x1="278.2988" x2="278.2988" y1="321.875" y2="341.875"></line><polygon fill="#181818" points="274.2988,331.875,278.2988,341.875,282.2988,331.875,278.2988,335.875" style="stroke:#181818;stroke-width:1;"></polygon><line style="stroke:#181818;stroke-width:1;" x1="278.2988" x2="278.2988" y1="493.8125" y2="513.8125"></line><polygon fill="#181818" points="274.2988,503.8125,278.2988,513.8125,282.2988,503.8125,278.2988,507.8125" style="stroke:#181818;stroke-width:1;"></polygon><line style="stroke:#181818;stroke-width:1;" x1="278.2988" x2="278.2988" y1="547.7813" y2="567.7813"></line><polygon fill="#181818" points="274.2988,557.7813,278.2988,567.7813,282.2988,557.7813,278.2988,561.7813" style="stroke:#181818;stroke-width:1;"></polygon><!--SRC=[NP3FJeGm4CRFswUO8oJw0d0m6rsJJOnHIRmNEk0afREsnHXVn_C-1I_cjC01EV9rVj-V4BMFIbLFF923ZaU6TtG63VjQKG_58hGuteQfGqE6xqg87-YWQ6Wi5SXN7JiCGGD3e11nrFz1Q0D2yJp_ydfm-gOMOKGNz80Z60JqdkiiXiWN9QVKIwwpeuwqXnVFoOFJqyJLOeyMEs8dwZaAwGPU9-qY6Msmh5LrpovCLlh10uKBEsh9PZ4nX6UcoE0OJcBuEU5IT_jlyiby_KAxxtketd2GbbwuIn11D4ljMjHZdBIb7r5NRje26ZrVvQdXpNY_oI4FGdwtIAybV9vc2xYCKZsIMoroW5gfDDaV]--></g></svg>