<svg xmlns="http://www.w3.org/2000/svg" xmlns:xlink="http://www.w3.org/1999/xlink" xmlns:lucid="lucid" width="1172.26" height="820.5"><g transform="translate(-219.5 -280)" lucid:page-tab-id="0_0"><path d="M0 0h3728.2v2530.68H0z" fill="#fff"/><path d="M1080 420c0 11.05-8.95 20-20 20s-20-8.95-20-20 8.95-20 20-20 20 8.95 20 20z" stroke="#333"/><path d="M940 288a8 8 0 0 1 8-8h224a8 8 0 0 1 8 8v44a8 8 0 0 1-8 8H948a8 8 0 0 1-8-8z" fill="none"/><use xlink:href="#a" transform="matrix(1,0,0,1,940,280) translate(65.47705078125 36.5478515625)"/><use xlink:href="#b" transform="matrix(1,0,0,1,940,280) translate(122.50048828125 36.5478515625)"/><path d="M996 540c-8.84 0-16 7.16-16 16v48c0 8.84 7.16 16 16 16h128c8.84 0 16-7.16 16-16v-48c0-8.84-7.16-16-16-16z" stroke="#333" fill="#fff"/><use xlink:href="#c" transform="matrix(1,0,0,1,988,548) translate(5.24267578125 27.658203125)"/><use xlink:href="#d" transform="matrix(1,0,0,1,988,548) translate(62.79345703125 27.658203125)"/><use xlink:href="#e" transform="matrix(1,0,0,1,988,548) translate(46.26123046875 49.4375)"/><use xlink:href="#f" transform="matrix(1,0,0,1,988,548) translate(79.91455078125 49.4375)"/><path d="M1060 441v82.12" stroke="#333" fill="none"/><path d="M1059.98 440.5l.5-.02v.53h-.95v-.56z" stroke="#333" stroke-width=".05" fill="#333"/><path d="M1060 537.88l-4.63-14.26h9.27z" stroke="#333" fill="#333"/><path d="M1054.34 725.66a8 8 0 0 1 11.32 0l8.68 8.68a8 8 0 0 1 0 11.32l-8.68 8.68a8 8 0 0 1-11.32 0l-8.68-8.68a8 8 0 0 1 0-11.32z" stroke="#333" fill="#fff"/><path d="M1060 621v85.43" stroke="#333" fill="none"/><path d="M1060.47 621h-.94v-.5h.94z" stroke="#333" stroke-width=".05" fill="#333"/><path d="M1060 721.2l-4.63-14.27h9.27z" stroke="#333" fill="#333"/><path d="M1320.47 728.02l-.15 1.93-.45 1.9-.75 1.8-1.03 1.68-1.28 1.5-1.5 1.26-1.66 1.02-1.8.75-1.9.45-1.94.15H1077.7v-.95h230.28l1.82-.14 1.76-.42 1.67-.7 1.54-.94 1.38-1.17 1.17-1.38.95-1.54.7-1.67.4-1.76.16-1.82v-25.43h.94zm-10.52-148.34l1.9.45 1.8.75 1.68 1.03 1.5 1.28 1.26 1.5 1.02 1.66.75 1.8.45 1.9.15 1.94v88.8h-.94V592l-.15-1.82-.42-1.76-.7-1.67-.94-1.54-1.17-1.38-1.38-1.17-1.54-.95-1.67-.7-1.76-.4-1.82-.15h-151.1v-.96h151.14z" stroke="#333" stroke-width=".05" fill="#333"/><path d="M1077.7 740.48h-.55l.04-.48-.05-.48h.55z" fill="#333"/><path stroke="#333" stroke-width=".05" fill="#333"/><path d="M1156.38 584.63l-14.26-4.63 14.26-4.63z" fill="#333"/><path d="M1156.86 585.3l-16.28-5.3 16.28-5.3zm-13.2-5.3l12.25 3.98v-7.96z" stroke="#333" stroke-width=".05" fill="#333"/><use xlink:href="#g" transform="matrix(1,0,0,1,1248.2373046875,680.7664482111811) translate(0.0049999999999954525 17.4375)"/><use xlink:href="#h" transform="matrix(1,0,0,1,1248.2373046875,680.7664482111811) translate(36.602656249999995 17.4375)"/><path d="M676 700c-8.84 0-16 7.16-16 16v48c0 8.84 7.16 16 16 16h128c8.84 0 16-7.16 16-16v-48c0-8.84-7.16-16-16-16z" stroke="#333" fill="#fff"/><path d="M678 730v20m-10 0v-10h20v10" stroke="#333" fill="none"/><use xlink:href="#i" transform="matrix(1,0,0,1,698,708) translate(33.0711181640625 17.834755859375)"/><use xlink:href="#j" transform="matrix(1,0,0,1,698,708) translate(0.326762695312496 38.089501953125)"/><use xlink:href="#k" transform="matrix(1,0,0,1,698,708) translate(93.6637060546875 38.089501953125)"/><use xlink:href="#l" transform="matrix(1,0,0,1,698,708) translate(21.6768017578125 58.344248046875)"/><path d="M878.2 740.48h-41.32v-.96h41.3zm164.1 0h-57.18v-.96h57.2z" stroke="#333" stroke-width=".05" fill="#333"/><path d="M1042.8 740l.05.48h-.55v-.96h.55z" fill="#333"/><path stroke="#333" stroke-width=".05" fill="#333"/><path d="M836.38 744.63L822.12 740l14.26-4.63z" fill="#333"/><path d="M836.86 745.3l-16.28-5.3 16.28-5.3zm-13.2-5.3l12.25 3.98v-7.96z" stroke="#333" stroke-width=".05" fill="#333"/><use xlink:href="#m" transform="matrix(1,0,0,1,878.1922294611811,729.1103515625) translate(0.005000000000002558 17.4375)"/><path d="M734.34 865.66a8 8 0 0 1 11.32 0l8.68 8.68a8 8 0 0 1 0 11.32l-8.68 8.68a8 8 0 0 1-11.32 0l-8.68-8.68a8 8 0 0 1 0-11.32zM320 1080c0 11.05-8.95 20-20 20s-20-8.95-20-20 8.95-20 20-20 20 8.95 20 20z" stroke="#333" fill="#fff"/><path d="M312 1080c0 6.63-5.37 12-12 12s-12-5.37-12-12 5.37-12 12-12 12 5.37 12 12z" stroke="#333"/><path d="M236 840c-8.84 0-16 7.16-16 16v48c0 8.84 7.16 16 16 16h128c8.84 0 16-7.16 16-16v-48c0-8.84-7.16-16-16-16z" stroke="#333" fill="#fff"/><use xlink:href="#n" transform="matrix(1,0,0,1,228,848) translate(13.025390625 38.5478515625)"/><use xlink:href="#o" transform="matrix(1,0,0,1,228,848) translate(78.9521484375 38.5478515625)"/><path d="M458.32 880.48h-61.44v-.96h61.44zm264 0h-77.33v-.96h77.3z" stroke="#333" stroke-width=".05" fill="#333"/><path d="M722.8 880l.05.48h-.55v-.96h.55z" fill="#333"/><path stroke="#333" stroke-width=".05" fill="#333"/><path d="M396.38 884.63L382.12 880l14.26-4.63z" fill="#333"/><path d="M396.86 885.3l-16.28-5.3 16.28-5.3zm-13.2-5.3l12.25 3.98v-7.96z" stroke="#333" stroke-width=".05" fill="#333"/><use xlink:href="#p" transform="matrix(1,0,0,1,458.3206474299312,869.1103515625) translate(0.0049999999999954525 17.4375)"/><use xlink:href="#q" transform="matrix(1,0,0,1,458.3206474299312,869.1103515625) translate(100.3673046875 17.4375)"/><path d="M520.82 1080.47H336.88v-.94h183.94zm219.65-12.45l-.15 1.93-.45 1.9-.75 1.8-1.03 1.68-1.28 1.5-1.5 1.26-1.66 1.02-1.8.75-1.9.45-1.94.15h-5.53v-.94h5.48l1.82-.15 1.76-.42 1.67-.7 1.54-.94 1.38-1.17 1.17-1.38.95-1.54.7-1.67.4-1.76.15-1.82v-170.3h.96z" stroke="#333" stroke-width=".05" fill="#333"/><path d="M740 897.2l.48-.05v.55h-.96v-.55z" fill="#333"/><path stroke="#333" stroke-width=".05" fill="#333"/><path d="M336.38 1084.63l-14.26-4.63 14.26-4.63z" fill="#333"/><path d="M336.86 1085.3l-16.28-5.3 16.28-5.3zm-13.2-5.3l12.25 3.98v-7.96z" stroke="#333" stroke-width=".05" fill="#333"/><g><use xlink:href="#p" transform="matrix(1,0,0,1,520.8237330443869,1069.1103515625) translate(0.0049999999999954525 17.4375)"/><use xlink:href="#r" transform="matrix(1,0,0,1,520.8237330443869,1069.1103515625) translate(100.3673046875 17.4375)"/></g><path d="M300 921v122.12" stroke="#333" fill="none"/><path d="M300.48 921h-.96v-.5h.96z" stroke="#333" stroke-width=".05" fill="#333"/><path d="M300 1057.88l-4.63-14.26h9.26z" stroke="#333" fill="#333"/><path d="M740 781v65.43" stroke="#333" fill="none"/><path d="M740.48 781h-.96v-.5h.96z" stroke="#333" stroke-width=".05" fill="#333"/><path d="M740 861.2l-4.63-14.27h9.26z" stroke="#333" fill="#333"/><defs><path fill="#666" d="M158 0v-1118h180V0H158zm91-1301c-68 0-125-53-125-119s57-119 125-119c69 0 126 53 126 119s-57 119-126 119" id="s"/><path fill="#666" d="M338-670V0H158v-1118h173l1 207c72-158 192-221 342-221 226 0 378 139 378 422V0H872v-695c0-172-96-275-252-275-161 0-282 109-282 300" id="t"/><path fill="#666" d="M538 24C308 24 148-78 108-271l171-41c32 123 123 178 257 178 156 0 256-77 256-169 0-77-54-128-164-154l-186-44c-203-48-300-148-300-305 0-192 176-326 414-326 230 0 351 112 402 269l-163 42c-31-80-94-158-238-158-133 0-233 69-233 162 0 83 57 129 188 160l169 40c203 48 298 149 298 302 0 196-179 339-441 339" id="u"/><path fill="#666" d="M628 24c-324 0-524-230-524-574 0-343 198-582 503-582 237 0 487 146 487 559v75H286c9 234 145 362 343 362 132 0 231-58 273-172l174 48C1024-91 857 24 628 24zM287-650h624c-17-190-120-322-304-322-192 0-309 151-320 322" id="v"/><path fill="#666" d="M158 0v-1118h174v172h12c41-113 157-188 290-188 26 0 70 2 91 3v181c-11-2-60-10-108-10-161 0-279 109-279 260V0H158" id="w"/><g id="a"><use transform="matrix(0.0087890625,0,0,0.0087890625,0,0)" xlink:href="#s"/><use transform="matrix(0.0087890625,0,0,0.0087890625,4.359375,0)" xlink:href="#t"/><use transform="matrix(0.0087890625,0,0,0.0087890625,14.994140625,0)" xlink:href="#u"/><use transform="matrix(0.0087890625,0,0,0.0087890625,24.4951171875,0)" xlink:href="#v"/><use transform="matrix(0.0087890625,0,0,0.0087890625,34.9892578125,0)" xlink:href="#w"/><use transform="matrix(0.0087890625,0,0,0.0087890625,41.466796875,0)" xlink:href="#v"/></g><path fill="#666" d="M481 0L54-1118h197c107 314 236 620 325 951 87-331 217-637 324-951h197L670 0H481" id="x"/><path fill="#666" d="M577 24c-279 0-473-224-473-580 0-354 195-576 474-576 218 0 287 134 324 193h14v-551h180V0H922v-173h-20C865-111 790 24 577 24zm27-161c203 0 314-172 314-421 0-247-108-413-314-413-212 0-317 181-317 413 0 235 108 421 317 421" id="y"/><path fill="#666" d="M471 26C259 26 90-98 90-318c0-256 228-303 435-329 202-27 287-16 287-108 0-139-79-219-234-219-161 0-248 86-283 164l-173-57c86-203 278-265 451-265 150 0 419 46 419 395V0H815v-152h-12C765-73 660 26 471 26zm31-159c199 0 310-134 310-271v-155c-30 35-226 55-295 64-131 17-246 59-246 186 0 116 97 176 231 176" id="z"/><g id="b"><use transform="matrix(0.0087890625,0,0,0.0087890625,0,0)" xlink:href="#x"/><use transform="matrix(0.0087890625,0,0,0.0087890625,9.7646484375,0)" xlink:href="#v"/><use transform="matrix(0.0087890625,0,0,0.0087890625,20.2587890625,0)" xlink:href="#t"/><use transform="matrix(0.0087890625,0,0,0.0087890625,30.8935546875,0)" xlink:href="#y"/><use transform="matrix(0.0087890625,0,0,0.0087890625,41.9150390625,0)" xlink:href="#z"/></g><path d="M180 0v-1490h528c311 0 458 177 458 395 0 191-114 278-244 313v14c139 9 302 137 302 371 0 225-148 397-499 397H180zm190-168h350c232 0 321-102 321-231 0-149-120-277-311-277H370v508zm0-668h328c160 0 286-101 286-255 0-129-87-231-280-231H370v486" id="A"/><path d="M537 14c-226 0-379-139-379-422v-710h180v695c0 172 97 275 253 275 160 0 281-109 281-300v-670h181V0H879v-209C806-46 684 14 537 14" id="B"/><path d="M538 24C308 24 148-78 108-271l171-41c32 123 123 178 257 178 156 0 256-77 256-169 0-77-54-128-164-154l-186-44c-203-48-300-148-300-305 0-192 176-326 414-326 230 0 351 112 402 269l-163 42c-31-80-94-158-238-158-133 0-233 69-233 162 0 83 57 129 188 160l169 40c203 48 298 149 298 302 0 196-179 339-441 339" id="C"/><path d="M613 24c-304 0-509-231-509-576 0-350 205-580 509-580 216 0 392 114 453 309l-173 49c-33-115-133-197-280-197-223 0-326 196-326 419 0 220 103 415 326 415 150 0 252-85 285-206l172 49C1010-95 832 24 613 24" id="D"/><path d="M471 26C259 26 90-98 90-318c0-256 228-303 435-329 202-27 287-16 287-108 0-139-79-219-234-219-161 0-248 86-283 164l-173-57c86-203 278-265 451-265 150 0 419 46 419 395V0H815v-152h-12C765-73 660 26 471 26zm31-159c199 0 310-134 310-271v-155c-30 35-226 55-295 64-131 17-246 59-246 186 0 116 97 176 231 176" id="E"/><g id="c"><use transform="matrix(0.0087890625,0,0,0.0087890625,0,0)" xlink:href="#A"/><use transform="matrix(0.0087890625,0,0,0.0087890625,11.77734375,0)" xlink:href="#B"/><use transform="matrix(0.0087890625,0,0,0.0087890625,22.4208984375,0)" xlink:href="#C"/><use transform="matrix(0.0087890625,0,0,0.0087890625,31.921875,0)" xlink:href="#D"/><use transform="matrix(0.0087890625,0,0,0.0087890625,42.380859375,0)" xlink:href="#E"/></g><path d="M158 418v-1536h174v179h20c37-59 106-193 324-193 279 0 474 222 474 576 0 356-194 580-473 580-213 0-288-135-325-197h-14v591H158zm492-555c209 0 317-186 317-421 0-232-105-413-317-413-206 0-314 166-314 413 0 249 111 421 314 421" id="F"/><path d="M158 0v-1118h174v172h12c41-113 157-188 290-188 26 0 70 2 91 3v181c-11-2-60-10-108-10-161 0-279 109-279 260V0H158" id="G"/><path d="M613 24c-304 0-509-231-509-576 0-350 205-580 509-580 305 0 511 230 511 580 0 345-206 576-511 576zm0-161c226 0 329-195 329-415 0-222-103-419-329-419-223 0-326 196-326 419 0 220 103 415 326 415" id="H"/><path d="M577 24c-279 0-473-224-473-580 0-354 195-576 474-576 218 0 287 134 324 193h14v-551h180V0H922v-173h-20C865-111 790 24 577 24zm27-161c203 0 314-172 314-421 0-247-108-413-314-413-212 0-317 181-317 413 0 235 108 421 317 421" id="I"/><path d="M598-1118v154H368v674c0 100 37 144 132 144 23 0 62-6 92-12L629-6c-37 13-88 20-134 20-193 0-307-107-307-290v-688H20v-154h168v-266h180v266h230" id="J"/><g id="d"><use transform="matrix(0.0087890625,0,0,0.0087890625,0,0)" xlink:href="#F"/><use transform="matrix(0.0087890625,0,0,0.0087890625,11.021484375,0)" xlink:href="#G"/><use transform="matrix(0.0087890625,0,0,0.0087890625,17.4990234375,0)" xlink:href="#H"/><use transform="matrix(0.0087890625,0,0,0.0087890625,28.2919921875,0)" xlink:href="#I"/><use transform="matrix(0.0087890625,0,0,0.0087890625,39.3134765625,0)" xlink:href="#B"/><use transform="matrix(0.0087890625,0,0,0.0087890625,49.95703125,0)" xlink:href="#J"/><use transform="matrix(0.0087890625,0,0,0.0087890625,55.669921875,0)" xlink:href="#H"/><use transform="matrix(0.0087890625,0,0,0.0087890625,66.462890625,0)" xlink:href="#C"/></g><g id="e"><use transform="matrix(0.0087890625,0,0,0.0087890625,0,0)" xlink:href="#F"/><use transform="matrix(0.0087890625,0,0,0.0087890625,11.021484375,0)" xlink:href="#H"/><use transform="matrix(0.0087890625,0,0,0.0087890625,21.814453125,0)" xlink:href="#G"/></g><path d="M370-1490V0H180v-1490h190" id="K"/><path d="M645 0H180v-1490h484c435 0 692 280 692 742 0 466-257 748-711 748zM370-168h263c363 0 539-218 539-580 0-358-176-574-521-574H370v1154" id="L"/><g id="f"><use transform="matrix(0.0087890625,0,0,0.0087890625,0,0)" xlink:href="#K"/><use transform="matrix(0.0087890625,0,0,0.0087890625,4.833984375,0)" xlink:href="#L"/></g><path d="M338-670V0H158v-1118h173l1 207c72-158 192-221 342-221 226 0 378 139 378 422V0H872v-695c0-172-96-275-252-275-161 0-282 109-282 300" id="M"/><path d="M471 26C259 26 90-98 90-318c0-256 228-303 435-329 202-27 287-16 287-108 0-139-79-219-234-219-161 0-248 86-283 164l-173-57c86-203 278-265 451-265 150 0 419 46 419 395V0H815v-152h-12C765-73 660 26 471 26zm31-159c199 0 310-134 310-271v-155c-30 35-226 55-295 64-131 17-246 59-246 186 0 116 97 176 231 176zm187-1180c-99 0-192-83-243-83-35 0-51 40-53 79H267c4-120 55-208 162-208 104 0 174 85 241 85 33 0 49-23 56-81h123c-4 126-62 208-160 208" id="N"/><g id="g"><use transform="matrix(0.0087890625,0,0,0.0087890625,0,0)" xlink:href="#M"/><use transform="matrix(0.0087890625,0,0,0.0087890625,10.634765625,0)" xlink:href="#N"/><use transform="matrix(0.0087890625,0,0,0.0087890625,20.7421875,0)" xlink:href="#H"/></g><path d="M628 24c-324 0-524-230-524-574 0-343 198-582 503-582 237 0 487 146 487 559v75H286c9 234 145 362 343 362 132 0 231-58 273-172l174 48C1024-91 857 24 628 24zM287-650h624c-17-190-120-322-304-322-192 0-309 151-320 322" id="O"/><g id="h"><use transform="matrix(0.0087890625,0,0,0.0087890625,0,0)" xlink:href="#O"/><use transform="matrix(0.0087890625,0,0,0.0087890625,10.494140625,0)" xlink:href="#M"/><use transform="matrix(0.0087890625,0,0,0.0087890625,21.12890625,0)" xlink:href="#D"/><use transform="matrix(0.0087890625,0,0,0.0087890625,31.412109375,0)" xlink:href="#H"/><use transform="matrix(0.0087890625,0,0,0.0087890625,42.205078125,0)" xlink:href="#M"/><use transform="matrix(0.0087890625,0,0,0.0087890625,52.83984375,0)" xlink:href="#J"/><use transform="matrix(0.0087890625,0,0,0.0087890625,58.728515625,0)" xlink:href="#G"/><use transform="matrix(0.0087890625,0,0,0.0087890625,65.5048828125,0)" xlink:href="#E"/><use transform="matrix(0.0087890625,0,0,0.0087890625,75.6123046875,0)" xlink:href="#I"/><use transform="matrix(0.0087890625,0,0,0.0087890625,86.6337890625,0)" xlink:href="#H"/><use transform="matrix(0.0087890625,0,0,0.0087890625,97.4267578125,0)" xlink:href="#C"/></g><path d="M600 0L52-1490h200c166 485 304 806 458 1336 156-533 285-846 449-1336h202L819 0H600" id="P"/><path d="M338-1490V0H158v-1490h180" id="Q"/><path d="M158 0v-1118h180V0H158zm91-1301c-68 0-125-53-125-119s57-119 125-119c69 0 126 53 126 119s-57 119-126 119" id="R"/><g id="i"><use transform="matrix(0.008173828125000001,0,0,0.008173828125000001,0,0)" xlink:href="#P"/><use transform="matrix(0.008173828125000001,0,0,0.008173828125000001,10.699541015625002,0)" xlink:href="#E"/><use transform="matrix(0.008173828125000001,0,0,0.008173828125000001,20.099443359375,0)" xlink:href="#Q"/><use transform="matrix(0.008173828125000001,0,0,0.008173828125000001,24.153662109375002,0)" xlink:href="#R"/><use transform="matrix(0.008173828125000001,0,0,0.008173828125000001,28.207880859375003,0)" xlink:href="#I"/><use transform="matrix(0.008173828125000001,0,0,0.008173828125000001,38.457861328125006,0)" xlink:href="#E"/></g><path d="M1096 418H916v-591h-14C865-111 790 24 577 24c-279 0-473-224-473-580 0-354 195-576 474-576 218 0 287 134 324 193h20v-179h174V418zM604-137c203 0 314-172 314-421 0-247-108-413-314-413-212 0-317 181-317 413 0 235 108 421 317 421" id="S"/><g id="j"><use transform="matrix(0.008173828125000001,0,0,0.008173828125000001,0,0)" xlink:href="#S"/><use transform="matrix(0.008173828125000001,0,0,0.008173828125000001,10.249980468750001,0)" xlink:href="#B"/><use transform="matrix(0.008173828125000001,0,0,0.008173828125000001,20.148486328125003,0)" xlink:href="#E"/><use transform="matrix(0.008173828125000001,0,0,0.008173828125000001,29.548388671875003,0)" xlink:href="#M"/><use transform="matrix(0.008173828125000001,0,0,0.008173828125000001,39.438720703125,0)" xlink:href="#J"/><use transform="matrix(0.008173828125000001,0,0,0.008173828125000001,44.915185546875,0)" xlink:href="#R"/><use transform="matrix(0.008173828125000001,0,0,0.008173828125000001,48.969404296875,0)" xlink:href="#I"/><use transform="matrix(0.008173828125000001,0,0,0.008173828125000001,59.219384765625,0)" xlink:href="#E"/><use transform="matrix(0.008173828125000001,0,0,0.008173828125000001,68.61928710937501,0)" xlink:href="#I"/><use transform="matrix(0.008173828125000001,0,0,0.008173828125000001,78.869267578125,0)" xlink:href="#O"/></g><g id="k"><use transform="matrix(0.008173828125000001,0,0,0.008173828125000001,0,0)" xlink:href="#I"/><use transform="matrix(0.008173828125000001,0,0,0.008173828125000001,10.249980468750001,0)" xlink:href="#O"/></g><g id="l"><use transform="matrix(0.008173828125000001,0,0,0.008173828125000001,0,0)" xlink:href="#F"/><use transform="matrix(0.008173828125000001,0,0,0.008173828125000001,10.249980468750001,0)" xlink:href="#G"/><use transform="matrix(0.008173828125000001,0,0,0.008173828125000001,16.274091796875002,0)" xlink:href="#H"/><use transform="matrix(0.008173828125000001,0,0,0.008173828125000001,26.311552734375002,0)" xlink:href="#I"/><use transform="matrix(0.008173828125000001,0,0,0.008173828125000001,36.561533203125,0)" xlink:href="#B"/><use transform="matrix(0.008173828125000001,0,0,0.008173828125000001,46.460039062499995,0)" xlink:href="#J"/><use transform="matrix(0.008173828125000001,0,0,0.008173828125000001,51.77302734375,0)" xlink:href="#H"/><use transform="matrix(0.008173828125000001,0,0,0.008173828125000001,61.81048828125,0)" xlink:href="#C"/></g><g id="m"><use transform="matrix(0.0087890625,0,0,0.0087890625,0,0)" xlink:href="#O"/><use transform="matrix(0.0087890625,0,0,0.0087890625,10.494140625,0)" xlink:href="#M"/><use transform="matrix(0.0087890625,0,0,0.0087890625,21.12890625,0)" xlink:href="#D"/><use transform="matrix(0.0087890625,0,0,0.0087890625,31.412109375,0)" xlink:href="#H"/><use transform="matrix(0.0087890625,0,0,0.0087890625,42.205078125,0)" xlink:href="#M"/><use transform="matrix(0.0087890625,0,0,0.0087890625,52.83984375,0)" xlink:href="#J"/><use transform="matrix(0.0087890625,0,0,0.0087890625,58.728515625,0)" xlink:href="#G"/><use transform="matrix(0.0087890625,0,0,0.0087890625,65.5048828125,0)" xlink:href="#E"/><use transform="matrix(0.0087890625,0,0,0.0087890625,75.6123046875,0)" xlink:href="#I"/><use transform="matrix(0.0087890625,0,0,0.0087890625,86.6337890625,0)" xlink:href="#H"/><use transform="matrix(0.0087890625,0,0,0.0087890625,97.4267578125,0)" xlink:href="#C"/></g><path d="M180 0v-1490h510c348 0 508 194 508 460 0 198-88 351-276 417L1256 0h-220L726-579c-117 2-238 0-356 1V0H180zm190-747h312c235 0 327-108 327-283 0-177-92-293-329-293H370v576" id="T"/><path d="M126 0v-134l627-806v-11H146v-167h839v143L376-178v11h629V0H126" id="U"/><g id="n"><use transform="matrix(0.0087890625,0,0,0.0087890625,0,0)" xlink:href="#T"/><use transform="matrix(0.0087890625,0,0,0.0087890625,11.3203125,0)" xlink:href="#O"/><use transform="matrix(0.0087890625,0,0,0.0087890625,21.990234375,0)" xlink:href="#E"/><use transform="matrix(0.0087890625,0,0,0.0087890625,32.09765625,0)" xlink:href="#Q"/><use transform="matrix(0.0087890625,0,0,0.0087890625,36.45703125,0)" xlink:href="#R"/><use transform="matrix(0.0087890625,0,0,0.0087890625,40.81640625,0)" xlink:href="#U"/><use transform="matrix(0.0087890625,0,0,0.0087890625,50.7568359375,0)" xlink:href="#E"/></g><path d="M481 0L54-1118h197c107 314 236 620 325 951 87-331 217-637 324-951h197L670 0H481" id="V"/><g id="o"><use transform="matrix(0.0087890625,0,0,0.0087890625,0,0)" xlink:href="#V"/><use transform="matrix(0.0087890625,0,0,0.0087890625,9.7646484375,0)" xlink:href="#O"/><use transform="matrix(0.0087890625,0,0,0.0087890625,20.2587890625,0)" xlink:href="#M"/><use transform="matrix(0.0087890625,0,0,0.0087890625,30.8935546875,0)" xlink:href="#I"/><use transform="matrix(0.0087890625,0,0,0.0087890625,41.9150390625,0)" xlink:href="#E"/></g><g id="p"><use transform="matrix(0.0087890625,0,0,0.0087890625,0,0)" xlink:href="#S"/><use transform="matrix(0.0087890625,0,0,0.0087890625,11.021484375,0)" xlink:href="#B"/><use transform="matrix(0.0087890625,0,0,0.0087890625,21.6650390625,0)" xlink:href="#E"/><use transform="matrix(0.0087890625,0,0,0.0087890625,31.7724609375,0)" xlink:href="#M"/><use transform="matrix(0.0087890625,0,0,0.0087890625,42.4072265625,0)" xlink:href="#J"/><use transform="matrix(0.0087890625,0,0,0.0087890625,48.2958984375,0)" xlink:href="#R"/><use transform="matrix(0.0087890625,0,0,0.0087890625,52.6552734375,0)" xlink:href="#I"/><use transform="matrix(0.0087890625,0,0,0.0087890625,63.6767578125,0)" xlink:href="#E"/><use transform="matrix(0.0087890625,0,0,0.0087890625,73.7841796875,0)" xlink:href="#I"/><use transform="matrix(0.0087890625,0,0,0.0087890625,84.8056640625,0)" xlink:href="#O"/></g><path d="M158 0v-1118h180V0H158zm12-1264l140-294h201l-194 294H170" id="W"/><g id="q"><use transform="matrix(0.0087890625,0,0,0.0087890625,0,0)" xlink:href="#I"/><use transform="matrix(0.0087890625,0,0,0.0087890625,11.021484375,0)" xlink:href="#R"/><use transform="matrix(0.0087890625,0,0,0.0087890625,15.380859375,0)" xlink:href="#C"/><use transform="matrix(0.0087890625,0,0,0.0087890625,24.8818359375,0)" xlink:href="#F"/><use transform="matrix(0.0087890625,0,0,0.0087890625,35.9033203125,0)" xlink:href="#H"/><use transform="matrix(0.0087890625,0,0,0.0087890625,46.6962890625,0)" xlink:href="#M"/><use transform="matrix(0.0087890625,0,0,0.0087890625,57.3310546875,0)" xlink:href="#W"/><use transform="matrix(0.0087890625,0,0,0.0087890625,61.6904296875,0)" xlink:href="#V"/><use transform="matrix(0.0087890625,0,0,0.0087890625,71.455078125,0)" xlink:href="#O"/><use transform="matrix(0.0087890625,0,0,0.0087890625,81.94921875,0)" xlink:href="#Q"/></g><g id="r"><use transform="matrix(0.0087890625,0,0,0.0087890625,0,0)" xlink:href="#R"/><use transform="matrix(0.0087890625,0,0,0.0087890625,4.359375,0)" xlink:href="#M"/><use transform="matrix(0.0087890625,0,0,0.0087890625,14.994140625,0)" xlink:href="#I"/><use transform="matrix(0.0087890625,0,0,0.0087890625,26.015625,0)" xlink:href="#R"/><use transform="matrix(0.0087890625,0,0,0.0087890625,30.375,0)" xlink:href="#C"/><use transform="matrix(0.0087890625,0,0,0.0087890625,39.8759765625,0)" xlink:href="#F"/><use transform="matrix(0.0087890625,0,0,0.0087890625,50.8974609375,0)" xlink:href="#H"/><use transform="matrix(0.0087890625,0,0,0.0087890625,61.6904296875,0)" xlink:href="#M"/><use transform="matrix(0.0087890625,0,0,0.0087890625,72.3251953125,0)" xlink:href="#W"/><use transform="matrix(0.0087890625,0,0,0.0087890625,76.6845703125,0)" xlink:href="#V"/><use transform="matrix(0.0087890625,0,0,0.0087890625,86.44921875,0)" xlink:href="#O"/><use transform="matrix(0.0087890625,0,0,0.0087890625,96.943359375,0)" xlink:href="#Q"/></g></defs></g></svg>