<svg xmlns="http://www.w3.org/2000/svg" xmlns:xlink="http://www.w3.org/1999/xlink" contentstyletype="text/css" data-diagram-type="ACTIVITY" height="536px" preserveAspectRatio="none" style="width:462px;height:536px;background:#FFFFFF;" version="1.1" viewBox="0 0 462 536" width="462px" zoomAndPan="magnify"><defs></defs><g><ellipse cx="250.8022" cy="20" fill="#222222" rx="10" ry="10" style="stroke:#222222;stroke-width:1;"></ellipse><rect fill="#F1F1F1" height="33.9688" rx="12.5" ry="12.5" style="stroke:#181818;stroke-width:0.5;" width="177.9922" x="161.8062" y="50"></rect><text fill="#000000" font-family="sans-serif" font-size="12" lengthAdjust="spacing" textLength="157.9922" x="171.8062" y="71.1387">Login como Gerente Geral</text><polygon fill="#F1F1F1" points="192.3486,103.9688,309.2559,103.9688,321.2559,115.9688,309.2559,127.9688,192.3486,127.9688,180.3486,115.9688,192.3486,103.9688" style="stroke:#181818;stroke-width:0.5;"></polygon><text fill="#000000" font-family="sans-serif" font-size="11" lengthAdjust="spacing" textLength="116.9072" x="192.3486" y="119.7769">Login bem-sucedido?</text><text fill="#000000" font-family="sans-serif" font-size="11" lengthAdjust="spacing" textLength="20.7539" x="159.5947" y="113.3745">Sim</text><text fill="#000000" font-family="sans-serif" font-size="11" lengthAdjust="spacing" textLength="21.6992" x="321.2559" y="113.3745">Não</text><rect fill="#F1F1F1" height="33.9688" rx="12.5" ry="12.5" style="stroke:#181818;stroke-width:0.5;" width="249.3945" x="11" y="137.9688"></rect><text fill="#000000" font-family="sans-serif" font-size="12" lengthAdjust="spacing" textLength="229.3945" x="21" y="159.1074">Acessa o sistema como Gerente Geral</text><rect fill="#F1F1F1" height="33.9688" rx="12.5" ry="12.5" style="stroke:#181818;stroke-width:0.5;" width="171.0254" x="280.3945" y="137.9688"></rect><text fill="#000000" font-family="sans-serif" font-size="12" lengthAdjust="spacing" textLength="151.0254" x="290.3945" y="159.1074">Exibe mensagem de erro</text><ellipse cx="365.9072" cy="202.9375" fill="#FFFFFF" fill-opacity="0.00000" rx="11" ry="11" style="stroke:#222222;stroke-width:1;"></ellipse><ellipse cx="365.9072" cy="202.9375" fill="#222222" rx="6" ry="6" style="stroke:#222222;stroke-width:1;"></ellipse><rect fill="#F1F1F1" height="33.9688" rx="12.5" ry="12.5" style="stroke:#181818;stroke-width:0.5;" width="178.3848" x="161.6099" y="233.9375"></rect><text fill="#000000" font-family="sans-serif" font-size="12" lengthAdjust="spacing" textLength="158.3848" x="171.6099" y="255.0762">Visualizar Lista de Usuário</text><rect fill="#F1F1F1" height="33.9688" rx="12.5" ry="12.5" style="stroke:#181818;stroke-width:0.5;" width="162.875" x="169.3647" y="287.9063"></rect><text fill="#000000" font-family="sans-serif" font-size="12" lengthAdjust="spacing" textLength="142.875" x="179.3647" y="309.0449">Cadastrar Novo Usuário</text><rect fill="#F1F1F1" height="33.9688" rx="12.5" ry="12.5" style="stroke:#181818;stroke-width:0.5;" width="165.377" x="168.1138" y="341.875"></rect><text fill="#000000" font-family="sans-serif" font-size="12" lengthAdjust="spacing" textLength="145.377" x="178.1138" y="363.0137">Editar Dados de Usuário</text><rect fill="#F1F1F1" height="33.9688" rx="12.5" ry="12.5" style="stroke:#181818;stroke-width:0.5;" width="194.5098" x="153.5474" y="395.8438"></rect><text fill="#000000" font-family="sans-serif" font-size="12" lengthAdjust="spacing" textLength="174.5098" x="163.5474" y="416.9824">Remover Usuário do Sistema</text><rect fill="#F1F1F1" height="33.9688" rx="12.5" ry="12.5" style="stroke:#181818;stroke-width:0.5;" width="226.2559" x="137.6743" y="449.8125"></rect><text fill="#000000" font-family="sans-serif" font-size="12" lengthAdjust="spacing" textLength="206.2559" x="147.6743" y="470.9512">Definir Estratégias de Precificação</text><ellipse cx="250.8022" cy="514.7813" fill="#FFFFFF" fill-opacity="0.00000" rx="11" ry="11" style="stroke:#222222;stroke-width:1;"></ellipse><ellipse cx="250.8022" cy="514.7813" fill="#222222" rx="6" ry="6" style="stroke:#222222;stroke-width:1;"></ellipse><line style="stroke:#181818;stroke-width:1;" x1="250.8022" x2="250.8022" y1="30" y2="50"></line><polygon fill="#181818" points="246.8022,40,250.8022,50,254.8022,40,250.8022,44" style="stroke:#181818;stroke-width:1;"></polygon><line style="stroke:#181818;stroke-width:1;" x1="365.9072" x2="365.9072" y1="171.9375" y2="191.9375"></line><polygon fill="#181818" points="361.9072,181.9375,365.9072,191.9375,369.9072,181.9375,365.9072,185.9375" style="stroke:#181818;stroke-width:1;"></polygon><line style="stroke:#181818;stroke-width:1;" x1="180.3486" x2="135.6973" y1="115.9688" y2="115.9688"></line><line style="stroke:#181818;stroke-width:1;" x1="135.6973" x2="135.6973" y1="115.9688" y2="137.9688"></line><polygon fill="#181818" points="131.6973,127.9688,135.6973,137.9688,139.6973,127.9688,135.6973,131.9688" style="stroke:#181818;stroke-width:1;"></polygon><line style="stroke:#181818;stroke-width:1;" x1="321.2559" x2="365.9072" y1="115.9688" y2="115.9688"></line><line style="stroke:#181818;stroke-width:1;" x1="365.9072" x2="365.9072" y1="115.9688" y2="137.9688"></line><polygon fill="#181818" points="361.9072,127.9688,365.9072,137.9688,369.9072,127.9688,365.9072,131.9688" style="stroke:#181818;stroke-width:1;"></polygon><line style="stroke:#181818;stroke-width:1;" x1="135.6973" x2="135.6973" y1="171.9375" y2="218.9375"></line><line style="stroke:#181818;stroke-width:1;" x1="135.6973" x2="250.8022" y1="218.9375" y2="218.9375"></line><line style="stroke:#181818;stroke-width:1;" x1="250.8022" x2="250.8022" y1="218.9375" y2="233.9375"></line><polygon fill="#181818" points="246.8022,223.9375,250.8022,233.9375,254.8022,223.9375,250.8022,227.9375" style="stroke:#181818;stroke-width:1;"></polygon><line style="stroke:#181818;stroke-width:1;" x1="250.8022" x2="250.8022" y1="83.9688" y2="103.9688"></line><polygon fill="#181818" points="246.8022,93.9688,250.8022,103.9688,254.8022,93.9688,250.8022,97.9688" style="stroke:#181818;stroke-width:1;"></polygon><line style="stroke:#181818;stroke-width:1;" x1="250.8022" x2="250.8022" y1="267.9063" y2="287.9063"></line><polygon fill="#181818" points="246.8022,277.9063,250.8022,287.9063,254.8022,277.9063,250.8022,281.9063" style="stroke:#181818;stroke-width:1;"></polygon><line style="stroke:#181818;stroke-width:1;" x1="250.8022" x2="250.8022" y1="321.875" y2="341.875"></line><polygon fill="#181818" points="246.8022,331.875,250.8022,341.875,254.8022,331.875,250.8022,335.875" style="stroke:#181818;stroke-width:1;"></polygon><line style="stroke:#181818;stroke-width:1;" x1="250.8022" x2="250.8022" y1="375.8438" y2="395.8438"></line><polygon fill="#181818" points="246.8022,385.8438,250.8022,395.8438,254.8022,385.8438,250.8022,389.8438" style="stroke:#181818;stroke-width:1;"></polygon><line style="stroke:#181818;stroke-width:1;" x1="250.8022" x2="250.8022" y1="429.8125" y2="449.8125"></line><polygon fill="#181818" points="246.8022,439.8125,250.8022,449.8125,254.8022,439.8125,250.8022,443.8125" style="stroke:#181818;stroke-width:1;"></polygon><line style="stroke:#181818;stroke-width:1;" x1="250.8022" x2="250.8022" y1="483.7813" y2="503.7813"></line><polygon fill="#181818" points="246.8022,493.7813,250.8022,503.7813,254.8022,493.7813,250.8022,497.7813" style="stroke:#181818;stroke-width:1;"></polygon><!--SRC=[ROz1JiD034NtSmelqmKNI1QeeX6RgggeOEzcVeAbp1YD9rN5RH0Bn3boCIOjGWZXZIM_x-zlovooS_LM1udKQL2wHqBCM3gFZPEUgYiz8jpOrC6BrziLvMT4gWuILevArUiEPanA9fOH-5ytZ0QgTlExVc-rPpc20gBnW40UX9IqkK3B-k8GlVGbuPFOnAEySg9jES2BzD6c-Ir9aTTtxDboAdId9_rDMY_bITgmL_kpz82W9wIV4NcbmpLzeHlq4YLHk_Zc-NCGlXZi4phffUFve_pHEEUMe5y0]--></g></svg>