<svg xmlns="http://www.w3.org/2000/svg" xmlns:xlink="http://www.w3.org/1999/xlink" contentstyletype="text/css" data-diagram-type="ACTIVITY" height="482px" preserveAspectRatio="none" style="width:440px;height:482px;background:#FFFFFF;" version="1.1" viewBox="0 0 440 482" width="440px" zoomAndPan="magnify"><defs></defs><g><ellipse cx="234.2568" cy="20" fill="#222222" rx="10" ry="10" style="stroke:#222222;stroke-width:1;"></ellipse><rect fill="#F1F1F1" height="33.9688" rx="12.5" ry="12.5" style="stroke:#181818;stroke-width:0.5;" width="155.9316" x="156.291" y="50"></rect><text fill="#000000" font-family="sans-serif" font-size="12" lengthAdjust="spacing" textLength="135.9316" x="166.291" y="71.1387">Login como Estoquista</text><polygon fill="#F1F1F1" points="175.8032,103.9688,292.7104,103.9688,304.7104,115.9688,292.7104,127.9688,175.8032,127.9688,163.8032,115.9688,175.8032,103.9688" style="stroke:#181818;stroke-width:0.5;"></polygon><text fill="#000000" font-family="sans-serif" font-size="11" lengthAdjust="spacing" textLength="116.9072" x="175.8032" y="119.7769">Login bem-sucedido?</text><text fill="#000000" font-family="sans-serif" font-size="11" lengthAdjust="spacing" textLength="20.7539" x="143.0493" y="113.3745">Sim</text><text fill="#000000" font-family="sans-serif" font-size="11" lengthAdjust="spacing" textLength="21.6992" x="304.7104" y="113.3745">Não</text><rect fill="#F1F1F1" height="33.9688" rx="12.5" ry="12.5" style="stroke:#181818;stroke-width:0.5;" width="227.334" x="11" y="137.9688"></rect><text fill="#000000" font-family="sans-serif" font-size="12" lengthAdjust="spacing" textLength="207.334" x="21" y="159.1074">Acessa o sistema como Estoquista</text><rect fill="#F1F1F1" height="33.9688" rx="12.5" ry="12.5" style="stroke:#181818;stroke-width:0.5;" width="171.0254" x="258.334" y="137.9688"></rect><text fill="#000000" font-family="sans-serif" font-size="12" lengthAdjust="spacing" textLength="151.0254" x="268.334" y="159.1074">Exibe mensagem de erro</text><ellipse cx="343.8467" cy="202.9375" fill="#FFFFFF" fill-opacity="0.00000" rx="11" ry="11" style="stroke:#222222;stroke-width:1;"></ellipse><ellipse cx="343.8467" cy="202.9375" fill="#222222" rx="6" ry="6" style="stroke:#222222;stroke-width:1;"></ellipse><rect fill="#F1F1F1" height="33.9688" rx="12.5" ry="12.5" style="stroke:#181818;stroke-width:0.5;" width="160.0215" x="154.2461" y="233.9375"></rect><text fill="#000000" font-family="sans-serif" font-size="12" lengthAdjust="spacing" textLength="140.0215" x="164.2461" y="255.0762">Registrar Novo Produto</text><rect fill="#F1F1F1" height="33.9688" rx="12.5" ry="12.5" style="stroke:#181818;stroke-width:0.5;" width="220.5723" x="123.9707" y="287.9063"></rect><text fill="#000000" font-family="sans-serif" font-size="12" lengthAdjust="spacing" textLength="200.5723" x="133.9707" y="309.0449">Atualizar Informações do Produto</text><rect fill="#F1F1F1" height="33.9688" rx="12.5" ry="12.5" style="stroke:#181818;stroke-width:0.5;" width="200.7793" x="133.8672" y="341.875"></rect><text fill="#000000" font-family="sans-serif" font-size="12" lengthAdjust="spacing" textLength="180.7793" x="143.8672" y="363.0137">Remover Produto do Catálogo</text><rect fill="#F1F1F1" height="33.9688" rx="12.5" ry="12.5" style="stroke:#181818;stroke-width:0.5;" width="311.0176" x="78.748" y="395.8438"></rect><text fill="#000000" font-family="sans-serif" font-size="12" lengthAdjust="spacing" textLength="291.0176" x="88.748" y="416.9824">Registrar Recebimentos de Produtos no Estoque</text><ellipse cx="234.2568" cy="460.8125" fill="#FFFFFF" fill-opacity="0.00000" rx="11" ry="11" style="stroke:#222222;stroke-width:1;"></ellipse><ellipse cx="234.2568" cy="460.8125" fill="#222222" rx="6" ry="6" style="stroke:#222222;stroke-width:1;"></ellipse><line style="stroke:#181818;stroke-width:1;" x1="234.2568" x2="234.2568" y1="30" y2="50"></line><polygon fill="#181818" points="230.2568,40,234.2568,50,238.2568,40,234.2568,44" style="stroke:#181818;stroke-width:1;"></polygon><line style="stroke:#181818;stroke-width:1;" x1="343.8467" x2="343.8467" y1="171.9375" y2="191.9375"></line><polygon fill="#181818" points="339.8467,181.9375,343.8467,191.9375,347.8467,181.9375,343.8467,185.9375" style="stroke:#181818;stroke-width:1;"></polygon><line style="stroke:#181818;stroke-width:1;" x1="163.8032" x2="124.667" y1="115.9688" y2="115.9688"></line><line style="stroke:#181818;stroke-width:1;" x1="124.667" x2="124.667" y1="115.9688" y2="137.9688"></line><polygon fill="#181818" points="120.667,127.9688,124.667,137.9688,128.667,127.9688,124.667,131.9688" style="stroke:#181818;stroke-width:1;"></polygon><line style="stroke:#181818;stroke-width:1;" x1="304.7104" x2="343.8467" y1="115.9688" y2="115.9688"></line><line style="stroke:#181818;stroke-width:1;" x1="343.8467" x2="343.8467" y1="115.9688" y2="137.9688"></line><polygon fill="#181818" points="339.8467,127.9688,343.8467,137.9688,347.8467,127.9688,343.8467,131.9688" style="stroke:#181818;stroke-width:1;"></polygon><line style="stroke:#181818;stroke-width:1;" x1="124.667" x2="124.667" y1="171.9375" y2="218.9375"></line><line style="stroke:#181818;stroke-width:1;" x1="124.667" x2="234.2568" y1="218.9375" y2="218.9375"></line><line style="stroke:#181818;stroke-width:1;" x1="234.2568" x2="234.2568" y1="218.9375" y2="233.9375"></line><polygon fill="#181818" points="230.2568,223.9375,234.2568,233.9375,238.2568,223.9375,234.2568,227.9375" style="stroke:#181818;stroke-width:1;"></polygon><line style="stroke:#181818;stroke-width:1;" x1="234.2568" x2="234.2568" y1="83.9688" y2="103.9688"></line><polygon fill="#181818" points="230.2568,93.9688,234.2568,103.9688,238.2568,93.9688,234.2568,97.9688" style="stroke:#181818;stroke-width:1;"></polygon><line style="stroke:#181818;stroke-width:1;" x1="234.2568" x2="234.2568" y1="267.9063" y2="287.9063"></line><polygon fill="#181818" points="230.2568,277.9063,234.2568,287.9063,238.2568,277.9063,234.2568,281.9063" style="stroke:#181818;stroke-width:1;"></polygon><line style="stroke:#181818;stroke-width:1;" x1="234.2568" x2="234.2568" y1="321.875" y2="341.875"></line><polygon fill="#181818" points="230.2568,331.875,234.2568,341.875,238.2568,331.875,234.2568,335.875" style="stroke:#181818;stroke-width:1;"></polygon><line style="stroke:#181818;stroke-width:1;" x1="234.2568" x2="234.2568" y1="375.8438" y2="395.8438"></line><polygon fill="#181818" points="230.2568,385.8438,234.2568,395.8438,238.2568,385.8438,234.2568,389.8438" style="stroke:#181818;stroke-width:1;"></polygon><line style="stroke:#181818;stroke-width:1;" x1="234.2568" x2="234.2568" y1="429.8125" y2="449.8125"></line><polygon fill="#181818" points="230.2568,439.8125,234.2568,449.8125,238.2568,439.8125,234.2568,443.8125" style="stroke:#181818;stroke-width:1;"></polygon><!--SRC=[POz1QiD034NtSmejdKKlO2zAA5aKIYZk2MJFjolmZDhHE9JS9dJH4_G4lbZ7JGo5Qgcd_tcop2axLp_fA95w3Ke7o_e-YsLkd0nKNL67S6Tp3ozUxtUKNn6fUf6mSrIctlSmOrAo4aJW_rMO35GTbq-zHGuVqe42el68G1w4bBJvXINtvX2z3CMjnLWg4YSwwadfEQcVSpciztdcISu5FCP1K-3bQ_c6aVzxr2Be2MdRhF21ytAPTBpYhRn5ZqwAJrPRRMu1exWzWiQvrUm7]--></g></svg>